<?xml version="1.0" standalone="no"?>
<!DOCTYPE svg PUBLIC "-//W3C//DTD SVG 20010904//EN"
 "http://www.w3.org/TR/2001/REC-SVG-20010904/DTD/svg10.dtd">
<svg version="1.0" xmlns="http://www.w3.org/2000/svg"
 width="512.000000pt" height="512.000000pt" viewBox="0 0 512.000000 512.000000"
 preserveAspectRatio="xMidYMid meet">

<g transform="translate(0.000000,512.000000) scale(0.100000,-0.100000)"
fill="#000000" stroke="none">
<path d="M0 3693 l0 -1428 25 -1 c14 -1 25 3 25 9 0 5 10 2 21 -9 22 -19 22
-19 10 4 -15 29 -6 44 22 37 19 -5 19 -4 -3 10 l-25 15 28 -6 c22 -5 26 -3 21
10 -4 11 -1 16 11 16 9 0 13 5 10 10 -3 6 -2 10 4 10 5 0 14 -7 19 -16 6 -10
14 -14 22 -9 10 6 8 10 -5 17 -15 9 -15 11 6 22 24 13 26 18 14 49 -4 10 -3
17 5 17 6 0 8 -5 4 -11 -4 -7 -1 -10 7 -7 8 3 21 2 30 -3 12 -6 19 -2 27 16 7
14 16 25 22 25 5 0 10 7 10 15 0 26 -21 16 -31 -15 -12 -32 -29 -41 -29 -15 0
9 12 26 27 39 25 22 29 22 40 7 11 -15 14 -14 35 7 15 15 17 21 7 17 -10 -4
-19 0 -22 9 -4 11 -1 13 10 9 10 -4 14 -2 9 5 -3 6 -1 14 5 17 5 4 8 14 4 22
-4 13 -3 13 9 4 11 -9 19 -7 40 12 14 13 26 29 26 34 0 16 37 45 44 34 4 -5
-3 -12 -14 -16 -22 -7 -28 -27 -8 -23 7 2 12 -3 10 -10 -1 -8 2 -11 8 -7 6 4
9 10 6 13 -4 3 1 16 9 29 9 14 11 23 5 23 -6 0 -8 5 -5 10 5 8 11 8 20 0 9 -8
15 -8 20 0 3 6 11 7 17 4 7 -5 8 -2 3 6 -4 7 -2 16 6 21 9 6 10 9 2 9 -6 0
-18 -9 -26 -21 l-15 -21 -7 22 c-4 12 -4 24 -1 27 3 4 6 0 6 -8 0 -11 2 -11 9
-1 4 7 14 14 22 15 8 2 25 10 39 20 24 16 24 17 5 32 -20 14 -20 14 0 11 11
-2 29 0 40 5 11 4 14 8 8 8 -7 1 -13 5 -13 11 0 5 8 6 17 3 12 -5 15 -2 10 10
-3 9 -2 17 3 17 6 0 10 -6 10 -12 1 -7 7 -2 15 12 8 14 14 21 15 16 0 -5 6 -3
13 3 8 6 17 7 22 3 4 -4 0 6 -10 21 -10 15 -15 30 -11 34 3 3 6 1 6 -5 0 -6
10 -17 22 -23 22 -12 22 -12 6 13 -16 25 -16 26 9 37 14 6 23 17 20 25 -5 12
5 16 45 17 9 0 22 7 28 15 13 15 34 9 25 -7 -4 -5 2 -9 11 -9 14 0 15 3 6 12
-18 18 -15 26 19 43 17 9 28 19 26 22 -3 3 -20 -5 -38 -17 -29 -21 -31 -22
-21 -3 8 15 8 23 -1 33 -9 9 -6 9 10 -1 20 -12 25 -11 40 4 12 11 13 17 5 17
-7 0 -10 5 -7 11 4 6 9 8 12 5 3 -3 15 0 27 6 11 7 30 13 40 15 27 5 33 13 17
22 -10 6 -10 10 -1 16 6 4 9 14 5 22 -5 13 -3 14 10 3 12 -10 13 -15 4 -21 -9
-5 -8 -12 6 -25 17 -17 17 -17 11 4 -5 14 -3 22 4 22 7 0 5 6 -4 16 -9 8 -16
21 -16 27 0 8 3 7 9 -2 5 -7 14 -10 20 -7 6 4 9 12 6 17 -4 5 4 24 17 42 13
17 22 33 20 35 -7 7 0 22 8 17 6 -4 8 -15 5 -25 -3 -10 -2 -21 3 -24 5 -3 8 9
7 27 -2 18 2 38 7 45 7 8 7 12 -1 12 -6 0 -11 -5 -11 -12 0 -6 -3 -8 -7 -4 -4
4 5 18 20 32 15 14 27 30 27 36 0 7 5 6 14 -2 12 -9 18 -4 35 31 24 50 25 53
9 43 -8 -5 -9 -2 -5 10 4 10 7 20 7 22 0 2 5 4 11 4 17 0 36 24 31 39 -3 8 0
11 7 7 11 -7 13 -1 15 69 0 22 5 43 10 47 5 3 -3 23 -19 43 -28 37 -28 38 -21
143 5 89 11 116 35 167 17 33 42 73 56 88 23 24 26 34 20 66 -6 34 -2 43 40
97 25 32 60 77 76 99 34 45 153 153 213 194 21 14 50 34 65 44 14 9 42 22 62
28 20 6 55 28 78 49 66 61 122 82 241 91 58 4 157 13 222 19 126 12 306 2 440
-24 40 -7 89 -14 108 -15 63 -3 263 -82 247 -97 -2 -2 -19 2 -38 10 -19 7 -45
17 -59 21 -23 7 -23 6 6 -19 31 -26 94 -114 94 -132 0 -5 -16 14 -35 43 -33
49 -95 107 -104 97 -3 -2 15 -26 40 -51 36 -39 33 -38 -18 10 -58 54 -95 78
-60 39 30 -33 18 -34 -27 -2 -51 35 -67 39 -41 10 17 -18 15 -18 -26 2 -24 12
-60 25 -79 29 -19 4 -71 17 -115 29 -92 26 -313 34 -356 13 -13 -6 -76 -16
-139 -22 -63 -6 -128 -14 -145 -17 -29 -5 -29 -5 -11 10 25 20 12 20 -48 0
-26 -9 -63 -32 -81 -50 -19 -18 -63 -47 -98 -64 -94 -44 -202 -124 -242 -178
-53 -72 -42 -72 33 -1 60 58 130 112 172 133 8 4 -3 -7 -25 -25 -74 -60 -186
-179 -180 -189 6 -10 -69 -150 -80 -150 -2 0 3 16 11 35 21 52 -5 36 -39 -24
-27 -50 -35 -91 -17 -91 6 0 10 6 10 14 0 8 5 18 11 21 7 5 9 -8 5 -41 l-6
-49 28 70 c58 144 111 240 154 281 103 98 210 175 224 161 8 -8 -30 -42 -71
-62 -16 -8 -57 -40 -90 -71 l-60 -55 65 46 65 47 -54 -53 c-55 -55 -172 -223
-218 -313 -17 -33 -24 -60 -21 -83 3 -26 1 -32 -10 -28 -8 3 -12 0 -9 -7 2 -7
11 -12 21 -10 9 2 16 -2 16 -8 0 -6 -4 -8 -10 -5 -14 9 -13 -8 2 -23 7 -7 8
-12 3 -12 -13 0 -73 69 -81 92 -5 15 -12 10 -47 -31 -23 -28 -43 -46 -45 -41
-2 6 11 35 28 65 18 31 30 58 28 60 -5 6 -71 -82 -92 -124 -21 -40 -14 -75 9
-45 13 17 14 16 10 -15 -3 -19 -9 -39 -15 -45 -5 -5 -10 -28 -9 -51 l1 -40 19
58 c27 83 89 167 123 167 14 0 3 -30 -30 -80 -41 -62 -64 -105 -64 -118 0 -5
13 -12 29 -15 24 -5 28 -10 24 -27 -6 -21 -23 -28 -23 -8 0 6 -3 8 -7 5 -3 -4
-12 1 -19 11 -12 15 -15 15 -24 2 -13 -21 -9 -29 25 -48 17 -9 32 -18 34 -20
3 -1 -2 -8 -11 -15 -26 -20 -38 -75 -45 -199 -7 -141 10 -310 37 -348 9 -14
20 -35 24 -47 4 -12 16 -25 27 -28 20 -7 20 -7 2 -21 -17 -13 -17 -14 2 -27
11 -6 31 -15 45 -18 22 -5 23 -7 7 -14 -24 -10 -69 23 -77 55 -3 13 -12 26
-19 28 -19 6 -6 -29 40 -111 22 -38 39 -75 39 -83 0 -25 -16 -15 -28 19 -6 18
-18 42 -27 52 -11 15 -10 6 4 -35 11 -30 27 -102 36 -160 34 -223 35 -227 81
-298 38 -58 44 -74 44 -121 l0 -54 -27 24 -27 24 24 -40 c16 -29 24 -60 27
-114 3 -46 9 -79 19 -88 18 -18 18 -24 -1 -17 -19 8 -19 -9 1 -71 50 -152 102
-277 133 -316 17 -21 36 -50 43 -66 7 -15 18 -32 25 -36 7 -4 13 -13 13 -19 0
-7 -4 -7 -13 1 -8 6 -17 8 -20 4 -4 -3 -7 -135 -7 -292 0 -315 -14 -491 -39
-491 -21 0 -32 62 -32 175 l1 120 -19 -31 c-38 -63 -134 -113 -148 -78 -4 12
8 29 43 59 l49 42 -55 -9 c-70 -13 -143 -45 -171 -74 -12 -13 -29 -51 -38 -85
-17 -68 -36 -86 -47 -45 -4 17 0 35 11 52 9 14 15 29 13 35 -7 21 -90 -52
-148 -131 -76 -103 -69 -95 -76 -87 -3 3 8 31 26 62 18 31 30 59 26 62 -8 8
-57 -24 -84 -56 -47 -53 -106 -135 -149 -210 -25 -42 -54 -85 -66 -95 -19 -19
-20 -19 -33 -1 -13 17 -5 49 15 65 32 25 144 209 119 194 -27 -16 -162 -129
-234 -195 -86 -80 -122 -93 -49 -18 45 45 47 49 20 37 -83 -35 -304 -148 -310
-157 -4 -7 5 -11 24 -11 37 0 41 -15 6 -24 -14 -4 -25 -13 -25 -20 0 -16 27
-29 41 -20 5 3 9 0 9 -5 0 -6 -9 -16 -19 -23 -10 -6 -17 -18 -14 -25 3 -7 0
-13 -7 -13 -6 0 -8 -5 -4 -12 5 -8 0 -9 -15 -5 -21 5 -22 5 -6 -19 16 -25 8
-33 -13 -12 -20 20 -24 1 -5 -29 17 -28 17 -28 -2 -13 -11 8 -23 19 -27 25 -4
5 -10 6 -14 3 -3 -4 1 -14 10 -23 9 -9 16 -19 16 -21 0 -12 -26 -30 -38 -26
-16 5 -16 -10 1 -27 10 -11 9 -13 -6 -8 -15 6 -16 3 -7 -13 13 -24 13 -40 0
-20 -9 13 -10 13 -11 0 -1 -8 -1 -19 0 -23 1 -5 -3 -6 -9 -2 -5 3 -10 -1 -10
-10 0 -9 -4 -13 -10 -10 -5 3 -10 -1 -10 -9 0 -14 -12 -20 -32 -17 -5 0 -8 -4
-8 -9 0 -7 193 -10 574 -10 563 1 575 1 581 20 4 11 11 20 18 20 8 0 8 -3 -1
-12 -21 -21 -13 -29 23 -25 40 4 87 36 80 54 -7 19 2 16 25 -9 22 -24 41 -18
20 7 -15 18 -4 20 14 2 7 -7 11 -18 10 -25 -1 -7 0 -8 2 -3 3 6 13 8 22 5 13
-4 13 -2 -3 11 -17 13 -18 17 -5 25 9 6 16 6 18 0 2 -6 12 -5 25 2 30 16 57
20 57 8 0 -9 -14 -14 -32 -11 -5 0 -8 -5 -8 -13 0 -9 7 -12 20 -9 11 3 20 9
20 14 0 5 8 6 18 2 14 -5 15 -3 5 8 -19 20 -16 27 12 27 14 0 25 -4 25 -9 0
-5 -4 -9 -10 -9 -5 0 -10 -5 -10 -11 0 -6 7 -9 15 -6 8 4 17 1 21 -5 4 -7 9
-6 15 3 7 11 17 5 45 -25 28 -31 38 -36 45 -25 6 9 12 10 17 4 4 -6 78 -11
177 -12 l170 -2 -55 23 c-136 57 -163 86 -34 37 92 -35 194 -65 200 -59 2 3
-22 15 -54 28 -31 12 -62 29 -68 36 -6 8 -14 11 -18 7 -4 -4 -4 1 0 11 5 12 9
14 14 6 5 -9 9 -9 14 -1 4 6 4 11 0 11 -3 0 -1 7 6 15 6 8 8 19 4 26 -4 7 -2
10 7 7 8 -3 21 4 30 14 11 12 26 17 40 14 13 -2 60 -12 104 -21 159 -34 451
-6 640 62 156 56 367 177 457 262 21 19 40 32 43 29 3 -2 -24 -32 -59 -66 -35
-34 -58 -63 -52 -66 16 -6 -15 -27 -32 -21 -8 3 -10 0 -6 -6 4 -6 0 -15 -7
-20 -7 -4 -10 -11 -6 -15 4 -4 15 2 24 13 10 11 29 26 42 33 22 11 27 10 43
-10 24 -30 23 -35 -14 -63 -47 -34 -58 -40 -58 -28 0 6 7 11 15 11 8 0 15 5
15 10 0 6 11 15 25 22 13 6 22 15 18 21 -3 5 -8 5 -12 0 -3 -5 -24 -19 -45
-32 -31 -17 -41 -19 -47 -9 -6 9 -9 9 -9 1 0 -6 7 -18 15 -26 8 -8 11 -17 8
-20 -3 -3 -12 1 -21 9 -12 13 -16 13 -23 2 -7 -11 -12 -11 -31 1 -20 13 -22
13 -10 -1 10 -13 9 -18 -3 -28 -13 -11 -20 -9 -42 11 l-26 24 16 -25 c22 -31
22 -46 0 -29 -14 12 -16 12 -11 -1 5 -16 -47 -45 -63 -35 -4 3 -6 -4 -4 -15 3
-15 -3 -24 -22 -31 -14 -5 -28 -7 -31 -4 -3 3 0 5 6 5 7 0 12 4 12 9 0 11 -83
-19 -88 -31 -2 -5 -8 -6 -13 -2 -5 3 -9 0 -9 -7 0 -8 -4 -8 -15 1 -12 10 -15
9 -15 -5 0 -14 -3 -15 -15 -5 -11 9 -15 9 -15 1 0 -7 -4 -9 -10 -6 -5 3 -10 2
-10 -4 0 -11 -38 -26 -57 -23 -7 2 -13 -2 -13 -7 0 -6 -7 -8 -15 -5 -8 4 -15
1 -15 -5 0 -14 -4 -15 113 14 148 37 222 63 312 108 218 108 389 260 467 412
64 125 98 230 98 304 0 34 4 61 8 61 21 0 32 -29 32 -87 0 -49 3 -63 15 -63
15 0 150 -69 195 -100 14 -9 54 -32 90 -50 112 -56 121 -62 127 -76 3 -8 14
-14 24 -14 10 0 19 -4 19 -10 0 -5 -6 -7 -13 -4 -8 3 -13 -3 -13 -15 0 -10 6
-17 12 -14 7 2 15 0 19 -6 3 -6 0 -9 -8 -6 -7 3 -22 -4 -32 -15 -16 -18 -17
-20 -2 -14 12 4 17 1 17 -10 0 -9 -7 -16 -15 -16 -8 0 -15 -3 -15 -7 1 -12 26
-43 32 -38 3 4 26 -2 88 -20 3 -1 12 -5 21 -9 9 -4 20 -6 25 -5 5 1 23 -3 39
-10 17 -7 38 -14 47 -16 9 -2 39 -14 65 -26 26 -12 52 -21 56 -20 8 1 37 -23
37 -32 0 -2 -12 -3 -27 -1 l-27 3 30 -25 c16 -14 39 -32 51 -40 13 -9 23 -21
23 -26 0 -5 -7 -2 -16 6 -8 9 -20 14 -25 11 -12 -8 -12 -16 0 -13 12 4 52 -43
45 -53 -3 -5 0 -9 5 -9 15 0 14 -27 -1 -32 -9 -3 -9 -6 0 -12 7 -4 12 -2 12 3
0 6 7 11 16 11 11 0 14 -6 8 -22 -6 -21 -6 -21 10 -5 9 9 24 13 33 10 14 -6
14 -8 -2 -19 -17 -13 -17 -14 0 -21 11 -4 20 -2 23 5 2 7 8 12 14 12 6 0 8 -6
5 -14 -5 -11 16 -14 114 -15 l120 -2 -3 113 -3 113 -50 24 c-97 46 -121 55
-107 39 32 -39 -36 -17 -92 29 -16 13 -50 35 -75 49 -25 13 -75 43 -110 65
-36 23 -126 69 -200 103 -323 149 -454 219 -508 273 -29 28 -53 57 -53 63 0
10 175 -77 320 -160 146 -83 308 -164 550 -275 267 -123 330 -149 330 -137 0
4 -78 41 -172 81 -189 81 -337 155 -733 365 -232 124 -301 163 -490 280 -28
18 -65 32 -86 33 -63 2 -143 55 -177 118 -11 20 -11 20 -12 -1 0 -22 39 -62
117 -118 28 -20 66 -53 83 -73 29 -32 32 -41 26 -78 -10 -78 -65 -230 -105
-290 -82 -124 -211 -230 -386 -318 -158 -78 -437 -140 -635 -140 -112 -1 -133
2 -209 29 -47 16 -87 35 -89 41 -4 13 76 53 106 53 9 0 33 14 52 30 19 17 49
36 67 42 20 7 36 22 41 37 6 14 42 62 81 106 40 44 76 89 81 101 4 11 32 52
61 90 29 38 73 105 99 149 25 44 78 127 116 183 38 57 74 111 79 120 6 10 30
43 55 76 68 88 86 119 72 124 -7 2 -12 13 -12 24 0 21 1 20 20 -2 19 -22 20
-23 20 -2 0 11 3 22 8 24 8 3 165 210 234 308 54 76 113 229 128 326 5 38 11
110 13 161 3 83 7 95 33 130 l29 38 -33 -24 -33 -23 7 63 c6 52 14 72 49 118
23 31 52 74 64 96 21 37 21 38 2 15 -12 -14 -37 -49 -57 -77 -19 -29 -37 -53
-39 -53 -2 0 -4 19 -4 43 1 23 0 75 -1 116 -1 71 10 106 24 82 12 -18 23 -13
35 17 14 32 1 79 -23 88 -8 3 -19 19 -25 35 -9 27 -8 29 14 29 25 0 77 58 90
101 10 31 28 22 22 -11 -12 -55 10 -31 28 32 9 34 20 69 23 77 6 20 -61 -46
-76 -74 -7 -12 -12 -14 -12 -6 0 7 -6 11 -15 7 -23 -9 -18 1 22 45 21 23 42
47 46 55 4 8 15 14 23 14 17 0 51 73 36 78 -5 1 -1 20 9 43 17 34 19 61 18
205 0 139 -3 165 -15 160 -8 -3 -22 -9 -31 -13 -12 -5 -8 6 13 32 17 22 36 54
42 70 6 17 11 23 11 13 3 -52 52 24 53 81 0 30 -49 181 -64 196 -7 7 -8 -4 -3
-32 8 -48 2 -53 -26 -20 -19 23 -26 52 -9 42 14 -9 2 21 -37 87 -35 59 -87
108 -117 108 -9 0 -19 6 -22 13 -2 7 -19 14 -37 15 l-32 2 35 -22 c34 -22 34
-22 11 -26 -21 -3 -17 -8 29 -33 30 -16 59 -28 64 -26 6 3 -5 11 -24 20 -25
11 -29 16 -15 16 24 0 44 -14 73 -56 35 -50 26 -53 -44 -18 -37 19 -73 31 -82
28 -12 -5 -11 -8 5 -14 12 -4 23 -12 27 -17 7 -12 -48 -51 -84 -58 -44 -9 -37
-24 13 -25 72 -2 91 2 112 22 l20 20 -20 -7 c-16 -5 -18 -4 -8 6 8 9 16 9 30
1 10 -6 14 -11 8 -11 -5 0 -3 -5 5 -11 13 -9 13 -10 -2 -6 -9 3 -28 -3 -41
-14 -15 -11 -41 -19 -64 -20 -33 0 -35 -2 -15 -9 43 -18 21 -29 -65 -32 -86
-3 -147 3 -128 13 6 3 29 11 53 19 52 16 54 37 5 46 l-36 7 36 15 c39 15 49
32 20 32 -15 0 -16 2 -3 10 8 5 26 6 39 3 15 -4 22 -2 18 4 -4 6 -24 14 -44
18 l-38 8 40 8 c22 4 60 8 85 9 l45 1 -77 25 c-43 14 -78 29 -78 34 0 15 51
70 66 70 8 0 14 5 14 10 0 6 12 10 26 10 l26 0 -27 32 c-31 37 -21 47 25 23
54 -28 42 -11 -18 25 -69 41 -54 51 22 15 51 -24 93 -65 66 -65 -18 0 -11 -15
25 -56 l35 -39 0 36 c0 22 -11 53 -31 85 l-31 49 37 -35 c45 -43 75 -99 75
-141 0 -21 11 -46 33 -73 19 -23 54 -77 78 -121 41 -74 44 -85 43 -150 -1 -49
-8 -85 -23 -120 -13 -27 -24 -59 -26 -70 -2 -11 -7 -30 -10 -41 -4 -12 -2 -25
4 -28 6 -4 11 -16 11 -27 0 -10 4 -19 8 -19 4 0 8 -16 8 -36 0 -20 6 -39 15
-45 12 -7 12 -9 -1 -9 -13 -1 -13 -2 0 -13 9 -7 14 -20 12 -29 -2 -13 1 -16
12 -12 13 5 15 2 9 -12 -3 -11 -11 -22 -17 -26 -6 -4 -1 -8 12 -8 12 0 22 -4
22 -10 0 -5 -4 -10 -10 -10 -5 0 -10 -4 -10 -10 0 -5 7 -7 15 -3 9 3 15 2 14
-3 -1 -5 -1 -17 0 -28 1 -15 4 -16 16 -6 13 11 14 10 9 -4 -4 -9 -1 -16 6 -16
9 0 9 -4 -1 -17 -12 -15 -12 -16 4 -10 10 4 16 3 13 -2 -3 -5 5 -12 19 -15 16
-4 22 -11 19 -21 -4 -8 -1 -15 6 -15 9 0 10 -3 1 -14 -9 -11 -6 -13 14 -11 22
3 24 1 14 -17 -7 -14 -8 -23 -1 -30 6 -6 8 -16 5 -23 -2 -7 5 -16 16 -20 13
-4 18 -12 15 -23 -5 -15 -4 -15 5 -2 10 13 12 13 21 0 5 -8 10 -11 10 -7 0 5
12 0 28 -11 39 -27 64 -35 72 -22 5 8 9 6 13 -5 4 -9 3 -13 -2 -10 -5 3 -12 1
-16 -5 -3 -5 1 -10 9 -10 16 0 22 -25 9 -33 -5 -2 -3 -2 4 -1 6 2 14 -4 17
-12 3 -8 12 -14 20 -14 8 0 18 -5 22 -12 4 -7 3 -8 -4 -4 -8 5 -10 2 -6 -8 3
-9 13 -16 21 -16 10 0 13 -6 8 -17 -5 -14 -3 -15 5 -7 9 9 9 17 0 34 -7 12 -8
20 -2 16 5 -3 15 -19 22 -36 7 -16 17 -30 22 -30 5 0 6 -5 2 -12 -4 -7 -3 -8
4 -4 6 4 9 13 6 20 -3 8 -1 17 5 21 7 4 8 0 4 -11 -5 -13 -3 -15 7 -9 9 5 11
4 6 -3 -4 -7 -4 -18 1 -24 4 -7 9 -22 10 -32 2 -11 6 -22 10 -25 3 -3 3 4 0
17 -3 12 -1 22 5 22 5 0 6 10 3 23 -5 17 -4 19 4 7 6 -8 8 -25 4 -37 -3 -14
-1 -23 6 -23 6 0 11 -6 11 -13 0 -7 9 -18 20 -25 11 -7 20 -8 20 -3 0 5 -7 11
-15 15 -8 3 -15 10 -15 16 0 6 7 4 16 -4 18 -19 31 -20 36 -4 3 7 7 5 11 -6 4
-9 3 -15 -2 -12 -5 3 -11 -1 -15 -9 -3 -8 -2 -14 2 -14 18 3 32 -2 32 -12 0
-5 -4 -7 -10 -4 -21 13 5 -30 34 -56 20 -19 38 -26 50 -22 15 4 18 1 14 -15
-3 -11 -2 -26 3 -33 8 -12 11 -12 18 1 6 8 13 11 18 7 4 -5 1 -12 -7 -18 -13
-8 -13 -10 0 -18 9 -7 17 -6 21 1 4 7 9 7 13 -1 4 -6 4 -16 1 -21 -3 -5 -1
-10 4 -10 6 0 11 6 11 13 1 28 20 -20 21 -53 2 -30 3 -31 6 -7 5 31 12 33 39
11 16 -13 16 -15 2 -10 -22 7 -34 -12 -19 -27 9 -9 11 -8 5 6 -6 17 -5 17 24
0 23 -13 28 -21 20 -30 -13 -17 4 -17 20 -1 10 10 14 8 18 -9 4 -14 11 -19 25
-16 23 6 24 -4 3 -28 -12 -14 -13 -18 -2 -25 7 -4 10 -4 6 1 -7 7 14 35 26 35
12 0 6 -28 -6 -33 -10 -3 -10 -7 1 -20 14 -18 31 -14 31 6 0 8 -3 8 -9 -2 -6
-9 -11 -10 -15 -2 -4 6 1 14 11 18 10 3 21 8 25 10 4 2 5 -4 1 -13 -4 -11 -3
-15 4 -11 7 4 16 -6 22 -24 7 -20 16 -29 25 -26 10 4 12 -1 9 -16 -3 -13 -1
-18 4 -11 4 6 19 15 33 19 24 7 24 7 -5 -19 -23 -20 -26 -26 -12 -26 9 0 17 5
17 11 0 6 6 9 13 6 6 -2 11 -10 10 -16 -2 -6 1 -11 7 -11 6 0 10 516 10 1470
l0 1470 -2560 0 -2560 0 0 -1427z m2637 1061 c-3 -3 -12 -4 -19 -1 -8 3 -5 6
6 6 11 1 17 -2 13 -5z m128 -50 c30 -21 5 -16 -35 7 -26 15 -29 18 -10 13 14
-4 34 -13 45 -20z m-835 -78 c0 -2 -7 -7 -16 -10 -8 -3 -12 -2 -9 4 6 10 25
14 25 6z m1317 -91 c18 -35 9 -27 -37 35 -31 41 -32 43 -6 20 15 -14 35 -38
43 -55z m119 33 c53 -39 104 -92 105 -108 1 -8 4 -5 7 8 4 13 12 23 17 22 18
-1 5 -230 -16 -275 -19 -42 -22 -40 -20 10 l1 30 -14 -25 c-14 -23 -15 -23
-17 -5 -1 17 -2 16 -9 -5 -7 -21 -8 -22 -10 -5 -1 16 -4 14 -15 -10 l-14 -30
-1 35 c-1 34 -2 33 -20 -20 l-19 -55 -1 80 c-2 78 -2 79 -12 35 -10 -47 -28
-77 -28 -48 0 9 -6 29 -14 45 -8 15 -18 42 -24 58 -5 17 -13 39 -16 50 -4 11
5 0 19 -25 l26 -45 -5 35 c-2 19 -7 43 -11 53 -4 9 -3 17 3 17 5 0 15 -14 22
-30 20 -47 23 -28 6 36 -13 51 -13 56 -1 40 17 -23 55 -120 55 -141 0 -8 5
-17 10 -20 6 -4 10 5 10 19 0 14 4 26 9 26 4 0 7 14 5 30 -2 17 0 30 5 30 33
0 1 103 -52 166 -42 49 -32 60 19 22z m-445 -5 c13 -16 12 -17 -3 -4 -17 13
-22 21 -14 21 2 0 10 -8 17 -17z m-131 -18 c7 -9 8 -15 2 -15 -5 0 -12 7 -16
15 -3 8 -4 15 -2 15 2 0 9 -7 16 -15z m-73 -20 c-6 17 -3 16 14 -5 25 -30 49
-32 68 -6 13 18 16 17 48 -20 l35 -39 -23 40 -23 40 42 -45 c39 -42 129 -207
118 -217 -2 -3 -12 9 -21 26 -18 36 -30 41 -19 9 5 -18 0 -15 -22 12 -16 19
-28 37 -27 40 1 3 -8 7 -19 7 -19 2 -19 1 -3 -18 16 -17 8 -29 -9 -12 -11 12
-36 12 -36 0 0 -6 9 -30 21 -54 30 -61 21 -88 -12 -37 -14 21 -64 82 -110 134
-117 132 -122 140 -79 110 l35 -24 -25 29 -25 29 27 -17 c37 -23 41 -21 21 11
l-17 27 24 -20 23 -20 -6 20z m373 -45 c17 27 90 -82 90 -134 0 -36 -10 -32
-49 20 -20 26 -40 43 -47 40 -7 -3 -16 0 -20 6 -4 7 -3 8 4 4 7 -4 12 -3 12 3
0 5 -9 9 -20 8 -23 -1 -25 -8 -8 -25 6 -6 9 -14 6 -17 -6 -7 -98 105 -98 119
0 5 11 -1 25 -14 27 -25 35 -19 10 7 -9 8 -13 18 -10 22 4 3 15 -4 25 -16 25
-32 34 -29 13 5 -17 26 -16 26 21 -6 27 -24 41 -30 46 -22z m251 23 c13 -16
12 -17 -3 -4 -10 7 -18 15 -18 17 0 8 8 3 21 -13z m-365 -50 c31 -40 75 -123
65 -123 -14 1 -121 160 -107 160 7 0 27 -17 42 -37z m-336 -59 c44 -47 107
-150 97 -160 -2 -3 -23 24 -45 58 -23 35 -69 92 -104 127 -49 51 -55 61 -29
45 18 -10 54 -42 81 -70z m-248 -11 c11 -10 18 -11 23 -3 5 8 13 6 26 -6 20
-18 27 -6 7 14 -17 17 -2 15 30 -5 l27 -17 -25 28 -25 29 23 -12 c34 -18 122
-105 122 -121 0 -9 -10 -4 -27 12 -23 21 -30 24 -40 13 -9 -10 -5 -19 18 -41
16 -15 29 -33 29 -38 -1 -6 -9 -1 -19 12 -11 12 -24 22 -31 22 -6 0 2 -17 19
-37 39 -48 32 -55 -12 -12 -18 19 -62 59 -97 89 -35 30 -82 72 -104 93 l-41
38 40 -22 c22 -13 47 -29 57 -36z m868 -112 c-1 -9 -12 11 -25 43 -14 33 -25
64 -24 70 0 17 49 -95 49 -113z m-1005 91 c-3 -3 -11 0 -18 7 -9 10 -8 11 6 5
10 -3 15 -9 12 -12z m62 -23 c82 -45 102 -61 139 -107 21 -26 30 -40 19 -32
-11 8 -25 22 -32 30 -6 8 -15 12 -19 8 -4 -5 0 -16 9 -26 10 -10 17 -22 17
-27 0 -5 -16 10 -36 33 -19 23 -40 42 -47 42 -6 0 0 -11 13 -25 32 -34 20 -31
-21 5 -20 18 -26 28 -15 24 32 -12 9 14 -32 36 -20 10 -32 19 -27 20 6 0 36
-16 69 -35 32 -20 60 -34 62 -32 4 4 -83 67 -94 67 -10 1 -59 39 -50 40 4 0
24 -9 45 -21z m-612 -8 c-3 -6 -16 -16 -28 -22 -21 -11 -21 -10 2 15 23 25 40
29 26 7z m526 -22 c23 -11 39 -23 36 -25 -4 -4 -73 30 -86 42 -11 10 14 2 50
-17z m56 -81 c56 -58 24 -46 -48 18 -35 31 -66 59 -69 62 -3 3 14 -5 37 -18
23 -13 59 -40 80 -62z m274 65 c13 -16 12 -17 -3 -4 -10 7 -18 15 -18 17 0 8
8 3 21 -13z m-341 -79 c0 -2 -9 0 -20 6 -11 6 -20 13 -20 16 0 2 9 0 20 -6 11
-6 20 -13 20 -16z m975 -4 c3 -5 1 -10 -4 -10 -6 0 -11 5 -11 10 0 6 2 10 4
10 3 0 8 -4 11 -10z m-1115 -71 c0 -5 -5 -9 -11 -9 -5 0 -7 5 -4 10 3 6 1 10
-4 10 -6 0 -11 5 -11 11 0 8 5 8 15 -1 8 -7 15 -16 15 -21z m550 -80 c0 -6 -4
-7 -10 -4 -5 3 -10 11 -10 16 0 6 5 7 10 4 6 -3 10 -11 10 -16z m-593 -5 c-3
-3 -12 -4 -19 -1 -8 3 -5 6 6 6 11 1 17 -2 13 -5z m128 -14 c10 -11 16 -20 13
-20 -3 0 -13 9 -23 20 -10 11 -16 20 -13 20 3 0 13 -9 23 -20z m622 -2 c-3 -8
-6 -5 -6 6 -1 11 2 17 5 13 3 -3 4 -12 1 -19z m-94 -44 c17 -2 28 4 35 19 10
20 11 18 11 -16 1 -34 3 -37 20 -27 11 5 29 10 41 10 12 0 36 10 53 22 32 22
32 22 13 0 -18 -21 -18 -21 6 -18 13 1 30 6 37 10 7 4 15 6 17 3 3 -3 -9 -11
-25 -18 -32 -14 -44 -37 -13 -24 33 14 87 17 122 7 l35 -9 -25 -11 c-23 -10
-22 -11 16 -11 22 -1 66 -6 98 -12 47 -8 66 -7 104 5 55 19 52 19 52 3 0 -7 9
-18 19 -24 11 -7 27 -27 35 -45 28 -62 55 -141 50 -149 -2 -4 1 -11 7 -14 6
-4 8 -18 5 -31 -4 -14 -2 -24 5 -24 6 0 3 -7 -5 -16 -9 -8 -14 -19 -11 -24 3
-5 1 -10 -5 -12 -15 -5 22 -69 50 -87 l24 -16 -18 28 c-23 35 -17 34 38 -4 52
-34 55 -39 24 -32 l-23 5 23 -20 c12 -11 22 -24 22 -28 0 -4 -10 2 -22 14 -13
11 -27 21 -33 21 -5 1 -23 11 -40 23 -42 31 -60 30 -60 -4 0 -15 5 -28 12 -28
6 0 10 9 8 20 -5 25 -6 25 35 -5 19 -14 29 -25 23 -25 -7 0 -15 5 -18 10 -3 6
-11 10 -17 10 -6 0 -5 -7 3 -17 11 -15 11 -16 -1 -6 -10 9 -17 10 -27 2 -16
-14 -17 -29 -2 -29 5 0 7 5 3 11 -4 8 0 8 15 0 23 -13 29 -26 8 -18 -8 3 -20
1 -28 -4 -11 -8 -9 -14 14 -32 15 -13 27 -28 27 -35 0 -6 18 -37 40 -69 44
-65 60 -125 61 -237 0 -39 6 -125 12 -191 15 -152 7 -241 -40 -447 -8 -37 -12
-72 -8 -77 3 -7 0 -8 -10 -5 -11 5 -17 -2 -21 -25 -4 -17 -11 -34 -17 -38 -6
-4 -7 -1 -2 7 5 9 4 11 -3 6 -7 -4 -12 -18 -12 -31 0 -18 -4 -23 -15 -19 -11
5 -15 -1 -15 -19 0 -14 -5 -29 -12 -33 -7 -4 -8 -3 -4 4 4 7 2 20 -3 29 -10
17 -10 16 -11 -3 0 -11 -5 -25 -12 -32 -8 -8 -8 -15 3 -28 12 -16 12 -17 -3
-11 -12 4 -19 0 -23 -14 -5 -14 -12 -18 -27 -13 -17 5 -19 3 -13 -15 4 -12 2
-21 -4 -21 -6 0 -11 6 -11 14 0 8 -7 16 -15 20 -8 3 -15 12 -15 21 0 8 -4 15
-8 15 -5 0 -16 -34 -26 -76 -10 -42 -26 -99 -36 -127 -19 -53 -41 -68 -46 -32
-2 11 -6 38 -9 60 -3 22 -13 50 -21 63 -13 20 -13 22 1 22 9 0 14 4 10 10 -3
5 -13 7 -23 4 -14 -5 -15 -4 -2 5 13 9 10 15 -15 37 -37 32 -85 58 -85 45 0
-5 6 -12 13 -14 7 -3 5 -6 -6 -6 -9 -1 -23 10 -29 24 -6 14 -15 25 -20 25 -10
0 8 -34 37 -70 l20 -25 -27 24 c-16 13 -32 20 -39 16 -7 -5 -10 -4 -5 3 3 6 1
14 -5 18 -8 4 -9 3 -5 -4 4 -7 2 -12 -5 -12 -8 0 -7 -5 2 -17 13 -15 12 -15
-8 -3 -12 8 -19 19 -16 25 4 5 2 7 -2 2 -5 -4 -17 0 -27 10 -11 9 -18 11 -18
5 0 -7 5 -12 11 -12 5 0 7 -5 4 -10 -7 -12 -35 12 -35 30 0 7 -7 10 -14 7 -10
-4 -13 -1 -9 9 3 7 0 14 -6 14 -6 0 -11 -4 -11 -9 0 -5 -11 -4 -25 2 -14 7
-23 18 -20 25 2 6 0 12 -4 12 -16 0 -20 -28 -6 -47 8 -10 15 -22 15 -27 0 -5
-10 4 -22 20 -12 16 -27 32 -32 36 -18 12 -20 -1 -4 -19 25 -30 31 -43 14 -37
-8 3 -17 12 -20 20 -3 9 -10 12 -16 9 -6 -3 -13 1 -16 10 -6 13 -8 14 -15 3
-7 -11 -11 -10 -20 2 -8 11 -12 12 -16 3 -2 -7 -10 -13 -17 -13 -7 0 -18 -10
-25 -22 -7 -14 -9 -15 -6 -5 4 15 1 17 -18 12 -21 -5 -21 -5 -2 7 10 7 44 39
75 70 50 51 107 86 184 112 31 11 -1 36 -46 36 -51 0 -88 -20 -132 -72 -20
-24 -34 -35 -30 -25 3 9 1 17 -4 17 -26 0 -138 78 -179 124 l-45 52 -36 -34
c-32 -31 -37 -32 -42 -16 -6 16 -9 15 -23 -12 -9 -17 -41 -71 -72 -120 -30
-48 -55 -91 -55 -95 0 -3 18 -9 40 -13 41 -6 56 -26 20 -26 -11 0 -20 -5 -20
-11 0 -6 -5 -7 -12 -2 -21 12 -61 3 -86 -20 -12 -12 -39 -53 -58 -92 -32 -61
-35 -65 -30 -32 5 23 3 44 -4 52 -9 11 -28 97 -35 159 -1 11 -11 24 -23 29
-12 6 -22 14 -22 19 0 4 -7 8 -15 8 -10 0 -13 9 -10 30 4 30 -17 52 -40 44
-13 -5 -37 45 -28 59 4 6 1 7 -7 2 -9 -5 -10 -2 -6 11 6 21 -9 52 -20 41 -9
-8 -34 11 -34 27 0 7 4 6 9 -2 7 -11 9 -11 14 1 4 12 0 14 -19 11 -22 -4 -24
-2 -14 16 7 13 7 20 0 20 -5 0 -10 -4 -10 -9 0 -5 -7 -17 -16 -25 -14 -15 -14
-17 1 -22 12 -5 13 -9 4 -20 -9 -11 -9 -14 0 -14 7 0 0 -16 -15 -35 -29 -38
-49 -46 -41 -16 3 14 1 18 -9 14 -12 -4 -12 0 -4 21 7 20 6 26 -4 26 -9 0 -12
7 -9 20 3 11 1 20 -4 20 -11 0 -28 70 -42 170 -8 58 -3 163 12 255 10 55 21
160 18 169 -4 18 31 105 45 110 8 3 13 9 10 14 -2 4 0 14 6 22 8 12 9 12 5 -2
-3 -9 -1 -19 6 -22 9 -3 8 -7 -2 -14 -11 -8 -10 -12 7 -23 16 -10 18 -17 11
-37 -6 -17 -6 -29 1 -36 7 -7 10 -5 10 7 0 9 44 60 97 114 54 54 96 104 95
111 -2 6 2 12 9 12 8 0 8 4 1 13 -14 16 -28 72 -53 207 -10 58 -24 113 -29
123 -13 22 13 49 121 124 77 54 153 84 255 102 82 15 193 20 196 9 5 -14 41
-17 57 -4 11 8 15 8 18 -1 3 -7 9 -13 14 -13 18 0 89 53 89 66 0 8 7 11 18 7
16 -6 16 -5 0 12 -17 18 -16 19 10 36 26 16 28 16 43 -4 9 -11 28 -21 42 -23z
m-678 18 c-3 -3 -11 0 -18 7 -9 10 -8 11 6 5 10 -3 15 -9 12 -12z m692 -4 c-3
-8 -6 -5 -6 6 -1 11 2 17 5 13 3 -3 4 -12 1 -19z m443 18 c0 -2 -7 -9 -15 -16
-13 -11 -14 -10 -9 4 5 14 24 23 24 12z m30 -30 c-15 -19 -78 -48 -93 -43 -7
2 4 11 23 19 19 8 44 25 55 37 21 24 35 11 15 -13z m-130 -1 c-7 -9 -15 -13
-17 -11 -7 7 7 26 19 26 6 0 6 -6 -2 -15z m160 -45 c-8 -5 -24 -9 -35 -9 -16
1 -16 2 5 9 35 11 48 11 30 0z m494 -9 c4 -5 -3 -7 -14 -4 -23 6 -26 13 -6 13
8 0 17 -4 20 -9z m-234 -182 c0 -21 -17 -6 -33 29 l-17 37 25 -28 c14 -15 25
-32 25 -38z m-1620 12 c0 -5 -7 -14 -15 -21 -12 -10 -15 -10 -15 2 0 8 3 18 7
21 9 10 23 9 23 -2z m1765 -145 c8 -11 21 -38 30 -59 l16 -39 -23 18 c-29 22
-98 103 -98 114 0 16 61 -12 75 -34z m-1955 20 c0 -2 -8 -10 -17 -17 -16 -13
-17 -12 -4 4 13 16 21 21 21 13z m1951 -115 c47 -52 51 -72 7 -34 -46 41 -60
58 -75 95 l-13 33 21 -25 c11 -14 38 -45 60 -69z m103 40 c-6 -6 -24 19 -24
34 1 6 7 1 15 -9 8 -11 12 -22 9 -25z m-225 17 c7 11 9 10 14 -3 5 -10 3 -14
-5 -9 -7 4 -8 3 -4 -5 5 -7 17 -9 29 -5 12 3 19 3 15 -1 -4 -5 -3 -14 3 -22 9
-10 8 -13 -1 -13 -10 0 -10 -3 0 -15 23 -27 1 -16 -40 21 -22 20 -40 44 -40
53 0 14 2 14 10 1 8 -12 12 -13 19 -2z m-1789 -41 c0 -2 -9 -12 -20 -22 -24
-21 -27 -14 -4 9 15 15 24 20 24 13z m0 -57 c0 -5 -7 -10 -16 -10 -8 0 -12 5
-9 10 3 6 10 10 16 10 5 0 9 -4 9 -10z m-503 -52 c-3 -8 -6 -5 -6 6 -1 11 2
17 5 13 3 -3 4 -12 1 -19z m483 18 c0 -3 -4 -8 -10 -11 -5 -3 -10 -1 -10 4 0
6 5 11 10 11 6 0 10 -2 10 -4z m1855 -64 c-3 -3 -16 5 -28 17 l-22 23 28 -17
c15 -10 25 -20 22 -23z m93 -77 c37 -20 56 -33 42 -29 -49 11 -165 57 -179 70
-25 23 65 -4 137 -41z m-2226 13 c-7 -7 -12 -8 -12 -2 0 14 12 26 19 19 2 -3
-1 -11 -7 -17z m25 -80 c-17 -41 -23 -48 -25 -31 -3 19 31 83 43 83 2 0 -6
-24 -18 -52z m2732 -193 c12 2 19 0 17 -4 -5 -7 -26 -8 -58 -2 -5 0 -8 6 -8
12 0 8 4 8 13 0 8 -6 23 -9 36 -6z m52 -12 c13 -16 12 -17 -3 -4 -10 7 -18 15
-18 17 0 8 8 3 21 -13z m13 -42 c-2 -3 -12 3 -22 13 -16 17 -16 18 5 5 12 -7
20 -15 17 -18z m-3534 -104 c0 7 7 10 15 7 8 -4 12 -10 9 -16 -3 -5 -9 -7 -12
-4 -3 3 -10 2 -16 -4 -8 -6 -12 -2 -13 13 -2 17 0 19 7 7 6 -10 10 -11 10 -3z
m-46 -22 c-4 -8 -11 -12 -16 -9 -6 4 -5 10 3 15 19 12 19 11 13 -6z m877 -17
c18 -23 24 -49 13 -60 -10 -10 -58 20 -61 39 -7 45 18 56 48 21z m2879 -16 c0
-15 -2 -15 -10 -2 -13 20 -13 33 0 25 6 -3 10 -14 10 -23z m-3966 -177 c-7
-16 -24 -21 -24 -6 0 8 7 13 27 20 1 1 0 -6 -3 -14z m4178 -13 c-7 -2 -10 -8
-6 -13 3 -5 1 -9 -5 -9 -5 0 -13 5 -16 10 -3 6 -1 10 5 10 6 0 8 4 5 10 -4 6
1 7 11 3 11 -4 13 -8 6 -11z m-3092 -46 c5 -13 14 -27 19 -31 16 -9 13 -35 -3
-35 -13 0 -46 56 -46 79 0 20 20 11 30 -13z m3121 10 c10 6 13 -9 3 -19 -9 -9
-33 16 -26 28 3 5 7 4 10 -3 2 -7 8 -10 13 -6z m-4301 -106 c0 -5 -4 -10 -10
-10 -5 0 -10 5 -10 10 0 6 5 10 10 10 6 0 10 -4 10 -10z m-105 -40 c3 -6 -1
-7 -9 -4 -18 7 -21 14 -7 14 6 0 13 -4 16 -10z m4634 -54 c10 -12 8 -13 -8 -9
-12 3 -18 9 -15 14 7 12 10 11 23 -5z m-4695 -14 c2 -4 -5 -9 -17 -9 -17 -2
-19 0 -7 7 18 12 18 12 24 2z m2103 -24 c-3 -8 -6 -5 -6 6 -1 11 2 17 5 13 3
-3 4 -12 1 -19z m1283 -166 c0 -9 -5 -24 -10 -32 -7 -11 -10 -5 -10 23 0 23 4
36 10 32 6 -3 10 -14 10 -23z m-116 -78 c8 -21 -12 -17 -24 6 -8 16 -8 18 4
14 8 -3 17 -12 20 -20z m-634 -15 c0 -6 -4 -7 -10 -4 -5 3 -10 11 -10 16 0 6
5 7 10 4 6 -3 10 -11 10 -16z m543 -24 c4 -8 2 -17 -3 -20 -6 -4 -10 3 -10 14
0 25 6 27 13 6z m-777 -44 c13 -10 36 -17 51 -16 67 7 113 18 113 29 0 6 5 3
11 -6 5 -10 19 -18 30 -18 11 0 29 -5 39 -10 15 -8 22 -5 35 12 l17 23 -7 -22
c-5 -20 -3 -23 19 -23 14 0 28 -5 32 -11 5 -9 -16 -10 -82 -3 -110 11 -203 11
-229 0 -25 -11 -86 -7 -102 6 -26 21 -7 45 45 57 2 1 15 -7 28 -18z m684 -22
c0 -6 -4 -7 -10 -4 -5 3 -10 11 -10 16 0 6 5 7 10 4 6 -3 10 -11 10 -16z m240
-21 c0 -10 -4 -18 -10 -18 -5 0 -10 15 -10 33 0 24 3 28 10 17 5 -8 10 -23 10
-32z m-160 0 c0 -6 -6 -5 -15 2 -8 7 -15 14 -15 16 0 2 7 1 15 -2 8 -4 15 -11
15 -16z m-475 -61 c11 1 32 4 47 8 42 11 85 -25 93 -78 4 -23 12 -48 18 -55 5
-7 7 -15 3 -19 -3 -3 -6 -1 -6 5 0 7 -5 12 -11 12 -6 0 -9 -6 -6 -12 21 -53
21 -54 4 -40 -14 12 -15 10 -13 -10 1 -13 6 -30 11 -37 5 -10 4 -12 -3 -7 -7
4 -12 1 -12 -9 0 -9 -4 -13 -10 -10 -5 3 -10 0 -10 -7 -1 -7 -10 -2 -22 12
-17 20 -20 21 -14 5 12 -33 12 -40 -2 -37 -9 2 -8 -6 3 -29 9 -17 14 -33 11
-37 -3 -3 -6 0 -6 6 0 7 -6 12 -14 12 -13 0 -14 -47 0 -73 3 -7 -4 -2 -15 11
-13 15 -25 21 -33 15 -13 -8 -18 -9 -39 -12 -5 0 -7 -6 -3 -13 4 -7 3 -8 -4
-4 -9 5 -9 13 -2 26 8 15 6 21 -9 30 -26 14 -38 13 -23 -2 20 -20 14 -29 -7
-11 -11 9 -17 22 -14 29 6 16 -15 18 -37 4 -12 -8 -13 -11 -1 -19 8 -5 11 -16
6 -31 -6 -19 -5 -21 13 -11 26 14 32 14 32 0 0 -5 -5 -7 -10 -4 -6 4 -8 -7 -6
-29 4 -26 2 -34 -8 -30 -10 4 -12 -2 -8 -22 3 -17 1 -25 -6 -20 -6 3 -13 0
-15 -6 -3 -7 -6 -2 -7 12 l-1 25 -11 -25 -10 -25 -14 30 c-7 17 -13 38 -14 48
0 28 -20 19 -21 -10 -1 -16 -2 -35 -3 -45 -1 -24 -16 -35 -17 -12 -2 50 -19
100 -19 56 0 -12 -4 -22 -10 -22 -9 0 -14 31 -12 69 0 8 -6 20 -15 26 -13 10
-13 13 1 24 14 12 16 12 10 -3 -3 -9 -2 -16 4 -16 18 0 21 29 5 46 -16 16 -16
16 3 10 16 -5 23 0 32 19 6 14 18 25 26 25 8 0 16 6 19 13 3 8 10 6 22 -8 16
-19 16 -19 10 9 -5 24 -3 28 11 22 16 -6 15 -4 -2 15 l-19 22 25 -8 c23 -7 24
-7 10 10 -14 17 -13 18 2 12 10 -3 20 -1 24 5 4 7 3 8 -4 4 -11 -6 -14 -1 -11
21 1 16 -50 23 -165 24 -66 0 -136 4 -153 9 -18 6 -49 15 -68 21 -27 8 -40 8
-50 -1 -10 -9 -19 -6 -39 11 -38 33 -32 40 27 33 49 -7 51 -6 38 10 -13 15
-13 19 0 27 16 10 41 11 189 10 58 -1 119 3 135 8 17 6 64 7 105 3 41 -3 84
-5 95 -5z m445 -50 c0 -5 -4 -5 -10 -2 -5 3 -10 14 -10 23 0 15 2 15 10 2 5
-8 10 -19 10 -23z m-194 -2 c-2 -7 1 -18 7 -25 9 -10 9 -11 -3 -8 -8 3 -16 17
-17 32 -1 16 2 24 8 20 6 -3 8 -12 5 -19z m-904 -4 c4 -3 9 -15 11 -26 6 -30
26 -75 33 -75 3 0 4 9 1 20 -6 24 -6 24 26 7 21 -11 24 -16 14 -27 -10 -10 -7
-12 11 -7 22 5 23 4 8 -12 -25 -28 -20 -42 13 -36 20 3 31 0 35 -11 4 -10 13
-13 25 -9 21 6 35 -17 26 -46 -5 -16 -3 -16 24 -6 60 22 52 -12 -10 -43 -21
-11 -39 -27 -39 -35 0 -9 -6 -12 -15 -8 -9 3 -25 -3 -37 -13 -14 -12 -22 -15
-25 -8 -2 7 -14 9 -26 6 -22 -5 -22 -5 -3 16 24 28 12 28 -21 2 -14 -11 -29
-20 -33 -20 -5 0 -6 9 -3 20 4 14 0 20 -12 20 -9 0 -19 9 -22 21 -4 12 -11 18
-20 15 -9 -4 -11 -2 -7 6 4 7 9 23 10 36 2 20 1 22 -13 10 -15 -12 -15 -11 -5
9 17 30 15 38 -5 22 -15 -12 -16 -12 -10 4 4 10 2 17 -5 17 -9 0 -9 3 0 12 24
24 11 31 -15 7 l-27 -24 17 27 c19 31 22 48 7 48 -5 0 -10 -6 -10 -14 0 -7 -7
-19 -15 -26 -19 -16 -19 -1 0 24 8 11 15 29 15 40 -1 20 -2 20 -14 4 -21 -29
-28 -21 -11 13 25 47 95 69 127 40z m-122 -5 c0 -2 -7 -9 -15 -16 -13 -11 -14
-10 -9 4 5 14 24 23 24 12z m1040 -56 c0 -5 -2 -10 -4 -10 -3 0 -8 5 -11 10
-3 6 -1 10 4 10 6 0 11 -4 11 -10z m306 -62 c-19 -27 -21 -19 -4 18 7 14 14
21 16 15 2 -6 -4 -21 -12 -33z m-809 -20 c-3 -8 -6 -5 -6 6 -1 11 2 17 5 13 3
-3 4 -12 1 -19z m-65 -20 c-7 -7 -12 -8 -12 -2 0 14 12 26 19 19 2 -3 -1 -11
-7 -17z m623 -8 c3 -6 -1 -7 -9 -4 -18 7 -21 14 -7 14 6 0 13 -4 16 -10z
m-705 -3 c0 -2 -10 -12 -22 -23 l-23 -19 19 23 c18 21 26 27 26 19z m876 -49
c-9 -12 -16 -19 -16 -15 0 11 24 47 28 42 2 -2 -3 -14 -12 -27z m-1254 -50
c-7 -7 -12 -8 -12 -2 0 6 3 14 7 17 3 4 9 5 12 2 2 -3 -1 -11 -7 -17z m402 1
c-4 -8 1 -9 16 -4 20 6 21 4 14 -17 -4 -12 -8 -32 -8 -43 0 -11 -5 -25 -11
-31 -5 -7 -18 -23 -29 -38 -10 -14 -23 -23 -29 -19 -6 4 -8 0 -4 -10 3 -9 -2
-26 -13 -39 l-20 -23 15 44 c18 54 19 52 -2 44 -15 -5 -14 -3 2 10 13 11 15
16 6 17 -11 0 -11 3 -1 15 6 8 10 18 7 22 -2 4 2 22 9 38 7 17 13 24 14 18 0
-20 17 -15 23 7 3 11 8 20 12 20 3 0 3 -5 -1 -11z m-71 -39 c-3 -10 -10 -18
-17 -17 -6 1 -11 -8 -11 -20 -1 -27 -11 -39 -18 -20 -5 14 31 76 45 77 3 0 4
-9 1 -20z m565 -16 c-4 -3 -12 5 -18 18 -12 22 -12 22 6 6 10 -10 15 -20 12
-24z m-920 0 c-7 -15 -14 -21 -16 -15 -2 7 2 18 8 26 18 22 21 18 8 -11z m892
5 c0 -6 -4 -7 -10 -4 -5 3 -10 11 -10 16 0 6 5 7 10 4 6 -3 10 -11 10 -16z
m165 1 c3 -5 1 -10 -4 -10 -6 0 -11 5 -11 10 0 6 2 10 4 10 3 0 8 -4 11 -10z
m-255 -42 c0 -6 -7 -5 -15 2 -8 7 -15 17 -15 22 0 6 7 5 15 -2 8 -7 15 -17 15
-22z m-760 -13 c-7 -9 -15 -13 -18 -10 -3 2 1 11 8 20 7 9 15 13 18 10 3 -2
-1 -11 -8 -20z m455 15 c3 -6 -1 -7 -9 -4 -18 7 -21 14 -7 14 6 0 13 -4 16
-10z m-405 -4 c0 -2 -8 -10 -17 -17 -16 -13 -17 -12 -4 4 13 16 21 21 21 13z
m160 0 c0 -3 -4 -8 -10 -11 -5 -3 -10 -1 -10 4 0 6 5 11 10 11 6 0 10 -2 10
-4z m580 -17 c0 -6 -4 -7 -10 -4 -5 3 -10 11 -10 16 0 6 5 7 10 4 6 -3 10 -11
10 -16z m-55 1 c3 -5 1 -10 -4 -10 -6 0 -11 5 -11 10 0 6 2 10 4 10 3 0 8 -4
11 -10z m-262 -36 c3 -18 1 -24 -9 -20 -7 3 -14 -4 -17 -17 -2 -12 -4 -1 -3
24 1 50 20 58 29 13z m-267 -31 c-10 -10 -19 5 -10 18 6 11 8 11 12 0 2 -7 1
-15 -2 -18z m207 -8 c-4 -25 -2 -35 7 -35 7 0 10 -3 7 -6 -4 -4 -13 -1 -21 5
-11 10 -12 19 -4 42 13 39 18 37 11 -6z m97 4 c0 -6 -4 -7 -10 -4 -5 3 -10 11
-10 16 0 6 5 7 10 4 6 -3 10 -11 10 -16z m482 -8 c2 -17 1 -28 -4 -25 -8 5
-12 54 -4 54 2 0 6 -13 8 -29z m-23 -41 c0 -9 -4 -8 -9 5 -5 11 -9 27 -9 35 0
9 4 8 9 -5 5 -11 9 -27 9 -35z m-909 36 c0 -3 -4 -8 -10 -11 -5 -3 -10 -1 -10
4 0 6 5 11 10 11 6 0 10 -2 10 -4z m127 -18 c-3 -8 -6 -5 -6 6 -1 11 2 17 5
13 3 -3 4 -12 1 -19z m471 -3 c-3 -3 -9 2 -12 12 -6 14 -5 15 5 6 7 -7 10 -15
7 -18z m212 -5 c0 -5 -2 -10 -4 -10 -3 0 -8 5 -11 10 -3 6 -1 10 4 10 6 0 11
-4 11 -10z m-123 -52 c-3 -8 -6 -5 -6 6 -1 11 2 17 5 13 3 -3 4 -12 1 -19z
m-596 -15 c-12 -20 -14 -14 -5 12 4 9 9 14 11 11 3 -2 0 -13 -6 -23z m159 17
c0 -5 -5 -10 -11 -10 -5 0 -7 5 -4 10 3 6 8 10 11 10 2 0 4 -4 4 -10z m683 -5
c-3 -9 -8 -14 -10 -11 -3 3 -2 9 2 15 9 16 15 13 8 -4z m-966 -47 c-3 -7 -5
-2 -5 12 0 14 2 19 5 13 2 -7 2 -19 0 -25z m66 17 c-3 -9 -8 -14 -10 -11 -3 3
-2 9 2 15 9 16 15 13 8 -4z m47 -25 c0 -5 -5 -10 -11 -10 -5 0 -7 5 -4 10 3 6
8 10 11 10 2 0 4 -4 4 -10z m43 -5 c-3 -9 -8 -14 -10 -11 -3 3 -2 9 2 15 9 16
15 13 8 -4z m743 -13 c-15 -28 -103 -129 -90 -102 8 16 97 130 102 130 1 0 -4
-12 -12 -28z m-126 -175 c0 -2 -10 -12 -22 -23 l-23 -19 19 23 c18 21 26 27
26 19z m-1441 -95 c-49 -57 -68 -69 -79 -52 -9 14 -3 37 14 59 14 18 87 51 98
45 5 -3 -10 -26 -33 -52z m2257 -3 c64 -36 94 -72 94 -110 0 -36 -7 -36 -56 1
-21 16 -41 30 -44 30 -4 0 -6 -17 -5 -37 0 -21 -3 -50 -7 -64 -5 -18 -4 -26 6
-26 7 0 12 10 10 22 -3 34 10 49 26 30 7 -8 9 -15 5 -15 -4 0 -2 -7 5 -15 7
-8 9 -15 4 -15 -5 0 -4 -4 2 -8 15 -10 26 -60 14 -67 -5 -3 -6 -13 -3 -22 5
-12 2 -15 -10 -10 -8 3 -21 0 -27 -8 -8 -10 -7 -16 7 -24 11 -6 13 -11 5 -11
-7 0 -11 -4 -7 -9 3 -5 0 -13 -6 -17 -7 -4 -9 -3 -6 3 4 6 0 14 -9 17 -13 5
-15 2 -11 -14 3 -11 2 -19 -1 -17 -51 23 -62 33 -62 55 l0 25 -22 -29 c-12
-16 -25 -33 -30 -38 -12 -14 6 39 46 135 44 106 54 167 33 200 -23 36 -30 69
-16 69 6 0 36 -14 65 -31z m-2640 -384 c-3 -8 -10 -15 -17 -15 -6 0 -8 7 -5
16 5 13 4 14 -7 6 -8 -7 -17 -9 -20 -5 -4 3 -7 1 -7 -5 0 -6 4 -13 10 -17 5
-3 2 -14 -7 -25 -12 -14 -21 -16 -33 -10 -23 12 -32 2 -19 -21 6 -13 6 -19 -1
-19 -5 0 -10 5 -10 10 0 6 -8 10 -17 10 -17 1 -17 1 0 14 9 7 17 21 17 31 0
11 5 15 15 11 9 -3 15 0 15 10 0 8 7 17 15 20 8 4 15 12 15 19 0 21 34 23 48
2 8 -10 11 -24 8 -32z m2567 11 c7 4 5 -1 -5 -11 -20 -22 -45 -11 -26 12 8 10
14 11 16 4 2 -6 9 -8 15 -5z m-77 -44 c-18 -16 -18 -16 -6 6 6 13 14 21 18 18
3 -4 -2 -14 -12 -24z m-2784 -21 c-9 -22 -20 -37 -24 -35 -4 2 -9 0 -13 -6 -3
-5 -16 -10 -28 -10 -19 0 -14 7 28 45 28 24 51 44 52 45 1 0 -6 -18 -15 -39z
m132 -46 c3 -8 1 -15 -3 -15 -5 0 -11 7 -15 15 -3 8 -1 15 3 15 5 0 11 -7 15
-15z m208 -27 c-7 -7 -12 -8 -12 -2 0 14 12 26 19 19 2 -3 -1 -11 -7 -17z
m3263 -18 c-3 -5 -11 -10 -16 -10 -6 0 -7 5 -4 10 3 6 11 10 16 10 6 0 7 -4 4
-10z m-1065 -260 c0 -5 -5 -10 -11 -10 -5 0 -7 5 -4 10 3 6 8 10 11 10 2 0 4
-4 4 -10z m-233 -106 c-3 -3 -12 -4 -19 -1 -8 3 -5 6 6 6 11 1 17 -2 13 -5z
m-1347 -14 c0 -5 -4 -10 -9 -10 -6 0 -13 5 -16 10 -3 6 1 10 9 10 9 0 16 -4
16 -10z m50 -22 c34 -38 37 -48 13 -48 -9 0 -14 3 -10 6 3 3 -5 18 -19 32 -23
25 -30 42 -19 42 3 0 19 -15 35 -32z m-630 12 c0 -5 -4 -10 -10 -10 -5 0 -10
5 -10 10 0 6 5 10 10 10 6 0 10 -4 10 -10z m100 0 c0 -5 -5 -10 -11 -10 -5 0
-7 5 -4 10 3 6 8 10 11 10 2 0 4 -4 4 -10z m180 -20 c0 -5 -4 -10 -10 -10 -5
0 -10 5 -10 10 0 6 5 10 10 10 6 0 10 -4 10 -10z m-260 -4 c0 -3 -4 -8 -10
-11 -5 -3 -10 -1 -10 4 0 6 5 11 10 11 6 0 10 -2 10 -4z m148 -16 c-7 -11 -16
-20 -20 -20 -5 0 -3 9 4 20 7 11 16 20 20 20 5 0 3 -9 -4 -20z m583 -13 c-10
-9 -11 -8 -5 6 3 10 9 15 12 12 3 -3 0 -11 -7 -18z m-651 9 c0 -3 -4 -8 -10
-11 -5 -3 -10 -1 -10 4 0 6 5 11 10 11 6 0 10 -2 10 -4z m120 -16 c0 -5 -5
-10 -11 -10 -5 0 -7 5 -4 10 3 6 8 10 11 10 2 0 4 -4 4 -10z m500 0 c0 -5 -4
-10 -10 -10 -5 0 -10 5 -10 10 0 6 5 10 10 10 6 0 10 -4 10 -10z"/>
<path d="M3430 4399 c0 -25 37 -103 42 -88 7 21 -2 52 -23 79 -14 19 -19 21
-19 9z"/>
<path d="M3392 4285 c0 -16 2 -22 5 -12 2 9 2 23 0 30 -3 6 -5 -1 -5 -18z"/>
<path d="M2887 4429 c7 -7 15 -10 18 -7 3 3 -2 9 -12 12 -14 6 -15 5 -6 -5z"/>
<path d="M2936 4357 c3 -10 9 -15 12 -12 3 3 0 11 -7 18 -10 9 -11 8 -5 -6z"/>
<path d="M1859 3218 c-24 -18 -45 -36 -47 -40 -2 -5 -10 -8 -17 -8 -17 0 -32
-26 -38 -66 -3 -16 -10 -28 -16 -26 -6 1 -11 -2 -11 -8 0 -5 -6 -9 -12 -7 -7
1 -14 -5 -14 -13 -1 -8 -3 -17 -4 -20 -3 -7 -7 -35 -13 -93 -3 -35 1 -60 14
-87 11 -22 19 -46 19 -54 0 -14 34 -15 48 -2 2 3 27 -6 55 -21 59 -30 104 -31
216 -8 104 22 223 65 218 79 -5 16 -89 20 -102 4 -15 -19 -95 -22 -95 -3 0 8
8 15 18 15 9 0 -7 11 -36 25 -55 25 -75 51 -51 66 26 16 51 11 44 -10 -9 -30
16 -39 105 -38 47 0 75 2 63 4 -26 5 -27 7 -13 34 13 24 32 24 53 1 21 -23 21
-32 1 -32 -8 0 -12 -4 -9 -10 3 -5 20 -10 36 -10 16 0 45 -7 64 -14 47 -20 46
-3 -2 48 l-38 40 38 -32 c21 -18 42 -32 47 -32 15 0 22 -40 10 -55 -8 -10 -9
-15 -2 -15 6 0 15 8 21 17 5 10 12 15 15 12 4 -3 -8 -44 -25 -90 -16 -46 -35
-97 -41 -114 -6 -16 -14 -34 -19 -40 -4 -5 -16 -36 -27 -68 l-19 -59 36 36
c44 43 54 45 40 10 -5 -15 -8 -28 -6 -30 5 -6 84 166 92 201 4 17 10 54 14 83
8 51 7 52 -12 35 -19 -17 -19 -17 -12 7 4 14 16 39 26 56 24 40 36 172 13 153
-10 -8 -14 -8 -14 0 0 6 -10 11 -23 11 -26 0 -79 47 -83 73 -2 19 -45 76 -57
76 -4 1 0 -11 10 -26 l17 -28 -28 25 c-15 14 -29 24 -32 23 -2 -2 -5 -2 -6 -2
-2 1 -23 3 -47 3 -44 2 -44 2 -21 -16 27 -22 23 -22 -23 -3 -43 18 -50 19 -42
5 3 -5 2 -10 -4 -10 -5 0 -13 5 -16 10 -4 6 -10 8 -14 5 -5 -2 -23 0 -41 5
-22 6 -39 6 -54 -2 -20 -11 -20 -10 -6 7 14 17 13 18 -2 12 -51 -20 -54 -20
-33 -4 18 14 16 15 -28 10 -50 -6 -58 1 -29 23 38 29 -7 12 -49 -18z m487
-104 c1 -9 0 -13 -4 -10 -3 4 -7 14 -8 22 -1 9 0 13 4 10 3 -4 7 -14 8 -22z
m-186 -85 c43 -15 18 -31 -31 -20 -45 10 -128 5 -145 -10 -8 -7 -14 -7 -14 -1
0 16 71 41 116 41 23 1 56 -4 74 -10z m-234 -135 c-3 -8 -2 -12 4 -9 6 4 17 0
25 -8 12 -13 11 -14 -11 -14 -13 0 -24 3 -24 8 0 4 -7 15 -16 23 -14 15 -13
16 6 16 16 0 20 -4 16 -16z m304 -55 c0 -7 -35 -19 -56 -19 -6 0 -11 6 -11 13
0 9 13 14 34 14 18 0 33 -4 33 -8z"/>
<path d="M3181 3224 c12 -15 11 -16 -10 -9 -17 5 -21 4 -16 -5 5 -8 0 -11 -16
-8 -13 2 -23 -2 -22 -7 2 -13 -36 -13 -55 -1 -11 7 -12 4 -3 -13 10 -17 9 -21
-4 -21 -8 0 -14 3 -14 8 3 17 -2 26 -9 16 -5 -8 -23 -9 -57 -4 -28 4 -51 4
-53 -1 -2 -5 -13 -9 -25 -8 -21 0 -21 1 -2 9 11 5 16 9 10 10 -51 10 -82 8
-102 -6 -30 -19 -63 -72 -56 -90 3 -8 0 -14 -6 -14 -19 0 -12 31 19 76 16 24
26 44 22 44 -10 0 -46 -48 -55 -73 -4 -10 -11 -15 -17 -12 -5 3 -10 2 -10 -4
0 -5 5 -13 10 -16 6 -3 10 -10 10 -15 0 -13 -32 -21 -44 -11 -8 7 -11 -5 -10
-42 2 -81 3 -87 17 -81 8 3 26 0 41 -6 19 -7 33 -7 47 0 23 13 25 3 2 -22 -15
-17 -15 -18 3 -18 11 0 25 -5 32 -12 7 -7 12 -8 12 -2 0 6 22 10 49 9 28 -1
48 2 45 7 -3 4 -14 8 -24 8 -31 0 -31 15 0 38 16 12 31 22 33 22 2 0 9 -17 15
-39 l12 -39 68 5 c75 6 92 15 92 49 0 29 21 31 45 4 17 -19 17 -20 -6 -40
l-24 -21 30 5 30 6 -25 -15 c-14 -8 -21 -14 -16 -15 10 0 -24 -29 -35 -30 -4
0 -9 9 -12 20 -7 25 -37 16 -37 -11 0 -27 -20 -24 -21 4 0 14 -3 17 -6 7 -7
-17 -29 -40 -38 -40 -3 0 -4 4 -1 9 8 13 -56 23 -68 11 -15 -15 -24 -12 -22 8
1 13 -8 18 -38 20 -46 4 -86 -4 -86 -18 0 -6 10 -10 23 -10 12 0 57 -11 100
-25 113 -36 230 -32 282 11 19 15 19 15 -10 10 -24 -5 -27 -4 -12 4 9 6 15 15
12 21 -4 5 1 16 9 25 9 8 16 12 16 7 0 -5 -5 -14 -12 -21 -9 -9 -9 -12 0 -12
7 0 18 11 24 25 9 21 18 25 52 25 23 0 48 5 56 10 13 8 13 10 -2 10 -10 0 -46
13 -81 29 -92 42 -135 52 -242 53 -101 2 -105 11 -13 29 32 6 55 16 52 20 -3
5 -9 7 -14 4 -5 -3 -11 -1 -14 4 -7 11 40 20 116 22 31 1 62 5 68 9 6 4 48 -2
93 -11 103 -23 105 -23 78 0 -15 13 -18 20 -9 24 9 3 6 12 -11 31 -14 14 -27
22 -31 17 -3 -6 -11 -6 -20 -1 -13 9 -13 10 0 10 10 0 7 5 -8 16 -12 8 -26 13
-31 10 -5 -4 -23 5 -39 19 -34 28 -51 33 -31 9z m-121 -244 c0 -5 -7 -7 -15
-4 -8 4 -15 8 -15 10 0 2 7 4 15 4 8 0 15 -4 15 -10z m30 -141 c0 -5 -4 -9
-10 -9 -5 0 -10 7 -10 16 0 8 5 12 10 9 6 -3 10 -10 10 -16z"/>
<path d="M2360 3161 c0 -5 7 -15 17 -22 15 -13 15 -12 4 9 -12 23 -21 28 -21
13z"/>
<path d="M2707 3153 c-4 -3 -7 -11 -7 -17 0 -6 5 -5 12 2 6 6 9 14 7 17 -3 3
-9 2 -12 -2z"/>
<path d="M2370 3116 c0 -2 7 -7 16 -10 8 -3 12 -2 9 4 -6 10 -25 14 -25 6z"/>
<path d="M3050 3050 c0 -6 15 -10 33 -10 20 0 70 -19 122 -45 86 -44 143 -55
138 -27 -2 6 3 12 10 12 8 0 7 4 -3 10 -10 6 -11 10 -2 10 6 0 12 4 12 9 0 15
-27 20 -59 11 -20 -6 -31 -5 -31 2 0 5 -6 8 -12 5 -7 -2 -12 -11 -10 -18 1 -9
-3 -8 -11 4 -8 9 -22 17 -31 17 -10 0 -25 4 -34 9 -26 13 -122 21 -122 11z"/>
<path d="M2981 2864 c0 -11 3 -14 6 -6 3 7 2 16 -1 19 -3 4 -6 -2 -5 -13z"/>
<path d="M2105 2860 c3 -5 10 -10 16 -10 5 0 9 5 9 10 0 6 -7 10 -16 10 -8 0
-12 -4 -9 -10z"/>
<path d="M2938 2863 c7 -3 16 -2 19 1 4 3 -2 6 -13 5 -11 0 -14 -3 -6 -6z"/>
<path d="M2783 2305 c-34 -37 -38 -45 -22 -45 26 0 69 44 69 70 0 11 -1 20 -3
20 -1 0 -21 -20 -44 -45z"/>
<path d="M2665 2220 c-3 -5 -1 -10 4 -10 6 0 11 5 11 10 0 6 -2 10 -4 10 -3 0
-8 -4 -11 -10z"/>
<path d="M2815 1920 c-3 -5 -2 -10 4 -10 5 0 13 5 16 10 3 6 2 10 -4 10 -5 0
-13 -4 -16 -10z"/>
<path d="M2360 1870 c0 -5 5 -10 10 -10 6 0 10 5 10 10 0 6 -4 10 -10 10 -5 0
-10 -4 -10 -10z"/>
<path d="M2650 1659 c0 -5 5 -7 10 -4 6 3 10 8 10 11 0 2 -4 4 -10 4 -5 0 -10
-5 -10 -11z"/>
<path d="M2735 1640 c3 -5 8 -10 11 -10 2 0 4 5 4 10 0 6 -5 10 -11 10 -5 0
-7 -4 -4 -10z"/>
<path d="M3750 770 c0 -5 5 -10 11 -10 5 0 7 5 4 10 -3 6 -8 10 -11 10 -2 0
-4 -4 -4 -10z"/>
<path d="M3770 739 c0 -5 5 -7 10 -4 6 3 10 8 10 11 0 2 -4 4 -10 4 -5 0 -10
-5 -10 -11z"/>
<path d="M3675 729 c-11 -17 1 -21 15 -4 8 9 8 15 2 15 -6 0 -14 -5 -17 -11z"/>
<path d="M1471 4295 c-17 -20 -31 -43 -30 -53 0 -15 1 -15 12 2 7 10 23 32 36
48 34 42 19 45 -18 3z"/>
<path d="M1397 4233 c-11 -10 -8 -43 3 -43 6 0 10 11 10 25 0 26 -2 29 -13 18z"/>
<path d="M3991 3194 c-1 -18 36 -60 45 -51 5 4 2 12 -6 17 -10 7 -11 10 -2 10
6 0 12 5 12 11 0 6 -9 9 -20 6 -10 -3 -21 0 -24 7 -3 8 -5 8 -5 0z"/>
<path d="M962 3121 c-11 -7 -11 -9 2 -14 9 -4 16 -12 16 -18 0 -8 -4 -8 -15 1
-9 7 -15 8 -15 2 0 -5 7 -12 15 -16 16 -6 35 22 28 42 -5 14 -13 15 -31 3z"/>
<path d="M4061 3107 c-13 -21 -12 -21 5 -5 10 10 16 20 13 22 -3 3 -11 -5 -18
-17z"/>
<path d="M4154 2988 c-4 -7 -4 -10 1 -6 4 4 15 2 24 -5 14 -11 14 -10 2 6 -16
20 -18 21 -27 5z"/>
<path d="M773 2964 c-27 -29 -27 -30 -7 -38 8 -3 12 -2 9 4 -7 11 18 40 34 40
5 0 13 5 16 10 13 21 -31 7 -52 -16z"/>
<path d="M803 2939 c-2 -23 3 -25 10 -4 4 8 3 16 -1 19 -4 3 -9 -4 -9 -15z"/>
<path d="M4460 2720 c-9 -6 -10 -10 -3 -10 6 0 15 5 18 10 8 12 4 12 -15 0z"/>
<path d="M375 2561 c-3 -5 -2 -12 3 -15 5 -3 9 1 9 9 0 17 -3 19 -12 6z"/>
<path d="M3650 2420 c-7 -17 -10 -33 -8 -36 3 -3 11 9 17 27 14 42 7 49 -9 9z"/>
<path d="M4976 2272 c-3 -5 1 -9 9 -9 8 0 15 4 15 9 0 4 -4 8 -9 8 -6 0 -12
-4 -15 -8z"/>
<path d="M19 2237 c7 -7 18 -7 33 0 20 9 20 10 -10 10 -22 0 -29 -4 -23 -10z"/>
<path d="M3443 1235 c0 -22 2 -30 4 -17 2 12 2 30 0 40 -3 9 -5 -1 -4 -23z"/>
<path d="M967 738 c-31 -41 -52 -82 -39 -74 12 7 74 106 67 106 -2 0 -15 -15
-28 -32z"/>
<path d="M3750 510 c-63 -96 -136 -166 -273 -261 -154 -107 -270 -161 -482
-224 l-80 -24 148 0 c81 1 147 3 147 6 0 2 -5 14 -11 26 -12 21 -11 21 8 4 19
-16 20 -16 36 1 10 10 17 23 17 29 0 6 11 18 25 27 28 18 39 21 30 6 -3 -5 1
-10 10 -10 12 0 15 5 10 18 -5 13 -3 14 6 5 9 -9 18 -8 38 5 25 16 25 16 12
-1 -7 -9 -9 -17 -4 -17 11 0 33 21 33 31 0 8 -47 2 -62 -7 -4 -3 -8 -3 -8 0 0
2 17 15 38 27 20 12 54 36 75 52 40 31 65 30 29 -2 -12 -10 -22 -22 -22 -27 0
-5 -29 -39 -65 -74 -36 -35 -65 -60 -65 -55 0 4 -11 -2 -25 -15 -14 -13 -25
-19 -25 -13 0 5 11 20 25 33 16 15 25 19 25 10 0 -9 8 -6 21 9 27 29 18 38
-16 15 -22 -15 -28 -15 -35 -3 -5 7 -12 10 -17 6 -4 -5 -1 -12 7 -17 8 -5 11
-12 7 -16 -4 -4 -14 1 -23 12 -12 15 -15 16 -10 2 3 -9 -6 -28 -19 -42 -24
-25 -21 -38 3 -14 8 8 12 8 12 1 0 -6 15 -10 34 -9 26 1 44 11 76 43 l42 41
21 -21 c13 -13 17 -22 9 -25 -7 -2 -12 -9 -12 -15 0 -6 13 2 29 17 21 20 30
24 35 14 3 -7 3 -2 0 11 -5 20 -3 23 12 17 10 -4 15 -4 12 0 -4 3 2 15 13 27
10 11 19 26 19 31 -1 6 -10 0 -22 -14 -11 -14 -24 -24 -28 -23 -4 1 -13 -9
-20 -22 -7 -14 -17 -25 -22 -25 -16 0 -8 13 37 61 38 41 44 51 33 63 -11 12
-16 11 -32 -6 -10 -10 -15 -22 -11 -26 4 -4 13 2 21 12 8 11 14 15 14 9 0 -11
-32 -43 -44 -43 -4 0 -4 4 -1 10 3 6 1 10 -6 10 -6 0 0 15 15 34 14 19 26 39
26 45 0 21 112 73 186 86 41 7 78 15 80 18 7 7 -14 47 -25 47 -16 0 -22 53
-10 82 8 20 17 27 28 23 12 -5 13 -4 4 6 -8 8 -9 18 -3 30 14 25 30 69 26 69
-2 0 -27 -36 -56 -80z m-290 -421 c0 -14 -17 -10 -23 5 -4 10 -1 13 9 9 7 -3
14 -9 14 -14z m-177 -54 c-3 -9 -8 -14 -10 -11 -3 3 -2 9 2 15 9 16 15 13 8
-4z"/>
<path d="M360 464 c-47 -23 -81 -43 -76 -43 12 -1 176 77 176 83 0 10 -11 5
-100 -40z"/>
<path d="M3450 350 c0 -5 5 -10 11 -10 5 0 7 5 4 10 -3 6 -8 10 -11 10 -2 0
-4 -4 -4 -10z"/>
<path d="M3409 314 c-23 -26 -23 -26 -1 -13 12 8 22 17 22 22 0 4 5 5 12 1 7
-4 8 -3 4 4 -9 16 -9 16 -37 -14z"/>
<path d="M3346 307 c3 -10 9 -15 12 -12 3 3 0 11 -7 18 -10 9 -11 8 -5 -6z"/>
<path d="M3926 283 c-4 -4 3 -12 15 -18 l21 -12 -20 -19 c-20 -19 -20 -19 15
-20 19 -1 31 1 25 5 -5 3 -8 18 -6 33 1 15 -2 30 -7 33 -5 4 -9 1 -9 -6 0 -8
-3 -9 -13 0 -8 6 -17 8 -21 4z"/>
<path d="M3325 270 c-3 -6 1 -7 9 -4 18 7 21 14 7 14 -6 0 -13 -4 -16 -10z"/>
<path d="M3866 271 c-4 -5 3 -7 14 -4 23 6 26 13 6 13 -8 0 -17 -4 -20 -9z"/>
<path d="M22 260 c-12 -5 -22 -14 -22 -20 0 -15 12 -12 40 10 27 21 20 25 -18
10z"/>
<path d="M3270 264 c0 -13 18 -39 24 -34 2 3 -2 14 -10 24 -8 11 -14 16 -14
10z"/>
<path d="M3825 250 c-3 -5 -1 -10 4 -10 6 0 11 5 11 10 0 6 -2 10 -4 10 -3 0
-8 -4 -11 -10z"/>
<path d="M3910 245 c0 -8 -5 -15 -11 -15 -5 0 -7 5 -4 10 3 6 -3 10 -14 10
-11 0 -23 -5 -27 -12 -4 -7 -3 -8 5 -4 6 4 19 2 27 -5 12 -10 19 -9 37 9 19
19 19 22 4 22 -9 0 -17 -7 -17 -15z"/>
<path d="M3865 210 c-3 -5 -1 -10 4 -10 6 0 11 5 11 10 0 6 -2 10 -4 10 -3 0
-8 -4 -11 -10z"/>
<path d="M97 193 c6 -16 5 -17 -12 -3 -13 11 -19 12 -22 3 -2 -7 -11 -9 -19
-6 -8 3 -14 0 -14 -6 0 -6 -7 -8 -15 -5 -13 5 -15 -8 -15 -85 l0 -91 26 0 c32
0 72 30 66 49 -3 8 0 11 7 7 6 -4 11 -2 11 4 0 6 5 8 12 4 8 -5 9 -2 5 10 -5
13 -3 15 11 7 14 -7 21 -5 30 9 7 11 18 17 27 14 8 -4 15 -1 15 6 0 6 6 10 12
8 13 -5 38 14 38 27 0 10 -43 55 -52 55 -17 0 -7 -28 14 -42 17 -11 19 -16 8
-23 -9 -5 -11 -4 -6 3 4 7 3 12 -2 12 -5 0 -22 12 -37 26 -21 19 -30 22 -36
13 -6 -10 -13 -9 -33 4 -24 16 -25 16 -19 0z m113 -68 c0 -12 -19 -12 -23 0
-4 9 -1 12 9 8 7 -3 14 -7 14 -8z"/>
<path d="M246 188 c10 -13 20 -25 21 -27 1 -1 7 0 13 4 7 4 2 14 -14 26 -33
26 -43 24 -20 -3z"/>
<path d="M290 196 c0 -2 7 -9 15 -16 9 -7 15 -8 15 -2 0 5 -7 12 -15 16 -8 3
-15 4 -15 2z"/>
<path d="M3875 170 l-17 -35 22 23 c12 12 20 28 17 35 -2 7 -12 -4 -22 -23z"/>
<path d="M3840 179 c0 -5 5 -7 10 -4 6 3 10 8 10 11 0 2 -4 4 -10 4 -5 0 -10
-5 -10 -11z"/>
<path d="M4105 170 c-3 -5 -1 -10 4 -10 6 0 11 5 11 10 0 6 -2 10 -4 10 -3 0
-8 -4 -11 -10z"/>
<path d="M3914 154 c-18 -14 -18 -15 4 -4 12 6 22 13 22 15 0 8 -5 6 -26 -11z"/>
<path d="M4155 160 c-3 -5 -1 -10 4 -10 6 0 11 5 11 10 0 6 -2 10 -4 10 -3 0
-8 -4 -11 -10z"/>
<path d="M3150 140 c0 -5 5 -10 11 -10 5 0 7 5 4 10 -3 6 -8 10 -11 10 -2 0
-4 -4 -4 -10z"/>
<path d="M4076 134 c-3 -9 -11 -12 -18 -8 -8 5 -9 2 -4 -12 5 -10 11 -28 14
-38 8 -29 -14 -11 -28 23 l-12 30 -26 -27 c-15 -14 -25 -28 -24 -30 2 -3 0 -8
-5 -11 -4 -3 -19 -19 -32 -34 -26 -29 -23 -38 4 -10 14 14 18 14 27 2 7 -10 8
-8 3 9 -4 13 -2 22 4 22 6 0 11 -4 11 -9 0 -5 7 -12 16 -15 9 -4 13 -2 8 5 -4
6 0 15 7 20 11 6 11 11 1 21 -15 15 -16 28 -2 28 6 0 10 -6 10 -14 0 -8 7 -16
15 -20 8 -3 15 -13 15 -23 0 -11 7 -6 17 15 9 19 21 31 29 28 8 -3 11 0 7 10
-4 11 -8 12 -19 3 -8 -7 -17 -10 -19 -7 -8 7 6 38 16 38 5 0 9 5 9 10 0 16
-17 12 -24 -6z m-66 -75 c0 -5 -4 -9 -10 -9 -5 0 -10 7 -10 16 0 8 5 12 10 9
6 -3 10 -10 10 -16z"/>
<path d="M3725 130 c3 -5 8 -10 11 -10 2 0 4 5 4 10 0 6 -5 10 -11 10 -5 0 -7
-4 -4 -10z"/>
<path d="M3824 114 c-15 -16 -18 -26 -11 -33 7 -7 6 -16 -4 -28 -13 -17 -13
-17 4 -4 10 8 15 21 12 29 -3 8 2 23 11 34 25 26 13 28 -12 2z"/>
<path d="M3876 125 c-3 -9 0 -15 9 -15 16 0 20 16 6 24 -5 3 -11 -1 -15 -9z"/>
<path d="M3907 100 c-15 -16 -27 -33 -27 -37 0 -8 60 56 60 63 0 9 -8 2 -33
-26z"/>
<path d="M4120 124 c0 -10 31 -36 37 -31 3 3 -2 13 -10 22 -16 15 -27 19 -27
9z"/>
<path d="M2603 96 c1 -17 9 -31 17 -33 10 -3 11 -2 4 4 -7 4 -14 19 -17 33 -4
22 -5 21 -4 -4z"/>
<path d="M3560 109 c0 -5 5 -7 10 -4 6 3 10 8 10 11 0 2 -4 4 -10 4 -5 0 -10
-5 -10 -11z"/>
<path d="M3661 104 c0 -11 3 -14 6 -6 3 7 2 16 -1 19 -3 4 -6 -2 -5 -13z"/>
<path d="M3967 113 c-4 -3 -7 -11 -7 -17 0 -6 5 -5 12 2 6 6 9 14 7 17 -3 3
-9 2 -12 -2z"/>
<path d="M4186 111 c-3 -5 1 -11 9 -14 9 -4 12 -1 8 9 -6 16 -10 17 -17 5z"/>
<path d="M3578 80 c-9 -17 -14 -30 -10 -30 4 0 15 14 24 30 9 17 14 30 10 30
-4 0 -15 -14 -24 -30z"/>
<path d="M4610 91 c6 -12 18 -21 26 -21 19 0 10 16 -17 31 -19 10 -20 9 -9
-10z"/>
<path d="M4730 94 c0 -8 5 -12 10 -9 6 3 10 10 10 16 0 5 -4 9 -10 9 -5 0 -10
-7 -10 -16z"/>
<path d="M3612 80 c-18 -29 -15 -38 4 -12 9 13 14 25 12 27 -2 2 -9 -5 -16
-15z"/>
<path d="M3685 90 c-3 -5 -1 -10 4 -10 6 0 11 5 11 10 0 6 -2 10 -4 10 -3 0
-8 -4 -11 -10z"/>
<path d="M3765 90 c-3 -5 -1 -10 4 -10 6 0 11 5 11 10 0 6 -2 10 -4 10 -3 0
-8 -4 -11 -10z"/>
<path d="M4577 81 c6 -23 21 -37 30 -28 3 3 -4 16 -15 28 l-21 21 6 -21z"/>
<path d="M4661 74 c-6 -15 -9 -35 -5 -46 5 -16 3 -19 -7 -13 -8 5 -10 4 -6 0
4 -5 14 -10 22 -11 14 -2 20 18 17 59 -2 14 3 12 21 -9 16 -18 26 -24 31 -16
4 7 2 12 -3 12 -6 0 -11 7 -11 16 0 8 -4 13 -9 10 -5 -3 -11 1 -15 9 -8 22
-21 18 -35 -11z m19 -24 c0 -5 -4 -10 -10 -10 -5 0 -10 5 -10 10 0 6 5 10 10
10 6 0 10 -4 10 -10z"/>
<path d="M2540 81 c0 -6 4 -13 10 -16 6 -3 7 1 4 9 -7 18 -14 21 -14 7z"/>
<path d="M2570 81 c0 -6 4 -13 10 -16 6 -3 7 1 4 9 -7 18 -14 21 -14 7z"/>
<path d="M3533 65 c-6 -14 -8 -25 -4 -25 4 0 13 11 19 25 6 14 8 25 4 25 -4 0
-12 -11 -19 -25z"/>
<path d="M3703 64 c-12 -13 -19 -24 -14 -24 10 0 51 35 51 44 0 12 -15 4 -37
-20z"/>
<path d="M3633 65 c-19 -21 -16 -27 7 -13 11 7 20 16 20 20 0 12 -14 9 -27 -7z"/>
<path d="M4115 60 c-10 -11 -15 -20 -11 -20 11 0 39 30 34 36 -3 2 -13 -5 -23
-16z"/>
<path d="M4515 70 c3 -5 8 -10 11 -10 2 0 4 5 4 10 0 6 -5 10 -11 10 -5 0 -7
-4 -4 -10z"/>
<path d="M3386 38 c-15 -16 -26 -31 -23 -34 3 -3 16 6 28 20 12 14 26 23 31
20 4 -3 8 -1 8 5 0 21 -16 17 -44 -11z"/>
<path d="M3745 60 c-3 -5 -1 -10 4 -10 6 0 11 5 11 10 0 6 -2 10 -4 10 -3 0
-8 -4 -11 -10z"/>
<path d="M4436 52 c-6 -11 23 -47 31 -38 5 4 0 13 -9 20 -10 7 -15 16 -11 19
3 4 4 7 0 7 -3 0 -8 -3 -11 -8z"/>
<path d="M4542 48 c5 -15 28 -23 28 -10 0 5 -7 13 -16 16 -10 4 -14 1 -12 -6z"/>
<path d="M1595 40 c3 -5 8 -10 11 -10 2 0 4 5 4 10 0 6 -5 10 -11 10 -5 0 -7
-4 -4 -10z"/>
<path d="M1690 45 c0 -5 5 -17 10 -25 5 -8 10 -10 10 -5 0 6 -5 17 -10 25 -5
8 -10 11 -10 5z"/>
<path d="M2566 42 c-2 -4 -1 -14 5 -22 7 -12 9 -10 9 8 0 23 -5 28 -14 14z"/>
<path d="M4361 33 c-1 -12 4 -25 9 -28 12 -7 12 2 0 30 -8 19 -9 19 -9 -2z"/>
<path d="M4401 43 c0 -4 4 -17 9 -28 8 -19 9 -19 9 2 1 12 -3 25 -9 28 -5 3
-10 3 -9 -2z"/>
<path d="M1480 24 c0 -8 5 -12 10 -9 6 3 10 10 10 16 0 5 -4 9 -10 9 -5 0 -10
-7 -10 -16z"/>
<path d="M1725 30 c3 -5 8 -10 11 -10 2 0 4 5 4 10 0 6 -5 10 -11 10 -5 0 -7
-4 -4 -10z"/>
<path d="M3480 29 c0 -5 5 -7 10 -4 6 3 10 8 10 11 0 2 -4 4 -10 4 -5 0 -10
-5 -10 -11z"/>
<path d="M3545 29 c-4 -6 -5 -12 -2 -15 2 -3 7 2 10 11 7 17 1 20 -8 4z"/>
<path d="M3585 29 c-4 -6 -5 -12 -2 -15 2 -3 7 2 10 11 7 17 1 20 -8 4z"/>
<path d="M3640 29 c0 -5 5 -7 10 -4 6 3 10 8 10 11 0 2 -4 4 -10 4 -5 0 -10
-5 -10 -11z"/>
<path d="M3719 23 c-13 -16 -12 -17 4 -4 16 13 21 21 13 21 -2 0 -10 -8 -17
-17z"/>
<path d="M3760 25 c-7 -9 -10 -18 -7 -21 3 -3 10 4 17 15 13 25 8 27 -10 6z"/>
<path d="M3815 20 c-16 -17 -16 -20 -3 -15 9 4 19 13 22 21 7 19 2 18 -19 -6z"/>
<path d="M4030 29 c0 -5 5 -7 10 -4 6 3 10 8 10 11 0 2 -4 4 -10 4 -5 0 -10
-5 -10 -11z"/>
<path d="M4131 24 c0 -11 3 -14 6 -6 3 7 2 16 -1 19 -3 4 -6 -2 -5 -13z"/>
<path d="M4612 22 c-21 -17 -22 -18 -3 -18 11 0 22 8 24 18 3 10 4 18 4 18 -1
0 -12 -8 -25 -18z"/>
<path d="M2820 20 c0 -5 5 -10 11 -10 5 0 7 5 4 10 -3 6 -8 10 -11 10 -2 0 -4
-4 -4 -10z"/>
<path d="M4327 23 c-11 -11 -8 -20 7 -20 8 0 12 6 9 14 -6 15 -7 15 -16 6z"/>
</g>
</svg>
