<?xml version="1.0" standalone="no"?>
<!DOCTYPE svg PUBLIC "-//W3C//DTD SVG 20010904//EN"
 "http://www.w3.org/TR/2001/REC-SVG-20010904/DTD/svg10.dtd">
<svg version="1.0" xmlns="http://www.w3.org/2000/svg"
 width="1689.000000pt" height="430.000000pt" viewBox="0 0 1689.000000 430.000000"
 preserveAspectRatio="xMidYMid meet">
<metadata>
Created by potrace 1.16, written by Peter Selinger 2001-2019
</metadata>
<g transform="translate(0.000000,430.000000) scale(0.100000,-0.100000)"
fill="#000000" stroke="none">
<path d="M2957 4280 c-13 -11 -28 -31 -31 -45 -4 -14 -92 -665 -196 -1447
-105 -782 -192 -1423 -193 -1424 -2 -2 -38 57 -81 131 -43 75 -88 142 -99 150
-18 12 -70 15 -303 15 l-282 0 -34 73 c-47 97 -113 168 -194 208 -58 29 -70
31 -137 27 -56 -4 -86 -12 -126 -33 -69 -38 -148 -125 -189 -208 l-33 -67
-500 0 -501 0 -29 -29 c-45 -45 -36 -126 18 -150 16 -8 190 -11 564 -11 l541
0 27 28 c16 16 35 52 45 84 37 127 128 208 217 193 30 -5 54 -19 89 -54 41
-40 52 -58 74 -133 20 -63 33 -90 51 -102 21 -14 65 -16 307 -16 l283 0 130
-228 c71 -125 142 -239 157 -254 40 -42 117 -35 146 13 10 15 193 1344 304
2199 2 14 49 -675 106 -1530 57 -855 106 -1569 109 -1587 13 -79 106 -111 162
-56 29 30 13 -58 234 1291 17 105 34 192 37 192 3 0 44 -154 90 -342 96 -387
101 -398 180 -398 69 0 76 13 194 368 l108 322 478 0 c446 0 480 -1 489 -17
10 -17 10 -17 11 0 0 16 67 17 1260 17 l1260 0 0 -35 c0 -27 27 -83 110 -228
61 -106 122 -202 136 -215 40 -35 115 -25 142 19 10 15 193 1344 304 2199 2
14 49 -675 106 -1530 57 -855 106 -1569 109 -1587 13 -79 106 -111 162 -56 29
30 13 -58 234 1291 17 105 34 192 37 192 3 0 44 -154 90 -343 96 -386 101
-397 180 -397 69 0 77 15 189 351 55 167 101 312 101 322 0 16 87 17 1695 17
l1695 0 0 -35 c0 -27 27 -83 110 -228 61 -106 122 -202 136 -215 40 -35 115
-25 142 19 10 15 193 1344 304 2199 2 14 49 -675 106 -1530 57 -855 106 -1569
109 -1587 13 -79 106 -111 162 -56 29 30 13 -58 234 1291 17 105 34 192 37
192 3 0 44 -154 90 -343 96 -386 101 -397 180 -397 69 0 77 15 189 351 55 167
101 312 101 322 0 16 54 17 1000 17 l1000 0 0 100 0 100 -1022 0 c-680 0
-1036 -4 -1061 -11 -20 -5 -44 -20 -52 -33 -9 -13 -44 -109 -79 -212 l-63
-189 -11 40 c-6 22 -52 204 -102 405 -49 201 -97 380 -105 398 -10 21 -28 38
-51 48 -32 14 -39 13 -72 -3 -20 -10 -42 -29 -49 -43 -6 -14 -51 -270 -100
-570 -48 -300 -89 -534 -90 -520 -2 14 -50 738 -108 1610 -58 872 -107 1604
-110 1627 -8 56 -45 93 -95 93 -44 0 -85 -28 -94 -65 -4 -14 -92 -665 -196
-1447 -105 -782 -192 -1423 -193 -1424 -2 -2 -38 57 -81 131 -43 75 -88 142
-99 150 -19 13 -237 15 -1762 15 -1178 0 -1752 -3 -1778 -11 -20 -5 -44 -20
-52 -33 -9 -13 -44 -109 -79 -212 l-63 -189 -11 40 c-6 22 -52 204 -102 405
-49 201 -97 380 -105 398 -10 21 -28 38 -51 48 -32 14 -39 13 -72 -3 -20 -10
-42 -29 -49 -43 -6 -14 -51 -270 -100 -570 -48 -300 -89 -534 -90 -520 -2 14
-50 738 -108 1610 -58 872 -107 1604 -110 1627 -8 56 -45 93 -95 93 -44 0 -85
-28 -94 -65 -4 -14 -92 -665 -196 -1447 -105 -782 -192 -1423 -193 -1424 -2
-2 -38 57 -81 131 -43 75 -88 142 -99 150 -19 13 -244 15 -1822 15 -1220 0
-1812 -3 -1838 -11 -20 -5 -44 -20 -52 -33 -9 -13 -44 -109 -79 -212 l-63
-189 -11 40 c-6 22 -52 204 -102 405 -49 201 -97 380 -105 398 -10 21 -28 38
-51 48 -32 14 -39 13 -72 -3 -20 -10 -42 -29 -49 -43 -6 -14 -51 -270 -100
-570 -48 -300 -89 -534 -90 -520 -2 14 -50 738 -108 1610 -58 872 -107 1604
-110 1627 -11 82 -96 122 -158 73z"/>
</g>
</svg>
