<svg version="1.1" id="Layer_1" xmlns="http://www.w3.org/2000/svg" xmlns:xlink="http://www.w3.org/1999/xlink" x="0px" y="0px"
	 width="100%" viewBox="0 0 464 432" enable-background="new 0 0 464 432" xml:space="preserve">
<path fill="#000000" opacity="1.000000" stroke="none" 
	d="
M465.000000,242.531342 
	C460.973999,254.388794 455.594513,265.025574 447.636414,274.227295 
	C446.720520,275.286316 446.513062,276.557037 446.262695,277.892883 
	C444.666107,286.412567 440.942749,293.643280 433.325256,298.352295 
	C431.249512,299.635498 430.048645,301.636200 428.653229,303.485504 
	C418.797180,316.547699 408.236023,328.928162 395.563751,339.427856 
	C375.989471,355.646240 356.598175,372.037415 334.334290,384.667633 
	C318.632324,393.575287 302.636810,400.971924 284.050659,400.362915 
	C281.579437,400.281921 279.585693,401.548431 277.504517,402.572845 
	C262.004486,410.202606 246.047485,416.174469 228.464478,416.547241 
	C221.261993,416.699951 214.154297,416.167938 207.233826,414.142059 
	C204.890381,413.456085 202.805618,413.398224 200.451859,414.190613 
	C187.023193,418.711121 173.596527,418.508820 160.353409,413.469330 
	C138.610504,405.195282 120.244774,393.049500 111.707962,369.988220 
	C110.580536,366.942566 108.382622,365.979309 105.399727,365.187897 
	C71.905128,356.301331 46.920746,336.420532 30.342297,306.089417 
	C26.223434,298.553772 24.833267,290.197296 24.582104,281.536499 
	C24.332758,272.938446 21.006153,264.685974 21.535643,255.870193 
	C21.888254,249.999359 22.211510,244.127075 24.484753,238.758820 
	C27.897154,230.700439 29.570669,222.374252 30.622925,213.744461 
	C32.384136,199.300354 39.667557,187.779861 50.983849,178.867737 
	C54.888577,175.792557 57.732952,172.369797 59.581734,167.654678 
	C65.853996,151.657974 76.011856,138.394562 89.257629,127.505043 
	C91.124664,125.970139 92.421455,124.228561 93.403038,122.038719 
	C104.130600,98.106163 118.803497,77.167931 139.845764,61.076763 
	C141.010727,60.185898 141.975708,58.980534 142.871674,57.798668 
	C161.940308,32.645401 186.909927,17.177382 218.104477,11.932668 
	C219.571976,11.685939 221.135956,11.500780 222.584091,11.731688 
	C234.777115,13.675910 246.683807,11.332830 258.605042,9.381134 
	C261.486725,8.909355 264.353760,8.966690 267.029877,9.698815 
	C279.462463,13.100113 292.160126,9.567414 304.702148,11.516249 
	C319.994385,13.892426 334.428284,17.646435 345.286804,29.598097 
	C347.485809,32.018459 350.366669,32.036972 353.035828,32.466930 
	C366.440582,34.626205 377.898438,39.834934 385.202484,51.973137 
	C386.110016,53.481316 387.599457,54.239956 389.017487,55.105255 
	C396.100952,59.427719 402.169037,64.794456 406.153351,72.195328 
	C407.270905,74.271133 409.093536,75.308929 410.996765,76.330002 
	C429.089691,86.036812 441.271973,100.507065 446.680298,120.472153 
	C447.200317,122.391975 447.841919,124.189545 449.898254,125.250504 
	C456.496796,128.654999 461.109283,134.033585 464.760620,140.763229 
	C465.000000,174.687561 465.000000,208.375122 465.000000,242.531342 
M256.835938,170.658020 
	C259.949524,173.521393 263.860352,175.502731 267.002289,179.574753 
	C257.527191,178.881073 251.218903,172.834656 243.824173,168.814301 
	C243.180893,172.911133 245.929184,175.763062 244.853394,179.877426 
	C237.638657,173.028763 235.812546,164.312042 232.620941,156.222214 
	C229.352203,147.936905 224.174118,140.510590 221.757950,131.937912 
	C211.759018,134.266571 203.428619,146.635147 202.940872,159.116028 
	C205.790649,161.659729 210.963257,159.526505 213.554474,164.652542 
	C196.294418,165.196701 183.734009,173.336334 174.094833,186.472885 
	C164.799606,199.140732 159.490433,213.447800 155.813370,230.224930 
	C164.880814,225.444763 172.612854,221.409958 180.289993,217.273239 
	C181.344315,216.705124 181.432663,215.338699 181.751572,214.202408 
	C183.909317,206.514297 188.319107,200.147812 194.904724,195.911560 
	C203.682159,190.265411 211.088745,183.689484 215.150238,173.854904 
	C215.292908,173.509460 215.911087,173.360367 216.602982,172.940567 
	C218.780090,178.428238 216.071304,183.255585 214.532318,188.559509 
	C222.136017,187.888382 229.042694,187.124573 236.601639,191.841248 
	C231.811676,192.441071 228.435211,192.913727 225.047134,193.278473 
	C216.164398,194.234695 207.688461,196.482834 200.153397,201.446121 
	C191.105576,207.405838 187.663116,216.561539 190.222656,226.993164 
	C191.715439,233.077118 194.550613,238.484009 198.059555,243.608414 
	C198.888519,244.819046 200.579514,245.845139 199.451508,248.385452 
	C191.147186,242.915848 186.472534,234.963776 182.153946,226.305206 
	C169.479630,232.583008 157.812500,239.562607 147.526108,248.638779 
	C134.421265,260.201782 124.951462,273.912659 122.733841,291.804291 
	C121.819267,299.183105 123.064186,306.086304 126.348244,312.957672 
	C133.101974,296.682770 144.792221,285.546661 160.023407,277.808868 
	C161.810272,276.901123 162.225037,275.013580 162.947449,273.325012 
	C165.503510,267.350494 168.129425,261.395569 171.829803,256.016449 
	C172.938629,254.404602 173.933090,252.347839 177.017517,252.322845 
	C175.494385,256.770386 174.245239,260.704041 172.803772,264.565918 
	C170.011414,272.047058 168.206802,279.068176 174.243668,286.341553 
	C177.477661,290.237946 178.806152,295.682343 178.054428,301.379303 
	C175.575272,300.705139 175.414749,298.797424 174.534363,297.498230 
	C172.481735,294.469177 170.551331,291.355927 168.454681,288.358429 
	C166.092194,284.980957 163.633728,284.100433 159.762787,286.917938 
	C153.522552,291.459961 147.522919,296.239716 142.719894,302.238892 
	C134.322113,312.728058 128.935074,324.216248 132.318573,338.234528 
	C135.426102,351.109406 148.848694,355.720367 159.162933,347.341187 
	C163.457642,343.852203 166.058136,339.239716 167.605911,334.039642 
	C169.359619,328.147675 170.836090,322.173309 172.577271,316.277344 
	C173.257996,313.972321 174.001175,311.546906 176.552689,310.259979 
	C177.969009,312.186249 177.345444,314.059387 176.965820,315.708252 
	C175.899475,320.339752 176.385620,324.999451 176.372559,329.647156 
	C176.363861,332.739990 177.862091,334.777832 181.131500,334.915131 
	C189.055649,335.247711 196.726791,334.054321 204.030930,330.838654 
	C205.690659,330.107971 206.960495,329.236481 206.216721,327.074615 
	C202.995880,317.712769 203.688110,308.034424 203.841507,298.379059 
	C203.965210,290.593170 200.610321,286.140900 193.042862,283.494965 
	C191.415085,282.925842 189.514130,282.901855 188.193039,280.941803 
	C193.138382,278.052124 197.976593,278.818817 202.817078,280.024078 
	C204.437622,280.427582 206.292068,281.390381 207.348434,279.553528 
	C210.235840,274.532776 214.833786,270.224365 215.764603,264.393890 
	C218.160706,249.385239 225.615372,237.386200 236.277481,226.993195 
	C240.073563,223.292938 241.924332,218.671463 243.013779,213.384247 
	C243.898956,209.088425 241.769745,204.884140 243.387863,200.237183 
	C249.327942,204.296936 247.785400,210.903702 249.651871,215.921692 
	C251.258377,216.632584 252.479004,215.882751 253.668732,215.399979 
	C263.593811,211.372467 272.964020,206.335022 281.446991,199.753571 
	C292.287170,191.343323 293.515900,182.571411 285.741272,171.193680 
	C281.342041,164.755661 275.600037,159.772736 269.472717,155.110580 
	C262.551239,149.844193 256.087006,144.074875 251.253006,136.748306 
	C249.492233,134.079636 247.748749,131.244156 249.222214,126.877991 
	C254.761703,135.665543 261.146545,142.431793 269.903870,147.283493 
	C272.933716,139.367874 273.328003,130.630539 279.706696,124.600876 
	C280.180847,126.094055 280.250153,127.424683 279.975067,128.679840 
	C278.585205,135.021790 277.670807,141.430725 276.982635,147.881180 
	C276.840576,149.212906 276.331512,150.559830 277.537292,151.609497 
	C280.492249,154.181870 282.876648,157.446289 286.572327,159.417679 
	C292.428253,152.782913 298.233826,146.393845 307.489014,145.132080 
	C303.343567,150.852356 298.502594,155.845551 294.424896,161.474976 
	C292.556061,164.054977 292.052490,166.153427 293.974182,169.089310 
	C297.408783,174.336700 298.999359,180.394073 299.151123,186.595444 
	C299.240631,190.254044 300.649872,192.080246 303.869659,193.179031 
	C313.651245,196.517090 323.648132,197.488907 333.884857,196.163177 
	C336.927490,195.769104 339.973419,195.400543 343.017853,195.020309 
	C337.594238,201.996948 329.283447,201.393646 321.892212,203.768097 
	C322.376129,208.856262 323.028290,213.774948 323.262054,218.713440 
	C323.498169,223.701324 323.498566,228.717407 323.259979,233.704758 
	C323.100128,237.047058 323.800385,239.820663 325.919647,242.480148 
	C329.838104,247.397430 331.886047,253.109116 332.823761,259.359619 
	C333.406433,263.243530 331.418335,266.818146 331.941650,270.568451 
	C340.927856,272.797485 357.120911,266.318817 361.655731,258.802429 
	C365.020050,253.226105 363.777863,246.743469 358.458740,243.045090 
	C357.482269,246.277267 356.710785,249.509567 355.518677,252.578491 
	C354.413879,255.422653 353.953003,258.841431 349.797821,260.848328 
	C353.174835,245.975479 352.863831,231.684464 352.662445,217.404510 
	C352.504242,206.190384 350.670746,195.246750 347.148254,184.587067 
	C340.409943,164.195724 327.051666,148.418991 312.102936,133.634598 
	C302.296753,123.936234 290.740417,117.888184 277.317017,115.284676 
	C271.959412,114.245552 266.533356,113.559250 261.138458,112.712334 
	C271.231628,107.591507 281.624420,110.789223 292.536560,111.135498 
	C289.762207,94.623512 290.289520,78.735489 296.695038,62.417740 
	C277.013824,66.787041 274.500549,82.488258 270.767914,97.492783 
	C267.620117,95.657753 267.365509,92.678032 266.785858,90.049065 
	C266.244629,87.594383 265.063110,87.234657 262.864502,87.695328 
	C243.209686,91.813652 227.588318,118.032524 233.089325,137.767944 
	C236.887115,151.392838 246.098175,161.152115 256.835938,170.658020 
M221.380219,103.777313 
	C224.946106,99.249481 223.754166,95.240341 219.230179,91.851181 
	C222.565033,89.964272 224.854156,91.325134 227.066986,92.239014 
	C233.594833,94.934952 238.440491,93.910614 243.780426,88.758469 
	C248.430710,84.271721 249.102127,79.417908 245.696198,73.939453 
	C245.481506,73.594116 245.668274,72.999207 245.668274,72.493790 
	C247.952637,71.033096 249.902725,72.566216 251.855209,73.165794 
	C259.896301,75.635101 268.129456,72.209435 271.869171,64.668114 
	C273.385559,61.610310 273.393158,59.000725 269.916656,57.078320 
	C268.029968,56.035023 265.622772,55.193226 265.420227,52.416000 
	C267.146423,51.493576 268.576385,52.359543 269.982544,52.647366 
	C283.512543,55.416828 295.652588,53.189816 306.282562,43.703899 
	C312.346527,38.292572 319.920532,35.489403 327.802094,33.639629 
	C329.845245,33.160110 331.878357,32.637844 334.803955,31.916199 
	C322.441956,19.458809 311.341156,26.258423 300.216248,32.696007 
	C299.785126,29.587568 301.404449,28.011175 302.812469,26.474310 
	C304.344269,24.802353 306.149475,23.380898 307.927368,21.766792 
	C301.223053,19.323153 288.245880,23.117884 283.857910,28.642315 
	C285.351135,31.250038 289.167267,32.023285 289.699402,35.676849 
	C287.147583,36.125626 285.342682,34.639828 283.320679,34.093651 
	C270.135406,30.532055 257.933319,33.024879 246.624817,40.223835 
	C243.682968,42.096600 240.584900,45.219097 241.877319,48.807232 
	C243.168732,52.392647 247.364578,50.647087 250.371292,50.744411 
	C252.922684,50.827000 255.229553,49.734333 257.614777,49.012978 
	C258.602631,48.714222 259.740723,47.799419 260.900146,49.396709 
	C257.923859,54.220177 253.471466,56.815582 247.927475,57.309059 
	C237.473419,58.239586 228.078888,61.428379 220.650986,69.183296 
	C218.933121,70.976791 216.766251,72.878319 217.476807,75.605705 
	C218.278046,78.681129 221.462204,78.076263 223.764847,78.597496 
	C227.090897,79.350403 230.559616,79.696899 233.076355,84.254356 
	C219.802139,81.052795 208.149933,84.480850 195.543030,89.625641 
	C197.847336,84.466682 200.899506,82.545311 204.028046,80.651833 
	C208.683243,77.834373 208.754868,74.796318 204.236649,71.652817 
	C202.156113,70.205322 199.821121,69.414070 197.237244,69.288383 
	C190.179932,68.945076 183.296143,69.694305 176.587219,72.032486 
	C172.662979,73.400162 168.671570,74.581314 164.686371,75.765633 
	C162.068405,76.543655 159.651199,76.222786 156.394455,73.460480 
	C166.644089,72.435371 173.986465,66.541122 182.817856,64.919571 
	C186.972427,64.156746 189.146698,62.364571 189.822632,58.015415 
	C190.369476,54.496853 191.865356,51.028664 197.128952,50.353432 
	C196.142258,52.853127 195.268265,54.750004 194.641464,56.725323 
	C193.543320,60.186008 194.555893,62.718388 198.336243,63.451660 
	C203.636307,64.479713 208.451828,66.494484 212.566391,70.136032 
	C215.242722,67.260117 217.629547,64.501945 220.219666,61.950134 
	C226.664230,55.600956 226.310837,53.708988 217.733292,50.489456 
	C216.044632,49.855629 214.209518,49.583225 212.422638,49.246708 
	C209.806549,48.754025 207.173019,48.353935 203.205536,47.689873 
	C209.441147,44.566483 214.505402,45.216915 219.581131,45.961445 
	C224.808945,46.728283 228.447571,50.636539 233.165314,53.675190 
	C233.877274,48.230412 235.366913,43.915989 237.773163,38.975098 
	C208.115646,30.570845 187.316116,43.749775 169.190338,65.227173 
	C167.496170,60.359200 170.621277,57.421989 172.018799,53.400692 
	C163.406891,57.413338 155.737381,61.614178 149.237808,67.719849 
	C144.228180,72.425888 142.989410,78.213547 144.707581,84.644051 
	C146.352875,90.801872 147.904129,91.565155 154.115387,90.026268 
	C154.918961,89.827171 155.753555,89.749626 156.575958,89.630753 
	C162.410202,88.787399 167.383347,85.989899 170.422256,81.794785 
	C171.759079,82.986458 171.911926,84.683128 172.292526,86.224739 
	C174.068130,93.416763 178.996643,97.265549 185.934250,98.413574 
	C189.834595,99.059006 193.917923,98.950073 197.890228,98.709274 
	C201.782211,98.473343 205.637955,97.639160 209.918320,97.007210 
	C208.802277,100.530724 206.101501,101.327919 203.703598,102.164680 
	C192.939468,105.920883 182.234161,105.978462 172.594864,99.349686 
	C158.052078,89.348877 140.919022,99.619888 138.853943,114.543610 
	C137.714142,122.780731 138.049728,130.787338 141.073334,138.588608 
	C141.480515,139.639160 141.736389,140.881561 143.510452,141.183624 
	C146.717316,137.878250 148.709503,132.632339 155.569077,131.739990 
	C146.994583,144.653137 143.408096,158.417267 139.921341,173.607071 
	C137.952469,169.405396 137.631912,166.579636 138.222702,163.553207 
	C139.738983,155.785629 140.355255,148.142792 135.920090,140.899796 
	C134.737946,138.969223 134.348831,136.527786 133.724945,134.284927 
	C130.762909,123.636314 131.850342,113.268814 136.694290,102.751183 
	C129.836105,102.582802 125.360413,105.907761 121.170013,109.718498 
	C112.451126,117.647415 107.225952,128.360321 99.493721,137.098953 
	C94.968773,142.212860 90.620979,147.615265 88.117813,154.036057 
	C85.486015,160.786758 84.594498,167.685791 89.636391,174.774063 
	C93.439980,170.641159 96.573174,166.893906 99.082428,162.552780 
	C104.604340,152.999680 110.604179,143.758759 119.546974,136.964554 
	C121.991425,135.107422 124.383400,132.518173 128.229080,133.286407 
	C127.736588,135.788071 125.864204,136.828232 124.484711,138.170105 
	C118.962257,143.541931 114.044014,149.401794 110.019432,155.964600 
	C106.266556,162.084335 102.821587,168.397537 101.518318,175.564362 
	C100.413551,181.639633 102.550674,184.078705 108.609520,183.821198 
	C111.925797,183.680267 115.224007,183.156616 118.538803,182.927963 
	C122.710045,182.640259 126.971489,182.145813 131.285339,186.218918 
	C116.371849,189.092773 104.303139,195.539902 94.590332,207.379929 
	C93.026817,202.737122 94.599297,200.163666 96.207115,197.701843 
	C97.818123,195.235168 99.664963,192.922531 101.541801,190.360321 
	C98.412117,187.884232 96.375275,184.908264 93.907265,181.471283 
	C86.091507,192.991226 81.932320,205.737473 76.363106,218.122986 
	C73.842735,216.081116 75.470863,213.307587 73.834671,211.774643 
	C57.999493,218.220703 52.025669,227.355606 56.339489,238.698227 
	C58.154884,237.970642 59.033909,236.270813 60.216965,234.927353 
	C64.421707,230.152542 69.493698,226.663101 75.775146,225.590714 
	C80.512817,224.781876 84.242249,223.034286 87.715347,219.490738 
	C92.533699,214.574661 98.881897,213.873337 103.863274,217.036819 
	C92.391335,218.499893 86.863167,225.578217 84.848793,235.775803 
	C83.724068,241.469589 82.797775,247.253265 82.447670,253.036743 
	C81.991959,260.564606 82.970413,268.023743 86.236549,274.951324 
	C89.002480,280.817963 94.402397,284.402832 99.521782,283.854248 
	C105.704201,283.191681 108.065605,278.478455 109.605301,273.419891 
	C112.583519,263.635101 116.800415,254.470490 121.984688,245.666672 
	C126.973267,237.195160 125.294754,229.757233 117.491203,223.683243 
	C113.273193,220.400085 112.519791,220.644623 110.299103,225.431061 
	C108.807838,228.645294 108.555763,232.418488 106.088837,235.433197 
	C101.361938,225.488892 111.485588,202.788834 121.230492,201.005020 
	C121.489647,203.788910 119.636978,206.025375 119.331833,208.670166 
	C118.443390,216.370590 122.026070,219.598618 129.599579,217.954025 
	C135.035873,216.773529 139.370895,213.925812 143.108856,209.928925 
	C150.331268,202.206253 150.824448,192.612534 150.889999,182.831192 
	C150.916122,178.934555 150.194153,174.979263 151.265381,170.695496 
	C155.740509,172.999222 155.412796,178.018982 158.341415,181.287170 
	C162.892929,172.329727 168.088684,164.082321 174.590591,156.603302 
	C170.158051,151.998474 165.564835,148.056366 165.753433,140.747833 
	C169.667282,142.450531 171.913223,145.378815 175.228989,146.565857 
	C184.552536,149.903732 197.771469,142.736069 202.616928,131.630219 
	C205.066666,126.015427 203.299683,122.160675 197.307526,121.565308 
	C189.703537,120.809807 182.051270,120.582008 174.427414,122.122025 
	C168.762344,123.266380 163.664902,126.024498 157.891174,127.917305 
	C157.825211,123.677887 161.563614,122.487968 163.035095,119.688484 
	C159.822937,116.858650 154.281616,117.327377 152.515457,112.016174 
	C153.637863,112.016174 154.302658,111.892830 154.905380,112.034195 
	C170.358841,115.658897 185.963196,115.489029 201.561249,113.519424 
	C208.888336,112.594215 215.969467,110.550339 221.380219,103.777313 
M260.825226,387.732361 
	C272.210754,391.222626 285.445312,384.785706 287.363281,375.166870 
	C277.266235,374.599213 268.925293,381.361877 258.718414,383.409485 
	C259.466919,380.099274 261.395966,379.148621 262.780640,377.803680 
	C278.246368,362.781860 283.747162,344.677734 279.580658,323.603943 
	C277.981598,315.516113 277.246521,315.172821 269.034790,314.201385 
	C263.571045,313.555023 258.201294,312.232391 254.209763,307.227264 
	C256.785645,306.275818 258.510559,307.045532 260.285614,307.367920 
	C277.356140,310.468323 287.665222,302.118195 288.880524,284.923737 
	C289.388977,277.730194 288.749756,270.644379 288.636780,263.509186 
	C288.620239,262.466003 287.890533,261.140167 289.708374,260.448608 
	C295.745209,266.790344 294.401947,275.612915 296.809387,283.624390 
	C304.824371,281.578033 311.441101,277.928467 317.512238,273.213898 
	C324.704620,267.628571 326.303711,263.122528 323.804749,256.026245 
	C320.858582,247.660141 314.862274,243.079803 306.821930,243.064346 
	C301.308380,243.053741 295.899963,243.898560 290.471802,244.805740 
	C285.877838,245.573486 281.478424,247.670868 276.375183,247.420242 
	C278.515778,244.055878 278.495819,244.017426 281.067596,242.682114 
	C289.852570,238.120728 299.305115,236.645477 309.083038,236.631500 
	C315.553864,236.622253 315.601959,236.581100 315.764191,229.958038 
	C315.849762,226.463135 315.680389,222.962692 315.718079,219.465744 
	C315.817474,210.246063 311.856354,204.015152 302.923737,200.855606 
	C296.664612,198.641693 296.107086,198.626205 293.171509,205.007355 
	C297.173309,207.889679 301.683258,210.499496 302.626648,217.228729 
	C285.586456,204.549942 272.103790,214.871048 257.071289,221.839279 
	C264.033112,225.752350 270.775146,228.245499 273.489594,236.703781 
	C268.601959,234.294495 264.747192,232.154999 260.707153,230.456177 
	C253.780594,227.543579 246.799881,227.491653 241.090607,232.854355 
	C232.481522,240.940872 227.422150,251.124863 225.092392,262.718750 
	C224.454132,265.894958 225.853973,267.315674 228.501801,268.341705 
	C234.428711,270.638397 240.480927,272.224915 246.858643,272.761169 
	C253.970642,273.359161 261.172699,273.829254 267.755005,277.030914 
	C270.012115,278.128784 272.570618,279.086945 273.534851,282.851746 
	C264.859741,280.358154 256.607117,280.028351 248.313782,280.335815 
	C240.928635,280.609680 233.651413,279.800873 226.648621,277.514099 
	C222.364975,276.115295 219.614471,277.204285 217.787643,281.173889 
	C209.717575,298.709564 208.880829,316.340698 218.873611,333.237976 
	C225.151306,343.853302 233.992279,352.665741 242.443634,361.655762 
	C243.810272,363.109528 245.883972,364.203369 246.064041,367.149933 
	C238.451340,365.598602 233.114151,361.009247 228.267944,356.132355 
	C221.981384,349.806030 214.465378,346.313904 205.956924,344.775604 
	C199.913101,343.682831 193.778763,342.790771 187.652954,342.513916 
	C174.890564,341.937042 164.718445,351.870483 164.277466,364.707886 
	C164.167313,367.915009 164.914948,370.761627 167.335648,372.820679 
	C178.561462,382.369629 191.789337,384.370453 206.611053,383.446655 
	C203.059387,377.141907 198.723679,371.860260 201.099533,363.793915 
	C202.456802,365.675049 203.250244,366.703583 203.968857,367.781952 
	C210.103897,376.988770 218.123001,382.254028 229.760193,381.944977 
	C240.123764,381.669800 250.260880,383.895966 260.825226,387.732361 
M312.437012,95.921379 
	C309.463593,98.074005 306.513245,100.256111 304.419037,103.352356 
	C301.278564,107.995483 301.343384,114.268356 305.276337,118.100182 
	C313.261414,125.879951 321.411163,133.508896 329.800842,140.848129 
	C334.512299,144.969696 338.793793,144.558624 343.793427,140.585144 
	C346.962311,138.066711 349.486023,135.019852 351.524231,131.516434 
	C352.385681,130.035736 352.768585,128.044189 354.818726,127.491791 
	C356.445587,128.620590 356.196655,130.117432 355.735840,131.570343 
	C352.951874,140.348434 347.306824,146.823334 338.800293,151.323990 
	C345.051025,159.748077 348.991821,168.684906 352.451416,177.909592 
	C354.258667,182.728455 358.020721,183.897934 363.157623,182.043564 
	C367.897156,180.332657 371.001587,176.563110 374.355743,173.089828 
	C375.500793,171.904114 376.099701,169.857620 379.009491,169.939316 
	C376.013275,182.008728 368.242615,188.389221 356.925659,190.690140 
	C357.728058,198.500031 358.582306,205.754944 359.192383,213.030319 
	C359.899231,221.459961 364.867065,226.315979 373.351471,226.683548 
	C375.053162,226.757278 376.909729,226.094086 378.916199,227.388962 
	C373.237244,232.407532 367.112946,231.570312 361.110504,229.870575 
	C359.788513,232.213928 361.112854,233.288223 362.311096,234.492065 
	C364.068024,236.257248 366.142212,237.881042 367.345856,239.985626 
	C369.730804,244.155731 373.140533,246.961395 377.000458,249.692886 
	C384.917419,255.295395 389.657043,263.051178 391.529877,272.729340 
	C392.519867,277.845184 391.908081,282.852203 391.545471,288.048126 
	C395.259369,286.888794 395.280945,286.912354 397.442841,284.931824 
	C413.858490,269.893463 415.501465,251.465302 409.763733,231.321533 
	C408.273193,226.088593 404.968414,222.328720 400.676605,219.179718 
	C397.768799,217.046204 395.480347,216.934311 392.976562,219.887375 
	C390.938477,222.291168 388.707397,224.834579 383.886841,224.923431 
	C393.170044,211.567535 397.687195,197.965057 394.383423,182.459427 
	C390.914703,166.179504 379.421326,157.936035 363.252045,153.010422 
	C368.245117,150.859985 371.596802,152.200836 375.838074,151.583008 
	C370.251678,125.832993 356.926514,106.660812 331.869049,95.766258 
	C338.225281,92.904678 343.623016,95.247375 349.458160,96.243706 
	C352.466278,82.450668 346.520477,72.008629 336.718475,61.827572 
	C346.425598,62.913425 350.087372,69.525307 354.607056,75.371201 
	C358.454315,72.567085 361.347900,69.393028 362.703491,65.158058 
	C364.616852,59.180420 367.054138,53.869328 374.418823,53.457302 
	C369.592224,40.891262 343.257294,36.262012 326.098724,43.467789 
	C304.448334,52.559902 295.398804,71.894836 300.377808,95.692688 
	C306.048523,91.993492 311.292572,87.831268 317.795929,86.106018 
	C324.269745,84.388603 330.593536,83.591095 337.606293,88.990242 
	C327.974457,89.435425 320.051453,90.942772 312.437012,95.921379 
M319.936066,303.385315 
	C322.662689,301.280304 325.350372,299.050781 329.578766,300.357605 
	C329.092926,301.332214 328.893311,302.195526 328.361267,302.724457 
	C325.074707,305.991638 324.892578,308.910797 328.330536,312.452637 
	C331.251587,315.461884 333.033997,319.503296 333.196045,323.727448 
	C333.380768,328.543488 335.752625,329.228760 339.726929,328.467773 
	C364.283020,323.766022 380.722046,306.883057 384.435608,282.253448 
	C386.014984,271.778595 380.200897,258.168152 371.613953,255.775208 
	C365.747711,266.409332 357.599457,275.255371 348.243347,283.407593 
	C351.793915,288.436859 353.827148,293.799103 354.952332,299.596893 
	C355.630890,303.093292 358.636841,304.988861 361.413208,306.888153 
	C362.740448,307.796082 364.585571,308.018341 365.426422,309.955078 
	C361.932617,312.670837 358.422638,309.799072 355.000885,309.950745 
	C352.807404,312.488800 352.484924,316.583344 348.569916,317.675873 
	C348.348785,317.156036 348.095337,316.848450 348.119354,316.564331 
	C348.202728,315.576416 348.430634,314.600891 348.517609,313.613068 
	C349.213257,305.711273 349.170654,297.973969 344.443878,291.007751 
	C337.542999,280.837402 325.948212,277.766846 315.191833,283.467529 
	C310.776978,285.807312 306.509644,288.431824 302.050751,290.679993 
	C298.444244,292.498444 296.011810,294.976807 294.698456,298.931213 
	C293.208008,303.418732 290.302887,307.164459 286.621277,310.162170 
	C284.617920,311.793427 284.276855,313.444275 285.251617,315.810944 
	C292.042786,332.299591 289.271271,348.063385 281.490448,363.426666 
	C280.793945,364.801880 279.525848,366.056549 280.052368,368.348663 
	C293.388306,363.465729 305.865051,357.745117 315.904236,347.774292 
	C320.215240,343.492645 323.403687,338.409607 325.173584,332.551605 
	C327.106354,326.154510 325.765411,320.812408 321.529480,317.885406 
	C318.698914,322.515320 319.599945,328.151123 317.632507,333.125732 
	C311.674438,327.098785 312.601044,313.722473 319.936066,303.385315 
M400.700073,144.265884 
	C396.649475,155.127548 396.270111,165.860382 400.830231,176.804688 
	C403.550049,183.332275 404.106323,190.375061 402.781921,197.421646 
	C401.450653,204.504807 402.147400,210.653687 408.078583,215.962326 
	C414.596619,221.796127 417.533264,229.822510 419.478455,238.280579 
	C420.559296,242.980377 419.897491,248.000717 422.231384,253.573227 
	C443.113770,217.637161 434.458740,187.712540 405.964508,160.537537 
	C413.023651,160.445511 416.773865,164.885681 421.352264,167.695282 
	C421.785309,165.000336 422.058594,162.690186 422.538422,160.423782 
	C424.207031,152.541763 427.919647,148.703217 435.916351,147.885147 
	C440.124939,147.454605 440.914368,145.446854 440.630371,142.012268 
	C438.918518,121.310837 430.758575,103.861023 414.560242,90.501038 
	C413.526276,89.648239 412.536560,88.132751 410.479797,89.340599 
	C411.402710,94.493431 412.510132,99.674011 412.364685,105.010338 
	C412.220917,110.286179 412.333313,115.568985 412.333313,120.853439 
	C427.388000,120.908371 432.182434,123.254143 432.215210,130.678787 
	C431.089447,131.224838 430.320038,130.461365 429.534668,129.899109 
	C423.843292,125.824730 418.210815,126.873413 412.723480,130.230682 
	C407.465210,133.447845 403.755402,138.105850 400.700073,144.265884 
M106.676331,298.714386 
	C106.167015,295.928986 108.160515,291.336060 103.075226,291.498749 
	C92.885971,291.824738 82.590874,292.453186 75.869766,302.071716 
	C74.987427,303.334412 74.368362,305.109283 72.081184,305.378143 
	C71.280785,303.423676 71.689705,301.598969 72.468918,299.745483 
	C74.298897,295.392517 76.514259,291.246674 80.476578,288.506622 
	C83.284248,286.565063 83.486916,284.755188 81.700340,281.936615 
	C77.507072,275.321136 75.815605,267.991333 75.538467,260.145752 
	C75.190735,250.301727 76.667381,240.729813 79.362175,230.787582 
	C70.837059,232.733551 65.981575,238.034698 62.406807,244.641602 
	C53.000340,262.026672 50.365791,280.959473 51.731190,300.251465 
	C52.899891,316.764282 59.197166,323.716766 74.924431,325.140930 
	C98.016129,327.231934 108.351601,321.218719 106.676331,298.714386 
M358.078644,86.808113 
	C358.552277,90.167290 360.739197,88.246063 362.198578,88.040001 
	C371.637451,86.707207 380.407837,88.558174 388.490326,93.527184 
	C390.528809,94.780418 392.756012,96.068985 393.461670,98.691574 
	C391.847137,99.853134 390.686096,98.796700 389.562653,98.294014 
	C383.736328,95.686989 377.608246,94.034950 371.308899,93.535950 
	C366.517303,93.156395 361.057159,93.237167 358.369232,98.045143 
	C355.747192,102.735291 360.375610,105.593460 362.895386,108.597397 
	C373.108459,120.772652 381.386719,133.892029 383.110229,150.101608 
	C383.577728,154.498489 386.017090,156.289703 390.519989,158.274368 
	C389.903870,146.498779 396.287872,137.898071 400.987335,128.618240 
	C401.801300,127.010948 402.320618,125.193451 402.652832,123.412758 
	C405.659729,107.295639 404.076904,91.622826 397.521606,76.585182 
	C394.863800,70.488297 390.477905,65.709663 384.465210,62.624596 
	C377.321136,58.959019 371.136017,61.240177 368.457031,68.787849 
	C366.585480,74.060730 364.090942,78.843819 359.974365,82.687431 
	C358.952057,83.641930 358.354828,84.777428 358.078644,86.808113 
M174.544952,386.354431 
	C171.795578,384.570374 170.337784,386.674652 168.637939,388.252899 
	C164.788925,391.826538 160.534180,394.248596 154.268631,392.919708 
	C157.695312,389.802368 161.441528,388.016663 163.326279,384.341797 
	C163.999237,383.029724 165.306427,381.721436 164.046402,380.269073 
	C161.765823,377.640320 159.619156,374.658630 156.767426,372.844971 
	C154.852844,371.627319 152.654160,374.351501 150.502777,375.117584 
	C144.144577,377.381622 137.851974,378.947021 130.399033,374.264130 
	C140.729568,371.810944 151.298401,371.545532 155.220978,360.250183 
	C153.914536,359.189819 152.766251,359.559326 151.628677,359.633057 
	C145.953018,360.000885 140.800064,358.585663 136.092789,355.310883 
	C127.814247,349.551636 124.407684,341.429565 124.723701,331.666412 
	C124.878822,326.873718 123.030960,323.516663 119.422798,320.908020 
	C117.879807,321.595917 117.496628,322.695496 117.413765,323.883667 
	C116.493851,337.074432 116.516548,350.292419 120.682663,362.947723 
	C126.095963,379.391571 138.767685,389.365387 153.547424,396.828247 
	C165.610794,402.919495 178.255478,406.847839 192.056503,403.585785 
	C197.969147,402.188202 200.749557,398.770905 200.799881,392.585205 
	C192.193832,391.100708 183.362778,390.300629 174.544952,386.354431 
M435.992157,190.703445 
	C440.395874,202.970612 442.831451,215.496658 440.224274,229.185165 
	C455.238861,217.227905 466.363068,195.651260 460.427429,182.219025 
	C447.867859,190.533829 447.551270,190.661545 441.651245,189.231934 
	C449.690521,182.307358 456.663971,175.021622 458.609100,164.537811 
	C460.753235,152.981247 456.585876,141.860764 448.438416,137.979309 
	C448.081299,140.531693 447.478058,142.956955 447.463715,145.385712 
	C447.441925,149.072052 452.211121,147.015091 453.301453,150.035614 
	C449.506897,152.809219 445.031250,152.919891 440.636475,153.445938 
	C432.269440,154.447510 430.395355,156.673645 430.111511,164.873962 
	C429.804291,173.749435 432.409637,181.924774 435.992157,190.703445 
M295.877380,385.590179 
	C299.520020,384.441467 303.260132,383.533020 306.788147,382.101837 
	C320.902191,376.376282 333.832062,368.465668 346.472351,360.074615 
	C355.078186,354.361786 363.539703,348.433167 371.287109,341.563873 
	C375.270966,338.031616 377.539886,333.697693 376.497986,328.267334 
	C375.603333,323.604126 372.152466,321.927856 368.751923,324.366089 
	C359.154633,331.247284 348.550629,335.109833 336.694916,335.383270 
	C334.887299,335.424957 332.924438,335.315613 332.954987,338.102081 
	C339.514038,340.524323 346.893250,341.766876 349.001190,350.275085 
	C346.311951,350.824310 345.021088,349.181427 343.383301,348.545807 
	C337.484375,346.256439 327.964386,346.948578 325.484741,350.343903 
	C319.525879,358.503204 311.566345,364.102264 302.814484,368.762573 
	C301.152710,369.647461 299.880981,370.652405 299.158722,372.578796 
	C297.877655,375.995544 296.173401,379.251831 294.707428,382.602051 
	C294.250122,383.647125 292.748749,384.995422 295.877380,385.590179 
M398.828308,294.491516 
	C396.711090,295.837891 394.499756,296.905334 392.030701,297.537964 
	C390.331512,297.973328 388.352295,298.271271 387.593628,300.340912 
	C385.394226,306.340820 381.629486,311.430115 377.808685,316.713837 
	C380.828186,320.562378 383.374512,324.581604 385.215424,330.166901 
	C403.439880,313.173737 422.638397,297.922272 421.501770,269.329987 
	C427.037262,273.590271 425.738251,278.994812 426.649841,283.694702 
	C434.310669,279.016998 435.848389,268.148621 429.957489,262.056061 
	C429.042908,261.110199 427.961182,259.723724 426.596924,260.786285 
	C423.293701,263.358978 419.078583,264.562286 417.238129,269.253235 
	C413.436890,278.941895 408.151093,287.806091 398.828308,294.491516 
M72.298759,205.748352 
	C74.282684,204.912994 76.397583,204.287720 77.320000,201.993744 
	C79.739807,195.975891 82.375862,190.037491 84.573807,183.940582 
	C86.023666,179.918777 82.747047,176.705902 78.559288,177.870239 
	C75.201302,178.803833 71.919067,180.027939 68.639717,181.223267 
	C51.694111,187.399933 43.187866,200.189011 40.489670,217.427780 
	C40.227707,219.101456 39.627621,221.110825 42.125469,222.756561 
	C52.438332,218.429321 60.398388,209.256302 72.298759,205.748352 
M210.248795,31.365084 
	C211.393005,31.156197 212.532135,30.801762 213.682251,30.761507 
	C222.675674,30.446730 231.731949,29.940851 240.196960,33.845623 
	C243.350723,35.300388 245.471207,33.725677 247.230194,31.791677 
	C249.384430,29.423107 246.691254,27.854374 245.492172,26.351950 
	C242.728897,22.889559 239.101761,20.479410 234.794281,19.359159 
	C223.398010,16.395319 213.897781,20.324396 205.354843,27.643671 
	C204.172867,28.656328 203.590088,30.583158 201.521942,30.388069 
	C199.939911,28.271376 202.555740,26.375685 201.793747,24.033533 
	C184.331985,29.722134 169.647186,39.292965 156.755630,53.402718 
	C161.935562,51.446011 166.015198,49.270866 170.356064,48.404545 
	C178.065964,46.865852 184.668427,43.439037 191.026352,39.010555 
	C196.522568,35.182289 202.727966,32.696804 210.248795,31.365084 
M35.735363,267.697540 
	C37.794830,272.199829 40.078171,276.545654 44.229137,280.221466 
	C44.655716,279.044342 45.081768,278.328491 45.162727,277.575531 
	C46.197220,267.954803 48.268879,258.576324 51.443100,249.429428 
	C51.800068,248.400787 51.916451,246.947388 51.459248,246.033829 
	C48.831238,240.782806 47.856316,235.124619 47.372547,228.955902 
	C40.478371,230.731445 36.436073,234.940369 34.667255,240.990753 
	C32.135860,249.649582 32.383892,258.398895 35.735363,267.697540 
M233.484314,403.813354 
	C240.797455,403.158661 247.570129,400.943512 253.893463,397.328003 
	C253.274384,395.768127 252.302002,395.515533 251.386444,395.147797 
	C238.993439,390.169403 226.043442,390.864044 213.111588,391.378571 
	C211.619690,391.437927 210.650085,392.078369 210.369904,393.686798 
	C209.946823,396.115692 209.399216,398.522858 208.817215,401.365753 
	C216.581619,404.447876 224.430008,405.500763 233.484314,403.813354 
M126.639069,85.129524 
	C117.995346,95.401482 110.558403,106.449280 104.983002,118.731712 
	C107.964554,115.872269 110.512497,112.673813 113.252449,109.649292 
	C120.416061,101.741684 127.938332,94.525299 140.011429,96.436623 
	C141.790070,96.718208 143.271210,95.492844 142.260895,93.729858 
	C138.953323,87.958275 137.444321,81.711761 137.390076,74.624847 
	C132.618027,77.513008 130.094299,81.287872 126.639069,85.129524 
M106.540985,333.057709 
	C106.482300,331.644745 107.205498,330.071136 105.505363,328.753082 
	C98.918945,330.348511 92.332222,332.512665 85.232956,332.481354 
	C78.183479,332.450256 71.283356,331.723145 63.454670,329.328278 
	C68.693848,336.516388 74.253860,341.072357 81.610931,342.991882 
	C92.034828,345.711578 104.595436,341.657043 106.540985,333.057709 
M455.606018,231.427353 
	C455.414764,230.076767 456.453369,228.504120 454.633942,227.084717 
	C449.766876,233.128586 444.053680,238.106018 437.470245,242.132126 
	C435.086029,243.590210 432.070557,252.679062 433.207123,254.193375 
	C435.259857,256.928284 437.582123,259.460938 440.161682,262.516113 
	C448.030487,253.377213 452.496918,243.158066 455.606018,231.427353 
M282.815186,19.238676 
	C278.497528,19.345312 274.349182,19.055643 270.073517,17.733074 
	C262.743134,15.465611 255.263153,15.579760 247.815659,19.238840 
	C250.013962,21.990660 251.939789,24.269123 253.710266,26.662512 
	C254.964249,28.357679 256.536011,28.790060 258.508850,28.530140 
	C263.442322,27.880161 268.456085,27.620464 273.298645,26.565941 
	C277.534607,25.643511 280.709778,22.667490 282.815186,19.238676 
M80.036369,158.965073 
	C81.207901,154.605194 82.890549,150.460815 85.049263,146.487534 
	C87.091843,142.727982 89.184807,139.006302 91.863678,135.627258 
	C80.748573,145.172272 73.408455,157.136627 67.942543,170.777527 
	C76.459976,171.598450 78.405846,170.223145 79.485992,163.254684 
	C79.664200,162.104965 79.726288,160.937256 80.036369,158.965073 
M36.609982,282.736938 
	C34.078171,282.632538 35.317577,284.552490 35.382004,285.435608 
	C35.721027,290.082794 36.990582,294.549835 38.840317,298.801666 
	C40.671989,303.011932 42.194729,307.493225 46.486237,310.806824 
	C45.815926,306.623535 44.909958,303.074493 44.746273,299.491547 
	C44.444492,292.885559 43.763660,286.639099 36.609982,282.736938 
M101.901726,352.574036 
	C103.962753,352.362640 106.394295,354.529510 107.960297,352.582275 
	C109.546021,350.610504 107.835014,348.340515 107.189278,346.125214 
	C103.106094,347.397491 99.331429,348.573639 94.564705,350.058899 
	C97.469353,351.093475 99.316772,351.751526 101.901726,352.574036 
z"/>
</svg>