<svg version="1.1" id="Layer_1" xmlns="http://www.w3.org/2000/svg" xmlns:xlink="http://www.w3.org/1999/xlink" x="0px" y="0px"
	 width="100%" viewBox="0 0 496 480" enable-background="new 0 0 496 480" xml:space="preserve">
<path fill="#000000" opacity="1.000000" stroke="none" 
	d="
M229.531433,1.000000 
	C242.604141,4.528877 255.181076,7.699565 268.379181,8.868558 
	C281.529022,10.033273 292.567291,16.932724 301.804688,26.366026 
	C303.835541,28.439953 305.963470,29.946098 308.742310,30.949720 
	C324.236053,36.545544 339.256348,43.512768 350.250885,56.009007 
	C357.023651,63.706829 364.911102,68.299500 373.670563,73.138046 
	C388.673340,81.425255 403.196228,90.731567 417.856598,99.701248 
	C432.018066,108.365669 440.760315,122.217873 447.281799,137.350632 
	C448.063599,139.164764 448.590179,141.082764 450.362885,142.362137 
	C460.431427,149.628662 464.277130,160.363678 466.211823,171.920746 
	C467.694275,180.776215 468.425110,189.747299 467.444122,198.752945 
	C467.181427,201.164169 467.696960,203.297897 469.033600,205.381317 
	C479.923492,222.355225 481.326355,239.835953 471.556122,257.803223 
	C470.373413,259.978180 470.232056,262.210938 470.323395,264.563171 
	C471.054871,283.397247 465.037903,299.883972 453.021484,314.288818 
	C451.857574,315.684113 450.335693,316.954163 450.122803,318.874451 
	C448.939606,329.548950 443.224884,337.385376 434.794037,343.208435 
	C434.856262,343.904968 434.757477,344.370941 434.931427,344.521179 
	C444.068604,352.413025 444.837280,362.512787 442.262207,373.296844 
	C439.892242,383.221863 436.643463,392.832550 429.970825,400.878662 
	C421.701904,410.849731 410.361847,414.982574 398.174927,417.085114 
	C381.720154,419.923950 365.376038,420.023193 349.643860,413.200745 
	C348.212982,412.580200 346.857269,412.196747 345.467529,413.399292 
	C333.145325,424.062225 319.564545,424.055420 305.288849,418.096954 
	C304.998810,417.975922 304.643616,418.010895 303.855835,417.919159 
	C300.273376,424.263916 301.017120,431.191833 301.809845,438.044983 
	C302.362579,442.823730 303.532623,447.528992 304.147400,452.303070 
	C305.983124,466.558289 298.627350,474.794861 282.742920,476.166718 
	C278.606171,476.523987 274.398987,476.525452 270.255096,476.240387 
	C262.553101,475.710602 257.894379,471.173645 255.324707,464.136230 
	C252.513489,456.437195 251.830811,448.239319 249.658752,440.387695 
	C246.774872,429.962799 243.276398,419.780060 238.481796,409.412933 
	C228.102371,415.728394 218.073639,412.965332 207.590286,410.029572 
	C202.437393,408.586517 196.417542,409.995300 190.791733,409.353607 
	C178.206116,407.918060 166.258667,404.626343 155.880768,397.071198 
	C145.656952,389.628113 140.141815,379.727600 140.617432,366.765656 
	C140.857758,360.216461 140.665604,360.137238 134.034790,360.428589 
	C122.904373,360.917633 112.150223,359.150055 101.722939,355.291504 
	C96.490814,353.355377 91.437485,350.750214 88.045441,346.394562 
	C84.711548,342.113617 80.618248,339.791687 75.809319,337.670868 
	C59.268253,330.376007 50.204178,316.389587 44.098904,300.213013 
	C41.519215,293.377838 39.117176,286.694855 34.841137,280.535736 
	C29.387037,272.679718 27.408541,263.504303 29.312492,253.856918 
	C29.677166,252.009094 29.340965,250.683411 27.980272,249.396957 
	C18.010221,239.970932 11.434792,228.884674 9.333335,214.981903 
	C8.628005,210.315598 3.215673,207.284927 1.174398,202.289185 
	C1.000000,191.979111 1.000000,181.958206 1.240240,171.222534 
	C5.427888,163.338715 9.027646,156.109406 7.777606,147.471146 
	C7.552769,145.917435 8.236537,144.206268 8.616217,142.595001 
	C12.960587,124.158684 21.190954,108.590546 39.765877,100.768723 
	C41.714100,99.948341 42.334320,98.509209 42.878948,96.639702 
	C48.024036,78.978485 58.887550,65.578239 74.769295,56.751160 
	C82.346115,52.539959 88.137482,48.039677 92.412079,39.948536 
	C100.262871,25.088215 112.785751,20.664206 128.814117,24.819967 
	C130.762497,25.325134 131.584534,24.603182 132.421814,23.224094 
	C136.165924,17.057190 142.089233,13.739963 148.492203,11.149855 
	C158.678192,7.029429 169.462082,5.476501 180.265656,5.964364 
	C190.051331,6.406262 198.965500,3.796393 208.000000,1.000000 
	C215.020950,1.000000 222.041901,1.000000 229.531433,1.000000 
M224.262741,257.195404 
	C222.520691,255.078064 220.465225,253.137100 219.971802,250.138611 
	C222.167023,249.539001 223.359604,250.994278 224.735779,251.721375 
	C231.672943,255.386597 238.832840,258.491272 246.245209,261.083466 
	C250.265945,262.489594 253.704453,262.430511 257.566162,260.184601 
	C265.494171,255.573715 273.956238,252.046478 282.763641,249.360397 
	C285.610413,248.492203 288.414581,247.296799 291.018982,245.855026 
	C300.101837,240.826736 300.321625,233.843582 291.632446,228.386841 
	C289.808655,227.241516 287.875458,226.170898 285.854919,225.454315 
	C272.082611,220.569931 257.847687,220.864700 242.771332,221.501099 
	C246.545547,226.569290 250.256149,231.000732 249.676086,237.340546 
	C247.136826,236.905914 246.457657,234.981445 245.279083,233.694351 
	C236.192245,223.770584 224.658691,219.272934 211.596909,220.696701 
	C193.374878,222.682953 176.476608,228.227493 164.028503,243.095993 
	C161.531021,246.079086 158.132431,248.717316 152.830627,248.312607 
	C156.451111,241.516190 161.344009,236.450134 165.738861,230.638809 
	C157.497681,231.276566 150.217438,230.645554 143.902878,224.655380 
	C145.994095,223.489044 147.433578,223.857742 148.884171,224.116455 
	C154.014297,225.031509 159.149017,225.079788 164.260803,224.007065 
	C181.405762,220.409134 197.984131,214.908524 214.310776,208.678009 
	C232.067062,201.901901 242.709122,189.146500 246.282379,170.281464 
	C249.116318,155.319809 244.058929,140.974991 231.597961,135.834015 
	C214.231583,128.669235 196.504593,126.755661 179.595032,138.052704 
	C176.921219,139.839035 174.116882,141.945953 170.310974,140.787766 
	C170.424866,138.614014 172.006104,137.515930 173.151749,136.151062 
	C179.058151,129.114624 184.617798,121.828461 188.513596,113.446259 
	C192.980453,103.835365 193.460449,94.219627 188.214874,84.667145 
	C187.611893,83.569099 186.575607,82.484398 187.388504,80.718567 
	C191.726746,79.873428 193.237656,84.264137 196.647491,86.122299 
	C201.926453,75.958076 203.871338,65.075592 204.957214,53.843468 
	C210.608932,61.228359 209.393066,69.466827 208.638611,77.989647 
	C220.270721,73.424728 232.079056,72.637840 244.499527,73.335663 
	C241.075287,58.035603 232.736893,46.561993 221.309509,36.626541 
	C224.446701,34.998562 226.866791,35.501427 228.867920,37.053772 
	C237.074402,43.419830 244.546738,40.342056 251.772003,35.343975 
	C259.948547,29.687859 259.541534,23.896044 250.816086,19.083344 
	C236.998428,11.461946 222.114594,9.704132 206.749222,11.628483 
	C200.880081,12.363528 195.131622,14.188681 189.970596,17.865801 
	C193.024673,20.639435 195.930328,19.553087 198.978973,18.568327 
	C212.332275,14.255010 224.935623,14.680938 235.734451,24.978308 
	C237.010773,26.195353 238.841400,27.365910 238.512665,30.191151 
	C235.527115,28.776741 233.015152,27.526934 230.455170,26.384766 
	C221.704620,22.480621 212.689346,20.822491 203.232529,23.411966 
	C201.314774,23.937088 198.824280,24.459368 199.493790,27.128950 
	C200.475494,31.043213 199.164688,34.588428 198.244583,38.143719 
	C210.141830,43.271362 210.141830,43.271362 211.505157,48.098515 
	C203.059753,44.315620 194.587692,43.560543 185.866806,44.746174 
	C177.309113,45.909615 170.070724,50.530521 161.929779,54.663712 
	C162.553284,49.800751 165.146927,47.679295 167.783661,45.657013 
	C173.484314,41.284801 180.065063,39.154850 187.098526,38.088360 
	C191.105881,37.480721 194.322693,33.246746 193.496460,29.589577 
	C192.530197,25.312620 188.974731,25.315254 185.544022,25.417875 
	C184.886459,25.437542 184.236374,25.652142 183.579422,25.754774 
	C175.197021,27.064299 168.174683,31.160120 162.182877,36.891079 
	C150.255066,48.299610 143.089310,62.348591 139.311630,78.982079 
	C158.510803,66.922836 180.188995,63.020996 187.528732,70.581947 
	C167.982574,72.270966 149.928665,76.820038 137.406937,92.961311 
	C126.785049,106.653564 123.130890,136.055450 130.670868,146.709656 
	C135.796417,144.218460 141.062317,141.771759 146.814987,140.696411 
	C152.690811,139.598007 158.381012,139.794556 164.363998,142.247360 
	C161.973770,144.533936 159.491776,144.444595 157.310364,145.063477 
	C147.631073,147.809647 138.273102,151.206818 130.371140,157.698257 
	C119.211678,166.865723 116.938377,182.960129 125.548653,193.554291 
	C132.631241,189.349838 140.370605,189.718201 148.192917,191.077103 
	C153.449921,191.990372 158.664810,192.428787 164.046738,191.804199 
	C179.099976,190.057236 188.729324,182.115692 193.018051,167.608353 
	C194.384735,162.985291 195.906906,158.396439 197.624374,153.893570 
	C198.543259,151.484451 199.806671,149.074829 203.333649,148.041916 
	C203.331223,153.712357 200.258972,158.505859 200.829071,164.148331 
	C204.381149,162.351669 207.526276,160.503220 210.870148,159.143448 
	C214.084778,157.836212 217.450745,156.456131 221.459412,157.837784 
	C220.831879,158.556900 220.598679,159.069305 220.220108,159.222488 
	C206.959259,164.588806 197.915771,174.792038 190.041031,186.097549 
	C182.058685,197.557510 171.283585,201.817429 157.696442,200.505341 
	C151.089706,199.867340 144.506638,198.781387 137.794983,199.278900 
	C126.097038,200.145981 118.299217,206.890305 116.044586,218.414612 
	C114.793243,224.810684 117.236694,230.217102 120.866379,235.129562 
	C128.689331,245.717270 139.351181,252.753510 150.920700,258.591827 
	C152.305176,259.290466 154.279037,259.291016 154.562363,261.319580 
	C151.249985,264.710632 146.957809,261.635162 142.913879,262.918365 
	C147.838425,269.458649 154.233826,272.891388 161.050278,275.707855 
	C167.719772,278.463531 174.723526,280.075500 181.866867,280.572296 
	C189.169891,281.080170 196.525452,281.064697 203.852005,280.936005 
	C210.898270,280.812286 218.049515,281.343536 225.931717,279.067841 
	C213.109177,276.112030 200.873703,274.352936 193.249847,263.204987 
	C201.529099,265.121796 209.450912,268.114868 217.750351,269.497742 
	C226.063324,270.882874 234.483337,272.921570 243.937256,269.195526 
	C236.198639,266.117432 229.783768,263.024078 224.262741,257.195404 
M335.225311,62.581337 
	C334.941345,64.537819 336.636261,66.656059 334.602325,69.125305 
	C327.386932,57.854046 319.845276,47.410206 307.413757,40.551777 
	C308.063141,46.166393 308.026031,50.822483 311.808899,54.939739 
	C321.227539,65.190964 327.328857,76.965675 326.355438,91.466866 
	C326.184357,94.015770 327.044647,96.303238 328.709869,98.618530 
	C333.321228,92.999290 339.541412,91.862465 346.470123,92.322990 
	C345.746643,85.217041 340.776703,80.239746 338.708069,73.613457 
	C343.448608,74.292679 345.793701,76.847473 347.843201,79.717323 
	C350.387512,83.280083 352.043579,87.291023 353.139282,91.502609 
	C353.581512,93.202469 354.207550,94.573677 355.730713,95.558395 
	C371.071014,105.475906 380.528412,119.947205 387.057343,136.560425 
	C391.117706,146.892303 395.869293,156.712540 404.217346,164.360352 
	C404.844391,164.934845 405.316956,165.613220 404.993744,166.954880 
	C401.705048,167.611908 399.038666,165.248337 395.983887,164.214249 
	C397.128296,170.989258 400.598755,177.155502 398.313202,184.387558 
	C396.291809,183.062027 396.217194,181.626007 395.869995,180.405136 
	C392.585052,168.854324 388.444733,157.600830 383.737701,146.574646 
	C378.166534,133.524277 372.184387,120.661797 361.676849,110.617126 
	C355.876801,105.072609 349.273010,100.990547 341.080658,100.366966 
	C333.641907,99.800751 331.325623,102.374794 332.454407,109.797089 
	C333.279724,115.223938 334.388885,120.614136 334.205933,126.134377 
	C334.120361,128.715759 335.365479,129.467575 337.756531,129.842987 
	C343.388489,130.727234 348.799500,132.439789 353.449768,135.901230 
	C355.643036,137.533768 357.916901,139.244171 358.174866,142.274048 
	C357.716431,142.529678 357.566864,142.687027 357.446167,142.667343 
	C356.965668,142.588989 356.422180,142.570633 356.029968,142.325409 
	C348.237030,137.453308 340.028625,134.975494 330.860901,137.840012 
	C329.291260,138.330460 328.350891,137.652679 327.699280,136.240250 
	C322.236053,124.397667 312.472778,116.665001 302.125885,109.479355 
	C300.985748,108.687561 299.306488,108.185875 299.679993,105.590714 
	C311.022980,106.422150 318.039825,114.581474 326.399994,121.597160 
	C326.160248,110.492813 322.371155,101.760124 315.123199,94.526077 
	C308.878784,88.293686 301.932404,82.760712 296.522430,75.698349 
	C293.764679,72.098289 291.379761,68.317741 290.268158,63.859791 
	C289.779755,61.900948 289.359650,59.937820 291.886444,58.120079 
	C298.351898,70.244202 306.916412,80.342102 319.905579,88.136375 
	C318.932953,82.031601 318.340271,77.399269 315.923950,73.341782 
	C307.321289,58.896229 295.752747,47.374065 281.260345,38.835014 
	C279.845886,38.001617 278.214386,37.483608 276.627808,37.003670 
	C263.757568,33.110302 251.881805,40.262112 248.929825,53.245960 
	C247.686005,58.716778 250.488129,63.321743 250.975143,68.364807 
	C251.440628,73.185051 254.020294,75.392715 258.280365,77.229317 
	C269.855255,82.219475 280.598297,88.586815 287.994873,99.264114 
	C289.993408,102.149139 292.195801,105.107979 291.857483,109.291534 
	C289.256592,108.160164 288.082672,106.041695 286.498810,104.416466 
	C278.340973,96.045601 268.954254,89.523270 257.834167,85.828041 
	C243.938934,81.210617 229.753098,80.199394 215.603424,84.406242 
	C207.714890,86.751595 202.086334,91.762970 200.688309,100.784210 
	C215.280212,94.335991 223.632401,94.074234 227.910522,99.763214 
	C208.686142,103.632057 195.065964,112.518257 190.492966,124.320808 
	C198.209549,122.752068 205.894958,122.166962 214.105545,123.280212 
	C212.758545,120.168465 210.059784,117.996574 211.237732,114.684906 
	C213.460556,114.568054 214.762695,115.994278 216.252396,116.989471 
	C225.700577,123.301353 235.436386,129.134003 246.310959,132.614349 
	C259.723907,136.907074 272.321106,136.505020 282.429718,124.889580 
	C282.978607,124.258865 283.675385,123.782944 284.909454,124.241280 
	C285.431366,128.751465 283.028687,132.005768 279.832245,134.750168 
	C276.394867,137.701370 272.370544,139.709244 268.174805,141.426163 
	C259.893616,144.814926 254.608627,150.851669 254.499146,159.951736 
	C254.321228,174.742584 250.256409,188.018265 241.863174,200.244232 
	C236.838943,207.562714 240.610077,213.614212 249.596375,213.751068 
	C252.480133,213.794968 255.208633,213.273621 257.890930,212.260071 
	C278.159058,204.601257 285.744354,187.212784 277.640350,167.090317 
	C277.016327,165.540817 275.351288,164.081970 277.016296,161.403061 
	C286.757141,167.479263 287.168671,177.721909 288.972656,187.667892 
	C297.200531,183.742737 303.536011,178.443268 306.846893,170.451904 
	C312.541534,156.706894 310.078217,138.966293 290.423035,137.091187 
	C289.407043,136.994263 288.023682,136.918228 287.893433,135.276703 
	C289.511108,133.457291 291.769684,133.322281 293.867371,133.262177 
	C302.844910,133.004990 313.051575,140.266541 315.310150,149.057083 
	C319.002594,163.428329 314.435944,180.562180 301.746399,189.724930 
	C296.081268,193.815552 289.832306,197.149750 284.847687,202.125702 
	C280.267242,206.698151 280.411682,210.012497 284.972473,214.484116 
	C291.912048,221.288025 300.521729,221.834351 308.543396,216.213928 
	C312.501099,213.440918 315.058197,209.326660 318.779144,205.647247 
	C320.928619,217.684967 310.582458,222.281006 304.641846,229.642807 
	C309.315674,230.743744 309.816772,230.905975 311.657593,230.370804 
	C325.042114,226.479477 335.286621,218.620377 338.451599,204.724747 
	C342.176056,188.372925 338.664001,172.699829 330.451935,158.102448 
	C329.870270,157.068573 328.260773,156.327148 329.529480,154.295105 
	C337.654327,157.139206 340.624390,164.465439 343.565277,171.462448 
	C348.369934,169.230530 350.151367,164.477982 354.896576,162.642960 
	C354.596069,167.732910 352.511719,171.591095 349.376648,174.484802 
	C345.967133,177.631851 345.435883,181.060562 346.385254,185.146667 
	C347.606903,190.404572 347.266663,195.742538 347.320892,201.066879 
	C347.332825,202.237823 346.589142,203.724380 348.993591,205.034836 
	C373.098297,177.116211 375.066803,147.525436 356.516235,115.987450 
	C360.702393,116.508072 363.029755,118.222359 366.205688,123.487389 
	C370.728516,130.985184 373.402557,139.216446 375.264984,147.705322 
	C377.611816,158.402237 377.236572,169.163605 375.634277,179.927795 
	C375.035248,183.952072 374.963989,188.013245 377.444305,191.471603 
	C381.382568,196.962753 393.433533,200.624313 400.828644,198.448776 
	C408.335236,196.240479 411.246429,190.200851 412.673584,183.128036 
	C415.194855,170.632507 411.991058,159.061279 407.096100,147.730286 
	C406.427277,146.182007 404.807404,144.803253 405.690552,142.746048 
	C409.096619,144.223450 409.452393,144.293854 411.306091,146.705322 
	C419.479156,157.337723 422.714691,169.463684 421.845245,182.741547 
	C421.684937,185.189621 420.341125,187.972366 422.707397,189.757950 
	C425.416809,191.802521 428.481781,190.700104 431.207916,189.307938 
	C439.003143,185.327164 442.827759,178.712662 443.772278,170.172211 
	C444.184235,166.447433 443.075836,162.629715 444.326660,158.608780 
	C448.233948,160.148026 448.602356,163.633743 448.919159,166.496384 
	C450.094635,177.118073 447.083466,186.496521 438.842621,194.313995 
	C444.902740,195.980286 450.401917,197.492310 456.504425,199.170258 
	C456.905151,190.733337 457.464539,182.764023 456.296448,174.863953 
	C454.689789,163.997604 450.988220,154.159180 440.682831,148.341675 
	C438.815216,147.287384 438.629486,145.388916 438.062561,143.705276 
	C432.666504,127.680092 422.864716,114.973503 409.159851,105.198082 
	C406.120880,103.030426 403.152039,100.696899 399.275543,99.683929 
	C399.206512,102.192856 400.760468,103.311295 402.068542,104.539383 
	C416.842010,118.409676 425.947662,135.573822 431.023987,154.967178 
	C432.003510,158.709335 433.496674,162.732681 431.239655,167.591339 
	C429.868561,163.545914 428.786163,160.269730 427.649536,157.012466 
	C421.248596,138.669296 412.623779,121.757332 396.914459,109.426994 
	C395.408142,108.244675 394.697632,106.546097 393.838684,104.932587 
	C389.031891,95.902824 382.292145,88.660400 373.586151,83.300140 
	C370.669983,81.504662 367.642181,79.828880 363.609344,79.623924 
	C363.873657,82.444534 365.382141,84.242790 366.669006,86.077660 
	C372.831451,94.864090 380.761353,102.053436 388.169525,109.712814 
	C392.584473,114.277428 396.834503,118.972931 399.594727,124.778152 
	C400.848145,127.414368 402.050995,130.117325 400.641602,134.047638 
	C394.186401,123.718079 385.587311,116.346916 377.195557,108.865776 
	C367.961273,100.633568 360.468567,91.342560 355.605774,79.886597 
	C353.130310,74.054893 349.690979,68.673523 345.596710,63.805271 
	C342.123291,59.675243 338.362091,55.813656 332.422241,53.611771 
	C333.457520,56.814362 334.265839,59.314884 335.225311,62.581337 
M274.448792,328.389221 
	C273.571106,328.307251 272.537750,329.340576 271.659729,327.746979 
	C273.029449,325.650269 275.319336,324.697845 277.537201,323.670319 
	C284.476898,320.455109 291.301666,321.545929 297.750336,324.837128 
	C310.464539,331.326019 323.238678,329.790894 336.026123,325.525757 
	C342.895844,323.234406 346.062286,318.073364 345.129608,311.418121 
	C343.718628,312.488525 342.454132,313.532745 341.106964,314.456390 
	C330.257416,321.894592 318.498047,324.791840 305.598969,321.164215 
	C303.072357,320.453644 300.090668,319.751648 299.191193,315.569489 
	C321.229584,317.334808 339.710144,309.951416 355.549011,294.555664 
	C356.745300,298.764984 354.640869,300.921173 353.316406,303.291290 
	C352.604553,304.565186 351.024597,305.620239 351.663544,307.258362 
	C353.526337,312.034058 353.558685,316.912079 352.366089,321.499359 
	C354.347931,323.048767 356.084900,322.779419 357.678314,322.538086 
	C365.589813,321.339813 373.320251,319.468719 380.819092,316.568665 
	C393.878967,311.517975 402.307831,303.384979 400.793793,287.873383 
	C407.302643,293.001038 405.885864,300.193176 405.415497,306.902679 
	C428.799255,308.122131 441.912231,287.044556 441.661011,269.005157 
	C441.644806,267.840851 441.683350,266.640717 440.611511,265.823486 
	C438.666687,264.340759 429.254639,264.478546 426.999939,266.080139 
	C429.969269,269.472198 435.684143,270.430511 436.419525,276.408569 
	C435.365692,276.332092 434.674622,276.447327 434.129761,276.216827 
	C428.728638,273.931732 423.133331,272.351715 417.309296,271.703918 
	C412.363312,271.153778 407.805176,272.448273 403.388641,274.710083 
	C399.972290,276.459656 401.324554,279.538849 400.769318,282.116211 
	C400.640778,282.712708 400.104095,283.221283 399.490936,284.186371 
	C392.872772,277.858215 385.575378,273.056122 376.201782,276.168335 
	C365.820740,279.615021 367.495911,289.592804 366.081299,298.049286 
	C362.056854,295.293121 362.263428,290.835022 359.875031,287.705231 
	C357.691681,288.071716 355.569519,288.419128 353.450531,288.785065 
	C341.974976,290.766846 330.481812,293.337677 318.788300,292.044189 
	C310.782043,291.158569 302.814514,291.203949 294.848694,291.485565 
	C290.656952,291.633789 286.242615,291.680481 282.207092,293.549744 
	C282.159546,298.571899 285.574310,303.456512 281.790375,309.391815 
	C277.623138,299.123322 271.881256,290.969696 265.795288,281.996246 
	C270.178802,281.979614 272.789612,283.289490 274.804382,285.114960 
	C277.428406,287.492401 279.900726,287.479340 282.976868,286.424652 
	C289.334930,284.244659 295.903076,283.349792 302.646484,283.845734 
	C314.309296,284.703491 325.958832,284.227081 337.509125,282.610535 
	C352.315674,280.538361 363.192657,273.555267 360.728851,254.860291 
	C360.151611,250.480225 359.149200,246.156204 358.237701,241.242035 
	C361.068359,241.764267 362.527710,243.263809 363.872894,244.912552 
	C368.103027,250.097168 369.531128,256.228516 369.160492,262.685272 
	C368.894318,267.321808 370.847229,268.020447 374.820557,267.410187 
	C387.965149,265.391174 398.524536,258.951874 407.048645,248.963547 
	C409.616180,245.954987 411.943176,242.741165 415.097473,238.703384 
	C417.287933,247.484650 412.017883,252.887527 408.589813,259.334625 
	C417.722748,261.289612 424.966553,258.463074 431.446014,252.945679 
	C437.673431,247.642929 441.708466,240.761948 445.234924,233.523819 
	C446.061188,231.827896 446.483398,229.790390 448.783875,228.579865 
	C449.937073,233.793518 449.354431,238.446167 447.951965,243.087433 
	C446.570374,247.659683 443.252197,251.299866 441.288422,255.713776 
	C447.997192,257.494171 453.758240,256.053162 458.388031,251.752594 
	C473.266052,237.932343 468.239929,212.960464 449.162354,206.414566 
	C440.218445,203.345734 430.886200,202.555954 421.553406,203.673798 
	C416.695190,204.255676 411.425415,203.961517 406.877411,207.094513 
	C421.024719,218.508423 426.543579,226.894028 424.828979,235.406097 
	C414.335388,220.023819 400.152252,211.218155 382.570526,207.745926 
	C366.280640,204.528824 346.291840,212.612000 337.460358,226.113083 
	C353.300049,233.394180 355.881714,236.067490 353.275299,242.742645 
	C352.003296,241.902893 350.735260,241.126007 349.530670,240.260742 
	C341.782806,234.695618 333.623199,234.079453 325.003937,238.062088 
	C320.593750,240.099869 316.491486,242.644653 312.568909,245.466461 
	C307.090698,249.407349 301.148804,251.911240 294.520721,253.548355 
	C280.051208,257.122223 266.379364,262.849060 254.067520,271.431030 
	C246.862137,276.453552 240.437576,282.352509 237.291901,290.785095 
	C231.764359,305.602692 236.154129,316.876038 251.301956,321.433594 
	C255.697128,322.755951 260.309052,323.357910 265.097076,324.347046 
	C263.600739,327.764954 259.437866,327.926788 257.577759,330.840210 
	C264.510101,342.930573 275.504791,347.752838 288.652191,348.660156 
	C303.506744,349.685272 318.255676,348.065094 332.984070,346.427521 
	C343.387238,345.270844 353.893494,344.511261 363.538452,339.787811 
	C368.778870,337.221405 373.636078,334.224365 377.398651,328.527649 
	C367.353790,330.426392 358.050446,331.952942 348.548035,330.878326 
	C347.321625,330.739655 345.961975,331.408478 344.717957,331.853943 
	C331.890503,336.447449 318.718384,337.667542 305.384735,335.070038 
	C301.333160,334.280762 298.449615,335.089569 295.246521,337.320099 
	C291.564026,339.884430 287.512360,341.987946 281.919891,341.979706 
	C285.311859,336.772522 290.773651,334.753601 293.468536,329.893829 
	C287.326813,326.331665 281.271057,327.197327 274.448792,328.389221 
M71.680687,223.757568 
	C81.342789,238.517838 92.023567,252.551529 102.728447,266.545898 
	C106.702667,271.741333 112.912163,273.963318 119.394226,274.673706 
	C126.068916,275.405243 129.147400,273.487732 130.754639,268.379547 
	C132.648819,262.359314 131.277420,255.681976 125.041084,254.104691 
	C120.069450,262.930450 120.069450,262.930450 115.821106,263.036194 
	C119.802704,251.306168 115.011017,241.148102 110.216911,231.029877 
	C108.073135,226.505325 106.115883,221.939209 104.776955,217.101868 
	C101.431709,205.016052 94.375648,201.288101 82.512161,205.647720 
	C72.386650,209.368668 62.328777,209.249634 52.190228,206.026428 
	C48.222763,204.765106 44.156582,203.947815 40.130322,202.954346 
	C36.035595,201.943970 31.604195,203.311569 27.304955,201.130630 
	C30.235962,197.739975 34.179455,198.270996 37.886276,197.110428 
	C34.340523,193.487137 30.209827,190.884583 27.439934,186.928894 
	C24.640057,182.930374 21.946808,178.911942 22.056549,172.071747 
	C36.240974,188.635696 50.540276,202.359070 73.272179,199.764618 
	C68.286186,195.325348 62.665829,191.591690 62.759212,183.833649 
	C63.464699,183.833649 63.706802,183.761520 63.786129,183.844681 
	C64.693474,184.795807 65.576653,185.769989 66.465088,186.739136 
	C73.953636,194.907990 83.568947,195.914032 93.600151,194.111023 
	C102.819542,192.453918 106.834282,185.311523 109.222992,177.072021 
	C109.868080,174.846832 110.463470,172.525818 110.541183,170.230484 
	C111.154053,152.128937 107.785385,149.306961 91.046181,152.132858 
	C83.684631,153.375626 76.471161,155.534927 69.094582,156.635544 
	C64.104317,157.380112 59.083771,156.586273 55.238190,152.037155 
	C68.963348,153.844528 80.345589,146.640137 92.937660,143.744110 
	C91.570541,139.955154 87.050804,138.086014 88.391434,133.264679 
	C93.448265,136.195038 98.143112,138.983017 102.905045,141.651291 
	C106.049675,143.413330 108.773880,142.965591 111.412102,140.243881 
	C124.072327,127.182976 119.875099,103.048965 103.544540,95.420288 
	C99.134605,93.360229 94.490288,92.105453 89.728645,91.271172 
	C84.514893,90.357674 79.278938,89.570847 74.052658,88.728813 
	C79.676910,84.528198 85.974373,85.254654 92.634346,85.109505 
	C89.012917,77.016747 86.811592,69.107903 86.891777,59.824425 
	C51.142860,80.835121 44.260124,112.145828 52.145538,148.830383 
	C50.293972,149.645294 49.139313,148.985565 48.455620,148.155670 
	C45.568565,144.651215 42.241726,145.209473 38.529144,146.513794 
	C22.057751,152.300644 12.783640,164.161591 9.323024,180.918854 
	C6.797644,193.147476 11.557662,202.734131 20.680399,210.469040 
	C23.714399,213.041489 27.065805,215.306763 30.497719,217.329727 
	C39.514938,222.644974 49.104301,226.145935 59.786453,226.113449 
	C63.614178,226.101807 66.199539,225.421753 66.244118,220.777222 
	C66.260651,219.054901 66.159912,216.671875 68.819527,215.534180 
	C69.698265,218.093842 70.550613,220.576630 71.680687,223.757568 
M37.907684,263.525970 
	C39.222546,269.803284 42.471474,275.007568 47.292919,279.074280 
	C54.999081,285.574158 64.199661,288.784576 73.964996,290.844391 
	C77.391754,291.567200 78.765625,290.274353 80.186264,287.623566 
	C81.627098,284.935150 81.806236,281.506134 84.966911,279.081696 
	C87.978371,286.231842 85.836708,292.139954 82.034470,297.586823 
	C77.480110,304.111115 71.678726,307.350769 67.316483,306.186554 
	C68.621376,302.979889 72.397568,301.383698 73.145447,297.386597 
	C65.547302,295.828461 58.200771,294.190002 50.803238,291.270538 
	C53.748245,308.703217 73.014015,328.002838 86.420868,327.542267 
	C87.300903,322.293396 87.838188,316.812317 92.708549,313.108856 
	C94.163086,314.911865 93.229408,316.601166 93.330154,318.175232 
	C94.206932,331.874084 99.283028,341.434753 113.369781,345.129242 
	C120.021111,346.873627 126.696098,348.161499 133.575668,347.636169 
	C143.945251,346.844299 152.582855,342.794678 159.266205,333.683105 
	C153.320465,333.124329 148.252274,332.232208 143.418335,330.488495 
	C139.937897,329.233002 136.737473,329.289032 133.251404,330.560181 
	C128.411209,332.325134 123.368553,333.153564 117.215569,331.761292 
	C121.523285,328.464447 126.480576,328.010315 130.121262,324.801727 
	C125.711143,320.436523 119.578300,318.058014 117.246704,311.773010 
	C119.746178,311.115601 121.036125,312.710510 122.540253,313.554352 
	C131.448547,318.551910 140.660706,322.683441 150.845840,324.369293 
	C160.357330,325.943634 167.216766,321.259155 168.567383,312.082855 
	C169.920074,302.892578 165.878403,294.379150 157.850616,289.582550 
	C151.988327,286.079834 145.552933,284.581543 138.798721,284.352722 
	C125.911079,283.916138 113.823692,287.702881 101.734688,291.466919 
	C100.062096,291.987732 98.479980,293.183594 96.209862,292.252289 
	C98.732864,286.899078 104.050026,285.293823 108.922859,282.311523 
	C102.769997,278.974274 97.361755,275.158691 91.923805,271.383179 
	C90.910431,270.679626 89.431770,270.525330 88.137260,270.365875 
	C71.189621,268.278198 55.291088,263.409821 41.470947,252.948563 
	C40.697895,252.363388 39.941681,251.594162 38.633842,252.146942 
	C36.756840,255.458038 37.256691,259.105408 37.907684,263.525970 
M220.455200,369.017151 
	C228.588486,381.016998 239.901855,387.453369 248.164078,384.463684 
	C244.786484,376.114197 241.295639,367.715668 243.163010,358.157318 
	C245.700470,359.148407 245.392288,361.339630 245.949219,362.915253 
	C248.424957,369.919434 251.758408,376.370178 257.248688,381.501923 
	C263.941895,387.758026 272.000519,389.074890 279.242828,385.202820 
	C285.573547,381.818115 288.788452,373.833771 287.483185,365.286316 
	C286.936584,361.706604 285.322205,359.948334 281.568512,359.237274 
	C270.218475,357.087189 259.828827,352.823883 252.414841,343.393707 
	C250.573624,341.051819 249.011917,341.543732 246.892792,342.745483 
	C240.966873,346.106018 234.539368,347.502747 227.732941,347.358185 
	C223.283554,347.263641 218.830536,347.340332 214.032990,347.340332 
	C214.219696,354.791382 216.424759,361.784912 220.455200,369.017151 
M129.040787,75.652969 
	C126.304413,66.830002 119.713890,61.142170 112.599709,55.717201 
	C122.335732,54.889626 128.198639,60.484074 133.315369,67.959328 
	C134.883102,64.161003 135.608551,60.315460 137.761551,57.603027 
	C142.926941,51.095436 140.768646,45.800095 136.199646,40.455685 
	C135.335953,39.445396 134.615067,38.308758 133.717102,37.332714 
	C127.241058,30.293623 119.781059,29.123417 111.826447,34.392906 
	C102.631851,40.483818 97.318626,49.404617 95.090767,60.043530 
	C92.791855,71.021790 96.466820,80.220612 105.275078,86.874969 
	C110.927094,91.144890 117.800293,93.649986 123.429008,98.747498 
	C128.773804,91.748451 131.035004,84.625885 129.040787,75.652969 
M264.274078,465.012085 
	C265.351288,466.236267 266.398010,467.537964 268.631348,466.721405 
	C266.378632,452.028778 261.904999,437.729431 263.294830,422.751038 
	C264.713409,425.145752 265.602997,427.623016 266.281189,430.156799 
	C269.331329,441.551910 272.457001,452.929901 275.261688,464.385986 
	C276.279510,468.543579 279.048676,467.812561 281.838928,467.628937 
	C284.026764,467.484955 284.567505,466.322693 284.147583,464.223358 
	C279.814972,442.562683 275.400391,420.913788 273.157257,398.901123 
	C272.888977,396.268219 271.469055,395.295898 268.812500,395.274963 
	C264.089996,395.237732 259.632477,393.914581 255.440445,391.710541 
	C254.288589,391.104950 253.191284,390.359894 251.710983,391.101349 
	C248.651077,392.633911 245.519897,394.024109 242.462311,395.452209 
	C242.336441,397.931915 243.661926,399.749634 244.519821,401.692444 
	C249.772217,413.587250 254.094925,425.792328 257.194702,438.432831 
	C259.324982,447.119873 260.211395,456.129211 264.274078,465.012085 
M407.738678,316.827026 
	C401.535889,314.568420 398.232361,320.481598 393.406769,321.840668 
	C384.771698,324.272552 384.495850,332.103516 380.759766,338.298523 
	C389.106598,339.191986 396.762604,339.474426 404.343506,338.506256 
	C411.906219,337.540344 419.486786,336.280609 425.810516,331.343170 
	C433.069244,325.675720 435.557037,316.444702 431.520782,308.519867 
	C424.746735,313.729492 417.111786,316.630981 407.738678,316.827026 
M233.950760,338.613892 
	C237.239639,337.619385 240.588623,336.742584 243.114685,334.244507 
	C242.863052,333.708679 242.806656,333.277740 242.583359,333.157990 
	C234.182495,328.652618 228.677383,322.057465 227.317047,312.364166 
	C227.160355,311.247650 226.563339,309.970581 225.184021,309.901978 
	C216.531128,309.471893 207.479797,306.559906 200.257782,314.563782 
	C198.740891,316.244904 198.593384,317.362915 199.116119,319.292084 
	C203.573792,335.743195 215.317474,342.486725 233.950760,338.613892 
M42.239902,237.868240 
	C41.399002,243.367538 43.933266,246.932816 48.460094,249.798843 
	C57.766361,255.690811 67.911453,259.113312 78.732178,260.544220 
	C81.669998,260.932739 84.841232,261.571716 87.868774,260.218262 
	C84.896332,253.158646 73.665337,238.876968 67.889671,234.522095 
	C66.749985,233.662766 65.529305,233.088516 64.198677,233.473892 
	C58.547901,235.110550 52.916885,234.025238 47.403709,233.064178 
	C43.619766,232.404572 42.620628,233.967651 42.239902,237.868240 
M216.018433,377.425262 
	C213.171631,371.287567 208.223343,374.249146 203.910904,374.689270 
	C200.747330,375.012115 199.537506,376.972717 199.327423,380.115295 
	C198.284668,395.712341 208.403320,406.365692 223.979263,405.877563 
	C228.018021,405.750977 233.116867,405.683441 234.738083,402.127563 
	C236.409744,398.461029 232.673080,394.769470 230.054031,391.868286 
	C225.717529,387.064636 221.030823,382.577087 216.018433,377.425262 
M314.983887,387.834595 
	C323.249115,390.306091 331.186951,387.734955 335.218567,381.316223 
	C337.047089,378.405029 337.488434,375.923676 333.939728,373.795532 
	C330.168396,371.533875 327.222748,368.300568 325.173065,364.416412 
	C323.823944,361.859894 322.070007,360.812714 319.174164,361.156677 
	C316.707642,361.449677 314.190033,361.310699 311.695129,361.367340 
	C310.298523,361.399048 309.211792,361.788452 308.415039,363.152161 
	C304.018280,370.677307 306.855255,382.656647 314.983887,387.834595 
M284.394196,421.194427 
	C287.018646,435.531464 288.305206,450.155518 292.799652,464.585785 
	C296.236816,462.137695 296.693573,459.415497 296.644348,456.504486 
	C296.551025,450.987762 295.396332,445.602722 294.274994,440.250305 
	C292.383606,431.222351 291.992340,422.432648 296.712646,414.067169 
	C297.309570,413.009338 297.722107,411.955811 296.947998,410.798492 
	C293.414490,405.515778 291.688873,399.454742 290.084839,393.529510 
	C282.009918,394.207825 281.463440,394.813385 282.248596,401.982361 
	C282.917755,408.092041 283.647461,414.195129 284.394196,421.194427 
M24.766775,123.273170 
	C19.588575,131.614731 16.981529,140.705170 16.433712,151.292130 
	C21.431204,147.950867 25.483585,144.467392 30.428837,142.492065 
	C34.698326,140.786652 40.851326,140.170959 42.694946,137.031693 
	C44.560822,133.854553 42.102459,128.176529 41.641388,123.583611 
	C41.152508,118.713608 40.784996,113.831413 40.290924,108.101578 
	C33.817688,112.305229 29.090208,117.053482 24.766775,123.273170 
M299.142029,394.659210 
	C301.207611,403.405518 305.259674,410.745636 314.643280,413.019745 
	C324.025299,415.293427 332.803741,413.197784 341.271088,407.843567 
	C337.500000,404.545319 334.017822,401.947144 331.467590,398.409088 
	C330.231537,396.694275 328.748291,396.516083 326.679535,396.952515 
	C318.362701,398.707001 311.309845,396.149475 305.306030,390.250000 
	C304.137756,389.102081 303.316956,386.610687 300.987915,387.976501 
	C298.775726,389.273773 297.781494,391.314423 299.142029,394.659210 
M372.058929,376.376099 
	C381.979706,377.558441 391.946350,378.213531 401.914917,377.602264 
	C411.701416,377.002167 421.452332,375.847015 430.596191,371.886932 
	C432.823456,370.922363 435.185303,369.946350 434.765717,366.299500 
	C419.578796,372.231354 404.362030,375.328644 388.270752,373.413025 
	C371.525665,371.419556 354.990997,368.967712 340.067230,360.380554 
	C337.619110,358.971863 335.189209,358.770111 332.666412,360.240692 
	C335.734955,366.573456 341.747742,370.816742 350.583649,372.594910 
	C357.413910,373.969482 364.316345,374.985748 372.058929,376.376099 
M430.927307,361.476135 
	C432.962219,360.487091 435.780548,359.955170 434.172455,356.613251 
	C432.582184,353.308197 430.488159,355.007507 428.413574,356.115662 
	C424.727539,358.084564 420.804077,359.410858 416.724884,360.332367 
	C398.072449,364.545868 379.703278,363.296295 361.771088,356.939178 
	C356.174530,354.955139 351.384796,356.175232 345.611115,358.100403 
	C353.978973,361.914154 362.054138,363.740479 370.241089,365.199585 
	C390.510345,368.811920 410.572845,368.938171 430.927307,361.476135 
M165.876282,23.311268 
	C168.640488,21.797140 171.385239,20.245962 174.174591,18.779696 
	C176.772812,17.413912 179.418518,16.138493 182.043320,14.823294 
	C165.043671,14.557907 148.651398,15.530969 137.883743,29.783113 
	C141.449310,33.759247 144.286240,36.922829 147.348343,40.337521 
	C152.447693,33.627281 158.286011,28.033743 165.876282,23.311268 
M153.928741,357.047424 
	C151.564453,356.291473 149.354797,356.720490 148.659958,359.188019 
	C148.007523,361.505035 150.421326,362.042908 151.985611,362.852875 
	C153.164886,363.463440 154.399902,363.985291 155.649338,364.438477 
	C170.306152,369.754639 185.306519,369.763580 200.427094,367.129028 
	C203.357010,366.618500 206.659134,366.836517 209.038116,363.620087 
	C190.574661,363.771088 172.160492,364.003174 153.928741,357.047424 
M184.971329,350.961334 
	C181.574509,350.216919 177.876862,350.086578 174.843323,348.600555 
	C168.483337,345.485107 163.374893,345.946533 159.233566,351.994476 
	C158.975189,352.371826 158.699219,352.737091 158.108658,353.554932 
	C173.671021,357.522278 189.021591,358.837830 204.630356,356.588715 
	C205.990784,356.392700 207.332779,356.000580 207.102600,354.157867 
	C206.811279,351.825714 205.277588,351.047668 203.195877,351.482483 
	C197.370926,352.699219 191.624146,351.230133 184.971329,350.961334 
M445.860199,302.872925 
	C453.289062,293.058380 457.850433,282.186462 457.981384,269.714447 
	C457.999695,267.966431 458.317108,265.475739 455.476166,265.942139 
	C453.215851,266.313263 449.503204,264.877075 449.377502,269.195679 
	C449.081024,279.380768 446.597015,288.878174 441.298859,297.662445 
	C439.568390,300.531555 441.624237,303.107544 445.860199,302.872925 
M404.163055,352.095642 
	C397.511749,352.271179 390.895355,352.279419 384.229919,351.630737 
	C378.347992,351.058319 372.118134,349.140137 365.809204,353.617798 
	C386.826538,358.782379 406.809570,357.569397 427.229309,351.210449 
	C425.227783,349.257935 423.813324,348.286133 421.732697,348.944153 
	C416.315216,350.657410 410.668701,351.158325 404.163055,352.095642 
M293.871948,32.620033 
	C285.526184,23.622629 274.944275,19.351622 262.518982,17.371355 
	C263.713501,21.325893 265.130127,24.477077 265.192963,27.989775 
	C277.858978,27.545931 288.197052,33.145004 298.798279,40.353390 
	C297.508759,36.944221 296.050842,34.963932 293.871948,32.620033 
M173.873413,291.576782 
	C177.488953,297.232971 178.191132,303.891510 179.694550,310.580750 
	C186.510651,308.678802 192.408676,306.391479 199.098419,302.528534 
	C191.409256,299.819580 185.837555,295.753784 180.139847,291.853851 
	C178.519409,290.744690 176.241318,289.991425 173.873413,291.576782 
M400.262207,396.016754 
	C399.459991,393.488098 398.580444,390.980530 397.884277,388.423004 
	C397.459198,386.861359 396.928467,385.489899 395.078857,385.475616 
	C392.023376,385.451965 388.903809,384.898590 385.506714,386.003693 
	C387.698761,392.612976 391.148682,398.073029 394.450012,403.590454 
	C397.965424,409.465637 398.613861,409.570190 405.032501,406.051422 
	C403.542053,402.951294 402.048615,399.844940 400.262207,396.016754 
M379.682434,385.618896 
	C376.806854,385.122253 373.999054,383.711334 370.269165,385.126038 
	C373.267548,393.148224 377.358398,400.405396 382.010010,407.434723 
	C384.438416,411.104553 387.225525,411.451538 391.649994,409.286407 
	C385.971222,402.255707 383.479950,394.013153 379.682434,385.618896 
M223.517029,288.354065 
	C213.920441,289.803894 204.262466,290.556854 194.499008,290.871582 
	C203.878250,295.412781 213.652130,297.955414 224.047913,297.615631 
	C228.893570,297.457245 227.787704,293.072662 228.317963,290.435516 
	C228.878815,287.646149 225.993408,288.546631 223.517029,288.354065 
M186.750854,339.154602 
	C183.376129,338.281372 179.909546,337.660126 176.649597,336.471924 
	C172.457535,334.944031 170.427185,336.357330 169.728867,340.464508 
	C177.521210,345.350311 196.393951,347.296356 204.386444,344.047607 
	C203.167679,341.934204 201.687393,340.202362 198.996094,340.363159 
	C195.135391,340.593781 191.400497,339.681824 186.750854,339.154602 
M191.641266,383.470764 
	C191.634247,382.806702 191.682022,382.136627 191.610046,381.479675 
	C191.380630,379.385406 192.625366,376.334839 188.750763,376.420349 
	C185.403152,376.494171 185.458740,379.202606 185.377853,381.490814 
	C185.248886,385.138489 185.187729,388.801849 185.371765,392.444733 
	C185.816452,401.246429 187.516861,402.535522 196.977051,401.254395 
	C194.888077,395.674377 191.571533,390.514099 191.641266,383.470764 
M372.369446,403.000458 
	C369.943634,398.455292 367.610840,393.796844 366.668732,388.744019 
	C365.665710,383.364563 362.425171,382.576965 357.552155,383.043091 
	C360.475159,391.926086 363.844727,400.154938 368.888489,407.622040 
	C370.759369,410.391785 373.221375,411.899323 377.247925,411.150726 
	C375.584442,408.396454 374.150757,406.022675 372.369446,403.000458 
M192.978012,327.218262 
	C192.312378,324.865936 191.646759,322.513580 190.847794,319.690033 
	C186.528687,321.091248 182.360306,322.151398 178.443527,323.806854 
	C175.320404,325.126862 174.505676,329.600220 176.967712,330.377197 
	C182.704559,332.187683 188.475021,334.334198 195.183228,333.521881 
	C194.424728,331.309723 193.844574,329.617737 192.978012,327.218262 
M414.913940,393.266418 
	C412.125824,384.283691 411.393616,383.845947 402.711395,386.251953 
	C403.498901,391.066223 406.132233,395.118195 408.313019,399.321320 
	C411.394104,405.259613 412.996429,405.371368 418.087341,400.237610 
	C417.130371,398.172943 416.159149,396.077515 414.913940,393.266418 
M360.554810,406.175171 
	C357.130188,399.682953 354.655151,392.867981 353.623596,385.574036 
	C353.044159,381.477051 350.787933,380.029602 346.499725,380.914093 
	C347.514557,389.476410 350.048645,397.246521 354.049255,404.551880 
	C355.382507,406.986450 357.956970,407.501862 360.337921,408.080139 
	C361.290466,408.311462 361.058441,407.329468 360.554810,406.175171 
M172.322296,390.378845 
	C172.390106,392.036285 172.137650,393.789978 172.600006,395.328888 
	C173.312408,397.700043 175.540939,398.409851 177.751022,398.477325 
	C179.586609,398.533325 179.781342,396.908844 179.595383,395.574524 
	C178.718140,389.280609 179.771194,383.128265 181.146225,377.021423 
	C174.125519,375.949158 174.185776,375.999268 172.916595,382.048553 
	C172.395859,384.530518 172.390579,386.988678 172.322296,390.378845 
M34.148544,229.353683 
	C29.547026,226.260696 24.945509,223.167709 19.455803,219.477707 
	C22.324802,227.916306 25.484596,234.944351 32.172840,241.029251 
	C33.038429,236.653183 36.580307,233.953033 34.148544,229.353683 
M418.525360,384.378326 
	C417.928192,389.081909 420.919250,392.119507 423.486633,396.074188 
	C428.365417,391.678833 430.417938,386.548950 432.347595,380.559662 
	C427.401489,381.876923 423.265503,382.978394 418.525360,384.378326 
M300.790161,363.393494 
	C299.631561,359.229797 297.165192,361.946503 294.832458,361.955475 
	C295.647156,369.546265 294.130280,376.460571 291.338867,383.332947 
	C296.840851,382.306305 299.217560,379.718964 298.943878,374.304932 
	C298.773773,370.939331 300.063934,367.499908 300.790161,363.393494 
M166.862656,376.151611 
	C165.285095,375.737061 163.736053,374.878021 162.069931,375.844177 
	C159.133804,385.828796 160.095734,391.180054 165.473328,393.066010 
	C166.773438,387.939362 166.825348,382.566071 168.670929,377.594940 
	C168.919250,376.926056 168.216019,376.445374 166.862656,376.151611 
M154.755157,383.589020 
	C155.413376,380.369904 156.071609,377.150757 156.806244,373.557953 
	C154.313492,372.596008 151.760956,371.610992 148.450638,370.333527 
	C148.663757,376.278137 150.126343,380.998230 153.313492,385.103760 
	C154.140869,386.169556 154.593491,385.102264 154.755157,383.589020 
M344.195648,396.593018 
	C343.561096,393.301300 342.926575,390.009583 342.175323,386.112335 
	C340.479279,389.200256 337.626526,390.459900 336.532623,393.368469 
	C338.576965,396.150116 340.741577,398.707428 344.573639,400.110107 
	C344.508301,398.845764 344.467285,398.052460 344.195648,396.593018 
z"/>
<path fill="#000000" opacity="1.000000" stroke="none" 
	d="
M165.552185,260.166077 
	C172.832977,256.948517 180.437851,255.188660 187.446518,251.749023 
	C194.922684,248.079926 202.100677,243.978104 208.494247,238.591736 
	C209.599487,237.660645 210.591248,236.446640 212.550629,236.450195 
	C213.175949,239.875717 211.637283,242.607101 210.011978,245.192001 
	C202.819092,256.631683 181.169601,265.157074 168.162476,261.732544 
	C167.230560,261.487213 166.376831,260.944885 165.552185,260.166077 
z"/>
</svg>