<svg version="1.1" id="Layer_1" xmlns="http://www.w3.org/2000/svg" xmlns:xlink="http://www.w3.org/1999/xlink" x="0px" y="0px"
	 width="100%" viewBox="0 0 512 432" enable-background="new 0 0 512 432" xml:space="preserve">
<path fill="#000000" opacity="1.000000" stroke="none" 
	d="
M303.468658,433.000000 
	C295.622559,412.401031 284.990906,393.303314 275.845184,373.518677 
	C270.124695,361.143677 264.145508,350.052063 252.034485,342.388916 
	C244.035934,337.327911 239.303223,328.411407 235.639282,319.514069 
	C234.050064,315.654877 231.948669,314.882477 227.917984,315.935303 
	C207.876434,321.170258 187.710968,323.382385 167.355057,317.352112 
	C158.834045,314.827820 150.829239,311.245178 143.223267,306.673615 
	C134.950333,301.701202 127.706657,295.300385 119.607994,290.032318 
	C110.442924,284.070618 105.899002,274.614380 105.818871,263.643250 
	C105.785439,259.065765 103.716660,257.839966 100.021271,257.491638 
	C84.077080,255.988708 69.840309,249.761276 56.215485,241.781723 
	C42.248295,233.601669 33.890522,221.645172 31.587328,205.551834 
	C31.226368,203.029663 30.285435,200.868927 28.484652,198.912323 
	C15.620023,184.934433 11.333301,168.828384 16.930431,150.447128 
	C17.553793,148.399963 17.416817,146.610657 16.845980,144.627502 
	C14.298482,135.777206 15.524472,127.477989 20.912916,119.938141 
	C22.311308,117.981415 23.060179,115.853806 23.634136,113.571991 
	C24.199585,111.324013 24.539440,108.848038 25.744970,106.962204 
	C30.750393,99.132126 34.087906,90.414642 38.884125,82.518059 
	C43.595787,74.760696 50.884396,69.706573 58.961864,65.769989 
	C60.731281,64.907661 62.895245,64.475052 63.880268,62.538734 
	C70.811356,48.913910 83.424759,42.378464 96.625732,37.002110 
	C104.035416,33.984379 110.890938,30.744566 117.308685,25.666788 
	C128.401245,16.890266 142.082077,13.793082 155.865982,11.804630 
	C158.696167,11.396353 161.393463,10.851265 164.068085,9.883047 
	C176.693710,5.312539 189.813721,3.364583 203.161072,2.701314 
	C207.257126,2.497770 211.259140,3.344447 214.656403,5.482231 
	C217.755249,7.432240 220.124344,7.464358 223.271988,5.544370 
	C226.351227,3.666106 229.983246,2.694066 233.686310,1.162123 
	C249.354233,1.000000 264.708466,1.000000 280.794403,1.246797 
	C284.070312,3.266575 286.805389,4.153830 289.978943,3.767612 
	C293.819672,3.300210 297.739624,3.626380 301.344513,4.794133 
	C308.067261,6.971861 314.796234,7.957522 321.872223,7.518996 
	C326.598175,7.226110 331.095795,8.671844 334.955872,11.608523 
	C336.389404,12.699107 337.984741,12.838807 339.684052,12.751794 
	C356.402985,11.895682 369.700531,18.700060 380.431824,31.100195 
	C382.162689,33.100231 384.136017,34.144894 386.730408,34.686863 
	C410.729584,39.700333 428.541534,52.784054 438.965637,75.274261 
	C440.046478,77.606148 441.376251,79.623497 443.352386,81.221504 
	C446.514252,83.778336 448.911469,87.002655 450.824158,90.505318 
	C452.161285,92.953964 453.970917,94.665520 456.222565,96.182571 
	C464.799774,101.961441 472.086823,109.208672 476.306915,118.614304 
	C481.378143,129.916946 486.635773,141.006683 492.724884,151.846695 
	C497.353119,160.086029 499.829529,169.632187 504.394043,178.129044 
	C508.431427,185.644699 509.963074,194.101822 513.000000,202.000000 
	C513.000000,227.020889 513.000000,252.041794 512.843872,277.847046 
	C509.661316,287.677643 504.492310,295.684723 500.217072,304.118866 
	C497.193787,310.083191 492.278290,314.291107 486.208405,317.130219 
	C484.562988,317.899841 482.624603,318.438293 481.408569,319.665405 
	C474.326263,326.812195 466.023804,330.518280 455.342102,328.984406 
	C454.951202,341.177460 451.309937,351.939117 446.266266,362.612671 
	C441.200653,373.332611 433.453094,379.187958 422.249786,381.336151 
	C419.164764,381.927704 415.759613,381.928436 413.065247,383.304413 
	C394.673431,392.696747 375.365295,392.727661 355.621216,389.709595 
	C347.575470,388.479706 339.890350,385.806915 331.797333,383.878906 
	C330.915710,387.259796 330.449646,390.426331 329.258698,393.291565 
	C327.459351,397.620636 327.935822,401.454559 329.837646,405.657135 
	C332.297943,411.093964 334.045135,416.836945 335.617676,422.628296 
	C336.658447,426.461182 336.404449,429.831543 334.000000,433.000000 
	C323.979095,433.000000 313.958221,433.000000 303.468658,433.000000 
M154.330093,286.683411 
	C156.799423,286.360809 159.547729,287.446838 161.850159,285.514465 
	C151.092148,271.014374 151.092148,271.014374 152.766846,265.958130 
	C160.591858,276.673767 171.845795,283.040588 182.870178,290.472473 
	C176.561661,292.900482 171.190933,289.195984 165.683594,291.192444 
	C160.481659,293.078156 154.937927,294.021027 149.329102,295.432861 
	C169.548965,312.406860 217.624847,308.315277 235.037994,298.576843 
	C230.098602,294.890350 225.103836,291.251556 225.287811,284.048523 
	C227.831375,283.967407 228.693512,285.881317 229.982880,287.025146 
	C235.879074,292.255707 242.777985,294.916992 250.575836,294.445129 
	C255.185669,294.166168 259.788666,293.106506 264.296906,291.999542 
	C269.070251,290.827423 273.684265,290.352783 278.567352,291.571320 
	C287.020691,293.680756 295.691559,294.151276 304.360901,293.603271 
	C309.248383,293.294403 314.274261,293.163177 319.185974,290.609283 
	C316.929199,287.209473 312.579620,285.072083 313.987518,280.264709 
	C316.181549,279.953400 317.583313,281.302338 319.090942,282.224213 
	C331.153107,289.600159 344.031464,295.047180 358.023102,297.132751 
	C369.154602,298.791962 380.334869,298.901154 390.320648,292.166779 
	C397.675140,287.206940 397.893555,280.581451 390.846130,275.095337 
	C387.660370,272.615356 384.123138,270.750519 380.322601,269.445709 
	C365.866058,264.482483 350.997986,263.818451 335.974335,265.624695 
	C333.865173,265.878296 331.200623,265.736633 329.716156,268.076965 
	C329.673492,270.654419 332.494873,272.893951 330.588806,275.639221 
	C330.229034,275.659393 329.842896,275.799774 329.592682,275.672638 
	C328.859558,275.300140 328.127899,274.886810 327.488007,274.374207 
	C315.105438,264.455170 300.793304,262.477448 285.542175,263.910370 
	C274.184113,264.977539 264.664978,272.292786 253.127243,272.349213 
	C253.544571,274.779358 256.170563,275.612885 254.513214,278.709412 
	C234.250076,268.823242 215.388763,277.006683 196.361816,284.112732 
	C199.954590,287.695038 205.008499,289.230194 209.303299,292.419281 
	C197.724472,295.705811 173.981369,279.598480 175.101807,269.673004 
	C187.832016,279.464539 208.454758,277.654907 216.821136,265.903534 
	C213.316711,262.385925 207.876190,260.417572 206.294662,253.725266 
	C211.004486,256.148407 214.520798,258.422943 218.352234,259.853424 
	C243.724289,269.326050 267.366058,265.763824 289.309296,250.048019 
	C291.860840,248.220596 294.011658,245.465820 297.843994,245.465271 
	C295.373505,253.447327 296.071899,254.761719 303.225922,256.301849 
	C316.052094,259.063080 324.093506,254.740173 328.343842,242.831161 
	C328.422302,242.611374 328.885498,242.528915 329.402222,242.261978 
	C332.863373,245.485321 331.977814,249.752441 331.932220,253.947067 
	C345.519348,259.468719 357.885773,256.721222 369.405396,248.065872 
	C371.003998,251.700745 369.463165,255.388306 373.368591,257.114960 
	C381.480438,260.701324 389.502838,264.209045 398.684967,263.769867 
	C410.490387,263.205231 421.606415,259.883514 432.483612,255.611572 
	C438.431091,253.275742 444.252655,250.619324 450.720490,247.855545 
	C450.060699,252.080978 447.329254,253.867218 444.891785,255.580154 
	C440.131683,258.925293 435.126526,261.922119 430.217773,265.055206 
	C427.367676,266.874329 425.928589,269.033112 427.686798,272.539612 
	C428.625031,274.410675 428.854828,276.560211 427.336060,278.746674 
	C424.713623,276.677917 422.485077,274.704254 420.043213,273.044373 
	C416.446198,270.599304 412.470398,270.195251 408.753235,272.545471 
	C405.284821,274.738373 402.514343,277.450592 404.049347,282.405334 
	C404.524536,283.939209 403.724609,286.019196 403.117401,287.708618 
	C401.410980,292.456482 397.551941,295.338928 392.797180,298.281860 
	C404.425323,301.225189 415.500488,303.299957 426.307373,306.467987 
	C430.497925,307.696472 435.695038,309.727661 438.788422,305.162231 
	C441.751617,300.788788 438.921600,296.150299 436.626038,292.088257 
	C435.055908,289.309906 432.993195,286.809906 430.946320,283.894348 
	C434.292664,283.167450 436.073334,284.854889 437.724335,286.363708 
	C440.176392,288.604614 442.358215,291.139313 444.683746,293.520966 
	C449.444275,298.396423 455.565491,299.344849 461.039307,296.082642 
	C471.134430,290.066223 480.997742,268.566498 479.378082,256.862457 
	C478.504486,250.549744 476.084747,244.861252 473.477142,239.034470 
	C479.402069,240.454620 481.781555,244.907471 483.714142,249.926086 
	C485.646118,254.943100 485.050354,260.285919 485.689606,265.924286 
	C495.084229,252.797302 497.019409,233.001038 489.585541,226.505875 
	C482.688843,232.659698 474.615234,233.642044 465.374298,230.392868 
	C464.938629,244.486618 466.587677,258.141693 460.558441,270.796783 
	C459.662323,261.021332 459.634399,251.280960 458.710510,241.591339 
	C457.696167,230.952667 456.274902,220.404465 451.182587,210.788712 
	C448.157440,205.076416 444.021820,200.536392 437.119965,198.703461 
	C436.442505,200.805435 435.877350,202.509827 435.343353,204.223938 
	C432.013885,214.911270 426.840332,224.556152 418.423828,232.063202 
	C415.475067,234.693359 414.019989,237.580719 413.233917,241.306366 
	C412.118744,246.591995 410.410583,251.727875 405.806519,255.766632 
	C406.283569,250.519058 406.760620,245.271484 407.286407,239.487656 
	C402.997925,241.318420 399.452393,243.181870 395.689362,244.336609 
	C392.174072,245.415298 388.433136,247.485916 383.798370,244.369873 
	C413.914398,230.763977 433.609375,211.037186 427.928101,174.915771 
	C434.183105,178.002380 434.149170,183.757919 436.190308,188.101608 
	C446.854614,187.017456 459.792084,175.736313 462.535736,165.322906 
	C465.041412,155.812759 461.136963,141.652008 454.740265,137.225067 
	C452.671844,141.521637 452.823456,146.931488 448.570312,150.391174 
	C447.270050,148.408875 448.092010,146.819321 448.317688,145.210739 
	C450.761658,127.793472 449.111664,110.976883 440.452759,95.349655 
	C436.430969,88.091270 430.766052,82.537872 422.131226,81.256363 
	C414.307251,80.095184 407.420441,82.291046 402.670105,88.809410 
	C396.711334,96.985939 396.132507,106.120094 398.571869,115.761528 
	C404.041260,114.312378 408.339081,110.305130 415.042908,112.166794 
	C403.777496,120.799492 395.036530,130.596878 388.694641,143.142166 
	C386.952240,140.554337 387.196533,138.556992 387.243652,136.384689 
	C387.366760,130.710876 391.797180,126.198387 391.554596,120.637909 
	C391.115875,110.581078 389.281708,100.756363 383.768524,92.064659 
	C378.319183,83.473648 370.460419,78.951538 360.223541,78.174881 
	C348.450378,77.281654 338.747742,81.356461 330.277802,89.271049 
	C328.064606,91.339096 326.153992,94.411217 321.783691,93.979416 
	C330.550842,78.423454 337.869537,63.222260 319.179077,49.367588 
	C323.556213,47.808117 326.826233,49.042683 329.729919,50.888767 
	C338.565399,56.506088 338.463806,65.774834 338.489746,75.607361 
	C357.936035,66.846779 374.835358,69.215569 388.946442,85.038986 
	C390.342957,83.543518 391.299713,82.633194 392.125763,81.616631 
	C399.825714,72.140976 399.159607,66.816208 389.190857,59.791653 
	C381.914764,54.664524 373.952881,50.916779 365.300140,48.708218 
	C359.387360,47.199013 353.523682,46.798401 347.618042,48.933323 
	C345.096039,49.845032 343.039917,52.038208 339.958710,52.172787 
	C340.991455,48.097195 341.346924,47.286781 343.744141,45.621326 
	C353.738464,38.677734 364.404388,42.423004 375.181885,44.241135 
	C368.283630,32.030937 353.516113,22.388138 342.040375,22.300814 
	C333.914307,22.238977 326.487701,25.438715 323.671112,30.215206 
	C332.096313,29.033245 340.582214,26.847485 348.706390,31.334583 
	C341.566132,32.679245 334.662292,34.376621 327.806183,36.343914 
	C313.087677,40.567245 303.722443,50.276993 297.849213,64.184753 
	C294.603760,71.869873 295.929474,79.962296 294.350281,87.746750 
	C293.616730,91.362473 293.588989,95.194496 289.653198,99.154930 
	C290.634064,78.859474 287.822479,61.387920 267.644073,52.260948 
	C277.489838,50.043629 284.377075,54.984543 291.108459,61.556263 
	C295.192139,50.559357 301.578186,41.705227 311.133484,35.703743 
	C315.318665,33.075146 317.127075,29.419748 319.066284,25.184622 
	C309.064728,16.165848 297.616302,11.986821 284.508423,13.497203 
	C273.336914,14.784462 269.317108,23.720678 275.323303,33.219666 
	C281.651855,32.265820 287.914459,29.447620 294.744781,31.153826 
	C294.122009,32.813919 292.747711,32.714710 291.740967,32.971745 
	C281.479156,35.591766 272.045074,40.083748 262.897034,45.318417 
	C256.064209,49.228306 251.529755,54.869495 248.874817,62.231632 
	C246.066513,70.019043 245.119614,78.037193 245.150772,86.257881 
	C245.166275,90.345764 244.977646,94.472855 242.823471,98.203720 
	C241.020645,97.396385 240.993774,95.995285 240.771774,94.705025 
	C239.701401,88.484100 238.793442,82.230072 237.524246,76.050148 
	C236.491714,71.022598 235.803848,65.909599 233.590408,61.140892 
	C230.928925,55.406921 226.192535,52.035423 220.498978,49.608212 
	C222.231461,47.070583 224.185349,47.631275 225.854996,47.986393 
	C233.358917,49.582424 238.027985,54.912971 242.178528,61.401928 
	C245.222855,55.384953 248.133606,49.988552 252.511841,45.531063 
	C257.636719,40.313385 257.823425,36.575306 253.780319,30.495174 
	C252.428955,28.462997 250.134216,27.090076 249.383743,24.120544 
	C257.658966,25.026661 260.595734,31.167492 263.363190,37.719845 
	C265.923584,36.473602 269.807495,37.464920 268.962189,32.894775 
	C265.459747,13.958784 239.541672,3.786392 223.976517,15.108221 
	C218.988708,18.736263 214.283539,28.340603 217.229980,34.193523 
	C220.654160,33.272503 224.132416,32.271233 227.645172,31.410898 
	C231.040253,30.579386 234.467239,29.938887 237.830933,32.136650 
	C220.412613,35.969284 207.431427,45.974026 198.332062,60.634468 
	C188.872192,75.875710 189.637451,92.209038 194.948196,109.518280 
	C200.773987,103.150124 204.770096,96.197868 213.202469,94.348640 
	C203.172440,105.466019 196.398712,118.246452 191.877792,132.409744 
	C190.187256,128.906891 189.375732,125.623917 190.270859,122.069077 
	C190.930725,119.448479 190.959610,116.865891 189.887543,114.241447 
	C186.919846,106.976364 185.070450,99.389183 183.570358,91.694984 
	C182.000610,83.643456 175.724533,77.515587 167.646271,76.466492 
	C156.160919,74.974930 145.859695,77.739746 137.140686,85.705177 
	C130.771561,91.523819 126.164749,98.573654 121.956131,106.021507 
	C119.472641,110.416451 120.745377,112.716667 125.092087,114.328186 
	C127.873428,112.253006 127.489319,107.654099 131.387482,106.383148 
	C131.571365,115.215858 130.350433,123.071335 128.198807,126.428230 
	C123.824982,122.308716 119.488205,118.234520 113.974640,115.629128 
	C96.319534,107.286331 74.037140,120.818481 75.055367,140.289917 
	C75.693626,152.495300 79.767685,163.316544 85.296135,173.865128 
	C86.238007,175.662292 87.946129,177.245193 87.433693,179.894196 
	C81.087448,177.705292 78.666351,171.811508 74.787971,167.554825 
	C66.243210,174.722565 63.421879,175.789154 59.344082,173.477875 
	C60.543953,171.524979 62.732365,170.847763 64.411400,169.534012 
	C68.903923,166.018906 72.384735,160.959900 71.104362,155.826050 
	C68.403076,144.994720 66.884857,134.470001 70.918938,123.567047 
	C56.408924,124.905746 41.853344,139.378494 41.300903,152.417023 
	C40.575817,169.530350 53.175537,188.420044 67.095955,190.933533 
	C67.876831,188.425949 64.759056,186.149689 66.615524,183.203247 
	C70.540222,186.605423 74.182838,189.964462 78.034042,193.064392 
	C90.395279,203.014236 102.283844,203.650040 115.835854,195.231842 
	C125.891945,188.985229 127.688446,182.460388 121.591629,172.228073 
	C114.178963,159.787384 103.727448,150.391342 91.199570,143.229889 
	C89.763725,142.409103 87.825882,142.150497 86.845856,140.036682 
	C94.075195,138.202637 99.675201,141.775330 105.637596,144.435760 
	C103.930946,134.584534 103.930946,134.584534 105.575989,131.861511 
	C107.280602,133.400024 107.679504,135.608414 108.574890,137.528351 
	C112.453751,145.845627 116.307404,154.219604 122.433243,161.161392 
	C128.645935,168.201614 136.453552,170.326477 145.512070,167.447647 
	C154.013596,164.745834 159.618668,159.506271 160.807556,150.284180 
	C162.876328,134.237137 159.921875,118.851463 154.677383,103.778419 
	C153.300980,99.822556 151.711151,95.940956 149.905640,91.201897 
	C156.745071,93.843353 159.064819,99.501663 162.763962,104.082314 
	C165.763748,101.041878 166.824768,96.476883 171.780167,94.968964 
	C170.878586,99.138794 170.049026,102.805618 169.296326,106.488159 
	C166.885498,118.282822 168.800812,130.112335 169.623413,141.837662 
	C170.613831,155.955002 178.584213,161.066269 192.684509,158.084290 
	C194.807159,157.635376 196.899551,157.150528 199.036667,158.133881 
	C212.550858,164.352142 223.369965,158.047974 234.382111,150.892715 
	C227.939117,139.459488 223.660614,126.981697 210.153351,121.712898 
	C216.584045,119.206192 221.020813,123.107986 226.186874,125.251381 
	C227.331039,118.785355 226.464218,112.231491 229.713943,106.162254 
	C231.863449,108.181107 231.148651,110.114815 231.315277,111.830116 
	C232.139450,120.314323 233.432602,128.670227 237.663986,136.262787 
	C239.857391,140.198532 242.887573,143.392807 247.350876,144.380005 
	C257.127411,146.542404 276.375763,139.125168 277.908630,125.477112 
	C278.525543,119.984245 278.627258,114.543205 278.807800,109.066475 
	C278.863464,107.376518 278.232971,105.500153 279.612762,103.848373 
	C282.818115,105.783424 282.559296,109.609802 284.922058,111.933662 
	C288.282806,111.182716 291.200714,107.836014 295.929260,109.427338 
	C293.742645,111.418587 291.988129,112.692696 290.638885,114.305786 
	C286.613251,119.118790 284.344879,124.489761 286.380768,130.881042 
	C288.237976,136.711349 293.167572,138.162262 298.389740,139.201248 
	C307.655243,141.044693 317.370209,136.182281 323.681091,125.849121 
	C327.054230,120.326019 329.573578,114.286919 332.618530,108.555206 
	C333.815063,106.302887 334.834076,103.753174 337.923370,102.442337 
	C338.371918,107.863579 335.565125,112.492828 335.747040,117.741997 
	C355.892975,104.008705 360.445953,102.123260 365.228149,105.734352 
	C363.808960,106.458252 362.487030,107.088478 361.205963,107.793022 
	C352.065063,112.820213 343.843384,119.029846 337.461090,127.344986 
	C329.323273,137.947327 332.714600,147.288742 345.936554,151.016739 
	C348.414764,147.881134 347.676208,142.642456 352.613159,140.312851 
	C352.828186,142.265366 353.035248,143.707214 353.138611,145.156464 
	C353.739380,153.576981 358.404724,158.670258 366.793701,159.632156 
	C372.768188,160.317215 378.736359,160.069702 384.703033,159.031219 
	C387.190125,158.598343 389.682007,157.051407 392.885345,158.496277 
	C388.217896,165.113235 380.878265,165.841431 374.149628,167.860046 
	C375.340607,171.751297 379.707123,174.499939 377.771912,179.172272 
	C375.683502,179.083801 375.017639,177.546539 374.007202,176.535767 
	C366.423035,168.949203 357.297058,164.630737 346.665314,163.324692 
	C342.116211,162.765869 339.687592,163.995377 340.234406,169.168518 
	C340.575714,172.397339 340.228149,175.702942 337.487793,178.928696 
	C336.355835,174.175644 335.700531,169.946014 334.334473,165.959976 
	C329.890137,152.991516 317.931427,146.016266 306.432831,149.292068 
	C301.277496,150.760742 297.965851,154.179199 295.152222,158.544556 
	C293.230591,161.525925 291.883148,165.406281 287.028809,166.339722 
	C287.750061,162.569519 288.044281,159.269333 287.636932,155.993164 
	C287.088928,151.585617 284.622467,148.879745 280.012543,149.082047 
	C266.478424,149.675995 253.349197,152.796951 242.134216,160.243317 
	C233.170502,166.194901 231.524765,177.138565 228.920303,186.957016 
	C228.198761,189.677109 227.815109,192.487396 227.290588,195.258987 
	C226.913696,197.250443 226.732086,199.308044 225.076355,201.921951 
	C223.205719,194.899551 222.705963,188.678925 222.705154,182.391846 
	C222.704865,180.193436 222.768600,178.088593 220.239929,176.930115 
	C208.992020,171.777008 197.505859,167.145157 185.051697,166.365875 
	C162.114517,164.930618 145.135361,175.655869 132.123505,193.663712 
	C130.208832,196.313568 128.203079,198.420517 125.079193,199.651093 
	C119.905418,201.689133 115.519257,204.930679 111.698807,209.043259 
	C103.264091,218.122879 104.147278,235.308289 111.584343,243.326355 
	C121.424484,238.262573 121.424484,238.262573 125.321663,238.788986 
	C124.699303,241.141922 122.533249,242.028488 121.053535,243.447235 
	C111.866859,252.255234 110.943314,261.735229 118.482231,271.937103 
	C127.199417,283.733490 139.821884,286.398407 154.330093,286.683411 
M94.893097,105.938080 
	C98.549934,105.859184 102.363327,105.079903 105.829330,105.854698 
	C112.056885,107.246811 114.605240,103.687393 116.978157,99.200089 
	C119.370537,94.675995 119.170525,90.329834 116.514656,85.957047 
	C112.870476,79.957054 107.627228,76.172340 100.936333,74.293190 
	C98.785484,73.689125 96.614868,73.155434 93.837563,72.428345 
	C96.043358,70.146004 98.252213,69.613792 100.530457,69.749184 
	C103.789413,69.942841 105.293976,68.573997 106.045769,65.416634 
	C106.707199,62.638821 107.897118,59.885063 110.784081,57.742928 
	C112.070480,61.669266 110.274521,64.813004 110.218384,68.050209 
	C110.141029,72.510574 113.210648,73.783524 116.767258,76.218681 
	C115.978371,66.576004 116.653008,57.982456 124.286942,50.615814 
	C118.764809,50.095531 114.820343,49.801598 110.933434,50.971180 
	C80.681282,60.074139 67.836510,86.996956 66.379433,112.062378 
	C66.289131,113.615776 66.570229,115.675819 68.463402,115.323067 
	C72.347466,114.599335 76.831146,115.922287 80.357445,112.336945 
	C77.784798,108.708893 74.011040,105.787033 74.317245,99.931076 
	C80.672058,104.120316 86.354141,108.701485 94.893097,105.938080 
M137.971756,50.646465 
	C122.879356,52.924015 115.127441,71.787483 126.797424,86.867683 
	C133.707748,78.157066 141.755859,71.417969 153.211288,69.395432 
	C164.768738,67.354881 174.830017,70.371193 184.321869,77.314354 
	C184.987350,74.667053 185.472504,72.569962 186.046860,70.497589 
	C186.668884,68.253250 187.441437,66.049553 188.029846,63.797173 
	C189.507462,58.140984 187.900833,53.726528 183.024017,50.353798 
	C178.151321,46.983906 172.748688,44.939125 166.835907,44.257854 
	C163.194351,43.838272 159.564346,43.318359 154.786163,42.694183 
	C160.383850,38.670345 165.670578,39.058235 171.068771,39.055283 
	C159.894012,26.054573 138.337952,30.134464 126.865974,45.212608 
	C128.556976,47.431839 130.639694,46.725388 132.700882,45.969933 
	C137.118393,44.350864 141.773178,43.921528 145.799164,46.271381 
	C150.996674,49.305016 155.778519,50.980587 161.060410,46.810677 
	C161.484207,46.476105 162.366913,46.661034 162.801926,47.920433 
	C158.577255,52.931641 155.418777,58.856606 153.870911,66.291344 
	C150.419312,62.239391 152.393005,57.367012 149.769913,54.411179 
	C146.997238,51.286808 142.768646,50.852726 137.971756,50.646465 
M482.695557,204.206345 
	C479.862488,207.161392 477.339874,210.632248 472.427765,210.529526 
	C482.738892,199.459763 487.260529,186.897781 486.307831,171.738205 
	C485.416168,157.550430 472.533691,138.115067 464.633209,137.210236 
	C464.975128,138.231415 465.178986,139.207916 465.609528,140.071411 
	C473.092346,155.079483 471.755341,168.912949 460.506287,181.698044 
	C457.209564,185.444931 455.010223,189.990860 453.134399,194.674622 
	C452.005829,197.492523 452.276764,199.684097 454.264496,201.997238 
	C457.536041,205.804337 460.688873,209.945190 461.831390,214.806396 
	C463.160919,220.463211 467.098206,222.569946 471.783813,224.147430 
	C477.073822,225.928375 486.767548,223.541855 488.107910,219.684311 
	C490.547089,212.664230 490.483002,205.465393 488.074585,198.105072 
	C485.415955,199.579575 484.787598,202.050812 482.695557,204.206345 
M79.185432,240.277603 
	C87.569595,243.444458 95.836395,247.080093 105.554138,247.576462 
	C103.249260,241.639557 101.280762,236.561966 99.306229,231.486694 
	C98.535774,229.506363 97.132675,229.426758 95.249825,229.839218 
	C91.196022,230.727310 87.098564,231.799133 82.915359,231.218735 
	C79.631424,230.763123 76.036484,230.561646 74.216949,227.137329 
	C75.066055,225.667358 76.146881,225.793182 77.095253,225.751755 
	C83.471565,225.473373 89.566193,223.923065 95.542282,221.789215 
	C97.462410,221.103577 98.696800,219.927002 98.568146,217.760986 
	C98.451630,215.799194 96.897736,215.621658 95.416206,215.195435 
	C90.564491,213.799667 86.069298,211.636810 82.297348,208.231613 
	C80.227638,206.363159 77.939636,206.057663 75.344650,206.476471 
	C73.053566,206.846222 70.701309,206.902359 68.444221,207.403809 
	C63.629765,208.473434 58.722076,207.704391 53.741764,207.631744 
	C54.467918,215.205154 59.882877,219.696793 62.492886,225.630554 
	C54.469429,222.670410 49.850037,216.788544 47.679173,208.903946 
	C46.765774,205.586472 45.386898,203.295563 40.983002,203.388016 
	C43.030895,211.283737 46.839546,217.584793 52.253315,222.932404 
	C59.818810,230.405426 68.855347,235.657410 79.185432,240.277603 
M179.772522,21.825275 
	C188.765549,19.571367 197.906265,18.917515 206.949219,20.875017 
	C212.165955,22.004267 213.323914,19.429522 214.131256,15.577066 
	C205.163528,8.148236 164.382919,14.580876 156.992996,25.914234 
	C174.252747,27.702759 182.307022,43.049248 195.046478,51.240509 
	C199.340393,47.320076 203.321350,43.273029 207.740387,39.780220 
	C211.323318,36.948257 210.916504,33.391090 210.430542,29.820442 
	C209.947632,26.272203 206.591782,26.835815 204.152985,26.146490 
	C201.559845,25.413540 198.916321,25.320745 196.251831,25.238363 
	C188.848801,25.009476 181.451981,25.211485 173.102966,25.887827 
	C175.005997,23.295519 177.131332,22.846128 179.772522,21.825275 
M296.171265,396.439484 
	C300.506348,405.637207 304.132782,415.121429 307.599152,424.671112 
	C308.892578,428.234436 311.022461,430.765503 315.214905,430.664886 
	C317.388275,430.612701 318.963501,429.954071 318.078217,427.361389 
	C313.800079,414.832184 313.507416,401.116974 306.567474,389.357025 
	C304.281525,385.483490 302.480133,381.098938 302.698730,376.575195 
	C303.135071,367.545441 297.205688,362.465088 291.619110,357.037140 
	C290.632782,356.078766 289.533264,355.412354 288.090912,355.418610 
	C284.017792,355.436188 279.944519,355.424774 275.713501,355.424774 
	C276.674683,360.339142 278.907562,364.435974 281.008301,368.574921 
	C285.682312,377.783844 291.613831,386.307037 296.171265,396.439484 
M62.344681,99.130478 
	C62.503220,95.925194 64.673546,92.992020 63.812962,89.100533 
	C51.313248,92.555817 40.824345,97.998573 36.197742,110.760368 
	C32.988892,119.611504 33.380772,128.217850 39.302422,136.674988 
	C42.372284,133.349594 45.219078,130.593643 47.676685,127.525917 
	C51.256039,123.057968 58.544182,122.103149 60.194843,116.702713 
	C61.783566,111.504921 60.891602,105.501709 62.344681,99.130478 
M467.752472,300.420044 
	C462.051849,304.712524 455.480164,304.852264 448.881073,303.912933 
	C448.272247,305.795532 447.950287,307.273468 447.327423,308.611298 
	C446.215851,310.998901 447.153442,312.103577 449.320374,313.225159 
	C461.765961,319.666840 475.158173,311.850281 475.563538,297.813995 
	C475.590210,296.889801 475.094330,295.783081 476.631012,295.041595 
	C480.586060,297.205902 479.706848,301.766876 480.937134,305.225739 
	C490.801422,301.843384 498.142975,284.566376 489.448578,272.834412 
	C486.270142,274.996429 483.644989,277.504181 481.877258,281.090820 
	C478.417511,288.110565 474.693787,295.015594 467.752472,300.420044 
M372.850342,355.531219 
	C384.329468,357.480927 394.639954,362.470886 404.848419,367.759583 
	C411.345947,371.125702 418.151276,371.719818 425.172455,369.839874 
	C421.430359,368.308594 417.636658,367.165253 413.838684,366.036469 
	C404.830841,363.359314 397.315521,357.391846 388.574982,354.287476 
	C372.275177,348.498291 356.107086,342.373108 340.279663,335.441498 
	C335.058014,333.154663 331.245941,334.146240 326.553223,337.317322 
	C340.769745,346.622864 356.393036,351.020172 372.850342,355.531219 
M25.322969,163.409042 
	C26.257137,188.848618 50.823700,207.272797 72.927353,199.110886 
	C72.783775,199.030945 72.648262,198.905594 72.495316,198.878418 
	C71.513634,198.704117 70.526306,198.561722 69.544144,198.389923 
	C53.904861,195.654251 42.504845,187.751678 37.263252,172.162567 
	C34.551723,164.098160 34.369549,155.839142 34.828598,147.486389 
	C34.913986,145.932678 35.857925,144.151413 33.219837,142.620438 
	C27.647570,148.043121 25.249176,154.736801 25.322969,163.409042 
M429.336945,331.238983 
	C403.527283,321.804169 376.899719,319.689362 349.734039,322.300507 
	C347.605133,322.505096 345.986450,323.132385 345.128754,325.892426 
	C362.311005,325.930450 379.076874,326.323914 395.662537,328.996765 
	C412.272888,331.673645 428.353882,336.138275 443.171295,344.663513 
	C445.756989,340.495636 445.043701,337.947205 441.046722,336.277100 
	C437.363007,334.737915 433.730164,333.076935 429.336945,331.238983 
M350.176208,333.777252 
	C369.744720,339.855988 389.019470,346.549316 406.766937,357.151398 
	C413.595795,361.230835 421.123108,364.194977 429.275360,364.797760 
	C432.338867,365.024261 435.148590,364.620850 436.355896,360.394287 
	C421.494415,358.450562 408.747894,351.981537 395.997986,345.443665 
	C385.906769,340.269073 375.423462,336.077026 364.232788,333.822540 
	C356.268127,332.217957 352.321503,331.961884 348.074097,333.159576 
	C348.629608,333.350769 349.092682,333.510132 350.176208,333.777252 
M306.421844,343.892242 
	C312.872620,352.170441 321.099091,358.357544 330.042755,363.617279 
	C345.870911,372.925781 363.500824,376.169434 381.350159,378.792267 
	C388.667236,379.867462 395.758881,379.493591 402.880554,377.687286 
	C398.617706,377.387604 394.402893,376.884918 390.180542,376.430786 
	C360.555939,373.244415 333.218109,364.722107 311.313446,343.240967 
	C309.532593,341.494537 307.838257,340.795929 306.421844,343.892242 
M425.466003,320.350861 
	C418.922424,318.473938 412.311401,316.802460 405.848450,314.680115 
	C388.962006,309.134766 371.476288,313.543701 354.384552,311.415161 
	C351.254852,311.025421 350.983307,313.696167 350.994476,316.351746 
	C383.662323,314.181580 415.240417,317.024170 445.089478,331.407410 
	C444.906830,322.037964 444.203857,321.311951 435.734772,321.340576 
	C432.571503,321.351257 429.403870,321.440826 425.466003,320.350861 
M358.793793,358.947876 
	C345.593384,355.020264 333.324646,349.190521 322.171112,341.064941 
	C320.621216,339.935730 319.012085,338.582001 316.932953,340.277527 
	C327.608551,355.117889 377.198456,374.306519 396.655273,370.953156 
	C390.710022,368.913422 386.353699,364.447937 380.555573,363.445801 
	C373.509918,362.228088 366.458588,361.130188 358.793793,358.947876 
M322.559937,391.031860 
	C322.888672,389.235016 323.350464,387.449799 323.508270,385.638062 
	C323.662506,383.868286 324.407013,381.570160 322.676758,380.482910 
	C318.010010,377.550507 313.108795,374.991211 307.555145,371.864105 
	C307.742615,377.982971 308.462616,382.885590 311.293121,386.758331 
	C315.720825,392.816345 316.693176,399.849396 318.310059,406.753845 
	C319.709839,412.731018 321.004181,418.732849 322.349213,424.722870 
	C322.673157,426.165588 322.847809,427.707153 324.723572,428.390503 
	C328.698608,427.107239 329.497833,424.359802 328.109741,420.624084 
	C326.372589,415.948914 324.861481,411.168243 322.792236,406.643738 
	C320.513275,401.660767 320.052795,396.838257 322.559937,391.031860 
M302.460052,332.936249 
	C316.908234,329.193604 328.232574,316.405701 327.460175,304.599884 
	C322.342377,304.621704 318.707947,306.093628 316.310516,311.450287 
	C312.299561,320.412231 304.764374,325.778168 295.256622,328.226074 
	C292.638489,328.900177 289.955475,329.322357 287.134369,329.894135 
	C291.171539,336.136719 296.538208,334.120911 302.460052,332.936249 
M393.134674,46.469139 
	C390.735962,45.681660 388.520752,44.148987 385.658173,44.279514 
	C386.690674,48.563286 389.686310,50.564098 392.713898,52.692642 
	C400.004669,57.818428 407.122498,63.159130 406.460968,74.211296 
	C412.926117,72.309090 419.041016,73.029541 426.298126,74.319389 
	C417.446442,61.292084 406.627716,52.858326 393.134674,46.469139 
M303.558075,356.936310 
	C322.247467,375.189301 345.274292,382.097626 370.712585,382.673462 
	C369.339050,382.197083 367.913696,381.864807 366.475433,381.603851 
	C365.660248,381.455963 364.814026,381.479736 363.998413,381.333557 
	C339.479736,376.938721 317.943390,367.155090 302.626648,346.618927 
	C300.193207,343.356232 297.807617,341.971375 293.506104,343.166962 
	C295.835785,348.347443 299.297913,352.492493 303.558075,356.936310 
M414.251495,348.231079 
	C420.803680,351.577301 427.680481,354.030304 434.877014,355.532257 
	C437.110504,355.998474 439.242767,355.781464 440.204651,353.139587 
	C440.927429,351.154449 439.548737,350.407806 438.184662,349.743927 
	C422.866608,342.288818 406.729858,337.621552 389.795105,335.573547 
	C397.874847,339.448730 405.807556,343.525879 414.251495,348.231079 
M268.608490,319.713562 
	C267.581604,317.093903 266.126190,314.553589 265.623260,311.836914 
	C264.762054,307.184967 262.083801,306.441498 258.168274,307.478943 
	C256.760590,307.851959 255.387451,308.355255 254.038132,308.786438 
	C256.174225,322.396149 269.627472,335.909485 282.502228,337.364594 
	C276.143250,333.000122 272.126923,327.015106 268.608490,319.713562 
M272.415833,341.331329 
	C260.777710,336.029449 253.173965,326.847260 247.533981,315.694824 
	C246.659088,313.964844 246.424835,310.973450 243.038376,311.631348 
	C246.598114,332.034790 271.061401,352.380310 286.145142,347.690399 
	C286.130615,345.422058 284.771027,344.690643 282.733215,344.244873 
	C279.498810,343.537384 276.336029,342.502594 272.415833,341.331329 
M54.101151,86.321228 
	C57.491226,85.554489 60.873711,84.751640 64.274658,84.036591 
	C65.917557,83.691170 67.488075,83.435173 68.438988,81.746780 
	C70.829971,77.501457 73.315056,73.309128 75.936813,68.795280 
	C62.078865,71.892159 50.102535,80.100609 44.664803,89.943794 
	C47.515411,88.836510 50.428658,87.704887 54.101151,86.321228 
M300.406982,309.724579 
	C295.468475,317.061310 287.149780,318.427032 279.444305,320.832001 
	C280.841492,324.785187 282.809021,326.109619 286.534241,325.170654 
	C294.092285,323.265564 301.013336,320.209381 306.878204,315.027740 
	C309.068146,313.092926 311.234009,311.036285 312.100281,307.523712 
	C307.991913,307.749237 304.141174,305.961792 300.406982,309.724579 
M500.149933,244.139679 
	C499.102234,250.897827 497.695312,257.554291 494.616119,263.739227 
	C494.018677,264.939270 493.482666,266.070129 494.275024,267.487274 
	C495.914154,270.418945 497.406586,273.432648 499.365265,277.191589 
	C504.767273,259.716064 501.187286,242.642548 502.779236,225.872879 
	C498.920807,231.316544 500.915527,237.426773 500.149933,244.139679 
M495.416260,182.012207 
	C494.618469,181.098572 493.866638,181.413361 493.531158,182.324448 
	C492.332001,185.581177 490.993866,188.836884 492.316345,192.423187 
	C495.313843,200.551758 495.812439,208.975433 495.244415,217.526627 
	C495.149933,218.948730 494.563324,220.536133 496.150635,221.625000 
	C501.842224,213.462402 501.924591,195.900864 495.416260,182.012207 
M322.747131,329.456512 
	C332.875580,326.215820 340.285492,320.117676 344.139862,309.777130 
	C340.646484,308.078979 337.562073,307.064972 333.651611,306.307037 
	C332.663330,315.462006 328.179352,322.647064 322.747131,329.456512 
M83.386864,59.993412 
	C92.074120,51.395134 102.435165,46.208210 114.580795,44.595146 
	C116.579552,44.329693 118.838593,44.281300 119.848167,41.775642 
	C109.455963,38.646751 82.241859,52.198017 74.606163,63.253536 
	C77.573067,62.808113 80.741234,63.264118 83.386864,59.993412 
M283.639374,306.174561 
	C280.032410,305.748810 276.589722,303.227997 272.678375,305.093994 
	C272.492004,307.895142 273.542267,310.153870 274.525726,312.398804 
	C275.112244,313.737579 275.727844,315.387512 277.621155,315.120789 
	C283.367310,314.311401 288.700043,312.553467 293.427704,307.816101 
	C289.945068,307.217102 287.211182,306.746887 283.639374,306.174561 
M142.994888,27.392927 
	C146.316666,26.254190 150.246902,26.039751 151.844437,21.173201 
	C140.336868,22.975353 130.578629,27.608849 121.162849,34.056149 
	C124.628510,35.638199 127.357620,35.508282 130.215622,33.377247 
	C133.810349,30.696865 137.948486,28.935156 142.994888,27.392927 
M466.879059,128.748062 
	C467.623840,128.899536 469.334442,129.971466 468.562317,128.082932 
	C465.757019,121.221527 462.326782,114.691711 455.073364,109.230888 
	C458.278870,117.021538 455.685638,126.525826 466.879059,128.748062 
M270.172455,14.538566 
	C271.485870,12.884355 272.799286,11.230144 274.254395,9.397464 
	C269.067505,6.360277 264.236725,7.507075 258.764374,9.102270 
	C261.759216,11.759621 264.319305,14.052730 266.904236,16.317467 
	C268.709351,17.898987 269.052185,15.968482 270.172455,14.538566 
M28.184650,138.293884 
	C31.507381,134.405701 28.030382,131.800385 26.975645,127.352875 
	C24.886700,131.738983 25.183147,134.868164 25.285378,137.949768 
	C25.360125,140.202881 26.448534,139.909882 28.184650,138.293884 
M326.431366,18.383883 
	C324.320282,16.833694 321.950500,16.762186 318.639679,16.707748 
	C321.529541,18.713278 323.143097,21.940950 326.431366,18.383883 
z"/>
<path fill="#000000" opacity="1.000000" stroke="none" 
	d="
M403.122803,201.477631 
	C404.901855,202.079224 406.421570,202.377396 407.230316,204.145874 
	C405.939209,205.979950 403.981384,205.128296 402.352783,205.121445 
	C395.683960,205.093369 389.028595,204.979767 382.603302,207.245178 
	C373.286987,210.529861 369.458954,217.305786 371.111877,227.049469 
	C371.979462,232.163696 373.725891,237.413116 370.236969,243.794174 
	C367.399323,232.879776 363.784454,223.543488 352.769409,220.349075 
	C344.682281,218.003738 336.481598,217.342026 328.106323,219.606812 
	C327.146545,223.238586 330.334808,226.441650 328.858551,229.913376 
	C326.660034,230.540558 326.342072,228.636017 325.606415,227.543869 
	C318.834045,217.490082 309.712677,212.326782 297.313568,213.095673 
	C290.670715,213.507614 284.009430,213.371033 277.542236,215.304947 
	C269.371002,217.748428 267.186218,222.129654 270.330475,230.063736 
	C271.297974,232.505020 272.413910,234.887497 274.048615,238.645874 
	C268.921661,236.936356 266.678467,233.847641 265.714722,230.395126 
	C264.041901,224.402542 260.409760,223.062378 254.633957,223.194839 
	C243.480759,223.450653 232.328674,223.330368 221.304138,225.335297 
	C219.030121,225.748871 216.788574,226.447632 214.602097,227.214615 
	C209.434448,229.027328 206.784119,232.588104 207.148270,238.229752 
	C207.295227,240.506348 207.172485,242.800354 207.172485,245.073273 
	C204.630920,245.425858 203.930099,243.650055 202.929642,242.462341 
	C194.794785,232.804947 182.359100,230.201355 170.704086,235.673553 
	C164.481873,238.594955 159.804688,243.275497 155.741837,248.623489 
	C151.409851,254.325745 147.274719,260.177216 143.006409,265.928467 
	C142.358109,266.802032 141.883591,268.061981 140.035233,267.887878 
	C139.308868,263.070038 141.293243,258.866577 143.335480,254.791840 
	C146.020401,249.434769 148.880157,244.150711 151.956772,239.010071 
	C153.782242,235.959915 153.154846,233.886658 150.689270,231.647781 
	C144.847809,226.343399 137.663269,224.509506 130.193405,223.314255 
	C126.801247,222.771484 123.398979,222.291901 119.972420,221.199707 
	C126.261787,216.522949 133.376007,217.703964 140.875168,218.786636 
	C139.841141,214.047928 136.580109,210.259338 138.414871,204.748550 
	C147.165115,213.346741 153.712112,224.424133 167.095749,225.793564 
	C179.496887,227.062439 190.730438,223.737671 201.821915,217.464111 
	C197.781006,210.341080 194.612854,203.274750 198.164459,195.118744 
	C200.389954,196.248886 200.030609,198.251282 200.401901,199.936310 
	C203.043274,211.923752 211.195572,217.760391 223.310516,216.346817 
	C231.056747,215.443008 238.919952,215.943619 246.570694,213.732635 
	C258.568695,210.265381 265.935303,201.325516 266.704376,188.751923 
	C267.121216,181.937653 266.541260,175.222687 264.124146,167.769135 
	C270.199432,170.442184 270.121674,175.554352 271.981323,179.882462 
	C275.562469,176.644775 278.793121,172.932968 284.449371,172.900955 
	C283.912994,175.940125 281.779266,177.427719 280.262573,179.221695 
	C276.211975,184.012817 273.233551,189.334778 271.728485,195.425476 
	C270.270782,201.324646 272.622101,205.149033 278.711365,205.494156 
	C290.693451,206.173294 302.702271,206.082901 314.346313,202.527206 
	C320.339508,200.697098 325.572113,197.513260 329.827362,192.816544 
	C330.906738,191.625198 331.761688,190.103104 333.786224,189.617157 
	C335.069672,193.338135 333.108673,196.085236 331.151978,198.653320 
	C329.161377,201.265930 326.988495,203.955231 328.775055,207.204453 
	C330.579773,210.486649 334.010773,211.564117 337.722321,211.704315 
	C349.470917,212.148148 359.997223,208.261581 369.907898,202.463776 
	C376.955566,198.340851 383.621124,193.616272 390.000946,188.501251 
	C391.391785,187.386154 392.631348,185.922592 394.909393,185.848404 
	C395.847687,191.447723 390.649048,194.035706 388.256775,198.725739 
	C393.468536,199.671478 398.107239,200.513229 403.122803,201.477631 
z"/>
<path fill="#000000" opacity="1.000000" stroke="none" 
	d="
M408.536621,164.582092 
	C418.190247,148.386169 424.733673,131.166122 431.913086,113.970528 
	C433.837921,119.227455 433.576691,124.583694 432.884674,129.858047 
	C432.149689,135.459702 430.862427,141.009842 428.442078,146.157425 
	C427.092224,149.028320 427.691772,150.528030 430.462524,152.091949 
	C436.109894,155.279480 441.600647,158.780624 446.355316,163.266281 
	C447.797028,164.626404 449.136200,166.121735 449.403564,168.202988 
	C447.870422,169.609314 446.808624,168.292953 445.765594,167.754944 
	C439.538239,164.542938 432.939331,162.235947 426.459167,159.632568 
	C423.099121,158.282715 420.710327,158.540085 418.495483,161.909973 
	C415.110168,167.060715 410.792328,171.514618 406.197632,175.635696 
	C404.409790,177.239273 402.714417,179.229813 399.069794,179.124100 
	C402.348724,174.099091 405.351013,169.498077 408.536621,164.582092 
z"/>
</svg>