<svg version="1.1" id="Layer_1" xmlns="http://www.w3.org/2000/svg" xmlns:xlink="http://www.w3.org/1999/xlink" x="0px" y="0px"
	 width="100%" viewBox="0 0 448 448" enable-background="new 0 0 448 448" xml:space="preserve">
<path fill="#000000" opacity="1.000000" stroke="none" 
	d="
M308.000000,449.000000 
	C297.645782,449.000000 287.291534,449.000000 276.625427,448.697083 
	C279.045471,446.503540 281.891907,444.757263 284.489532,442.697296 
	C295.912659,433.638580 301.245087,416.399048 296.322327,405.110779 
	C294.421295,400.751587 291.438904,397.789001 286.546478,397.886292 
	C281.612732,397.984344 278.845337,401.131989 277.227203,405.618134 
	C276.045654,408.893860 275.014221,412.408203 273.022217,415.172119 
	C267.341888,423.053589 263.046844,430.823425 271.508301,440.225220 
	C265.407257,440.701660 262.522034,437.996185 260.181183,434.363739 
	C259.203613,432.846802 258.605927,430.722168 256.477081,430.649017 
	C249.840363,430.421082 244.331894,427.249390 237.828979,423.078735 
	C239.492554,426.431061 240.496811,428.509918 241.548523,430.564453 
	C245.711060,438.696014 252.688492,444.016571 260.000000,449.000000 
	C253.978851,449.000000 247.957703,449.000000 241.336792,448.683105 
	C234.365097,439.713898 229.659561,430.148956 226.269104,419.069122 
	C222.584229,422.736877 220.042526,425.608826 219.580063,429.206207 
	C218.643539,436.490997 215.931686,442.941101 212.000000,449.000000 
	C202.979111,449.000000 193.958206,449.000000 184.753220,448.764954 
	C189.061554,446.826294 193.821686,445.783783 197.865494,442.980988 
	C202.607040,439.694519 206.007751,435.546204 207.531708,429.135010 
	C202.408524,430.680328 198.564087,432.236908 195.322418,435.842468 
	C189.288376,442.553833 182.496704,444.128204 176.890762,440.826965 
	C180.427017,438.518616 184.485947,437.148895 187.090790,433.782654 
	C188.193008,432.358276 189.811569,430.993561 187.933533,429.058777 
	C181.549194,422.481232 179.010635,413.986755 176.125473,405.637787 
	C173.792297,398.886108 171.243652,397.413727 164.080673,398.274872 
	C162.262451,398.493469 160.453781,398.820587 158.630188,398.960236 
	C151.610962,399.497681 145.405441,396.768250 143.440201,392.050293 
	C145.238647,392.350861 146.871750,392.495544 148.434586,392.907074 
	C155.484650,394.763641 161.410934,392.457123 166.090439,387.416473 
	C173.093384,379.873047 177.835953,370.914612 180.928391,361.087677 
	C181.659927,358.763092 182.140381,356.461243 180.184509,354.551544 
	C178.188736,352.602936 176.102188,354.127380 174.118698,354.739746 
	C169.940445,356.029572 165.794006,357.414520 161.240036,355.580597 
	C162.423370,353.635742 164.149094,353.306030 165.613556,352.595764 
	C171.042786,349.962524 176.138000,346.833099 180.486618,342.605896 
	C183.587158,339.591888 185.860001,335.988342 185.448608,331.572968 
	C184.286057,319.095520 178.684616,309.449738 166.981293,303.896240 
	C165.634369,303.257080 163.627823,303.213531 163.277512,301.030396 
	C166.971573,297.568604 171.316681,301.776184 175.057800,300.221313 
	C176.479645,296.226868 174.269562,291.684601 177.827896,287.946106 
	C178.370239,289.311890 178.999557,290.323944 179.165741,291.407104 
	C180.342667,299.077515 182.988342,306.140167 186.976944,312.829895 
	C190.337189,318.465698 191.505127,324.853821 192.497406,331.339874 
	C193.634796,338.774445 192.358368,346.349518 194.231674,353.691559 
	C195.347778,358.065826 197.026215,362.635345 202.047241,362.913605 
	C207.342346,363.207062 208.364456,358.051361 209.463348,354.192078 
	C213.200668,341.066833 213.857330,327.597229 212.412628,314.108093 
	C211.189438,302.687256 204.820206,294.817413 194.123642,290.504974 
	C192.980667,290.044189 191.503357,289.939514 191.123901,288.001923 
	C195.313004,286.613617 199.368958,288.615662 203.354889,288.365784 
	C208.058929,288.070862 207.927170,281.921173 211.520813,279.772675 
	C214.309967,284.953796 207.970062,289.971954 211.346619,295.418335 
	C220.745926,285.085114 221.557373,261.334106 216.818710,250.620468 
	C215.818756,248.359650 214.432404,248.891586 212.820984,249.977386 
	C209.508163,252.209671 206.369324,254.924728 202.738022,256.416901 
	C192.600677,260.582458 185.495804,267.959167 179.024368,276.452820 
	C173.239334,284.045563 166.266785,290.560455 157.595978,294.893860 
	C150.520126,298.430115 147.634232,304.367340 147.384109,311.899139 
	C147.207138,317.228241 147.097061,322.562286 147.100769,327.894043 
	C147.109650,340.708801 146.708679,353.525452 148.130798,366.318237 
	C148.882706,373.081909 151.416489,379.385376 153.122513,386.797028 
	C146.616486,383.922180 146.007385,377.595032 142.673538,373.074799 
	C139.230347,376.372040 137.381348,380.301849 135.100372,383.927368 
	C129.111420,393.446625 131.036697,399.650879 140.275665,406.449158 
	C147.067688,411.446869 154.942657,414.231415 162.840347,416.945190 
	C164.520386,417.522491 166.800110,417.431549 167.768066,419.778931 
	C163.315826,421.548553 158.675369,419.384918 153.847260,421.235229 
	C159.783371,431.983398 165.039612,442.702789 176.000000,449.000000 
	C164.645767,449.000000 153.291550,449.000000 141.185272,448.790680 
	C137.924500,447.709564 135.380493,446.927063 132.912552,445.952026 
	C109.866936,436.847412 94.057343,420.281342 83.649940,398.137695 
	C82.456779,395.598999 81.511368,392.929230 79.324577,390.917725 
	C73.478065,385.539856 69.760262,378.748230 68.723038,371.017731 
	C67.528519,362.114838 64.609375,353.990936 60.437191,346.172363 
	C59.580383,344.566681 58.973595,342.815552 58.365047,341.091400 
	C54.175896,329.222626 50.496540,317.094513 54.464222,304.591949 
	C56.165154,299.232147 55.317757,295.655701 52.129597,291.483551 
	C47.953831,286.018982 44.493252,279.967560 45.878525,272.628204 
	C46.364723,270.052216 45.702305,268.228333 44.331581,266.179779 
	C38.500156,257.464966 35.214741,247.778519 33.578297,237.452469 
	C32.106968,228.168304 33.189922,218.619781 29.809662,209.478485 
	C27.855198,204.192993 28.216187,198.317642 29.569849,192.703369 
	C31.533010,184.561218 33.905193,176.529205 30.793604,168.020340 
	C29.944506,165.698410 30.150948,162.515137 31.008108,160.136124 
	C33.332718,153.684250 32.043877,147.338028 31.426199,140.921707 
	C31.123909,137.781586 30.631153,134.615097 30.770712,131.484894 
	C31.356503,118.346115 32.486843,105.367851 44.729401,96.879585 
	C46.177570,95.875519 46.340332,94.091003 46.746048,92.452896 
	C49.654099,80.711334 54.270741,69.701088 61.370708,59.855103 
	C67.062027,51.962578 73.985756,45.516628 83.996490,43.859200 
	C87.009880,43.360291 89.137383,42.305614 91.237434,40.175533 
	C98.449211,32.860641 107.049370,28.680174 117.604889,29.523273 
	C119.518196,29.676094 121.250862,29.570747 122.461685,27.772717 
	C127.271774,20.629841 134.667877,17.198032 142.242218,14.009916 
	C154.838715,8.707922 167.825562,4.576352 181.000000,1.000000 
	C189.020905,1.000000 197.041809,1.000000 205.791321,1.212104 
	C213.929382,4.537265 216.334213,12.289270 221.555313,18.535938 
	C226.087570,10.733407 231.377960,4.628819 239.000000,1.000000 
	C245.687637,1.000000 252.375290,1.000000 259.855469,1.170057 
	C267.116730,2.935866 273.750702,4.274353 279.334930,8.082810 
	C284.061035,11.306043 288.425507,14.740032 294.628448,11.905538 
	C295.533630,11.491897 296.909729,12.049707 298.056091,12.232239 
	C307.622650,13.755439 315.200226,19.244680 322.812164,24.667215 
	C325.232147,26.391163 327.409515,28.403103 330.503113,29.126820 
	C337.983398,30.876801 344.358978,34.737801 349.805328,40.104378 
	C351.435181,41.710373 353.150085,42.625584 355.511932,42.667114 
	C361.691833,42.775776 367.401611,44.792233 372.268280,48.434647 
	C386.328491,58.957882 396.233887,72.303230 399.504669,89.987450 
	C400.035980,92.860107 400.342529,95.795288 402.624634,98.225067 
	C407.756775,103.689323 410.432953,110.466011 412.451538,117.620720 
	C415.527008,128.521408 414.821533,139.711639 415.255493,150.790436 
	C415.586792,159.248291 415.717163,167.732544 414.558228,176.225006 
	C413.798645,181.791092 411.549255,187.244736 412.533539,192.989792 
	C414.483978,204.374100 414.941833,215.870392 414.227844,227.327545 
	C413.403046,240.562317 411.117188,253.518753 401.349396,263.693878 
	C400.338287,264.747162 399.924866,265.975830 400.358063,267.356628 
	C402.670685,274.728149 400.413300,281.471252 397.583069,288.149475 
	C396.931702,289.686371 396.302765,291.244812 396.576721,292.976288 
	C397.602509,299.459229 396.889374,305.905426 396.504028,312.398438 
	C396.182800,317.811096 393.571533,322.688446 393.430481,328.014526 
	C392.834778,350.511292 384.788635,370.134827 370.924683,387.605469 
	C369.914246,388.878784 369.109100,390.414520 368.581055,391.955902 
	C362.579712,409.473175 351.507233,422.950409 336.337646,433.382843 
	C327.385376,439.539612 317.739868,444.329315 308.000000,449.000000 
M203.985199,40.415020 
	C201.998032,36.198952 200.010849,31.982885 197.643204,26.959581 
	C204.796936,28.807375 206.595169,34.715385 210.477844,39.001358 
	C210.967819,34.418175 211.232529,30.410866 210.524170,26.460024 
	C209.523651,20.879770 205.848587,18.641523 200.354233,20.171547 
	C190.616898,22.883118 181.809784,27.507092 173.624237,33.385113 
	C172.647141,34.086765 171.854797,35.550869 169.640625,34.286434 
	C172.379211,27.499136 178.100189,23.978193 184.021713,20.662373 
	C189.855621,17.395592 196.325409,15.557257 203.115799,13.208754 
	C199.324829,9.624725 195.479568,9.978253 191.944717,10.241053 
	C171.647995,11.750017 153.120514,18.892002 135.480942,28.614386 
	C133.792938,29.544760 132.475342,31.206026 131.112305,32.647614 
	C130.106720,33.711143 129.618790,35.196789 131.158325,36.062485 
	C135.246628,38.361347 138.208740,41.774139 140.649017,46.291103 
	C149.393188,31.450047 159.069504,19.128656 176.383942,16.194878 
	C171.344269,20.634661 165.196808,23.607969 160.412247,28.470812 
	C155.495300,33.468204 151.207687,38.804317 148.680756,45.906734 
	C152.741196,46.739727 156.881790,45.269310 160.661331,49.169849 
	C143.264206,52.333939 129.074829,60.527645 116.039780,72.285461 
	C115.239998,68.072647 117.326073,66.012894 119.036499,63.942841 
	C122.240677,60.064934 126.464424,57.277607 130.164139,53.927742 
	C135.241165,49.330822 134.467514,44.760777 128.302078,41.871166 
	C117.856735,36.975651 106.998405,39.081161 98.549934,47.628933 
	C97.478897,48.712559 96.153198,49.803310 97.486458,51.421844 
	C98.837524,53.061993 100.153786,51.926876 101.399078,51.061859 
	C103.791893,49.399750 105.585892,46.850647 109.313179,45.659672 
	C108.352074,52.158703 104.330788,55.835102 100.222610,59.314453 
	C95.397789,63.400738 90.224724,67.077087 85.418442,71.183739 
	C74.278488,80.702103 72.525047,93.212624 73.839859,107.096748 
	C76.740509,105.928726 76.254143,102.609383 78.969337,101.731934 
	C80.419838,106.317139 78.830597,110.335754 77.207611,114.295776 
	C74.393463,121.162209 72.636963,128.229767 73.192322,135.687408 
	C73.572075,140.786942 75.966621,142.829788 80.936874,142.782257 
	C88.342468,142.711426 92.060898,137.422043 91.155174,127.748856 
	C90.011642,115.535889 91.896980,103.829277 96.928040,92.707855 
	C98.373405,89.512810 97.597847,87.960999 94.921211,86.204010 
	C91.901497,84.221817 88.176735,83.049477 85.516663,79.129089 
	C90.185249,79.334305 93.911064,80.010193 97.349304,81.665367 
	C100.679092,83.268318 103.091698,82.957542 105.460487,79.821716 
	C107.249985,77.452759 109.466431,75.110931 112.966438,74.612724 
	C113.205750,77.256973 111.518784,78.647224 110.542885,80.274200 
	C107.368149,85.567009 104.225258,90.889587 101.896965,96.599503 
	C97.735046,106.806206 95.922798,117.379578 98.402206,128.314484 
	C99.551170,133.381714 102.495758,135.524368 106.454926,134.261887 
	C109.710419,133.223801 113.031326,132.085358 115.772675,129.945496 
	C108.437668,114.622475 107.724937,109.252716 112.377563,104.963425 
	C113.738075,106.519302 113.181519,108.445457 113.393677,110.207344 
	C114.854042,122.335098 120.138901,127.019348 130.794052,125.597519 
	C139.478516,124.438660 146.429153,118.250519 147.531021,110.696594 
	C148.489502,104.125664 143.711304,96.666313 136.359543,93.407326 
	C133.769653,92.259254 130.966614,91.770271 128.245941,91.027161 
	C125.889969,90.383667 122.983437,91.264153 120.857933,89.032890 
	C122.881332,86.901131 125.214844,86.779655 127.523209,86.714920 
	C134.520645,86.518715 134.604797,86.551132 135.534454,79.362556 
	C135.859573,76.848618 136.415604,74.432838 137.416656,72.150368 
	C138.809540,68.974442 139.676178,65.275452 144.314758,63.934841 
	C142.968399,69.254044 141.499420,73.981323 140.612488,78.815399 
	C139.300125,85.968216 144.625671,92.550941 152.197311,93.618492 
	C158.946640,94.570099 161.787582,91.482460 162.735275,82.546783 
	C163.207626,78.093208 163.760925,73.615372 164.750031,69.255707 
	C167.522827,57.034210 173.464264,46.619564 183.360764,38.738739 
	C185.565521,36.983051 188.021790,35.099277 191.639877,35.985806 
	C191.165970,36.775597 191.025513,37.306973 190.682632,37.538239 
	C177.406616,46.492432 172.533768,59.966175 170.503387,74.972992 
	C169.005020,86.047455 169.993210,86.973587 181.140228,84.985291 
	C187.898987,83.779732 188.311859,83.338203 188.586029,75.874542 
	C188.713928,72.392929 188.607910,68.902733 188.607910,65.416428 
	C192.660797,69.765755 193.009201,74.779190 193.117264,79.688126 
	C193.193985,83.172867 193.961166,85.533508 197.185226,87.428658 
	C201.484634,89.955902 203.682190,94.041550 203.918472,99.166222 
	C202.169571,99.359764 201.509491,98.494820 200.914520,97.746841 
	C190.974045,85.250099 165.908569,92.980011 161.242874,104.098969 
	C158.887253,109.712730 156.665543,115.382690 154.396713,120.994011 
	C158.607468,123.501099 163.914658,123.968781 166.410706,130.680984 
	C156.972412,126.500641 148.561935,127.029091 140.122955,129.824722 
	C133.649902,131.969086 127.185951,134.375198 120.524353,135.664734 
	C108.631836,137.966858 101.783501,145.642944 96.779327,155.809448 
	C95.957397,157.479294 95.857971,159.657318 93.676849,160.933762 
	C92.135681,158.616623 92.554947,156.233841 92.886650,154.069489 
	C93.412277,150.639893 91.829109,149.482513 88.792610,149.403793 
	C83.303864,149.261475 79.177361,151.609024 76.319626,156.257919 
	C73.150223,161.413834 71.211235,167.080475 69.427010,172.814880 
	C66.804886,181.242279 66.052132,190.011169 64.916687,199.458755 
	C60.562275,194.195999 62.738998,187.992676 60.589722,182.713379 
	C58.297840,183.648132 56.367573,184.598236 54.336563,185.218338 
	C52.275215,185.847672 50.074577,186.015640 48.004814,186.623550 
	C42.318188,188.293777 38.179962,193.200287 38.663483,198.774857 
	C40.096619,215.297684 41.586082,221.844818 61.502380,220.670013 
	C74.988007,219.874542 83.574974,212.839493 88.932968,201.017746 
	C79.642471,192.771118 79.212883,192.139313 79.396744,186.707932 
	C85.336372,190.743210 90.408333,197.641983 99.553734,192.571930 
	C96.438133,188.454590 93.149666,184.946594 92.231628,180.309662 
	C91.368256,175.948715 90.680885,171.444565 93.318619,167.309326 
	C94.009224,168.082489 94.284508,168.843506 94.332306,169.618530 
	C95.218826,183.993195 106.004387,190.236115 118.045341,181.235321 
	C122.732941,177.731247 123.959442,175.337708 121.846031,170.093719 
	C119.442757,164.130524 118.700630,157.769180 120.210701,151.182236 
	C122.646057,152.061142 122.304024,154.045929 122.730309,155.512573 
	C123.942467,159.682953 125.285645,163.778229 127.452484,167.572006 
	C132.339264,176.127975 140.500061,180.091064 150.155716,178.557587 
	C156.489670,177.551651 158.895920,173.528366 157.055237,167.392227 
	C156.300110,164.874847 154.279099,162.856201 154.163055,159.577515 
	C159.926498,159.983017 162.186081,163.969574 163.883743,168.307007 
	C166.546173,175.109421 167.919144,175.546326 173.618820,170.909515 
	C178.003708,167.342255 179.676224,162.724701 179.010803,157.186829 
	C178.154907,150.063660 175.161926,143.815750 171.220444,137.926956 
	C170.361053,136.642975 168.697266,135.675491 169.172485,133.206848 
	C176.706085,135.545944 180.384735,142.091599 185.729523,148.054794 
	C189.355972,131.678284 205.143738,121.893784 204.233643,103.531418 
	C209.138611,107.644226 207.898376,112.190895 208.809494,116.632095 
	C212.755188,112.751144 214.053757,108.065880 213.413452,103.938126 
	C210.612274,85.879974 213.506165,65.301315 191.752899,54.497822 
	C199.639008,52.215527 203.627579,57.675259 209.039444,59.822304 
	C208.689117,52.919353 206.582596,46.992653 203.985199,40.415020 
M262.048004,204.276077 
	C263.500977,196.240082 264.861450,188.176422 270.455841,181.671951 
	C272.066284,179.799500 270.869354,178.316116 269.648315,176.843002 
	C264.828796,171.028534 261.352509,164.385132 257.896332,157.729523 
	C254.598740,151.379333 252.364105,144.501022 248.366211,138.500290 
	C242.849106,130.219269 238.970062,129.061005 229.859161,133.394012 
	C229.051682,125.838425 232.062592,117.809021 226.892975,111.162613 
	C222.602905,117.035828 221.738342,123.335724 223.805115,130.124008 
	C224.186523,131.376740 224.188126,132.746750 224.349884,134.064484 
	C225.245911,141.363831 226.137253,148.663742 227.030197,155.963470 
	C227.981583,152.057053 226.876282,148.071304 228.979431,144.101501 
	C235.275894,157.590256 243.319733,169.853729 252.215439,181.681396 
	C244.022461,179.592148 239.845810,172.780304 234.362625,166.886429 
	C228.811447,184.411499 235.751938,198.186142 245.800354,211.506699 
	C241.072250,211.650894 239.188217,208.455994 235.653717,207.206543 
	C235.031448,222.699554 235.986542,236.893799 249.413025,247.096100 
	C260.116241,255.229111 272.346191,259.807129 285.070892,263.407379 
	C286.783783,263.891998 288.722137,263.858124 290.062317,265.641724 
	C286.143158,268.564972 281.415833,265.940643 276.852356,267.360992 
	C280.972748,273.539703 287.420654,276.773590 291.158783,282.565460 
	C282.209839,280.414398 275.030884,275.426300 268.919678,269.045624 
	C265.268707,265.233673 261.333252,262.245453 256.533691,260.087372 
	C250.786865,257.503357 249.859619,257.404785 246.434692,262.756836 
	C244.180878,266.278778 242.535934,270.190369 240.560379,274.040405 
	C238.735107,272.457642 239.118591,270.859924 239.302841,269.168488 
	C239.761429,264.958710 241.130249,261.024017 242.989899,257.308929 
	C244.481430,254.329239 244.285416,252.212845 241.697479,249.887054 
	C236.206467,244.952240 233.111313,238.620621 231.413757,231.430267 
	C229.161041,221.888382 229.390991,212.264847 229.938171,202.625458 
	C230.086411,200.013962 229.991714,197.723099 227.842804,195.329102 
	C226.551804,198.962250 223.908432,202.236633 225.000092,205.781387 
	C227.967545,215.416977 227.018692,225.230698 227.412491,235.013367 
	C227.726974,242.825897 230.333374,250.336578 230.585907,258.515137 
	C234.043335,256.569061 233.505386,252.679382 236.030914,251.051254 
	C237.553268,252.062729 237.231247,253.326416 237.346924,254.430588 
	C237.857819,259.306671 235.784454,263.557495 233.967331,267.838043 
	C229.638214,278.036102 230.974854,287.548004 236.973068,296.619354 
	C243.295837,294.201965 243.248596,294.221252 240.853790,288.358978 
	C240.270660,286.931519 239.088943,285.416473 240.390564,283.749329 
	C240.602890,283.749329 240.814133,283.683289 240.928528,283.760590 
	C241.469574,284.126068 242.024765,284.486755 242.502182,284.927887 
	C256.406097,297.775238 272.930298,299.406555 290.113342,294.668396 
	C306.892517,290.041595 315.567993,277.449097 319.012238,260.886475 
	C321.989532,246.569427 311.869080,235.731323 297.348022,237.632751 
	C290.082672,238.584091 282.799286,239.508759 275.452972,239.216812 
	C269.280914,238.971527 263.093781,238.422546 257.549469,235.372192 
	C253.830734,233.326202 250.385361,230.850113 249.341125,224.850021 
	C259.945770,232.426224 270.860565,233.719757 283.096466,232.294785 
	C280.371460,223.144714 280.832336,214.095963 278.645111,204.478439 
	C282.036377,206.259064 283.296082,208.411545 284.131744,210.737946 
	C285.647827,214.958588 286.837646,219.296188 288.344971,223.520248 
	C290.936615,230.782944 294.699402,231.403366 299.762573,225.508774 
	C304.572571,219.908875 306.661285,213.066742 308.698700,206.173965 
	C309.997925,201.778564 310.186829,197.055893 312.668793,192.226425 
	C315.038147,196.156799 315.375702,199.790543 314.963074,203.643082 
	C314.341614,209.445740 313.115692,215.123444 311.845978,220.810730 
	C309.621582,230.774414 316.097015,237.035568 326.045654,235.061874 
	C333.143524,233.653717 338.943756,229.879944 344.796600,226.021988 
	C347.179443,224.451324 349.437103,222.402603 353.067932,222.170456 
	C351.094574,228.771362 345.383209,231.572937 341.358002,236.317368 
	C348.574890,237.765121 355.247925,235.497253 362.634003,235.980835 
	C360.391113,239.544586 357.370422,240.146729 354.676056,241.133423 
	C352.412018,241.962524 351.170502,242.984131 352.503693,245.519241 
	C354.905548,250.086472 357.082886,254.780655 359.667053,259.240417 
	C361.813690,262.945129 365.035583,264.223877 369.459290,263.057281 
	C376.536316,261.190948 381.846802,256.786530 386.989929,251.975830 
	C388.396301,250.660355 389.398102,248.730347 391.876526,248.484497 
	C392.478485,253.898300 388.520233,257.571564 386.572540,262.138947 
	C401.275909,260.094849 405.664276,231.829758 400.996674,221.709549 
	C394.719971,223.544052 394.749878,223.536194 396.372192,229.711716 
	C397.548676,234.190109 398.492645,238.664093 393.020844,243.229507 
	C393.082886,236.815781 392.893524,231.387665 388.203827,227.813141 
	C383.827209,224.477234 378.837677,223.119553 373.052399,223.208099 
	C374.347839,229.919037 377.714600,236.105789 375.244537,242.931549 
	C370.509857,233.460861 365.671906,224.187378 360.298584,215.191040 
	C351.183197,199.929520 338.616516,189.140961 321.064697,184.948807 
	C312.868225,182.991135 305.577789,184.992188 299.595947,191.179398 
	C298.185730,192.638000 297.166931,194.642761 294.887390,195.291138 
	C293.515900,191.520889 296.728271,188.817261 296.579895,185.581589 
	C285.584778,180.892899 274.218231,185.506256 270.386475,196.236603 
	C267.747986,203.625214 267.865753,211.257324 268.886475,218.919235 
	C269.117371,220.652069 269.973480,222.409180 268.548645,224.438263 
	C265.956238,222.789368 264.553864,220.337036 263.722382,217.709030 
	C262.695679,214.463882 260.842957,213.613510 257.733826,214.534286 
	C254.962921,215.354919 252.266449,215.256409 248.874756,212.718597 
	C254.203064,210.958557 259.158142,209.672089 262.048004,204.276077 
M314.801239,175.551392 
	C319.237396,172.843338 321.390442,168.547318 322.598022,163.772736 
	C323.777618,159.108917 324.489105,154.328339 325.593170,149.643097 
	C326.130005,147.364929 326.712372,144.877228 330.130280,144.065826 
	C329.854279,147.281723 329.444977,150.054718 329.411163,152.832260 
	C329.322357,160.133545 330.148346,167.534927 326.328888,174.308517 
	C325.725647,175.378311 325.624023,176.667496 326.961456,177.354340 
	C331.690613,179.782959 336.275543,182.671219 341.260834,184.371979 
	C346.219635,186.063705 350.763306,184.353577 353.964325,179.842789 
	C357.180908,175.310104 359.239471,170.227051 361.282043,165.116257 
	C361.901520,163.566101 361.808533,161.404251 364.310669,160.896164 
	C365.597565,162.285446 365.321381,163.994324 365.334412,165.595551 
	C365.374603,170.524231 363.800293,175.081970 362.065491,179.606644 
	C360.097107,184.740616 357.980591,189.980331 358.803741,195.550217 
	C361.188934,211.689819 371.672882,219.544800 387.995087,217.847702 
	C394.220947,217.200378 398.742920,213.967422 400.979980,208.297485 
	C404.251862,200.004715 403.312134,191.887619 398.033478,184.603638 
	C395.907806,181.670456 393.102173,179.298126 388.721436,179.552811 
	C387.672241,185.272842 389.608368,191.617188 384.279083,197.326889 
	C382.967682,186.678360 381.012299,177.320663 376.800293,168.591949 
	C372.446289,159.569000 365.831909,153.010193 356.378540,148.982559 
	C355.557617,153.150528 358.157440,157.327713 354.796051,160.716278 
	C354.294006,160.284683 353.942993,160.120331 353.816010,159.850525 
	C353.180725,158.500778 352.551239,157.143753 352.015228,155.752502 
	C347.241852,143.362961 338.084564,136.391510 325.343933,133.254623 
	C316.728271,131.133331 309.964783,133.307632 304.392548,139.980499 
	C303.796906,140.693787 303.242157,141.712540 301.824707,141.159256 
	C300.880676,138.490829 301.850037,136.018417 302.937683,133.615402 
	C305.626617,127.674721 304.457367,125.649742 297.814514,124.944656 
	C293.476654,124.484222 290.092407,126.629539 286.917572,129.119446 
	C281.517517,133.354538 276.957275,138.447174 272.439056,143.582199 
	C271.553131,144.589050 271.080811,146.367477 269.064117,146.061783 
	C268.203461,143.695648 269.575500,141.832153 270.445007,139.937958 
	C273.777008,132.679291 278.918243,126.890976 284.979889,121.746231 
	C290.486877,117.072250 292.102051,110.987549 289.950562,105.168198 
	C287.797089,99.343437 281.984924,95.412231 275.150635,95.108559 
	C268.187805,94.799164 262.170563,97.539421 256.293610,100.817970 
	C254.772491,101.666534 253.545029,103.259727 250.993057,102.931343 
	C251.694565,99.530891 253.937210,97.382706 256.177551,95.274635 
	C258.351501,93.229080 259.407166,90.942551 257.704163,88.181671 
	C254.870300,83.587440 255.305374,78.546967 255.793716,73.602562 
	C256.049683,71.010757 256.367828,67.999786 260.024902,66.383972 
	C260.004852,71.267982 259.123047,75.738525 260.442200,80.119736 
	C261.722260,84.371185 264.500397,86.587158 268.837769,86.544365 
	C272.973877,86.503555 275.504211,84.310303 276.772919,80.253342 
	C277.832184,76.866280 277.238953,73.646385 276.627014,70.404694 
	C274.617401,59.759380 272.624817,49.028591 266.136993,39.992207 
	C261.348236,33.322292 255.785706,33.780834 251.679718,40.913696 
	C250.155930,43.560822 249.047623,46.447124 247.660187,49.416241 
	C245.751999,47.578903 245.663864,45.701927 245.875916,43.904697 
	C246.616119,37.630882 249.210098,32.194912 254.859558,29.110828 
	C258.944550,26.880808 258.388275,24.710629 256.308777,21.583977 
	C254.936920,19.521278 252.748978,17.829119 252.229797,14.436498 
	C255.350525,15.179293 257.316132,16.616886 259.175873,18.233990 
	C260.794128,19.641119 261.920013,22.197279 264.095428,22.274614 
	C271.967133,22.554464 279.330902,24.736361 286.882538,28.175701 
	C285.319763,23.846674 284.930084,22.684881 282.588745,20.764072 
	C271.392731,11.578945 258.359253,7.594622 244.063522,8.698173 
	C236.887909,9.252090 232.281250,15.319299 233.165237,21.456591 
	C237.310791,18.612679 240.439270,13.998345 247.977890,14.134690 
	C238.738434,21.434530 235.851456,31.062626 231.946167,41.236282 
	C228.866791,36.757961 229.503693,31.275709 224.110718,29.047968 
	C224.330963,38.125950 224.912582,46.790443 223.280685,55.256691 
	C221.759018,63.150997 222.546646,70.787819 224.370941,78.445419 
	C225.480576,83.103119 225.610764,88.024094 228.198959,93.513069 
	C229.718430,77.616081 230.745224,62.863991 231.401031,48.020184 
	C236.576889,53.325520 234.950821,60.527649 237.208069,66.785477 
	C243.455826,65.163673 246.048630,60.657719 247.276749,55.090034 
	C248.026810,55.424644 248.366333,55.504635 248.607635,55.703701 
	C248.852951,55.906075 249.040695,56.206146 249.186554,56.497082 
	C251.831650,61.773315 248.880569,65.627808 245.471786,68.869270 
	C240.540115,73.558846 237.626434,79.094322 236.429764,85.699684 
	C235.143723,92.798523 234.991882,99.972000 235.469879,107.108383 
	C235.928391,113.953575 238.498581,120.095680 243.918823,124.630173 
	C253.216202,132.408249 259.572083,142.242630 264.316986,153.245102 
	C266.295593,157.833130 268.288330,162.400284 270.969116,166.655563 
	C274.071045,171.579285 278.397308,174.810425 283.988281,176.059814 
	C294.012299,178.299866 304.086456,178.614349 314.801239,175.551392 
M185.622711,204.915588 
	C182.990143,189.438110 176.226974,184.577011 161.063507,186.906952 
	C154.613632,187.898041 148.144867,187.611786 141.718811,186.131012 
	C126.737488,182.678772 115.426392,189.061798 110.416779,203.546967 
	C109.828560,205.247803 109.928246,207.480362 107.316963,208.687912 
	C106.061066,204.819763 106.921318,201.209442 106.839043,197.228363 
	C88.321663,206.729340 84.543579,225.437057 77.443184,243.050385 
	C73.887383,236.083282 77.525604,230.322800 77.171822,224.312988 
	C62.694656,226.300262 58.153233,236.216110 56.671051,249.697357 
	C51.557251,241.846298 54.065823,235.164841 56.676517,228.456284 
	C54.509201,228.181274 52.701675,227.966461 50.898418,227.720444 
	C45.068943,226.925125 44.106316,227.780365 44.055523,233.621231 
	C43.964672,244.069702 46.749855,253.667175 52.404675,262.451355 
	C56.089714,268.175690 57.313396,268.379578 62.814560,263.957153 
	C62.089600,260.921661 58.059971,259.212494 59.042820,254.893494 
	C63.677536,257.835815 67.385979,261.470032 72.040894,263.679443 
	C78.928574,266.948578 83.675301,266.391937 88.636307,260.722351 
	C95.378433,253.017303 98.678734,242.751221 107.625778,236.666351 
	C102.834991,231.582916 97.314774,228.390244 95.456718,221.789597 
	C98.572815,221.874496 99.988945,223.712006 101.667068,224.931442 
	C107.063034,228.852539 112.462143,232.772858 118.439629,235.762390 
	C123.294922,238.190689 128.329697,239.797211 133.794128,237.576721 
	C137.369202,236.123978 139.506058,234.283661 137.013138,230.078156 
	C135.940048,228.267853 135.268494,226.043060 135.046738,223.939926 
	C134.524643,218.988602 133.632950,213.916733 136.222046,208.581284 
	C138.024246,211.395416 138.042755,213.947937 138.721741,216.302917 
	C139.457581,218.854950 140.251831,221.415482 141.317291,223.842056 
	C143.834335,229.574722 147.837479,232.800217 151.969620,232.166275 
	C157.433746,231.327972 160.168884,227.414230 161.579315,222.475204 
	C163.140701,217.007629 165.035400,211.684875 167.920380,206.775650 
	C168.963867,204.999985 169.854050,202.849533 173.145508,202.652069 
	C170.118927,211.722610 170.273468,221.225677 166.763321,229.863831 
	C165.231720,233.632904 166.291092,234.975464 169.806702,235.818802 
	C171.934250,236.329147 174.046616,236.510284 176.203339,236.705978 
	C180.210876,237.069672 183.936417,235.228043 188.422333,235.188751 
	C187.299545,238.574722 184.924332,239.921844 182.298935,240.912628 
	C177.154953,242.853897 171.830795,242.801422 166.537857,241.831863 
	C157.421951,240.162003 148.418030,239.310150 139.579376,243.219437 
	C130.768280,247.116516 127.358185,252.589661 129.634277,261.907013 
	C132.196243,272.394653 135.477219,282.731903 139.886505,292.636444 
	C140.862473,294.828705 141.828690,297.297363 144.987885,297.912781 
	C149.838470,292.038605 157.213440,289.529236 162.976028,284.764038 
	C168.855850,279.901947 173.679535,274.250214 177.029572,266.948578 
	C171.261551,265.359375 166.006744,268.827942 160.959152,265.763977 
	C161.594940,265.255554 161.918854,264.849274 162.336899,264.689911 
	C163.577332,264.217010 164.852737,263.834808 166.118179,263.428711 
	C178.492126,259.458038 190.892090,255.575104 201.713593,247.993500 
	C213.776321,239.542282 218.022766,227.843307 214.025055,212.344482 
	C209.327347,216.807327 204.203079,219.974533 198.113266,221.422302 
	C196.204727,221.876007 196.585693,224.107376 196.153015,225.677917 
	C195.359390,228.558792 195.014587,231.852097 191.351807,232.986053 
	C190.186386,230.909012 191.246155,229.192322 191.429886,227.426147 
	C192.027115,221.685364 189.811844,219.772827 184.393463,221.169571 
	C183.497482,221.400543 182.445114,221.820160 181.354874,220.299438 
	C185.038895,216.299423 186.361160,211.313568 185.622711,204.915588 
M113.005096,309.346039 
	C108.877754,307.876953 104.617645,307.293030 100.250122,307.458160 
	C98.714081,307.516235 97.396454,307.834045 96.435799,309.327637 
	C87.813362,322.733612 88.441345,340.435730 98.830322,354.890594 
	C97.712769,349.217529 96.814346,344.656891 95.649979,338.746185 
	C103.491478,344.654724 104.724052,351.742462 104.449478,359.388702 
	C104.229225,365.522400 102.317970,370.827209 96.235954,374.329742 
	C100.793114,365.719543 94.994423,360.328125 91.033897,354.355286 
	C89.475616,352.005249 88.301987,349.401489 86.928741,346.926849 
	C86.327477,345.843384 86.210152,344.251434 84.149055,344.343994 
	C81.013245,348.760162 80.198013,354.066528 79.532623,359.275879 
	C77.147141,377.951996 88.408676,389.681091 107.180122,387.528168 
	C117.566292,386.336945 126.559044,381.315399 133.434326,373.386292 
	C138.239853,367.844208 139.922852,361.008575 139.346375,353.683746 
	C123.499138,352.271790 108.856323,339.813019 110.546471,329.074585 
	C112.532242,331.446411 114.285469,333.588470 116.090378,335.686005 
	C119.480103,339.625305 123.178627,343.240753 127.907784,345.537933 
	C133.008545,348.015594 137.074524,346.452820 138.352463,341.077148 
	C140.538239,331.882782 140.516632,322.608246 137.691498,313.490692 
	C136.388046,309.284088 133.494202,306.863556 129.035706,306.277832 
	C127.576973,306.086212 125.591080,306.654266 124.882919,304.193115 
	C125.572105,303.754517 126.199417,303.197662 126.932449,302.913116 
	C134.642609,299.919739 135.085938,299.614807 132.325211,291.608246 
	C127.386024,277.283783 124.120445,262.030701 111.244057,251.438416 
	C115.759331,249.568130 118.654228,252.785400 122.220200,253.626678 
	C123.099609,250.942856 123.899155,248.502777 124.686180,246.100922 
	C111.813820,241.102997 111.814438,241.103455 103.913124,251.850922 
	C103.321175,252.656128 102.755028,253.485825 102.103584,254.240891 
	C95.665298,261.703247 94.548325,269.458038 100.351067,277.915375 
	C102.253342,280.687866 104.094902,283.718170 103.983841,288.673828 
	C98.018105,284.205200 94.382500,279.248383 92.164154,273.327332 
	C91.015038,270.260162 89.643494,269.463043 86.619125,270.789673 
	C82.682304,272.516541 78.663177,272.535461 74.454674,271.207458 
	C68.340691,269.278168 62.171402,271.454224 59.480927,276.009369 
	C56.977848,280.247253 58.074203,285.706940 62.493107,290.608337 
	C66.207024,294.727783 70.848099,297.722168 75.264885,300.988159 
	C76.624870,301.993805 78.427750,302.694824 78.622398,304.708282 
	C75.829407,306.360413 73.217819,303.963745 70.184448,305.050232 
	C71.413162,312.376343 76.321930,317.982758 79.949738,325.069824 
	C71.747017,323.530792 68.714119,316.981049 63.555912,311.747742 
	C62.495926,326.070007 67.978088,337.308472 73.854935,349.429596 
	C76.608185,345.400146 78.256714,341.693695 81.207588,339.021240 
	C83.155663,337.256989 83.462051,335.356445 83.036682,332.769501 
	C82.042854,326.725403 83.023277,320.880890 85.635750,315.265625 
	C90.128250,305.609467 90.016716,305.304230 82.855957,297.497467 
	C77.625481,291.795166 76.076988,281.952820 79.722290,276.960907 
	C80.819122,277.674103 81.027390,278.793884 81.228050,279.950073 
	C83.504082,293.065582 89.370934,298.782135 102.262024,300.776001 
	C107.877609,301.644562 113.406364,303.026337 118.061600,306.528168 
	C121.414032,309.050018 123.719803,312.181030 123.077827,318.099884 
	C119.751755,314.124481 117.365746,311.100098 113.005096,309.346039 
M330.473114,76.014748 
	C325.284210,70.141693 319.845184,64.526695 313.609039,59.740025 
	C305.143982,53.242516 295.864563,48.561901 285.100769,47.481850 
	C278.223297,46.791759 277.046936,48.446480 279.264221,54.835133 
	C282.776855,64.955963 285.860352,75.137299 282.105469,85.929321 
	C281.589569,87.412117 281.926300,88.686058 283.364899,89.274460 
	C287.382141,90.917580 290.527344,93.975197 294.683807,96.407509 
	C298.144104,90.274727 305.285004,87.099518 305.737518,79.024864 
	C306.152374,71.621918 300.911621,66.072891 299.858978,59.172768 
	C306.814240,63.761810 309.675201,70.744125 311.152191,78.303986 
	C311.834381,81.795944 312.993591,82.788101 316.457092,81.983536 
	C318.813263,81.436203 321.525177,80.858063 324.105316,82.928162 
	C322.382172,84.487343 320.598511,84.874504 318.910034,85.500961 
	C314.505127,87.135277 310.309479,89.253876 306.952911,92.568924 
	C301.476044,97.978004 299.407104,104.561462 301.184113,112.148201 
	C302.751556,118.840149 307.645599,122.081436 313.874603,123.369064 
	C321.142853,124.871513 327.219696,121.984825 332.669800,117.371239 
	C334.187592,116.086418 335.380737,114.104034 338.022247,114.093292 
	C338.121307,120.413223 333.498779,123.250885 329.620209,126.787895 
	C334.525116,129.347153 339.030487,131.789963 343.621368,134.059814 
	C346.508453,135.487274 349.635284,136.667130 352.546051,134.283691 
	C355.575134,131.803360 355.888428,128.510941 355.053314,124.781265 
	C351.003479,106.694038 342.434174,90.901749 330.473114,76.014748 
M286.483032,386.952972 
	C288.299591,389.397064 290.624237,391.324005 293.151764,392.925995 
	C298.780121,396.493317 302.279907,401.567902 304.216858,407.826202 
	C304.561890,408.941010 304.701660,410.124573 306.574219,411.175446 
	C312.885956,406.954590 318.418701,401.762054 320.575439,393.803711 
	C321.335541,390.998932 320.697510,388.124695 318.722809,385.806122 
	C314.886932,381.302338 310.305511,377.506714 306.751587,372.301147 
	C303.250061,377.379913 302.222839,383.407837 296.945892,386.342438 
	C295.731415,385.045532 296.463531,384.126678 296.781769,383.248962 
	C304.682495,361.455841 306.682404,338.866364 305.556946,315.926788 
	C305.013428,304.848053 298.359589,300.309631 287.500397,302.985138 
	C274.757874,306.124664 270.266510,315.603241 267.943695,327.367615 
	C265.309570,340.709015 274.478607,350.261230 288.317078,350.708160 
	C290.062958,350.764557 291.859772,350.572174 292.395294,348.611450 
	C293.372101,345.035126 294.472198,341.399811 292.995117,337.521729 
	C289.747192,338.806702 288.098907,342.370026 283.638947,342.532654 
	C288.039337,333.489136 293.104950,325.937164 298.898865,318.697449 
	C300.738556,320.316498 300.550903,321.817566 300.168121,322.945496 
	C297.904053,329.616852 298.868896,336.329132 299.121948,343.156769 
	C299.604370,356.172729 297.802124,358.678528 284.788208,356.592743 
	C284.296967,356.514008 283.794769,356.461884 283.298126,356.465210 
	C280.631287,356.483002 278.788361,358.011108 279.432831,360.480652 
	C281.681335,369.097076 281.244019,378.411133 286.483032,386.952972 
M362.317261,377.784668 
	C370.640198,366.175201 370.383820,346.484131 362.062653,341.291626 
	C356.407043,347.571381 356.332794,348.972321 359.619080,356.295532 
	C361.279663,359.995972 363.483124,363.884521 361.167084,369.000031 
	C357.654541,364.416229 357.337219,358.535828 352.129028,355.997589 
	C347.614349,360.301727 350.093292,366.446045 347.719025,371.998444 
	C343.597321,365.575531 343.757019,359.747955 346.683136,353.921967 
	C348.472290,350.359711 350.798462,347.071411 352.716064,343.568451 
	C356.440887,336.764252 359.019989,329.598846 358.648438,321.689575 
	C358.292511,314.112488 351.785858,306.860687 345.057648,306.380890 
	C344.895355,306.665680 344.578400,306.961060 344.597046,307.233459 
	C344.686829,308.545776 344.859314,309.852875 345.016510,311.160095 
	C346.484711,323.370728 343.921509,334.406708 335.096405,343.376038 
	C330.002258,348.553406 324.310486,353.314484 316.410980,352.205200 
	C311.654114,351.537201 310.596619,353.599518 310.280487,357.504303 
	C310.043030,360.436920 310.486298,363.141785 311.929871,365.681061 
	C315.983185,372.811157 321.443817,378.497253 328.952759,382.011780 
	C341.191589,387.740082 354.039062,386.291748 362.317261,377.784668 
M322.567932,275.952026 
	C321.592377,281.049316 319.694275,285.853088 317.854614,290.672211 
	C314.644897,299.080353 314.091431,307.577911 317.554077,315.985962 
	C319.099396,319.738373 321.369385,323.192383 323.647888,327.405670 
	C318.068939,326.494873 316.000183,322.243500 312.196625,318.387726 
	C312.196625,325.279297 312.281799,331.214203 312.176239,337.145660 
	C312.025970,345.589935 316.241669,348.242126 323.819000,344.358582 
	C332.112457,340.107971 339.742401,325.661133 338.443481,316.470703 
	C337.203033,307.693878 334.813080,299.231598 331.313141,291.072784 
	C330.652496,289.532745 329.143066,288.063507 330.202576,285.889954 
	C334.360107,287.233459 335.664886,291.583527 339.306824,294.367920 
	C343.229645,288.552948 347.313324,283.132202 350.711090,277.311096 
	C355.523621,269.066284 353.353485,255.348221 346.605774,248.576050 
	C343.387848,245.346436 339.487396,243.598938 334.897827,244.016403 
	C329.388123,244.517578 327.456543,247.840302 329.332764,253.342010 
	C333.001068,252.580383 336.670044,250.152939 341.570068,253.469299 
	C330.785065,257.429413 325.345062,265.148560 322.567932,275.952026 
M91.370682,57.249458 
	C91.117462,53.810055 88.540718,53.514111 85.984818,53.424232 
	C82.323311,53.295471 79.210640,54.959332 76.250305,56.865074 
	C69.113022,61.459759 64.450279,68.135429 61.310009,75.799622 
	C54.461506,92.514160 51.492481,109.954735 52.401318,128.020859 
	C52.472675,129.439316 52.321411,131.021896 53.843609,131.864471 
	C56.295319,130.595230 54.740711,127.316818 57.141281,125.807114 
	C60.318928,128.494293 59.758892,131.645355 58.429100,134.795456 
	C56.784115,138.692184 53.930534,141.761536 51.143414,144.862961 
	C45.231636,151.441467 40.951283,158.806000 39.953041,167.805389 
	C38.915710,177.157211 44.723293,181.625610 53.486599,178.150223 
	C58.168053,176.293610 61.837788,173.119400 64.179062,168.776978 
	C67.254517,163.072830 69.843567,157.107162 72.670441,151.267838 
	C73.545471,149.460327 72.994080,148.156754 71.566597,146.889343 
	C67.140938,142.959930 66.131439,138.094635 67.351936,132.391251 
	C69.234787,123.592720 69.819290,114.815468 68.377724,105.736237 
	C65.728645,89.051949 71.605354,75.349503 84.766144,64.777054 
	C87.233902,62.794632 89.818008,60.927536 91.370682,57.249458 
M223.361389,363.093109 
	C226.550613,373.105530 227.175873,383.783966 231.169510,394.737274 
	C232.035034,386.107544 233.368057,378.686707 232.351288,371.031494 
	C237.091003,375.805603 237.949295,381.819489 238.295563,387.885559 
	C238.703308,395.028748 238.997589,402.172211 240.231903,409.233551 
	C241.371124,415.750885 244.735641,420.354065 251.578049,421.513947 
	C258.685883,422.718750 263.431366,419.076599 266.701538,413.270111 
	C273.764160,400.729828 276.504791,387.112305 275.361237,372.883545 
	C274.867554,366.741028 273.892975,360.262482 267.394623,355.816345 
	C264.285553,361.356812 260.025909,365.424561 254.550003,368.150269 
	C252.455582,369.192810 253.183624,370.982178 253.792236,372.507965 
	C255.170700,375.963684 255.607468,379.631104 255.915222,383.241699 
	C256.317749,387.964539 255.901062,392.663147 251.782440,396.402893 
	C250.099731,393.908356 250.949020,391.677063 250.623062,389.612274 
	C249.456421,382.221985 248.727142,374.149078 242.155823,369.626404 
	C236.511505,365.741730 232.507751,361.113251 229.668594,355.142609 
	C228.422501,352.522125 227.186188,349.897003 225.350891,346.017090 
	C224.535538,352.386169 223.905060,357.311157 223.361389,363.093109 
M204.693314,176.193619 
	C201.609467,178.612869 200.403778,182.897049 196.475830,184.744217 
	C195.206268,182.031860 196.669952,180.000381 197.634872,178.020828 
	C199.772903,173.634598 202.916809,169.926071 206.438202,166.615128 
	C213.039398,160.408432 215.360855,152.625443 214.479904,143.971909 
	C213.928665,138.557281 213.643311,132.831589 210.073746,127.868774 
	C205.439896,130.791519 202.517151,134.613770 199.610718,138.423584 
	C190.102539,150.887070 185.038574,165.087738 185.565582,180.648529 
	C185.876953,189.841949 189.873520,198.612442 191.560181,207.755142 
	C192.947189,215.273529 197.842987,216.585266 204.014465,211.991470 
	C212.921738,205.361282 215.952499,195.882874 216.558197,185.414566 
	C216.878052,179.886948 217.178314,174.199570 214.018448,168.992493 
	C209.892624,170.066116 207.885498,173.334671 204.693314,176.193619 
M184.242081,410.283936 
	C185.131180,412.067749 185.913849,413.914581 186.926895,415.624969 
	C192.916168,425.737091 199.720139,426.509186 208.248199,418.346710 
	C218.792282,408.254730 220.503387,395.991638 217.240036,382.548553 
	C215.948074,377.226471 215.425613,371.544312 211.678955,366.278900 
	C201.227798,376.106079 205.308746,388.832977 203.702271,400.565979 
	C201.266434,398.842163 200.421555,397.086884 199.651794,395.227570 
	C196.943970,388.686737 197.167618,381.904541 198.031250,375.100983 
	C198.244553,373.420654 198.981995,371.677521 197.274002,370.557983 
	C193.791626,368.275421 191.199600,365.035675 188.265442,362.148285 
	C178.809799,373.551117 177.196396,391.997009 184.242081,410.283936 
M359.527222,115.446571 
	C360.557098,118.534088 362.509186,118.102921 364.564728,116.662979 
	C370.459808,112.533371 374.449158,107.043633 374.587799,99.704559 
	C374.837036,86.513748 368.566315,76.522476 358.339844,68.694473 
	C353.191315,64.753448 347.621216,61.298450 343.334595,56.337837 
	C341.034637,53.676308 338.440460,51.048241 338.498901,46.922466 
	C341.093903,47.068031 342.163391,49.138538 343.992676,49.853741 
	C345.028534,50.258728 345.965118,50.260796 346.678040,49.343639 
	C347.296753,48.547756 346.889648,47.840229 346.377747,47.100487 
	C341.177826,39.586056 323.684448,36.981216 316.603912,42.662430 
	C313.772614,44.934208 313.610474,47.662075 315.138458,50.673111 
	C316.217804,52.800076 317.934021,54.418655 319.848785,55.762032 
	C325.066742,59.422863 329.567719,63.866669 333.789001,68.581993 
	C339.384979,74.832916 346.462769,77.413200 354.642609,77.691620 
	C356.633240,77.759377 358.881714,76.866714 360.759827,78.662689 
	C357.798248,84.248512 351.760803,83.084305 346.870087,85.254799 
	C351.755859,95.009888 356.805542,104.384178 359.527222,115.446571 
M395.529480,139.872589 
	C388.415314,130.368393 385.724335,118.653603 380.295135,107.268501 
	C376.285217,112.398315 373.245026,116.725357 369.759491,120.657646 
	C361.901428,129.522949 361.210480,135.166214 367.321228,145.297165 
	C368.952576,148.001740 370.602020,151.279526 374.266205,150.976959 
	C377.804932,150.684753 379.129059,147.319641 380.632660,144.514709 
	C381.938202,142.079178 382.314423,139.148071 384.690033,136.602295 
	C386.387146,142.695328 385.316467,147.921661 382.696228,152.832550 
	C381.017761,155.978439 378.958313,158.751175 382.308044,162.137451 
	C384.888214,164.745743 384.905426,169.900620 388.196045,171.113693 
	C393.513580,173.073975 399.212463,173.998764 404.091919,178.846985 
	C407.040894,163.730713 405.677948,151.177551 395.529480,139.872589 
M262.171906,339.818542 
	C261.455872,336.046082 261.081512,332.233673 261.418457,328.409882 
	C261.935303,322.545135 259.947388,317.666260 256.043701,313.400360 
	C254.925049,312.177917 253.025604,311.367493 253.166031,309.106293 
	C257.793030,308.155426 260.638947,311.828705 264.604462,313.009003 
	C266.458313,310.553711 267.906494,308.060486 268.702332,304.971802 
	C262.523010,302.818329 256.636566,300.596558 250.638260,298.735382 
	C246.519531,297.457367 243.357773,299.333801 242.464508,303.721954 
	C239.004990,320.716888 239.264359,337.771515 242.544678,354.747437 
	C243.610107,360.261139 247.941513,362.098938 253.258255,359.962952 
	C261.877441,356.500153 265.225616,349.431641 262.171906,339.818542 
M379.243500,325.701447 
	C383.583221,319.308441 385.215271,312.322540 384.426544,304.354675 
	C380.002960,305.288513 377.003143,309.228394 372.350098,307.839111 
	C373.306030,305.400024 375.245758,304.266724 376.632782,302.682159 
	C382.464630,296.020020 388.057343,289.192047 390.230469,280.347321 
	C391.646240,274.584900 388.373444,270.488922 382.483826,270.265686 
	C377.183960,270.064819 373.635254,273.419800 372.412933,279.930023 
	C371.252869,286.108429 370.970337,292.483765 368.200104,298.291473 
	C366.260498,302.357849 364.342346,313.204559 365.570099,317.383362 
	C367.032837,322.361877 364.634430,327.234741 365.680511,332.611176 
	C371.085388,332.227020 375.347015,330.156067 379.243500,325.701447 
M351.536865,393.311035 
	C347.878632,393.255127 344.292053,394.148590 340.577332,393.773254 
	C334.072327,393.115997 328.770660,395.293091 325.529480,401.324768 
	C322.475677,407.007599 318.435150,412.236206 313.090668,415.445618 
	C303.774902,421.039856 302.720856,431.086853 298.249908,439.356964 
	C310.126343,432.988861 317.780853,422.478760 325.468018,410.851349 
	C327.333038,416.815308 325.447388,421.185150 324.336823,425.770905 
	C334.003876,421.980072 351.696442,403.576233 354.279083,394.997253 
	C355.066132,392.382843 353.420532,393.186707 351.536865,393.311035 
M117.549149,398.572784 
	C111.894577,422.089966 131.841019,441.218842 154.948959,438.672699 
	C150.631668,429.346283 147.363144,419.697723 137.823120,414.140228 
	C133.301208,411.506012 129.937881,407.535492 126.891380,403.310455 
	C125.335159,401.152191 123.717972,399.028137 121.992920,397.004089 
	C120.141350,394.831451 118.650787,395.145416 117.549149,398.572784 
M382.345184,72.129654 
	C380.683044,69.842537 379.117798,67.476768 377.338348,65.284866 
	C373.761444,60.878796 369.905457,56.713497 364.974701,53.780739 
	C359.373383,50.449123 356.072510,50.841976 351.787781,55.545895 
	C356.003998,58.954605 360.064636,62.565434 364.452850,65.720642 
	C375.393188,73.586967 380.492279,84.444733 381.393463,97.584290 
	C381.509125,99.270859 381.588257,101.117043 382.786438,102.283272 
	C387.321259,106.697182 388.606140,112.600578 390.579865,118.232407 
	C391.493439,120.839272 392.124634,123.709030 394.794952,126.437363 
	C395.371094,118.248627 393.262756,111.320900 392.610992,104.252655 
	C391.576233,93.030640 389.195435,82.249367 382.345184,72.129654 
M309.886414,38.340290 
	C312.516876,36.717152 315.147339,35.094013 318.628021,32.946262 
	C310.617920,27.384766 303.455811,22.066238 293.395203,22.418219 
	C293.945343,32.233669 298.737579,39.118683 305.047699,45.615337 
	C306.761169,43.365376 307.186066,40.504429 309.886414,38.340290 
M363.803802,272.124268 
	C361.844391,269.229767 360.285645,269.849274 359.671234,272.886078 
	C358.345490,279.438507 354.695496,284.734314 351.034271,290.083618 
	C349.574036,292.217133 347.610199,294.147247 347.354034,296.906555 
	C354.750641,301.947357 358.128540,301.799225 361.668365,295.169128 
	C365.393372,288.192200 367.183014,280.632538 363.803802,272.124268 
M280.728119,31.729156 
	C276.447052,30.117479 272.198212,28.221239 266.974762,30.070078 
	C269.272552,33.951782 271.345367,37.499634 273.472504,41.014599 
	C274.007233,41.898178 274.906464,42.632027 275.930481,42.502464 
	C281.959167,41.739697 288.011993,42.077942 295.201599,42.691097 
	C290.916443,37.291351 286.319000,34.480885 280.728119,31.729156 
M39.502579,122.168213 
	C39.269699,129.943649 38.244461,137.784653 40.950054,146.132996 
	C43.887821,142.905701 47.735363,140.795105 47.359196,137.199188 
	C46.416096,128.183807 45.355495,119.191231 45.683121,109.097427 
	C41.463154,112.985405 40.731876,117.224358 39.502579,122.168213 
M228.506210,319.051819 
	C227.865448,327.609253 229.624695,335.678589 233.397842,343.379028 
	C233.065338,330.749481 234.982635,318.353638 237.271301,305.110474 
	C230.042206,307.609619 229.957260,313.283508 228.506210,319.051819 
M102.886292,409.604858 
	C104.723473,411.899994 106.515205,414.242554 109.703125,416.462402 
	C109.566330,409.156708 109.269150,402.627045 111.100182,395.447357 
	C105.549660,396.641571 100.845749,396.073914 95.912750,396.351410 
	C97.059921,401.509491 99.827194,405.241577 102.886292,409.604858 
M400.509979,133.965652 
	C401.518524,136.966110 402.888580,139.702835 406.270294,141.908752 
	C407.783203,131.661804 405.843781,122.777641 400.380646,113.332626 
	C400.338074,120.711540 401.972595,126.966995 400.509979,133.965652 
M377.462280,337.864441 
	C371.079437,341.266846 371.761902,338.435120 376.173798,353.028748 
	C378.081909,349.520966 378.884583,345.777985 379.474854,342.045105 
	C379.698700,340.629364 380.919586,338.288605 377.462280,337.864441 
z"/>
</svg>