<!--version="1.0" standalone="no"--><!DOCTYPE html PUBLIC "-//W3C//DTD SVG 20010904//EN" "http://www.w3.org/TR/2001/REC-SVG-20010904/DTD/svg10.dtd"><svg version="1.0" xmlns="http://www.w3.org/2000/svg" width="2133.000000pt" height="2133.000000pt" viewBox="0 0 2133.000000 2133.000000" preserveAspectRatio="xMidYMid meet" xmlns:xlink="http://www.w3.org/1999/xlink" zoomAndPan="magnify" contentScriptType="text/ecmascript" contentStyleType="text/css">

<g transform="translate(0.000000,2133.000000) scale(0.100000,-0.100000)" fill="#000000" stroke="none">
<path d="M10050 19973 c-104 -7 -202 -24 -256 -42 -108 -37 -259 -59 -833 -122 -156 -17 -320 -37 -364 -45 -45 -7 -83 -12 -85 -9 -3 2 18 25 47 51 28 25 51 51 51 56 0 18 -74 0 -135 -32 -57 -30 -127 -53 -197 -65 -43 -7 -177 -95 -298 -196 -105 -88 -221 -160 -417 -260 -514 -264 -911 -592 -1078 -891 -58 -103 13 -60 232 144 210 194 314 282 461 392 116 87 290 198 277 176 -3 -6 -66 -62 -140 -125 -171 -146 -356 -325 -507 -489 -152 -166 -208 -240 -208 -277 0 -35 -66 -184 -150 -339 -93 -171 -180 -300 -180 -266 0 2 18 55 40 116 22 61 40 120 40 131 0 92 -188 -157 -261 -345 -60 -157 -63 -238 -8 -244 28 -3 49 28 49 72 0 24 34 76 50 76 19 0 20 -66 5 -205 -10 -80 -15 -148 -13 -151 3 -2 18 29 33 68 242 621 457 1051 642 1280 135 169 639 588 855 710 81 46 147 64 155 42 12 -36 -114 -146 -266 -231 -116 -65 -246 -168 -466 -369 -102 -92 -185 -170 -185 -172 0 -2 21 12 48 31 26 18 137 98 247 177 l200 142 -136 -138 c-200 -205 -404 -470 -654 -849 -199 -303 -317 -511 -361 -640 -25 -70 -28 -96 -29 -200 l0 -120 -37 0 c-43 0 -52 -7 -43 -34 9 -28 39 -43 93 -45 30 -1 48 -7 56 -18 16 -26 -4 -41 -38 -28 -21 8 -28 7 -32 -5 -8 -21 13 -68 42 -96 24 -22 32 -49 15 -49 -49 0 -341 339 -341 395 0 7 -7 16 -17 19 -17 7 -62 -36 -253 -242 -81 -87 -110 -108 -110 -79 1 25 50 132 123 265 91 165 123 242 103 242 -40 0 -310 -372 -384 -530 -30 -62 -36 -87 -36 -145 -1 -64 1 -70 21 -73 15 -2 32 10 59 42 21 25 42 46 47 46 8 0 4 -52 -14 -150 -6 -30 -27 -89 -47 -130 l-37 -75 -3 -155 c-2 -85 -1 -152 2 -149 3 3 31 79 61 170 31 90 80 214 110 275 129 265 319 483 412 472 24 -3 28 -7 27 -34 -2 -44 -50 -140 -140 -279 -167 -261 -252 -415 -269 -487 -9 -34 19 -53 116 -78 89 -23 114 -45 105 -92 -18 -98 -96 -136 -96 -46 0 16 -5 19 -28 14 -23 -6 -34 1 -77 44 -27 27 -55 50 -62 50 -20 0 -63 -65 -70 -104 -5 -32 -2 -40 29 -69 19 -17 59 -45 89 -61 30 -16 78 -45 108 -63 l53 -34 -56 -59 c-79 -82 -108 -158 -140 -360 -97 -611 -46 -1614 95 -1885 17 -33 57 -110 88 -172 31 -61 65 -121 75 -132 10 -10 42 -29 72 -41 30 -12 54 -26 54 -31 0 -4 -22 -27 -50 -50 -53 -45 -61 -66 -32 -91 31 -28 139 -77 213 -98 40 -11 77 -24 82 -29 5 -5 -10 -16 -36 -26 -35 -13 -52 -15 -81 -7 -102 28 -193 114 -237 223 -32 79 -71 129 -101 129 -46 0 -1 -136 113 -345 121 -220 206 -388 219 -432 13 -43 7 -93 -11 -93 -22 0 -60 56 -90 134 -51 133 -127 261 -145 243 -4 -4 14 -73 39 -155 26 -81 63 -216 82 -301 33 -150 44 -213 140 -806 71 -436 101 -541 211 -720 35 -58 93 -153 129 -212 92 -150 106 -201 112 -403 3 -91 4 -174 2 -184 -3 -17 -22 -4 -107 72 -56 51 -105 92 -108 92 -3 0 3 -15 14 -32 141 -228 161 -293 188 -596 15 -179 35 -296 55 -335 7 -12 27 -39 45 -60 51 -56 44 -69 -23 -45 -28 10 -36 10 -50 -5 -15 -14 -15 -24 -4 -84 25 -139 243 -762 376 -1074 91 -213 178 -375 269 -499 47 -63 110 -163 142 -222 33 -63 73 -123 94 -142 43 -38 70 -75 70 -93 0 -17 -35 -16 -49 1 -17 21 -66 36 -82 25 -23 -14 -28 -141 -38 -1159 -13 -1282 -34 -1710 -96 -1975 -22 -97 -40 -127 -73 -123 -21 2 -32 14 -50 49 -53 107 -72 322 -72 813 l0 360 -62 -99 c-108 -176 -281 -323 -445 -381 -101 -35 -162 -29 -184 19 -25 54 36 130 244 307 74 63 134 116 132 118 -1 2 -72 -9 -156 -23 -247 -43 -478 -121 -640 -216 -165 -96 -220 -182 -305 -472 -59 -203 -109 -290 -149 -257 -8 6 -22 31 -31 56 -27 70 -15 146 36 238 118 215 42 224 -189 23 -130 -114 -261 -265 -471 -545 -102 -136 -192 -247 -200 -247 -27 0 -14 63 34 158 25 51 71 141 102 200 63 123 78 177 48 177 -31 0 -114 -44 -180 -93 -182 -138 -487 -533 -754 -977 -137 -227 -244 -383 -308 -445 -31 -30 -61 -55 -67 -55 -14 0 -58 47 -74 77 -6 12 -11 38 -11 59 0 71 21 114 98 197 136 149 373 509 473 721 30 63 35 86 20 86 -32 0 -605 -474 -972 -805 -236 -213 -359 -308 -376 -291 -10 9 69 105 196 238 66 70 121 132 121 137 0 22 -209 -71 -630 -280 -488 -242 -740 -379 -740 -404 0 -22 33 -35 87 -35 56 -1 121 -14 136 -29 17 -17 -9 -38 -86 -67 -73 -28 -117 -61 -117 -89 0 -8 15 -32 34 -53 31 -33 40 -37 83 -37 26 0 56 4 65 9 13 6 20 3 24 -9 10 -24 -15 -63 -61 -96 -51 -37 -76 -78 -73 -120 3 -28 -2 -35 -25 -47 -26 -13 -28 -17 -22 -49 l6 -36 -33 6 c-18 3 -48 9 -65 13 -44 9 -43 -7 2 -82 33 -54 46 -104 27 -104 -11 0 -88 55 -97 69 -9 15 -45 14 -51 -2 -7 -19 21 -91 61 -157 19 -32 35 -61 35 -64 0 -13 -85 54 -136 105 -48 49 -80 61 -90 35 -7 -19 8 -47 62 -113 24 -30 44 -61 44 -69 0 -50 -80 -104 -153 -104 -41 0 -47 -3 -47 -20 0 -27 22 -70 49 -94 37 -33 27 -47 -21 -30 -24 8 -45 11 -51 5 -5 -5 4 -33 21 -67 52 -105 51 -154 -2 -74 -15 23 -31 38 -36 35 -6 -4 -10 -40 -10 -81 0 -41 -3 -74 -6 -74 -3 0 -15 5 -26 11 -25 14 -38 2 -47 -43 -6 -28 -12 -34 -41 -38 -30 -4 -35 -10 -41 -40 -10 -48 -41 -70 -99 -70 -50 0 -83 -21 -63 -41 28 -28 391 -33 2433 -34 2101 0 2245 2 2329 37 22 9 41 29 59 63 21 39 33 51 55 53 15 2 27 0 27 -3 0 -4 -16 -25 -35 -48 -43 -50 -46 -84 -9 -93 45 -11 176 3 236 26 78 29 172 94 198 135 16 26 19 42 14 74 -4 23 -3 41 1 41 4 0 37 -29 74 -64 71 -69 115 -98 137 -89 22 8 16 36 -17 86 -39 59 -35 75 11 45 47 -32 80 -84 80 -126 0 -34 0 -35 20 -17 15 14 31 17 70 13 27 -3 50 -2 50 1 0 3 -26 29 -57 58 -55 51 -56 53 -39 72 10 10 31 25 47 31 27 11 32 10 50 -9 25 -27 32 -27 104 7 135 64 226 79 234 38 5 -29 -26 -46 -84 -46 -57 0 -75 -12 -75 -50 0 -34 17 -50 52 -50 39 0 109 37 115 61 6 22 34 25 82 8 18 -6 35 -9 38 -6 3 4 -13 29 -36 58 -22 28 -41 55 -41 59 0 21 37 34 100 34 101 0 133 -36 63 -71 -29 -14 -38 -24 -38 -43 0 -24 2 -25 64 -25 55 0 66 -3 78 -23 20 -28 31 -28 64 4 21 20 34 25 54 20 15 -4 75 -56 138 -120 62 -62 123 -117 136 -121 18 -5 30 0 57 25 32 32 34 33 59 16 14 -9 49 -20 77 -23 l51 -6 -16 23 c-22 32 -6 62 31 58 36 -4 43 -45 12 -68 -21 -16 -19 -17 76 -24 55 -4 329 -11 609 -16 642 -12 611 -12 599 -2 -5 5 -83 39 -174 77 -273 112 -547 252 -529 269 10 10 130 -24 296 -85 476 -174 851 -285 875 -261 14 14 -30 38 -205 113 -167 72 -278 132 -311 168 -11 12 -30 21 -44 21 -21 0 -23 3 -17 27 3 16 13 35 21 43 13 13 17 11 40 -13 21 -23 28 -26 40 -16 26 22 36 49 24 64 -9 11 -5 24 16 60 22 39 26 54 21 94 l-6 48 43 -1 c33 -1 51 6 80 29 104 83 107 85 162 85 29 0 160 -22 291 -49 309 -64 408 -78 638 -92 550 -32 1346 60 1911 220 330 94 569 190 954 383 503 252 943 530 1203 762 86 76 166 139 198 157 55 29 1 -39 -169 -214 -240 -246 -301 -326 -260 -339 19 -7 1 -36 -34 -58 -24 -15 -47 -20 -83 -18 l-50 2 0 -42 c0 -35 -6 -48 -32 -73 -35 -32 -37 -37 -24 -58 14 -22 48 -4 131 72 84 78 168 133 215 143 38 7 72 -18 131 -99 49 -66 55 -100 23 -141 -40 -51 -288 -226 -321 -226 -11 0 -18 7 -18 20 0 20 12 28 75 46 16 5 35 19 41 32 18 37 44 60 110 98 60 36 86 66 77 92 -8 22 -31 13 -97 -37 -87 -66 -198 -130 -258 -149 -48 -16 -48 -16 -76 11 -34 32 -42 34 -42 6 0 -26 14 -52 62 -112 21 -27 38 -55 38 -63 0 -27 -45 -14 -94 26 -26 22 -51 40 -55 40 -4 0 -22 -16 -40 -35 -17 -19 -36 -35 -42 -35 -13 0 -87 38 -122 62 -41 29 -43 17 -5 -36 31 -44 32 -49 18 -73 -8 -14 -31 -35 -52 -46 -34 -20 -38 -21 -70 -6 -18 9 -68 49 -111 89 -42 39 -77 69 -77 65 0 -3 18 -33 40 -65 108 -158 118 -221 24 -150 -48 36 -67 39 -55 8 12 -32 -2 -62 -41 -91 -61 -46 -121 -70 -178 -72 l-55 -2 3 -53 c3 -64 -13 -92 -70 -121 -47 -24 -166 -40 -154 -21 4 7 17 12 30 12 25 0 46 17 46 37 0 20 -40 16 -129 -12 -113 -36 -183 -69 -225 -106 -32 -27 -40 -30 -60 -21 -27 12 -46 0 -46 -30 0 -25 -17 -23 -56 7 -44 34 -64 33 -64 -4 0 -36 -9 -61 -22 -61 -5 0 -24 11 -42 25 -43 33 -66 33 -66 -1 0 -25 -2 -25 -40 -19 -33 6 -40 4 -40 -10 0 -45 -131 -105 -231 -105 -44 0 -51 -3 -59 -26 -9 -23 -14 -25 -61 -22 -56 3 -78 -13 -65 -47 10 -27 80 -16 421 69 654 164 912 251 1305 442 717 350 1297 791 1705 1299 207 257 430 686 570 1095 86 253 112 383 125 620 5 96 12 190 16 208 8 41 35 42 74 4 47 -47 61 -115 70 -334 5 -129 13 -206 22 -224 10 -20 27 -31 73 -45 115 -35 558 -264 768 -398 119 -75 257 -150 552 -301 267 -136 339 -180 359 -219 23 -43 53 -64 108 -72 28 -5 58 -15 66 -23 22 -22 4 -39 -34 -33 -27 5 -37 1 -49 -16 -17 -25 -19 -60 -5 -88 8 -14 21 -19 53 -19 43 0 67 -13 67 -36 0 -8 -14 -13 -39 -12 -56 1 -111 -37 -171 -115 -13 -17 -10 -18 39 -11 56 7 71 -1 71 -39 0 -28 -45 -67 -78 -67 -16 0 -35 -6 -42 -14 -15 -19 8 -70 60 -128 34 -39 42 -43 86 -44 58 -1 284 -62 406 -110 55 -21 105 -34 135 -34 27 0 80 -12 118 -26 39 -14 129 -45 200 -69 72 -24 198 -72 280 -108 83 -36 177 -73 210 -82 88 -25 121 -43 166 -93 56 -60 46 -68 -78 -54 -53 6 -99 10 -101 8 -4 -5 211 -183 304 -252 92 -68 148 -134 115 -134 -5 0 -30 16 -56 36 -70 53 -89 58 -121 30 -32 -27 -25 -46 17 -46 23 0 44 -13 86 -52 71 -68 105 -125 97 -164 -5 -26 -2 -31 28 -44 54 -24 51 -87 -7 -121 -38 -23 -37 -40 2 -58 28 -13 53 -1 53 25 0 19 36 36 68 32 25 -3 27 -7 26 -43 -1 -22 -5 -58 -9 -80 l-8 -40 34 31 c66 61 142 82 185 49 18 -14 17 -17 -36 -64 -61 -55 -60 -69 7 -89 52 -15 78 -6 102 34 15 25 27 34 46 34 24 0 26 -3 23 -37 -2 -33 1 -40 25 -51 41 -20 274 -32 631 -32 l319 0 -8 388 c-4 213 -10 425 -14 471 l-6 83 -210 100 c-318 151 -455 206 -455 184 0 -4 12 -24 26 -46 14 -21 23 -44 19 -51 -24 -38 -226 52 -385 173 -113 85 -254 178 -365 238 -44 24 -183 106 -310 183 -365 221 -543 312 -1265 647 -354 164 -981 472 -1183 581 -185 100 -382 220 -485 295 -129 95 -369 350 -348 371 27 27 698 -309 1321 -662 694 -393 1412 -747 2762 -1361 689 -313 903 -397 903 -353 0 15 -339 177 -645 309 -828 357 -1409 644 -2890 1428 -1004 531 -1434 773 -2060 1157 -368 226 -429 253 -609 275 -49 6 -117 20 -149 31 -221 74 -440 256 -556 462 -18 31 -37 55 -42 52 -20 -13 -9 -90 20 -140 43 -75 215 -235 412 -382 205 -154 331 -265 414 -362 75 -88 94 -130 95 -202 1 -226 -199 -856 -377 -1189 -162 -304 -491 -661 -874 -950 -276 -208 -676 -443 -959 -563 -538 -228 -1239 -401 -1965 -483 -92 -11 -270 -18 -520 -21 -496 -7 -560 2 -885 118 -146 53 -308 124 -340 149 l-25 20 43 40 c24 22 90 62 145 89 94 46 132 59 270 90 55 13 132 59 227 136 85 69 201 140 261 160 63 21 143 94 175 159 32 65 146 218 277 370 56 65 137 160 181 210 108 126 189 233 216 286 32 63 104 169 246 361 148 201 290 415 452 685 249 415 794 1236 1017 1534 203 270 246 332 279 397 33 67 33 89 -4 123 -26 25 -30 35 -30 84 0 31 4 56 9 56 4 0 36 -32 70 -70 35 -39 67 -68 72 -64 5 3 9 25 9 49 0 59 14 93 59 140 81 84 638 817 890 1169 181 253 285 456 420 820 157 421 196 650 231 1346 16 305 30 349 170 536 44 58 80 107 80 109 0 2 -59 -39 -132 -91 -72 -51 -133 -93 -134 -91 -7 7 39 353 55 418 26 103 62 171 173 324 174 241 333 494 326 517 -6 18 -106 -115 -394 -519 -24 -35 -48 -63 -53 -63 -17 0 -23 164 -19 540 5 392 11 449 51 474 14 9 22 4 48 -27 53 -64 89 -46 140 69 29 64 31 178 5 252 -17 52 -48 88 -122 147 -43 35 -93 132 -97 190 l-2 40 50 6 c70 9 122 38 192 107 76 75 145 171 183 258 58 128 62 135 84 132 33 -5 41 -47 27 -138 -7 -44 -10 -87 -7 -96 6 -15 8 -15 26 1 36 32 88 183 197 568 4 11 0 17 -12 17 -26 0 -233 -213 -285 -292 -24 -38 -48 -68 -52 -68 -5 0 -13 12 -18 26 -11 27 -25 29 -87 9 -17 -5 -23 -3 -23 7 0 20 35 65 156 200 59 66 131 149 159 186 43 56 59 70 99 82 29 10 59 28 73 45 34 42 78 131 98 198 15 53 15 58 -1 86 -19 33 -23 16 59 246 43 120 48 194 48 750 -1 471 -7 638 -27 688 -9 24 -35 21 -114 -12 -38 -17 -72 -26 -75 -21 -3 5 15 37 40 72 137 192 181 264 231 383 l16 40 10 -35 c10 -37 25 -60 38 -60 22 0 71 56 103 117 89 172 99 285 44 493 -72 269 -207 630 -237 630 -21 0 -22 -31 -5 -154 18 -128 17 -156 -10 -156 -41 0 -175 185 -175 242 0 16 6 19 33 16 29 -3 32 -1 29 22 -10 64 -186 377 -286 505 -122 155 -287 285 -364 285 -36 0 -87 28 -102 55 -18 34 -80 55 -189 66 -52 5 -96 7 -98 5 -2 -2 47 -35 110 -74 62 -39 121 -79 130 -90 17 -19 16 -20 -39 -33 -32 -8 -59 -20 -62 -26 -12 -38 416 -249 445 -219 12 11 -32 43 -119 87 -89 45 -101 65 -33 56 51 -7 108 -34 153 -72 65 -54 212 -268 212 -308 0 -34 -67 -15 -233 64 -242 115 -366 151 -397 114 -16 -19 -19 -15 61 -53 36 -17 74 -40 84 -52 16 -18 17 -23 4 -47 -31 -59 -226 -177 -334 -202 -77 -18 -125 -42 -125 -62 0 -34 61 -44 275 -44 251 0 275 7 380 106 l73 69 23 -20 c21 -17 22 -21 9 -30 -13 -9 -10 -15 18 -39 l34 -29 -49 1 c-34 2 -61 -5 -95 -23 -26 -14 -75 -40 -109 -58 -72 -39 -167 -62 -260 -62 -36 0 -69 -3 -72 -7 -4 -3 25 -21 63 -40 108 -52 93 -80 -53 -105 -103 -18 -677 -18 -736 0 -62 19 -46 30 134 92 183 63 225 89 225 138 0 34 -47 57 -168 82 -59 12 -108 23 -110 25 -1 1 43 21 99 45 113 46 177 83 186 106 9 25 -17 44 -63 44 -55 0 -61 11 -21 36 31 18 96 22 212 12 49 -5 36 24 -25 55 -31 15 -102 37 -158 49 -56 12 -100 23 -97 26 8 8 181 40 280 52 55 6 165 14 245 18 l145 7 -235 78 c-273 90 -400 146 -400 175 0 49 201 265 257 278 57 12 63 16 69 38 8 34 44 46 134 46 44 0 80 3 80 6 0 4 -31 43 -69 88 -168 199 -145 236 81 130 116 -55 145 -62 117 -28 -15 18 -148 108 -249 169 -67 41 -140 101 -140 116 0 40 266 -66 415 -166 91 -60 168 -137 163 -163 -2 -10 -16 -19 -33 -22 -23 -4 -31 -11 -33 -30 -4 -32 36 -88 174 -245 l109 -123 3 94 c5 154 -34 265 -166 472 -39 62 -68 112 -65 112 4 0 18 -10 31 -22 23 -22 24 -22 19 -3 -4 11 -11 40 -16 65 -8 38 -23 58 -98 130 -57 54 -116 99 -163 125 -41 22 -104 67 -140 101 -71 67 -129 108 -205 147 -27 15 -63 35 -80 46 l-30 20 4 -200 c4 -271 -22 -597 -65 -809 -17 -79 -82 -227 -99 -222 -6 1 -10 56 -10 139 1 152 5 150 -64 33 -22 -36 -43 -65 -47 -65 -5 0 -12 19 -15 42 -3 24 -8 45 -11 49 -6 5 -48 -97 -48 -116 0 -6 -4 -10 -9 -10 -6 0 -11 17 -13 37 -5 64 -26 50 -71 -48 l-42 -93 -7 44 c-3 25 -7 74 -7 108 -1 46 -4 63 -13 60 -7 -3 -42 -88 -78 -191 l-65 -186 -7 281 c-5 155 -12 286 -17 291 -5 5 -22 -47 -39 -119 -31 -127 -78 -241 -97 -237 -5 1 -11 15 -13 30 -6 52 -33 136 -79 236 -24 56 -69 173 -99 261 -62 184 -54 183 57 -10 39 -68 73 -123 76 -121 6 7 -35 270 -51 322 -18 58 -20 91 -6 100 16 10 52 -36 100 -131 82 -160 91 -118 30 140 -53 224 -52 216 -43 216 43 0 238 -463 259 -614 5 -33 15 -58 32 -75 24 -24 25 -24 38 -6 8 10 14 35 14 54 1 56 17 111 37 126 15 11 19 32 23 127 5 112 5 113 33 126 51 25 58 75 27 196 -44 173 -128 336 -257 498 -85 107 -107 143 -100 168 3 12 -11 33 -42 62 -86 83 -136 116 -221 147 -46 17 -100 41 -120 54 -64 41 -264 135 -320 150 -30 8 -122 40 -205 70 -159 58 -215 74 -215 60 0 -4 39 -44 87 -88 48 -44 121 -123 163 -176 114 -142 230 -324 230 -360 0 -21 -30 13 -103 116 -97 137 -137 186 -231 284 -128 132 -236 204 -236 156 0 -17 71 -107 154 -195 112 -117 94 -107 -61 34 -263 240 -391 323 -257 166 69 -81 80 -100 59 -100 -23 0 -67 25 -180 100 -157 105 -230 137 -205 89 7 -11 28 -38 47 -60 20 -22 33 -42 30 -45 -2 -3 -49 16 -103 41 -55 26 -133 60 -174 76 -81 33 -634 177 -820 215 -265 53 -798 87 -1070 67z m935 -163 c-3 -5 -24 -10 -45 -10 -21 0 -42 5 -45 10 -4 6 13 10 45 10 32 0 49 -4 45 -10z m475 -185 c117 -59 155 -109 48 -64 -61 26 -205 106 -213 119 -9 15 96 -20 165 -55z m-3425 -345 c8 -13 -53 -50 -82 -50 -29 0 -20 25 16 45 31 17 57 19 66 5z m5336 -187 c81 -84 121 -138 163 -220 53 -105 32 -85 -115 110 -67 89 -127 168 -132 175 -6 7 -6 12 0 12 5 0 43 -35 84 -77z m-1218 -66 c55 -68 54 -75 -4 -26 -30 26 -55 54 -57 63 -6 26 24 9 61 -37z m-556 -69 c39 -41 56 -75 43 -83 -22 -14 -65 32 -81 87 -10 37 0 35 38 -4z m-324 -132 c37 -32 67 -54 67 -48 0 5 -7 31 -15 58 -8 27 -15 53 -15 59 0 5 29 -23 65 -62 118 -130 200 -138 289 -29 21 25 46 46 56 46 16 0 71 -55 249 -250 26 -28 30 -30 20 -10 -11 23 -111 199 -147 260 -30 50 165 -165 225 -249 147 -203 400 -674 409 -762 l5 -44 -29 33 c-16 18 -46 64 -67 102 -21 38 -49 80 -63 92 l-25 23 6 -45 c4 -25 9 -58 12 -75 6 -28 2 -26 -51 30 -62 66 -154 191 -154 210 0 17 -20 24 -86 31 -67 8 -70 -3 -14 -70 66 -80 46 -116 -30 -54 -31 24 -50 31 -84 32 -25 1 -51 -5 -58 -12 -17 -17 0 -76 63 -215 29 -62 60 -136 70 -166 23 -65 25 -131 5 -131 -17 0 -74 63 -152 171 -76 103 -299 371 -449 539 -162 182 -374 430 -387 453 -15 29 3 20 129 -64 59 -40 101 -64 93 -53 -8 10 -41 51 -74 89 -33 39 -69 81 -80 94 l-21 25 30 -19 c72 -46 181 -105 193 -105 23 0 7 43 -50 133 -34 56 -43 76 -27 62 13 -12 54 -47 92 -79z m1384 -53 c83 -72 161 -123 186 -123 11 0 29 7 38 16 26 23 66 5 123 -56 130 -139 239 -373 239 -512 0 -121 -32 -116 -144 26 -91 114 -176 203 -211 222 -16 8 -38 12 -53 8 -16 -4 -34 0 -50 10 -35 23 -31 36 10 29 30 -5 35 -3 35 15 0 14 -10 24 -34 32 -31 10 -53 8 -108 -7 -28 -7 -21 -41 17 -86 33 -38 46 -77 26 -77 -13 0 -147 143 -224 240 -87 109 -182 248 -175 256 10 9 46 -14 115 -72 97 -82 128 -69 50 21 -55 63 -72 94 -59 107 15 15 44 -4 106 -73 30 -34 64 -68 76 -76 18 -13 20 -12 20 10 0 13 -18 53 -40 90 -59 98 -57 98 57 0z m1257 -12 c60 -72 46 -66 -51 23 -18 16 -30 33 -27 38 7 12 36 -10 78 -61z m-1589 -134 c40 -40 105 -122 145 -182 82 -126 200 -356 200 -388 -1 -18 -9 -13 -53 34 -99 105 -368 508 -392 587 -13 43 26 23 100 -51z m-1638 -50 c82 -56 259 -214 326 -291 171 -197 388 -545 387 -622 l-1 -29 -34 40 c-19 22 -72 94 -117 160 -152 223 -281 383 -482 594 -141 149 -175 191 -154 191 7 0 41 -20 75 -43z m-905 -203 c51 -31 121 -76 155 -99 79 -56 95 -60 118 -35 27 30 54 25 114 -20 58 -44 69 -47 77 -25 7 17 -15 55 -54 97 -57 61 16 37 158 -52 91 -57 90 -55 -10 60 -103 118 -103 117 -45 87 83 -42 171 -112 312 -251 134 -130 223 -235 223 -262 0 -30 -40 -11 -111 51 -97 86 -133 95 -171 44 -28 -38 -19 -57 76 -160 138 -148 169 -238 36 -105 -61 62 -113 96 -127 82 -12 -11 33 -88 98 -171 70 -88 96 -131 86 -141 -10 -11 -73 41 -207 171 -69 66 -215 199 -325 295 -226 198 -379 335 -510 458 l-90 85 52 -27 c29 -14 94 -51 145 -82z m3741 -404 c50 -126 66 -187 48 -176 -29 18 -174 362 -186 441 -5 34 1 27 43 -55 27 -52 70 -147 95 -210z m-4145 234 c23 -15 22 -34 -3 -34 -8 0 -29 14 -47 31 l-33 31 30 -7 c17 -3 40 -13 53 -21z m144 -63 c66 -28 292 -156 398 -226 53 -34 126 -90 164 -125 65 -61 213 -236 236 -280 10 -19 10 -20 -7 -11 -10 5 -53 44 -95 85 -76 76 -112 93 -125 60 -7 -20 10 -57 51 -108 84 -104 69 -126 -21 -31 -204 216 -252 259 -269 242 -12 -12 9 -47 71 -118 35 -40 62 -75 60 -77 -13 -13 -235 177 -235 200 0 6 16 7 40 3 99 -17 17 59 -200 185 -41 24 -69 45 -63 47 15 5 164 -70 301 -151 141 -83 210 -118 229 -114 34 6 -267 227 -374 274 -63 28 -164 97 -202 138 -29 31 -18 33 41 7z m-2402 -55 c0 -29 -48 -81 -109 -117 -36 -22 -68 -39 -73 -39 -18 0 13 38 82 103 68 65 100 82 100 53z m2145 -126 c77 -37 149 -78 160 -91 l20 -22 -30 7 c-49 11 -268 124 -306 157 -31 28 -32 29 -9 24 14 -3 88 -37 165 -75z m1371 -42 c51 -56 70 -82 54 -73 -31 18 -98 76 -104 90 -10 26 19 16 50 -17z m-1293 -149 c152 -113 334 -309 288 -309 -30 0 -319 237 -506 415 l-70 66 93 -48 c52 -26 139 -82 195 -124z m-188 -146 c30 -14 62 -34 71 -45 16 -17 16 -18 -2 -18 -22 0 -114 51 -133 74 -20 24 1 20 64 -11z m4139 -65 c21 -30 20 -58 -2 -58 -24 0 -42 19 -42 45 0 40 21 46 44 13z m-4657 -265 c33 -42 28 -77 -11 -81 -28 -3 -28 -3 -22 33 7 33 5 36 -23 46 -30 11 -48 40 -36 59 9 15 62 -18 92 -57z m2293 -333 c24 -24 27 -70 5 -70 -23 0 -55 37 -55 65 0 31 22 33 50 5z m-2447 -65 c-1 -5 -12 -11 -24 -13 -31 -5 -71 7 -63 19 8 13 90 7 87 -6z m520 -54 c37 -38 67 -74 67 -80 0 -17 -52 25 -91 72 -58 71 -62 77 -52 77 5 0 40 -31 76 -69z m2611 44 c7 -20 -4 -75 -15 -75 -5 0 -9 20 -9 45 0 44 12 60 24 30z m-580 -139 c63 -68 122 -99 198 -104 71 -5 97 9 136 78 16 28 32 47 35 43 4 -3 7 -48 7 -99 0 -96 11 -144 31 -144 7 0 40 11 74 24 33 14 95 29 137 34 84 11 156 40 245 99 101 69 103 68 38 -8 -25 -29 -45 -59 -45 -67 0 -22 105 -8 208 27 131 45 118 15 -26 -59 -86 -44 -131 -85 -113 -103 7 -7 40 -1 98 16 180 55 336 59 513 13 50 -14 94 -26 96 -28 2 -3 -30 -19 -71 -37 -41 -18 -75 -37 -75 -41 0 -11 65 -20 150 -20 69 0 133 -8 464 -56 150 -21 219 -13 410 51 75 25 141 43 147 40 5 -4 9 -15 9 -26 0 -35 27 -73 90 -128 34 -30 78 -78 97 -107 75 -113 238 -548 249 -667 5 -47 13 -68 32 -89 24 -26 25 -30 18 -117 -6 -84 -5 -90 15 -104 23 -17 23 -18 -29 -87 -27 -35 -33 -50 -29 -76 4 -24 0 -37 -14 -50 -28 -25 -24 -62 16 -140 58 -118 147 -214 256 -278 21 -13 29 -14 23 -5 -4 8 -32 52 -61 98 -51 82 -63 111 -44 111 8 0 314 -202 354 -233 9 -8 17 -17 17 -21 0 -10 -51 -6 -113 9 l-58 14 90 -88 c50 -48 91 -95 91 -105 0 -20 7 -24 -125 79 -38 30 -76 55 -84 55 -19 0 -108 51 -203 116 -117 80 -189 95 -216 44 -8 -16 -12 -50 -10 -93 3 -54 8 -71 26 -90 l23 -22 20 24 c17 20 19 33 13 83 -4 38 -3 58 4 58 13 0 200 -139 226 -168 19 -22 19 -22 -3 -22 -12 0 -37 15 -56 34 -72 72 -117 56 -67 -24 l32 -51 -34 26 c-45 34 -79 32 -122 -8 -26 -24 -36 -41 -37 -67 -2 -33 0 -35 32 -38 l33 -3 -6 37 -7 37 62 -35 c34 -18 69 -44 78 -58 l16 -23 -35 8 c-80 20 -159 -3 -168 -49 -2 -10 33 -52 91 -109 62 -59 98 -103 103 -122 11 -49 51 -122 144 -265 221 -341 260 -488 280 -1060 9 -259 32 -596 61 -900 15 -156 15 -568 0 -715 -25 -250 -73 -515 -187 -1045 -17 -79 -27 -159 -28 -218 -1 -73 -4 -91 -14 -87 -67 25 -85 8 -113 -101 -23 -89 -51 -149 -74 -157 -19 -8 -19 -3 1 34 14 29 14 30 -2 27 -32 -6 -56 -53 -64 -126 -10 -91 -13 -95 -65 -87 -29 4 -46 2 -51 -6 -4 -6 -10 -45 -14 -86 -7 -73 -29 -121 -58 -131 -9 -3 -10 3 -1 25 5 15 7 44 4 63 -7 37 -41 100 -54 100 -5 0 -11 -27 -14 -61 -4 -46 -14 -75 -41 -119 -40 -64 -39 -74 6 -131 38 -50 36 -58 -12 -45 -52 13 -67 4 -100 -60 l-25 -49 -79 3 -78 3 6 -28 c14 -59 18 -121 8 -127 -20 -12 -42 7 -53 48 -12 47 -32 72 -71 92 -31 16 -58 61 -58 97 0 25 -17 47 -36 47 -19 0 -50 -94 -115 -345 -110 -426 -169 -597 -233 -673 -35 -41 -69 -43 -85 -4 -6 15 -22 102 -36 195 -28 187 -59 294 -112 381 -38 63 -35 76 18 76 15 0 31 6 37 13 25 30 -36 62 -90 46 -46 -13 -46 -12 -10 20 17 17 32 36 32 43 0 20 -139 151 -220 205 -132 88 -210 122 -230 98 -9 -11 -6 -20 14 -40 14 -14 30 -25 36 -25 5 0 10 -4 10 -10 0 -5 -15 -10 -34 -10 -45 0 -90 38 -123 104 -29 59 -60 96 -81 96 -39 0 30 -139 138 -275 58 -72 70 -103 19 -49 -61 66 -162 114 -198 95 -18 -10 -19 -9 -14 23 4 26 0 39 -16 55 -26 26 -46 28 -36 4 18 -45 17 -52 -9 -59 -34 -8 -33 -31 5 -77 37 -45 26 -47 -29 -7 -50 36 -76 73 -69 100 4 16 1 18 -23 14 -28 -6 -57 6 -119 51 -40 29 -61 32 -61 8 0 -20 28 -53 46 -53 7 0 15 -4 18 -9 11 -16 -6 -41 -26 -41 -28 0 -105 79 -113 115 -13 59 -12 58 -60 52 l-45 -7 3 48 c2 44 0 47 -25 50 -20 2 -31 -4 -44 -23 -14 -22 -22 -25 -48 -19 -36 7 -111 48 -123 67 -4 6 -10 32 -13 57 -6 53 -27 63 -61 29 -18 -18 -21 -30 -17 -79 3 -47 12 -70 46 -122 43 -66 53 -95 28 -81 -8 4 -43 44 -78 88 -79 97 -141 155 -168 155 -39 0 -24 -41 46 -127 40 -48 74 -103 74 -118 0 -3 -9 -5 -20 -5 -32 0 -69 29 -91 71 -23 46 -43 58 -86 52 -29 -5 -33 -1 -52 35 -11 22 -25 43 -29 46 -5 3 -23 -11 -41 -31 l-32 -36 -42 41 c-24 23 -47 42 -52 42 -6 -1 -19 -15 -30 -33 -13 -20 -35 -37 -60 -45 -47 -15 -60 -26 -97 -76 -27 -38 -28 -38 -28 -12 0 34 -19 41 -76 27 -26 -7 -48 -10 -50 -8 -2 2 16 18 40 36 25 17 130 114 234 215 104 100 227 211 272 245 149 112 317 202 507 271 103 38 113 45 113 75 0 88 -254 131 -432 73 -114 -38 -199 -100 -344 -253 -70 -74 -130 -135 -133 -135 -3 0 -6 16 -6 36 0 36 -2 38 -53 55 -65 22 -136 62 -272 152 -218 145 -353 262 -515 447 l-111 126 -133 -123 c-151 -139 -169 -147 -194 -83 -8 22 -22 40 -30 40 -7 0 -42 -51 -77 -112 -35 -62 -141 -239 -235 -393 -279 -456 -291 -477 -272 -493 14 -12 98 -36 182 -53 69 -13 130 -41 139 -64 7 -19 -29 -35 -80 -35 -46 0 -73 -15 -85 -47 -7 -19 -14 -23 -27 -18 -85 37 -100 39 -167 28 -82 -14 -166 -54 -215 -103 -51 -51 -135 -181 -225 -350 -108 -204 -136 -252 -143 -246 -3 3 1 46 8 95 14 101 8 160 -21 208 -36 57 -109 386 -144 648 -6 41 -14 57 -49 90 -23 22 -60 50 -82 63 -21 13 -47 36 -56 52 -10 17 -28 32 -45 35 -56 12 -58 15 -59 116 -2 147 -40 199 -145 199 -52 0 -60 3 -77 28 -56 79 -84 172 -63 211 10 18 9 21 -8 21 -11 0 -23 -4 -26 -10 -17 -28 -25 -5 -19 55 5 50 3 75 -10 110 -19 49 -50 75 -69 56 -6 -6 -22 -11 -35 -11 -31 0 -112 79 -112 109 0 28 16 27 36 -4 20 -30 40 -32 54 -6 15 28 12 58 -5 65 -8 3 -44 3 -80 -1 -75 -7 -79 0 -45 67 28 55 26 80 -5 80 -21 0 -29 -9 -46 -47 -11 -25 -35 -63 -54 -84 -61 -68 -62 -76 -10 -101 25 -12 45 -29 45 -37 0 -8 -12 -32 -26 -52 -26 -38 -25 -59 2 -59 24 0 16 -26 -35 -102 -59 -87 -154 -181 -179 -176 -14 3 -17 13 -14 71 l4 68 -41 -7 c-23 -4 -41 -3 -41 3 0 5 9 37 21 70 28 83 23 116 -16 123 l-30 5 0 72 c0 65 -2 73 -26 92 -46 36 -95 223 -155 596 -24 152 -27 195 -27 410 1 238 17 462 49 670 60 397 82 580 88 750 5 137 25 213 102 372 33 69 55 100 89 129 34 27 44 42 39 56 -8 26 3 68 26 98 l19 25 -6 -51 c-5 -46 -3 -52 21 -71 33 -26 33 -34 -4 -66 -16 -15 -30 -31 -30 -36 0 -8 19 -25 98 -91 26 -22 28 -56 7 -126 -19 -63 -19 -114 1 -142 22 -32 42 -27 50 13 11 62 135 209 458 543 233 242 359 396 339 415 -10 10 18 37 38 37 30 0 32 19 6 59 -14 22 -33 56 -42 77 -38 90 -103 378 -175 769 -42 228 -74 370 -111 486 l-30 97 19 39 c57 110 506 450 787 595 366 189 823 293 1336 305 l225 6 37 -33 c31 -27 47 -33 100 -37 55 -4 68 -2 121 26 32 17 60 31 62 31 2 0 15 -18 29 -40 30 -48 58 -52 127 -17 111 56 298 213 298 250 0 29 26 39 70 27 23 -6 44 -9 47 -6 3 3 -15 28 -41 57 -25 28 -46 59 -46 70 0 10 15 29 34 44 44 33 137 85 155 85 8 0 37 -24 65 -54z m2086 30 c0 -15 -86 -96 -102 -96 -14 0 21 74 45 92 27 21 57 23 57 4z m-4733 -37 c15 -13 8 -29 -12 -29 -16 0 -75 48 -75 61 0 10 65 -14 87 -32z m2893 -2 c0 -18 -4 -38 -9 -46 -12 -18 -25 40 -16 69 9 29 25 15 25 -23z m2005 3 c10 -15 -21 -73 -56 -107 -75 -71 -270 -163 -345 -163 -36 0 -37 0 -19 20 10 11 47 34 83 51 92 43 162 90 232 154 56 52 91 67 105 45z m-555 -54 c0 -20 -64 -86 -84 -86 -24 0 -20 34 10 69 27 33 74 43 74 17z m2640 -6 c18 -11 16 -14 -44 -34 -74 -24 -87 -20 -48 14 33 30 65 37 92 20z m-1970 -199 c0 -18 -91 -53 -150 -58 -97 -9 -70 15 53 47 83 22 97 23 97 11z m2008 -47 c36 -25 27 -37 -23 -30 -86 11 -117 46 -42 46 23 0 53 -7 65 -16z m-1002 -688 c27 -35 44 -69 44 -85 0 -89 -65 -18 -145 156 l-45 98 51 -55 c29 -30 71 -81 95 -114z m-6706 -34 c0 -29 -49 -90 -89 -112 -24 -12 -32 14 -21 65 11 51 36 75 77 75 30 0 33 -3 33 -28z m7198 -487 c114 -57 161 -107 225 -237 49 -100 117 -259 117 -274 0 -10 -84 60 -164 136 -131 125 -326 363 -326 396 0 27 73 16 148 -21z m-7988 -33 c0 -4 -17 -24 -37 -43 -83 -78 -100 -77 -27 1 44 47 64 60 64 42z m8059 -402 c147 -164 231 -270 231 -292 0 -48 -259 176 -347 300 -40 56 -106 190 -128 261 -4 14 32 -22 80 -80 49 -57 122 -142 164 -189z m473 176 c31 -43 37 -86 13 -86 -22 0 -75 88 -75 123 0 26 2 28 17 16 9 -8 29 -32 45 -53z m-909 -22 l35 38 16 -30 c16 -31 21 -62 10 -62 -3 0 -14 5 -25 10 -16 9 -19 7 -19 -9 0 -33 35 -44 115 -37 l72 7 -5 -31 c-3 -19 3 -43 17 -65 27 -46 26 -55 -3 -55 -39 0 -39 -15 -1 -65 20 -26 35 -50 33 -55 -5 -14 -97 53 -187 137 -111 102 -171 183 -171 232 l0 36 39 -45 39 -45 35 39z m-7453 -164 c0 -28 -142 -151 -157 -136 -3 3 25 38 64 76 65 66 93 83 93 60z m-12 -212 c32 -32 -3 -72 -56 -66 -36 4 -42 40 -10 62 27 19 50 20 66 4z m-73 -167 c8 -13 -35 -51 -57 -51 -21 0 -24 30 -6 48 14 14 54 16 63 3z m7671 -200 c47 -33 74 -71 51 -71 -20 0 -84 50 -137 105 l-45 48 44 -26 c25 -14 64 -39 87 -56z m2 -211 c40 -11 114 -36 165 -56 182 -71 489 -232 460 -241 -16 -6 -306 91 -463 155 -162 65 -292 131 -298 150 -6 18 52 15 136 -8z m-8798 -69 c0 -24 -56 -85 -70 -76 -15 9 -12 26 10 63 22 36 60 45 60 13z m146 -198 c-21 -82 -141 -353 -156 -353 -5 0 -13 12 -16 26 -13 52 68 240 138 320 36 41 42 42 34 7z m256 -1762 c95 -61 166 -221 128 -292 -15 -27 -47 -24 -117 11 -118 59 -167 143 -143 245 16 71 58 83 132 36z m4 -1025 c11 -8 40 -52 63 -99 23 -46 58 -98 77 -116 27 -26 34 -40 34 -72 0 -47 -35 -78 -68 -60 -68 36 -191 288 -169 346 8 19 36 19 63 1z m3214 -989 c0 -41 -14 -66 -24 -42 -8 21 -8 70 0 78 13 13 24 -5 24 -36z m5325 -673 c21 -44 15 -105 -15 -163 -27 -54 -38 -58 -46 -16 -8 43 -1 186 10 203 13 22 34 12 51 -24z m-539 -310 c57 -27 101 -124 56 -124 -30 0 -102 92 -102 130 0 14 6 13 46 -6z m-2596 -84 c27 -27 27 -70 1 -70 -24 0 -51 36 -51 67 0 29 23 30 50 3z m2283 -143 c14 -43 9 -78 -13 -92 -19 -12 -30 16 -30 78 0 70 21 78 43 14z m-3272 -164 c132 -97 210 -110 434 -73 185 31 263 55 288 90 14 21 15 20 47 -20 41 -52 58 -60 154 -77 44 -7 100 -23 124 -33 78 -35 104 -25 167 60 21 28 39 49 41 48 2 -2 -3 -28 -11 -57 -7 -29 -11 -60 -8 -68 8 -20 46 -33 99 -33 73 0 146 -40 113 -61 -22 -14 -114 -11 -347 13 -170 17 -286 22 -537 22 -314 1 -321 1 -395 -24 -62 -20 -94 -24 -190 -24 -145 1 -215 19 -259 69 -66 75 -20 137 144 196 27 10 55 18 61 18 7 1 40 -20 75 -46z m2855 -61 c31 -20 41 -82 14 -82 -19 0 -60 48 -60 70 0 20 24 27 46 12z m1005 -43 c31 -61 36 -128 12 -158 -11 -13 -25 -21 -31 -17 -18 11 -32 75 -32 147 0 93 14 100 51 28z m-680 -52 c29 -19 53 -67 34 -67 -16 0 -63 31 -89 59 l-30 31 26 0 c14 0 40 -10 59 -23z m-1587 -283 c62 -21 145 -98 184 -171 18 -34 41 -105 56 -173 14 -63 39 -141 56 -174 31 -61 40 -111 18 -104 -7 3 -15 13 -17 24 -5 29 -21 44 -46 44 -35 0 -36 -22 -3 -107 39 -99 49 -133 39 -133 -5 0 -25 14 -46 30 -21 17 -42 30 -46 30 -27 0 0 -150 46 -253 7 -16 5 -16 -19 -6 -32 15 -45 5 -55 -43 -6 -28 -11 -33 -36 -33 -22 0 -33 -6 -40 -22 -5 -13 -14 -23 -20 -23 -5 0 -38 30 -73 67 -34 36 -65 64 -68 60 -3 -3 6 -42 21 -88 14 -45 24 -88 21 -96 -3 -7 -19 -13 -36 -13 -41 0 -40 -21 10 -131 37 -83 53 -158 30 -144 -5 3 -10 13 -10 22 0 24 -30 53 -55 53 -14 0 -26 -9 -33 -25 -18 -40 -14 -172 7 -232 10 -29 16 -53 13 -53 -3 0 -31 27 -64 60 -66 68 -91 74 -159 39 -22 -11 -63 -23 -90 -26 -59 -7 -73 -21 -59 -57 11 -29 0 -34 -24 -10 -21 21 -20 36 6 96 30 70 20 94 -61 135 -63 33 -101 42 -101 23 0 -6 18 -33 40 -61 44 -55 44 -77 2 -54 -70 38 -103 86 -100 143 3 69 -40 81 -130 36 -74 -37 -80 -53 -36 -94 35 -32 36 -34 31 -89 -3 -31 -9 -68 -13 -83 -9 -37 4 -36 94 8 80 40 105 39 100 -3 -3 -24 -7 -28 -30 -25 -35 3 -40 -13 -36 -143 l3 -100 -35 0 -35 0 0 -90 0 -90 -31 3 c-24 2 -36 -2 -48 -19 -19 -28 -22 -20 -33 76 l-8 70 -42 -99 -41 -100 -30 60 c-37 74 -70 174 -82 248 -10 64 -24 88 -46 79 -31 -12 -45 -64 -54 -201 -10 -140 -21 -186 -46 -196 -18 -7 -21 -1 -29 74 -15 144 -46 280 -65 280 -11 0 -20 -38 -20 -86 0 -47 -20 -80 -43 -71 -29 11 -43 107 -47 310 0 10 -24 43 -52 73 l-53 56 42 39 c23 21 46 39 51 39 5 0 5 -17 -1 -38 -6 -22 -7 -46 -4 -55 10 -25 43 -20 66 9 37 47 22 117 -40 189 -25 29 -29 37 -14 31 36 -14 102 -19 122 -8 11 6 34 38 52 71 36 68 67 96 122 111 24 7 48 23 61 40 12 17 27 30 33 30 6 0 35 -25 65 -55 29 -30 56 -53 58 -51 2 2 -4 43 -14 91 -20 102 -15 112 44 91 57 -20 55 -5 -6 65 -82 94 -82 90 3 63 42 -13 80 -24 85 -24 19 0 10 22 -26 66 -20 25 -34 47 -31 50 3 3 23 0 45 -6 32 -10 45 -10 68 1 33 16 49 57 18 44 -43 -17 -49 -12 -52 45 -2 30 -8 60 -13 66 -15 18 -116 43 -224 54 -55 6 -278 15 -495 20 -217 5 -435 14 -485 20 -53 6 -163 33 -268 65 -232 71 -258 74 -320 41 -61 -33 -74 -33 -129 4 -49 32 -148 132 -148 149 0 17 36 31 77 31 20 0 97 -7 171 -17 102 -12 136 -13 145 -4 8 8 8 16 2 25 -60 81 -67 96 -55 112 48 57 118 65 570 65 439 -1 699 11 805 36 90 22 296 23 620 4 231 -14 243 -13 335 6 120 26 174 27 234 7z m1475 -163 c36 -69 38 -81 11 -81 -27 0 -60 56 -60 103 0 20 4 37 9 37 4 0 22 -27 40 -59z m-779 -78 c4 -54 11 -79 28 -103 28 -37 26 -44 -7 -27 -40 20 -64 62 -69 121 -5 66 2 89 25 84 15 -3 19 -17 23 -75z m-3802 7 c30 -17 46 -36 61 -71 12 -26 21 -54 21 -62 0 -58 110 -307 135 -307 18 0 20 47 4 104 -15 56 -2 63 62 30 86 -43 129 -73 129 -90 0 -8 -12 -31 -26 -50 l-26 -34 28 0 c16 0 49 5 73 11 24 5 46 8 49 5 2 -3 -17 -29 -42 -58 -26 -29 -52 -70 -58 -92 -18 -59 2 -69 119 -60 l92 6 28 -30 c15 -16 34 -38 42 -47 12 -15 24 -16 73 -11 54 5 60 4 91 -23 29 -27 32 -34 32 -88 0 -32 -4 -75 -9 -95 -7 -34 -6 -38 11 -38 11 0 53 11 94 25 88 30 162 31 167 2 6 -29 -82 -105 -192 -167 -102 -58 -186 -134 -186 -169 0 -19 -6 -21 -57 -19 -64 1 -98 -12 -172 -69 -50 -38 -71 -41 -88 -14 -15 24 -54 31 -105 19 -71 -16 -77 -8 -32 42 115 128 91 149 -52 47 -118 -85 -154 -103 -166 -85 -8 12 -4 58 8 100 7 23 -30 58 -60 58 -35 0 -64 28 -94 90 -27 55 -27 55 -69 53 -24 -1 -43 1 -43 5 0 4 9 31 21 61 11 30 23 83 26 117 7 74 -4 82 -57 38 -17 -15 -33 -24 -36 -22 -2 3 12 39 32 81 52 111 35 131 -51 59 -33 -28 -44 -17 -25 28 16 39 5 70 -26 70 -13 0 -24 2 -24 5 0 3 18 28 40 56 43 55 50 79 22 79 -22 0 -49 -19 -132 -89 -59 -52 -63 -53 -42 -21 70 110 96 165 96 210 1 43 0 45 -29 45 -24 0 -31 -5 -39 -30 -20 -69 -31 -90 -63 -122 -35 -34 -63 -43 -63 -20 0 7 16 40 36 73 62 100 77 137 82 197 7 85 -7 89 -63 18 -79 -100 -100 -74 -40 46 20 41 54 88 79 111 48 44 144 97 204 112 62 15 164 6 210 -20z m-478 -45 c0 -17 -94 -98 -99 -84 -7 20 23 72 52 90 32 19 47 17 47 -6z m4330 -210 c15 -18 9 -49 -11 -53 -18 -3 -53 43 -44 58 9 15 41 12 55 -5z m1330 -162 c0 -15 -9 -45 -20 -68 -23 -47 -89 -127 -90 -108 -1 36 82 203 100 203 6 0 10 -12 10 -27z m-3412 -147 c5 -25 -6 -66 -18 -66 -6 0 -10 21 -10 46 0 32 4 44 13 42 6 -3 14 -13 15 -22z m-250 -82 c3 -21 -39 -74 -58 -74 -18 0 -11 46 11 74 24 30 42 30 47 0z m2554 -71 c26 -24 24 -46 -4 -37 -39 11 -78 34 -78 44 0 16 62 11 82 -7z m-2934 -45 c-16 -24 -138 -134 -138 -125 0 15 123 147 137 147 14 0 14 -2 1 -22z m3712 -90 c0 -21 -56 -111 -84 -137 -46 -44 -24 20 37 107 31 42 47 53 47 30z m-5243 -244 c5 -16 -41 -78 -60 -82 -27 -5 -21 44 8 74 25 25 45 28 52 8z m1644 -63 c-16 -30 1 -33 68 -15 34 10 64 14 68 11 3 -4 -6 -55 -20 -114 -15 -60 -27 -125 -27 -146 0 -56 -21 -96 -105 -207 -100 -129 -138 -164 -177 -156 l-28 6 6 -53 c5 -45 2 -61 -20 -103 -27 -52 -113 -153 -101 -119 86 246 117 355 101 355 -2 0 -23 -7 -46 -15 -24 -8 -45 -14 -46 -12 -2 2 17 23 41 47 51 50 57 70 20 70 -33 0 -31 15 6 70 22 32 29 53 26 74 -6 41 11 111 44 184 27 61 49 80 49 43 0 -28 25 -45 48 -32 18 9 52 67 52 88 0 4 10 24 22 43 16 26 23 31 26 18 2 -9 -2 -26 -7 -37z m-293 -126 c-7 -58 -31 -94 -69 -102 -36 -7 -44 -22 -53 -95 -11 -103 -39 -138 -64 -83 -10 21 -8 36 6 79 32 96 135 246 169 246 13 0 15 -9 11 -45z m2323 -29 c32 -43 37 -66 15 -66 -17 0 -43 35 -75 98 l-22 43 27 -18 c15 -9 40 -35 55 -57z m-3805 -61 c-21 -46 -41 -75 -51 -75 -17 0 -20 27 -5 64 12 34 83 111 88 97 2 -7 -12 -45 -32 -86z m3689 60 c32 -31 34 -68 4 -63 -28 4 -64 51 -56 72 9 22 24 20 52 -9z m697 -22 c19 -17 25 -63 7 -63 -24 0 -49 22 -49 44 0 38 14 45 42 19z m-1093 -123 c40 -41 56 -76 40 -85 -22 -14 -109 70 -109 105 0 31 27 23 69 -20z m-1239 -50 c22 -22 26 -40 10 -40 -19 0 -90 40 -90 50 0 18 60 10 80 -10z m-1845 0 c13 -20 -64 -120 -92 -120 -32 0 1 75 49 112 27 20 34 22 43 8z m175 -28 c0 -8 -38 -45 -87 -86 -38 -32 -26 -3 20 47 40 43 67 59 67 39z m660 -4 c0 -19 -31 -48 -52 -48 -12 0 -18 7 -18 23 0 13 3 27 7 30 11 12 63 8 63 -5z m2395 -23 c32 -31 34 -68 4 -63 -28 4 -64 51 -56 72 9 22 24 20 52 -9z m-211 -38 c23 -31 11 -53 -22 -43 -24 8 -35 32 -26 58 7 24 22 19 48 -15z m-1112 -74 c20 -33 39 -128 31 -150 -3 -6 -21 -13 -41 -15 -31 -3 -40 -9 -59 -43 l-23 -40 0 55 c0 70 17 186 31 211 14 28 39 20 61 -18z m-1072 -169 c0 -35 -22 -59 -45 -50 -20 7 -19 60 2 92 16 25 17 25 30 8 7 -10 13 -32 13 -50z m850 -74 c-14 -113 -5 -150 35 -150 27 0 34 -17 11 -26 -19 -7 -71 21 -90 48 -23 32 -20 83 8 166 44 130 56 117 36 -38z m2398 53 c24 -110 25 -173 1 -173 -14 0 -29 73 -29 148 0 82 13 94 28 25z m-2015 9 c18 -16 24 -72 7 -72 -18 0 -60 48 -60 68 0 35 14 37 53 4z m1906 -133 c24 -69 36 -139 23 -139 -16 0 -53 100 -59 159 -7 69 8 61 36 -20z m-3759 31 c0 -14 -41 -50 -57 -50 -20 0 -27 28 -13 45 14 16 70 21 70 5z m2491 -53 c12 -21 3 -38 -16 -31 -11 5 -45 72 -45 91 0 10 50 -39 61 -60z m-1956 34 c5 -18 -9 -71 -20 -71 -3 0 -5 20 -5 45 0 46 14 60 25 26z m2833 -85 c5 -43 -12 -52 -37 -20 -30 38 -27 56 7 52 21 -2 28 -9 30 -32z m-498 -183 c0 -30 -10 -54 -21 -47 -10 6 -12 77 -2 87 9 10 23 -13 23 -40z m-1832 -25 c-2 -28 -8 -34 -30 -36 -33 -4 -38 20 -11 50 26 29 45 23 41 -14z m2862 22 c0 -24 -34 -90 -46 -90 -20 0 -17 27 7 66 20 33 39 44 39 24z m-3494 -32 c-8 -39 -58 -118 -64 -100 -5 15 15 79 34 110 22 33 38 28 30 -10z m-266 -132 c-14 -43 -37 -65 -46 -43 -6 17 9 51 35 80 20 24 26 7 11 -37z m-270 -26 c0 -19 -5 -42 -10 -50 -7 -11 -10 4 -10 50 0 46 3 61 10 50 5 -8 10 -31 10 -50z m458 -82 c-2 -28 -8 -34 -30 -36 -32 -4 -36 12 -12 46 24 34 46 29 42 -10z m177 -37 c-8 -17 -20 -31 -25 -31 -18 0 -11 41 13 73 21 30 22 31 25 10 2 -12 -4 -35 -13 -52z m3132 22 c-43 -90 -57 -112 -137 -212 -154 -193 -300 -345 -260 -271 31 58 400 530 415 530 2 0 -6 -21 -18 -47z m-557 -791 c0 -8 -104 -110 -135 -132 -24 -17 5 19 74 93 43 45 61 56 61 39z m-5860 -195 c0 -52 -275 -370 -367 -424 -77 -45 -121 -6 -111 97 8 78 59 154 141 207 140 92 337 162 337 120z m9140 -153 c259 -129 420 -260 481 -389 24 -49 29 -73 29 -136 0 -49 -5 -82 -14 -95 -14 -19 -15 -19 -58 2 -23 12 -99 63 -168 114 -138 102 -166 118 -180 104 -5 -5 -11 -74 -15 -154 -3 -80 -14 -185 -23 -235 -20 -104 -19 -122 11 -131 39 -12 57 26 57 121 0 98 18 133 63 121 36 -9 74 -63 59 -86 -8 -13 -4 -27 20 -63 25 -39 28 -50 18 -62 -11 -13 -9 -20 13 -43 36 -37 65 -108 73 -176 6 -50 4 -61 -16 -88 -19 -26 -21 -38 -16 -88 l7 -58 -60 5 c-57 5 -61 4 -90 -25 -43 -43 -40 -66 14 -104 48 -34 56 -48 27 -48 -28 0 -43 -20 -31 -42 12 -22 -2 -53 -31 -68 -17 -9 -18 -7 -13 24 4 27 1 36 -18 50 -13 9 -36 16 -51 16 -31 0 -33 -7 -19 -78 5 -24 5 -45 0 -48 -12 -7 -107 37 -173 81 -68 45 -86 81 -86 175 l0 72 -112 -147 c-82 -106 -114 -141 -116 -127 -4 24 63 209 183 507 102 254 145 377 174 505 45 196 38 263 -45 425 -68 135 -86 235 -40 235 8 0 74 -30 146 -66z m-10939 -1501 c36 -31 68 -94 69 -136 0 -18 -11 -39 -29 -58 -51 -51 -84 -30 -63 39 14 43 8 51 -21 32 -57 -36 -77 -42 -93 -29 -39 32 -43 -42 -4 -81 11 -11 20 -27 20 -35 0 -27 -28 -71 -66 -104 -40 -36 -53 -36 -132 -7 -32 12 -48 13 -62 6 -25 -13 -25 -33 0 -89 27 -58 26 -91 -1 -91 -13 0 -23 10 -31 30 -12 36 -35 50 -81 50 -18 0 -37 3 -40 6 -4 4 14 25 39 47 51 44 69 75 80 132 9 49 15 54 69 47 42 -4 44 -3 50 24 12 54 24 73 62 97 47 30 58 43 67 82 12 49 33 65 87 65 37 0 55 -6 80 -27z m10745 -120 c32 6 30 -3 -9 -41 -79 -76 -167 -45 -110 38 32 47 45 51 72 23 16 -17 31 -23 47 -20z m-256 -94 c0 -22 -40 -77 -76 -104 l-36 -27 23 43 c32 64 58 99 75 99 8 0 14 -5 14 -11z m-11616 -90 c-61 -149 -113 -233 -139 -223 -7 3 -25 -6 -41 -19 -45 -37 -69 -47 -118 -47 -31 0 -46 4 -46 13 0 7 37 49 83 94 81 80 280 254 284 249 2 -1 -9 -31 -23 -67z m490 -240 c28 -33 36 -89 12 -89 -17 0 -66 56 -66 75 0 20 11 45 20 45 5 0 20 -14 34 -31z m921 -79 c13 -21 -40 -90 -69 -90 -14 0 -4 50 15 74 21 27 43 34 54 16z m13570 -110 c10 -17 -23 -59 -51 -66 -51 -13 -55 34 -5 61 31 17 48 18 56 5z m-4447 -1112 c-2 -28 -8 -34 -30 -36 -33 -4 -38 20 -11 50 26 29 45 23 41 -14z m-968 -437 c0 -16 -36 -22 -64 -12 -38 15 -32 21 19 21 25 0 45 -4 45 -9z m-5620 -46 c6 -8 9 -23 5 -35 -13 -41 -95 -14 -95 32 0 14 8 18 39 18 21 0 44 -6 51 -15z m179 -73 c99 -101 166 -194 158 -216 -5 -12 -20 -16 -58 -16 -42 0 -50 3 -45 16 8 22 -13 58 -83 142 -63 76 -91 120 -91 147 0 34 38 11 119 -73z m-2594 14 c0 -36 -26 -56 -49 -37 -16 14 -22 52 -9 65 4 4 19 6 33 4 20 -2 25 -8 25 -32z m423 7 c3 -23 -24 -56 -42 -50 -19 6 -19 37 0 58 21 23 38 20 42 -8z m742 -68 c15 -18 10 -45 -12 -59 -35 -22 -74 27 -48 59 16 19 44 19 60 0z m-1081 -34 c11 -7 9 -14 -13 -36 -28 -28 -49 -29 -54 -1 -7 35 34 58 67 37z m651 -6 c0 -40 -78 -145 -107 -145 -16 0 -16 3 1 44 15 36 82 116 97 116 5 0 9 -7 9 -15z m2437 -62 c4 -12 -57 -87 -64 -79 -3 2 5 25 16 51 19 43 39 55 48 28z m-2747 -23 c0 -14 -41 -50 -57 -50 -20 0 -27 28 -13 45 14 16 70 21 70 5z m498 -57 c3 -23 -24 -56 -42 -50 -19 6 -19 37 0 58 21 23 38 20 42 -8z"/>
<path d="M12010 18471 c14 -28 50 -51 77 -51 45 0 14 38 -46 59 -44 14 -44 14 -31 -8z"/>
<path d="M12225 18163 c19 -45 33 -63 51 -63 18 0 18 14 -1 50 -13 26 -42 50 -59 50 -4 0 1 -17 9 -37z"/>
<path d="M7890 13499 c-98 -54 -211 -135 -302 -219 -56 -51 -82 -68 -112 -73 -21 -3 -49 -16 -61 -27 -33 -31 -72 -125 -91 -216 -17 -82 -37 -133 -54 -135 -6 -1 -14 -3 -20 -4 -5 -1 -14 -3 -20 -4 -5 0 -16 -14 -25 -30 -12 -24 -23 -30 -51 -33 -21 -2 -41 -10 -45 -18 -18 -36 -50 -209 -71 -393 -30 -266 -22 -321 76 -543 20 -44 40 -102 45 -128 11 -61 19 -68 80 -74 38 -3 60 1 95 18 55 26 66 23 233 -56 237 -113 364 -133 625 -99 410 54 1063 247 1187 351 29 25 31 28 16 44 -28 31 -102 45 -230 44 -124 0 -143 -5 -204 -49 -40 -29 -83 -43 -167 -51 -81 -9 -168 3 -196 25 -21 18 -22 19 -4 45 9 15 24 29 32 32 51 16 50 14 24 35 -14 10 -77 46 -140 78 -185 96 -250 151 -250 213 0 32 21 55 75 79 50 23 108 24 130 3 13 -13 15 -28 10 -69 -5 -34 -3 -61 5 -75 17 -32 83 -57 180 -69 94 -12 408 -13 485 -2 47 7 48 8 20 15 -84 21 -91 36 -51 114 39 77 70 98 134 94 45 -4 171 -143 159 -176 -3 -7 -24 -16 -48 -19 -63 -8 -74 -42 -21 -66 15 -7 67 -17 115 -22 109 -11 193 -30 282 -63 37 -15 83 -26 101 -26 29 0 34 4 34 23 0 34 -56 110 -166 227 -55 57 -81 90 -59 73 22 -18 74 -60 115 -93 41 -33 100 -73 130 -88 71 -36 93 -74 87 -155 -2 -39 -10 -67 -25 -87 -27 -35 -28 -60 -4 -60 26 0 58 26 92 75 41 59 65 61 56 4 -18 -110 -264 -796 -346 -964 -32 -66 -72 -158 -88 -205 -61 -173 -110 -330 -104 -330 4 0 55 48 112 106 106 107 194 184 211 184 15 0 10 -30 -16 -113 -14 -43 -25 -88 -25 -100 1 -22 1 -22 22 3 26 31 164 315 251 515 103 240 122 305 161 560 20 127 36 239 36 248 0 35 -30 29 -82 -17 -28 -25 -54 -44 -56 -41 -11 10 43 151 98 258 90 175 136 382 128 582 -4 111 -13 128 -57 102 -38 -22 -51 -21 -51 4 0 24 -52 49 -101 49 -103 0 -308 184 -340 304 -16 64 -84 171 -156 247 -107 113 -120 89 -32 -60 l50 -84 -58 52 c-32 28 -81 70 -109 92 l-52 40 -196 6 c-126 4 -196 3 -196 -4 0 -5 29 -36 66 -67 36 -32 63 -60 60 -63 -2 -2 -67 21 -144 51 -77 31 -155 59 -173 63 -35 7 -34 11 -13 -57 10 -33 -37 -25 -78 14 -32 31 -40 33 -81 29 -27 -3 -84 3 -147 17 -117 25 -176 23 -240 -10 -23 -12 -44 -20 -46 -17 -2 2 12 24 32 50 20 25 34 50 32 56 -1 5 -50 -9 -107 -30 -57 -22 -108 -38 -113 -37 -5 2 11 19 36 38 68 50 62 64 -21 56 -217 -21 -283 -20 -283 7 0 6 30 40 67 74 60 55 65 62 43 63 -14 0 -59 -19 -100 -41z m1878 -542 l-3 -32 -16 30 c-20 37 -32 99 -22 109 13 12 45 -72 41 -107z m-930 -307 c98 -13 201 -43 233 -69 20 -16 21 -21 10 -34 -21 -27 -89 -30 -196 -10 -74 13 -145 18 -270 17 -188 -1 -277 -16 -352 -60 -39 -23 -44 -23 -50 -8 -23 60 284 170 482 173 33 1 97 -4 143 -9z m-819 -544 c9 -11 10 -25 2 -50 -5 -20 -6 -36 -3 -37 4 -1 23 0 43 1 28 1 45 -6 73 -30 53 -47 48 -60 -21 -60 -81 0 -102 8 -117 44 -7 17 -32 52 -55 78 -22 25 -41 51 -41 57 0 17 105 14 119 -3z m1251 -266 c19 -10 20 -14 8 -26 -20 -20 -118 -53 -181 -60 -51 -6 -56 -5 -72 19 -21 32 -7 64 33 73 15 3 32 8 37 10 20 8 154 -5 175 -16z"/>
<path d="M13220 13484 c0 -9 14 -34 31 -56 17 -21 29 -42 25 -45 -3 -3 -33 2 -66 11 -67 19 -86 15 -70 -14 18 -35 11 -39 -67 -42 -73 -3 -79 -5 -91 -30 -22 -46 -125 -50 -208 -8 -64 33 -69 23 -28 -53 31 -59 26 -77 -19 -77 -44 0 -57 15 -57 67 0 49 -8 52 -50 22 -26 -20 -36 -21 -132 -15 -310 20 -287 21 -321 -5 -23 -17 -49 -24 -94 -27 -35 -3 -63 -2 -63 2 0 3 23 17 50 31 28 14 50 29 50 34 0 17 -113 34 -225 35 -93 0 -117 -3 -159 -22 -98 -44 -197 -151 -258 -277 -23 -48 -28 -71 -26 -114 2 -41 -1 -56 -14 -64 -25 -16 -48 8 -48 52 0 45 41 133 126 268 79 126 101 173 80 173 -35 0 -164 -170 -231 -305 -19 -37 -24 -40 -60 -40 -36 0 -40 -3 -43 -27 -3 -21 6 -37 37 -67 23 -22 41 -47 41 -56 0 -41 -76 -74 -143 -61 -70 14 -71 14 -79 -29 -4 -22 -5 -105 -2 -185 9 -283 16 -307 75 -290 34 10 100 0 169 -25 65 -25 146 -23 197 3 44 23 73 28 73 13 0 -11 -46 -78 -81 -119 -40 -45 -38 -62 9 -62 56 0 105 -17 148 -51 l38 -30 16 21 c22 29 78 39 222 40 112 0 168 10 168 28 0 14 -43 30 -96 37 -90 11 -94 13 -94 43 0 33 51 85 154 157 83 58 79 61 126 -88 17 -56 37 -120 44 -142 l13 -40 99 2 c135 3 325 21 404 39 116 26 157 64 166 155 12 116 42 140 119 95 48 -29 115 -108 115 -136 0 -10 -39 -54 -87 -98 l-88 -80 105 19 c58 10 110 19 115 19 6 0 -17 -16 -50 -36 -72 -43 -96 -64 -89 -75 10 -17 -17 -48 -77 -88 -59 -39 -63 -41 -81 -25 -10 10 -23 35 -30 56 -13 43 -49 78 -80 78 -37 0 -74 -50 -81 -109 -4 -30 -13 -62 -22 -70 -25 -26 -55 14 -62 82 -3 31 -9 57 -13 57 -3 0 -14 -17 -24 -37 -25 -53 -71 -108 -110 -132 -44 -27 -47 -27 -44 11 3 30 0 33 -47 51 -31 12 -78 20 -125 20 -70 2 -80 -1 -124 -31 -59 -38 -76 -31 -76 33 0 76 -49 95 -245 95 -141 0 -225 -16 -258 -49 -36 -35 3 -71 76 -71 42 0 242 -49 409 -100 513 -158 977 -137 1203 54 22 19 37 37 33 41 -4 4 -44 0 -90 -8 -46 -8 -85 -14 -86 -12 -2 2 10 11 27 19 42 22 60 54 58 102 -1 45 33 103 74 125 45 24 33 -23 -22 -85 -39 -45 -29 -67 20 -46 28 11 61 52 103 128 29 54 57 64 196 73 137 9 223 28 253 55 24 22 16 34 -26 34 -45 0 -169 45 -373 135 -360 158 -573 204 -947 205 -154 1 -335 16 -348 29 -6 6 1 15 19 24 27 14 65 23 294 76 94 22 155 45 166 62 12 20 -24 37 -65 32 -28 -4 -40 -1 -44 10 -19 49 92 69 529 97 89 6 185 17 213 26 36 10 70 13 109 9 99 -11 286 -44 403 -71 176 -40 263 -53 274 -43 6 6 -12 31 -48 67 -62 62 -68 82 -36 103 17 12 19 18 10 42 -14 35 -106 134 -144 153 -24 13 -31 13 -56 -2 -25 -15 -34 -15 -60 -5 -17 7 -36 19 -42 27 -9 11 -7 14 14 14 63 0 30 52 -60 96 -38 19 -62 25 -84 20 -36 -7 -93 19 -159 73 -54 45 -128 95 -152 104 -12 4 -18 1 -18 -9z m-486 -1050 c20 -19 20 -21 -2 -33 -20 -11 -102 20 -102 39 0 16 87 12 104 -6z m128 -579 c22 -49 -21 -86 -54 -46 -20 26 -24 61 -6 79 15 15 46 -2 60 -33z"/>
<path d="M9836 13203 c-3 -3 -6 -18 -6 -32 0 -17 17 -42 57 -80 32 -31 58 -50 61 -43 2 7 -13 41 -33 77 -34 61 -65 92 -79 78z"/>
<path d="M11266 13128 c-20 -28 -21 -78 -2 -78 19 0 66 57 66 81 0 27 -45 25 -64 -3z"/>
<path d="M9877 12993 c-14 -14 -5 -25 36 -43 51 -23 67 -25 67 -6 0 33 -81 71 -103 49z"/>
<path d="M12732 12722 c-61 -19 -6 -49 111 -62 130 -14 204 -41 497 -181 410 -195 582 -227 592 -112 2 30 8 38 27 43 36 8 36 26 2 46 -37 22 -40 44 -8 44 47 0 62 43 26 76 -29 26 -135 31 -215 10 -86 -22 -131 -21 -139 3 -17 53 -88 20 -93 -44 l-3 -38 -40 42 c-50 52 -81 68 -158 80 -34 6 -90 21 -125 35 -103 41 -408 79 -474 58z"/>
<path d="M12420 11940 c0 -37 4 -50 13 -47 7 2 12 21 12 47 0 26 -5 45 -12 48 -9 2 -13 -11 -13 -48z"/>
<path d="M8776 11947 c-25 -18 -8 -50 35 -67 29 -13 33 -12 50 9 22 26 15 49 -18 62 -33 12 -46 11 -67 -4z"/>
<path d="M12248 11953 c-51 -8 -26 -33 32 -33 25 0 49 15 39 24 -9 8 -46 12 -71 9z"/>
<path d="M11679 9692 c-180 -183 -235 -255 -207 -274 19 -12 77 0 123 27 55 32 151 135 175 187 20 43 27 142 12 152 -5 3 -51 -39 -103 -92z"/>
<path d="M11117 9273 c-8 -10 -17 -27 -19 -38 -2 -15 3 -21 24 -23 31 -4 53 26 43 58 -8 25 -27 26 -48 3z"/>
<path d="M11742 8017 c-24 -26 -29 -52 -9 -60 31 -11 94 39 84 68 -9 23 -50 18 -75 -8z"/>
<path d="M9842 7818 c-27 -27 -6 -68 35 -68 29 0 48 33 33 60 -12 22 -49 27 -68 8z"/>
<path d="M11052 6948 c-7 -7 -12 -22 -12 -35 0 -17 6 -23 23 -23 29 0 62 34 54 55 -7 18 -48 20 -65 3z"/>
<path d="M11393 6863 c-8 -21 17 -67 39 -71 12 -2 20 6 24 24 6 21 2 31 -16 46 -28 22 -39 23 -47 1z"/>
<path d="M15624 3223 c-5 -20 -2 -30 15 -44 42 -34 68 2 35 49 -21 30 -42 28 -50 -5z"/>
<path d="M15720 3110 c-23 -23 -25 -34 -7 -48 15 -13 54 4 71 31 8 13 8 20 -4 27 -23 15 -38 12 -60 -10z"/>
<path d="M15334 3065 c-49 -34 -54 -112 -6 -86 26 14 72 69 72 87 0 18 -40 18 -66 -1z"/>
<path d="M14070 18995 c0 -2 26 -24 58 -49 151 -124 332 -324 332 -368 0 -32 17 -11 35 41 9 27 23 55 31 61 7 7 14 15 14 19 0 3 -26 19 -57 36 -68 35 -158 117 -204 185 -25 37 -40 50 -59 50 -14 0 -53 6 -87 14 -35 7 -63 12 -63 11z"/>
<path d="M14290 18322 c0 -87 130 -380 163 -369 38 12 25 142 -24 243 -30 60 -112 164 -130 164 -5 0 -9 -17 -9 -38z"/>
<path d="M6220 17986 c-99 -78 -209 -236 -218 -311 -6 -54 8 -59 40 -13 13 17 71 96 131 175 95 128 125 183 98 183 -4 0 -28 -15 -51 -34z"/>
<path d="M14136 17925 c-9 -25 -7 -133 3 -139 5 -3 11 4 15 17 15 57 -1 166 -18 122z"/>
<path d="M5400 15481 c0 -6 4 -13 10 -16 6 -3 7 1 4 9 -7 18 -14 21 -14 7z"/>
<path d="M4712 13715 c-6 -14 -8 -25 -3 -25 8 0 23 41 17 47 -1 2 -8 -8 -14 -22z"/>
<path d="M15245 10167 c-45 -69 -92 -237 -67 -237 25 0 78 125 96 223 8 43 -5 49 -29 14z"/>
<path d="M14340 5156 c0 -95 12 -133 24 -75 8 40 8 117 0 147 -14 49 -24 17 -24 -72z"/>
<path d="M4091 3153 c-126 -140 -274 -393 -232 -393 32 0 307 427 288 446 -2 3 -28 -21 -56 -53z"/>
<path d="M15793 2379 c-33 -46 -105 -152 -160 -235 -279 -418 -571 -701 -1123 -1086 -678 -474 -1125 -680 -2134 -982 -121 -37 -222 -69 -225 -72 -8 -8 1072 4 1157 12 75 8 76 12 27 108 -19 39 -35 72 -35 74 0 2 18 -11 41 -30 47 -38 91 -68 101 -68 30 0 138 134 138 172 0 42 170 178 223 178 20 0 21 -4 7 -30 -15 -28 15 -54 54 -46 34 7 49 24 40 46 -3 8 -8 29 -11 45 l-6 30 27 -24 c46 -43 87 -33 226 58 28 18 25 10 -17 -45 -39 -53 -29 -82 21 -57 60 30 116 99 100 125 -11 17 -161 3 -223 -21 -30 -11 -56 -19 -58 -17 -7 7 58 55 149 112 51 31 160 105 243 164 170 122 239 160 257 142 8 -8 -7 -30 -64 -89 -42 -43 -85 -96 -96 -118 -28 -55 -144 -186 -296 -333 -154 -148 -220 -202 -250 -202 -12 0 -49 -23 -81 -51 -74 -62 -115 -86 -115 -66 0 30 96 138 160 181 31 21 37 20 43 -4 9 -33 32 -23 90 40 59 63 76 95 58 113 -10 10 -47 -6 -178 -79 l-53 -29 -35 38 c-25 27 -42 37 -58 35 -36 -5 -33 -40 8 -76 35 -32 44 -55 25 -67 -16 -10 -52 14 -98 63 l-42 47 6 -46 c7 -57 -10 -94 -90 -194 -31 -38 -56 -76 -56 -82 0 -23 29 -14 69 22 44 40 57 43 64 16 7 -29 101 -46 178 -32 88 15 151 54 269 166 58 54 124 117 148 140 l43 40 55 -58 c30 -32 62 -70 71 -84 17 -25 16 -26 -20 -55 -20 -17 -37 -39 -37 -49 0 -10 3 -19 6 -19 15 0 56 29 122 86 83 73 115 86 138 58 15 -18 15 -18 10 6 -15 71 -17 108 -8 114 5 3 29 -1 52 -9 54 -19 50 -20 50 14 0 19 20 56 65 116 63 84 80 125 52 125 -7 0 -44 -32 -82 -71 -37 -39 -82 -77 -99 -84 -37 -16 -62 -42 -108 -115 -19 -30 -45 -63 -56 -74 -23 -20 -52 -16 -52 8 0 19 64 99 173 218 172 186 192 226 140 280 -38 39 -62 35 -115 -19 -52 -55 -72 -88 -64 -109 10 -26 40 -14 93 38 45 44 53 49 53 31 0 -13 -24 -47 -55 -81 -81 -88 -151 -115 -126 -49 9 23 7 29 -9 39 -35 22 -35 22 93 211 26 37 52 86 59 109 15 52 72 98 205 166 212 109 377 163 671 221 111 23 212 46 223 52 18 9 20 17 15 47 -8 51 -55 122 -101 153 -47 32 -61 62 -70 144 -12 105 22 232 74 279 16 15 29 17 67 11 l47 -7 -26 32 c-44 52 -43 69 6 177 56 123 90 218 85 234 -2 7 -31 -25 -65 -72z m-1409 -1970 c32 -25 32 -62 1 -67 -23 -3 -59 31 -70 66 -5 19 -3 22 18 22 13 0 36 -10 51 -21z m-694 -221 c-1 -22 -34 -81 -47 -86 -19 -6 -15 29 7 66 20 32 40 43 40 20z"/>
<path d="M1850 2106 c-55 -21 -569 -281 -624 -316 -26 -17 -46 -33 -43 -36 22 -22 743 323 734 350 -5 16 -28 16 -67 2z"/>
<path d="M14374 1473 c-5 -20 -2 -30 15 -44 42 -34 68 2 35 49 -21 30 -42 28 -50 -5z"/>
<path d="M14293 1404 c-18 -8 -165 -175 -159 -181 14 -14 137 79 161 122 9 15 14 16 33 6 36 -19 44 -9 22 27 -19 31 -31 36 -57 26z"/>
<path d="M13920 1325 c0 -20 36 -88 51 -96 20 -10 24 -3 19 31 -3 26 -70 88 -70 65z"/>
<path d="M16498 1170 c-12 -35 -17 -36 -51 -10 -36 29 -85 37 -93 16 -9 -23 19 -51 88 -89 l58 -32 -65 -65 c-68 -68 -76 -84 -49 -94 21 -8 199 -8 207 0 3 4 -1 17 -10 31 -12 18 -17 51 -18 121 -2 98 -12 135 -40 146 -12 4 -19 -3 -27 -24z"/>
<path d="M13883 1158 c-22 -11 -40 -44 -29 -55 9 -9 51 6 80 28 21 17 25 24 14 30 -17 11 -38 10 -65 -3z"/>
<path d="M16145 1161 c-12 -5 -27 -16 -35 -26 -12 -14 -12 -18 1 -25 25 -16 134 21 127 42 -5 15 -65 21 -93 9z"/>
<path d="M121 1095 c-72 -27 -121 -68 -121 -102 0 -54 69 -33 173 51 92 75 70 97 -52 51z"/>
<path d="M13620 1093 c0 -26 57 -121 79 -133 47 -24 28 49 -29 113 -35 41 -50 46 -50 20z"/>
<path d="M16340 1083 c-28 -10 -50 -36 -50 -58 0 -32 -33 -70 -54 -62 -12 5 -15 13 -10 33 8 32 -7 44 -58 44 -61 0 -118 -31 -118 -66 0 -11 4 -12 19 -4 32 17 74 11 113 -15 61 -42 89 -35 166 41 64 62 66 66 48 80 -21 15 -31 16 -56 7z"/>
<path d="M15947 1062 c-26 -28 -22 -62 7 -62 30 0 49 22 44 52 -4 29 -29 34 -51 10z"/>
<path d="M16122 903 c-32 -28 -33 -73 -2 -73 29 0 54 43 40 69 -13 25 -13 25 -38 4z"/>
<path d="M970 861 c0 -9 66 -100 118 -161 27 -31 32 -34 58 -25 44 16 43 49 -2 91 -76 73 -174 126 -174 95z"/>
<path d="M390 843 c0 -4 5 -21 12 -40 6 -18 9 -35 6 -39 -4 -3 -28 10 -54 30 -56 43 -81 46 -94 10 -9 -23 -15 -26 -58 -24 -66 3 -67 3 -81 -26 -11 -24 -15 -26 -51 -20 -64 10 -65 9 -68 -386 l-3 -348 80 0 c91 0 156 20 221 67 64 48 85 81 83 131 -1 40 0 42 20 36 40 -13 52 -9 55 15 3 21 7 23 44 17 44 -7 44 -7 23 62 -9 27 9 29 51 7 50 -26 72 -19 130 41 52 55 55 56 98 52 51 -6 61 -2 75 33 8 23 16 27 64 31 61 5 102 30 129 80 22 39 11 62 -69 149 -82 88 -130 121 -155 108 -45 -24 0 -118 87 -180 50 -36 56 -60 23 -83 -32 -23 -39 -20 -23 11 15 28 6 53 -19 53 -11 0 -97 64 -178 132 -60 51 -90 57 -119 24 -12 -14 -30 -26 -39 -26 -9 0 -49 20 -90 45 -71 42 -100 53 -100 38z m445 -300 c46 -22 43 -48 -5 -48 -27 0 -37 6 -47 24 -21 43 -4 51 52 24z"/>
<path d="M1210 812 c0 -18 92 -92 115 -92 3 0 5 12 3 27 -2 18 -15 35 -37 50 -33 22 -81 31 -81 15z"/>
<path d="M16194 788 c-30 -34 -47 -64 -88 -153 l-36 -80 65 70 c69 74 105 131 105 165 0 27 -22 26 -46 -2z"/>
<path d="M16010 775 c-15 -18 -9 -49 10 -53 19 -3 60 33 60 53 0 20 -54 20 -70 0z"/>
<path d="M17118 733 c-26 -31 -30 -43 -18 -57 25 -31 74 10 63 52 -7 27 -25 28 -45 5z"/>
<path d="M16327 660 c-77 -58 -91 -75 -50 -59 71 26 148 83 138 100 -10 15 -20 11 -88 -41z"/>
<path d="M17321 684 c-25 -32 -27 -50 -5 -58 29 -11 55 12 52 46 -4 41 -21 45 -47 12z"/>
<path d="M13130 615 c-17 -20 -5 -62 20 -70 44 -14 55 28 17 64 -21 19 -25 20 -37 6z"/>
<path d="M17018 610 c-14 -10 -31 -33 -38 -50 -14 -34 -48 -47 -78 -31 -21 11 -33 6 -27 -12 2 -7 20 -56 39 -109 35 -94 45 -148 28 -148 -27 0 -94 109 -137 223 -10 26 -21 47 -25 47 -17 0 -200 -200 -206 -227 -4 -15 -39 -62 -79 -103 -80 -85 -155 -177 -155 -191 0 -20 23 -7 80 46 33 30 68 55 79 55 11 0 32 -15 47 -33 l27 -32 -6 45 c-4 25 -9 54 -12 65 -3 11 0 28 8 39 11 15 17 17 35 7 11 -6 22 -21 24 -33 3 -25 61 -68 90 -68 16 0 17 5 12 38 -5 33 -2 41 30 71 20 19 36 38 36 41 0 3 -18 30 -40 59 -47 63 -50 94 -8 99 29 3 40 -11 52 -70 4 -15 18 -35 33 -45 51 -35 83 -74 83 -103 0 -63 27 -43 80 58 42 80 82 115 121 107 24 -6 29 -3 29 14 0 33 -18 71 -34 71 -9 0 -35 -14 -60 -31 -58 -41 -81 -35 -73 21 6 47 38 95 75 112 30 15 40 51 22 74 -16 18 -22 18 -52 -6z m-336 -317 c25 -23 24 -70 -3 -78 -34 -11 -54 20 -50 78 1 22 29 22 53 0z"/>
<path d="M15523 583 c-21 -7 -15 -38 12 -63 30 -28 48 -17 43 25 -3 28 -31 46 -55 38z"/>
<path d="M16155 536 c-11 -16 -15 -35 -11 -51 5 -20 12 -25 40 -25 21 0 40 8 52 21 17 19 17 23 3 47 -21 38 -62 41 -84 8z"/>
<path d="M15944 487 c-71 -71 -85 -106 -61 -150 24 -41 21 -58 -18 -116 -40 -57 -37 -63 12 -25 47 35 67 78 59 126 -8 48 17 110 69 170 19 23 35 45 35 50 0 24 -40 1 -96 -55z"/>
<path d="M16298 441 c-153 -162 -188 -255 -39 -103 128 129 179 202 141 202 -4 0 -50 -45 -102 -99z"/>
<path d="M17164 525 c-9 -22 41 -82 94 -116 56 -36 62 -36 62 -2 0 19 -15 41 -55 80 -55 53 -90 66 -101 38z"/>
<path d="M14840 485 c-16 -19 -9 -49 12 -53 21 -4 72 44 63 58 -9 15 -61 12 -75 -5z"/>
<path d="M17446 478 c-9 -12 -16 -26 -16 -30 0 -18 42 -48 66 -48 24 0 25 3 19 28 -8 33 -32 72 -45 72 -5 0 -16 -10 -24 -22z"/>
<path d="M15250 446 c0 -52 16 -68 30 -31 12 32 3 75 -16 75 -10 0 -14 -13 -14 -44z"/>
<path d="M16521 464 c-22 -28 -29 -84 -10 -84 20 0 70 62 67 84 -4 31 -33 31 -57 0z"/>
<path d="M10840 434 c0 -58 23 -135 48 -157 20 -16 62 -29 62 -18 0 5 -9 16 -21 27 -28 25 -56 81 -64 129 -12 66 -24 76 -25 19z"/>
<path d="M14955 413 c-40 -54 -95 -163 -95 -187 0 -46 63 24 115 128 55 109 43 144 -20 59z"/>
<path d="M19722 448 c-28 -36 -20 -98 13 -98 21 0 55 40 55 65 0 39 -45 61 -68 33z"/>
<path d="M19180 432 c0 -30 57 -107 93 -127 37 -20 87 -15 87 9 0 21 -56 73 -114 106 -60 35 -66 36 -66 12z"/>
<path d="M15372 403 c-32 -28 -33 -73 -2 -73 29 0 54 43 40 69 -13 25 -13 25 -38 4z"/>
<path d="M15702 397 c-36 -38 -25 -76 18 -62 22 7 34 37 25 65 -8 26 -17 25 -43 -3z"/>
<path d="M19063 351 c23 -81 67 -141 102 -141 33 0 39 14 20 54 -17 36 -121 156 -135 156 -4 0 1 -31 13 -69z"/>
<path d="M19450 368 c-53 -72 -74 -185 -50 -267 13 -45 5 -54 -31 -35 -17 8 -33 14 -35 11 -8 -7 42 -44 75 -56 72 -24 101 29 101 188 l0 95 84 -82 c84 -82 102 -92 124 -70 20 20 14 48 -13 58 -15 6 -27 20 -30 37 -13 59 -23 73 -55 73 -25 0 -35 7 -58 45 -37 61 -69 62 -112 3z m24 -124 c18 -7 22 -59 5 -69 -5 -4 -21 -4 -35 -1 -26 7 -33 43 -12 64 14 14 20 14 42 6z"/>
<path d="M15071 365 c-51 -59 -88 -145 -62 -145 11 0 71 81 95 127 31 62 14 72 -33 18z"/>
<path d="M10587 373 c-16 -16 -6 -65 19 -90 34 -34 51 -19 35 30 -13 37 -43 71 -54 60z"/>
<path d="M14761 343 c-30 -36 -71 -128 -71 -158 0 -28 30 -15 58 24 35 49 69 148 54 163 -6 6 -20 -4 -41 -29z"/>
<path d="M15550 372 c-29 -10 -92 -66 -141 -124 -54 -65 -59 -78 -30 -78 24 0 159 106 184 143 27 42 21 71 -13 59z"/>
<path d="M10706 355 c-10 -28 23 -85 51 -85 18 0 17 25 -3 66 -17 36 -38 44 -48 19z"/>
<path d="M18813 333 c-19 -7 -16 -27 8 -57 30 -39 51 -34 47 10 -3 37 -27 57 -55 47z"/>
<path d="M15165 303 c-48 -45 -89 -103 -79 -113 24 -24 169 80 162 117 -5 30 -49 27 -83 -4z"/>
<path d="M17193 297 c-34 -25 -103 -104 -103 -118 0 -5 9 -9 21 -9 27 0 129 102 129 129 0 27 -9 26 -47 -2z"/>
<path d="M15610 263 c-25 -32 -22 -47 13 -51 30 -4 52 27 42 58 -9 28 -30 25 -55 -7z"/>
<path d="M14194 234 c-52 -35 -108 -89 -150 -145 -33 -45 -44 -79 -25 -79 14 0 100 70 111 91 19 34 90 79 127 79 30 0 33 3 33 28 0 56 -36 66 -96 26z"/>
<path d="M18491 231 c-16 -16 -18 -26 -11 -51 18 -63 93 -139 125 -126 26 10 17 34 -35 91 -51 56 -58 69 -40 80 6 3 10 10 10 16 0 16 -29 10 -49 -10z"/>
<path d="M18920 209 c0 -33 55 -81 87 -77 41 4 42 39 3 72 -40 33 -90 36 -90 5z"/>
<path d="M6640 187 c0 -13 11 -34 26 -47 21 -21 27 -22 34 -10 16 25 11 59 -9 70 -32 17 -51 12 -51 -13z"/>
<path d="M10694 185 c-13 -20 -14 -31 -5 -57 16 -45 40 -80 51 -73 13 8 13 111 0 136 -14 25 -26 24 -46 -6z"/>
<path d="M18168 169 c-6 -83 22 -159 59 -159 20 0 16 42 -12 117 -33 88 -43 96 -47 42z"/>
<path d="M7044 168 c9 -43 55 -120 69 -115 22 7 -3 86 -41 130 -23 27 -35 21 -28 -15z"/>
<path d="M18335 190 c-8 -13 20 -100 49 -155 l21 -40 3 55 c4 76 -5 117 -31 135 -25 18 -34 19 -42 5z"/>
<path d="M6182 158 c-30 -39 -20 -98 18 -98 22 0 50 36 50 65 0 39 -45 61 -68 33z"/>
<path d="M7187 163 c-14 -13 -6 -40 19 -63 21 -21 27 -22 34 -10 16 25 11 59 -9 70 -23 12 -35 13 -44 3z"/>
<path d="M14512 158 c-7 -7 -12 -22 -12 -35 0 -17 6 -23 23 -23 24 0 57 27 57 47 0 22 -49 30 -68 11z"/>
<path d="M14781 144 c-26 -33 -37 -72 -24 -85 12 -12 37 16 52 60 15 46 0 60 -28 25z"/>
<path d="M14947 138 c-28 -36 -34 -83 -12 -83 15 0 47 71 43 97 -3 21 -5 21 -31 -14z"/>
<path d="M15175 150 c-37 -41 15 -70 55 -30 24 24 25 36 4 44 -26 10 -40 7 -59 -14z"/>
<path d="M15523 133 c-43 -47 -67 -82 -61 -89 8 -8 118 96 118 112 0 24 -21 15 -57 -23z"/>
<path d="M16808 159 c-10 -5 -18 -21 -18 -34 0 -20 5 -25 23 -25 29 0 62 34 54 55 -7 17 -34 19 -59 4z"/>
<path d="M19250 121 c-36 -27 -75 -59 -88 -73 l-23 -26 25 -6 c30 -7 72 1 104 22 20 13 61 117 50 127 -2 2 -33 -18 -68 -44z"/>
<path d="M15683 128 c-37 -39 -53 -69 -53 -97 0 -29 16 -26 46 7 27 28 47 62 58 100 11 33 -14 28 -51 -10z"/>
<path d="M15901 94 c-34 -37 -61 -71 -61 -75 0 -28 94 24 119 66 58 94 25 99 -58 9z"/>
<path d="M17210 110 c0 -37 4 -50 13 -47 7 2 12 21 12 47 0 26 -5 45 -12 48 -9 2 -13 -11 -13 -48z"/>
<path d="M11756 123 c-10 -11 -7 -58 6 -71 16 -16 47 -15 54 2 11 28 -41 87 -60 69z"/>
<path d="M18021 94 c-36 -45 -22 -84 30 -84 35 0 53 23 44 57 -14 58 -42 68 -74 27z"/>
</g>
</svg>