<?xml version="1.0" encoding="UTF-8"?>
<!DOCTYPE svg PUBLIC "-//W3C//DTD SVG 1.1//EN" "http://www.w3.org/Graphics/SVG/1.1/DTD/svg11.dtd">
<svg xmlns="http://www.w3.org/2000/svg" version="1.1" width="2932px" height="871px" style="shape-rendering:geometricPrecision; text-rendering:geometricPrecision; image-rendering:optimizeQuality; fill-rule:evenodd; clip-rule:evenodd" xmlns:xlink="http://www.w3.org/1999/xlink">
<g><path style="opacity:0.996" fill="#000000" d="M 397.5,-0.5 C 400.833,-0.5 404.167,-0.5 407.5,-0.5C 408.803,2.11945 408.303,4.45278 406,6.5C 390,21.1667 374.667,36.5 360,52.5C 356.449,56.2081 356.949,59.3748 361.5,62C 370.025,64.0939 378.691,65.2605 387.5,65.5C 416.561,64.1616 445.561,61.9949 474.5,59C 482.833,58.3333 491.167,58.3333 499.5,59C 501.755,59.4526 503.089,60.7859 503.5,63C 503.007,65.8192 501.84,68.3192 500,70.5C 491.789,77.7129 483.289,84.5462 474.5,91C 472.595,92.8153 470.928,94.8153 469.5,97C 470.167,97.1667 470.833,97.3333 471.5,97.5C 493.801,90.8476 515.801,83.3476 537.5,75C 544.99,72.3774 552.656,70.5441 560.5,69.5C 560.797,73.9112 559.631,77.9112 557,81.5C 548.916,91.7512 541.416,102.418 534.5,113.5C 535,113.833 535.5,114.167 536,114.5C 544.796,111.352 553.296,107.519 561.5,103C 579.337,96.8249 597.67,94.8249 616.5,97C 639.879,100.743 663.212,104.743 686.5,109C 692.97,109.88 699.47,110.38 706,110.5C 713.835,109.871 721.668,109.704 729.5,110C 733.544,110.856 737.211,112.522 740.5,115C 747.252,121.756 754.586,127.756 762.5,133C 767.499,135.891 772.833,136.891 778.5,136C 779.573,134.687 780.24,133.187 780.5,131.5C 777.377,122.652 775.211,113.652 774,104.5C 774.739,103.426 775.739,102.759 777,102.5C 789.059,105.186 800.892,108.686 812.5,113C 846.573,126.525 880.907,139.358 915.5,151.5C 915.833,151.333 916.167,151.167 916.5,151C 915.874,150.25 915.374,149.416 915,148.5C 899,133.167 883,117.833 867,102.5C 866.365,101.034 865.531,99.7003 864.5,98.5C 864.709,97.914 865.043,97.414 865.5,97C 879.456,95.8785 893.456,95.3785 907.5,95.5C 948.186,96.0006 988.853,97.1673 1029.5,99C 1059.17,121.328 1087.67,145.161 1115,170.5C 1107.58,156.356 1099.58,142.356 1091,128.5C 1085.24,118.547 1080.24,108.214 1076,97.5C 1074.72,93.9031 1074.39,90.2364 1075,86.5C 1078.03,85.2909 1080.86,85.7909 1083.5,88C 1123.53,121.016 1154.03,161.182 1175,208.5C 1177.9,220.873 1182.57,232.539 1189,243.5C 1209.41,275.245 1235.24,301.745 1266.5,323C 1287.17,338.559 1310.51,346.559 1336.5,347C 1344.92,349.127 1352.42,352.961 1359,358.5C 1360.57,363.487 1362.4,368.32 1364.5,373C 1367.26,373.584 1369.92,373.25 1372.5,372C 1378.27,368.561 1384.27,365.561 1390.5,363C 1394.9,361.622 1398.4,362.788 1401,366.5C 1403.27,371.59 1404.61,376.923 1405,382.5C 1412.18,464.432 1400.18,543.432 1369,619.5C 1337.93,616.398 1312.93,627.065 1294,651.5C 1288.24,660.016 1283.24,669.016 1279,678.5C 1274.27,679.561 1270.27,681.894 1267,685.5C 1258.34,698.836 1248.17,711.003 1236.5,722C 1231.3,726.345 1225.3,728.845 1218.5,729.5C 1215.89,729.444 1213.72,728.444 1212,726.5C 1211.38,716.391 1214.71,707.724 1222,700.5C 1228.29,687.405 1231.12,673.571 1230.5,659C 1231.68,638.689 1224.01,622.689 1207.5,611C 1186.82,599.998 1167.15,587.498 1148.5,573.5C 1144.37,556.726 1135.37,543.226 1121.5,533C 1114.22,528.05 1107.22,522.717 1100.5,517C 1092.37,512.767 1084.37,508.267 1076.5,503.5C 1066.71,491.616 1055.04,482.116 1041.5,475C 1025.39,458.892 1007.06,445.892 986.5,436C 969.993,430.082 952.993,426.415 935.5,425C 907.572,408.875 877.906,396.875 846.5,389C 791.892,373.398 736.225,366.398 679.5,368C 628.764,372.85 580.098,385.517 533.5,406C 519.422,409.206 506.422,414.873 494.5,423C 487.309,423.931 480.309,425.597 473.5,428C 470.333,431.167 467.167,434.333 464,437.5C 457.667,447.833 451.333,458.167 445,468.5C 441.842,471.219 438.342,473.386 434.5,475C 419.977,490.025 407.977,506.858 398.5,525.5C 390.829,525.11 383.163,525.61 375.5,527C 371.421,529.075 367.921,531.908 365,535.5C 362,539.833 359,544.167 356,548.5C 347.347,566.479 337.681,583.812 327,600.5C 321.628,619.685 315.628,638.685 309,657.5C 304.911,669.857 302.411,682.524 301.5,695.5C 301.809,711.934 307.142,726.434 317.5,739C 322.345,742.422 327.678,744.755 333.5,746C 342.82,747.572 352.153,747.905 361.5,747C 365.684,751.51 370.684,754.843 376.5,757C 390.844,762.003 405.178,767.003 419.5,772C 425.608,775.446 429.441,780.613 431,787.5C 432.793,790.295 434.96,792.795 437.5,795C 446.672,800.752 455.672,806.752 464.5,813C 480.289,820.395 495.956,828.061 511.5,836C 511.92,840.506 513.92,844.172 517.5,847C 523.5,850.333 529.5,853.667 535.5,857C 501.572,863.157 467.572,867.657 433.5,870.5C 415.167,870.5 396.833,870.5 378.5,870.5C 335.796,866.071 294.796,854.905 255.5,837C 231.833,826 208.167,815 184.5,804C 173.556,799.185 162.223,795.685 150.5,793.5C 147.891,794.23 145.224,794.73 142.5,795C 132.121,799.793 121.455,803.793 110.5,807C 98.0583,808.047 85.7249,807.381 73.5,805C 67.8865,803.718 63.7199,800.551 61,795.5C 57.5513,779.927 53.2179,764.594 48,749.5C 36.8047,722.914 25.8047,696.247 15,669.5C 7.19945,647.974 2.03278,625.974 -0.5,603.5C -0.5,588.167 -0.5,572.833 -0.5,557.5C 4.80137,491.439 13.968,425.772 27,360.5C 29.0448,350.987 31.7115,341.654 35,332.5C 37.4075,330.044 40.2409,328.211 43.5,327C 51.7194,325.734 59.7194,323.734 67.5,321C 72.9247,313.486 78.5914,306.153 84.5,299C 90.8055,297.539 97.1389,296.206 103.5,295C 104.931,294.535 106.097,293.701 107,292.5C 110.803,286.561 113.803,280.227 116,273.5C 120.96,256.326 125.294,238.992 129,221.5C 135.073,198.032 144.406,176.032 157,155.5C 162.041,148.804 168.541,143.971 176.5,141C 188.792,139.097 200.125,134.764 210.5,128C 232.647,108.763 254.981,89.7628 277.5,71C 303.965,50.9285 331.632,32.5952 360.5,16C 372.654,9.79462 384.988,4.29462 397.5,-0.5 Z M 1126.5,198.5 C 1129.64,198.799 1131.81,200.466 1133,203.5C 1141.54,219.209 1144.54,235.875 1142,253.5C 1131.01,236.712 1125.84,218.379 1126.5,198.5 Z"/></g>
<g><path style="opacity:0.994" fill="#000000" d="M 2931.5,305.5 C 2931.5,306.167 2931.5,306.833 2931.5,307.5C 2928.36,308.933 2925.03,309.599 2921.5,309.5C 2914.14,308.923 2906.8,308.089 2899.5,307C 2843.2,295.539 2786.86,284.206 2730.5,273C 2698.86,267.099 2667.03,262.599 2635,259.5C 2619.89,260.323 2605.05,262.823 2590.5,267C 2580.52,268.497 2570.52,269.831 2560.5,271C 2498.79,275.49 2437.13,280.49 2375.5,286C 2354.93,287.938 2334.6,291.271 2314.5,296C 2308,297.585 2302,300.252 2296.5,304C 2292.5,308.667 2292.5,313.333 2296.5,318C 2297.5,318.333 2298.5,318.667 2299.5,319C 2308.49,318.668 2317.49,318.668 2326.5,319C 2333.61,319.377 2338.28,322.877 2340.5,329.5C 2339.46,333.375 2337.13,336.208 2333.5,338C 2319.42,344.915 2304.76,350.248 2289.5,354C 2243.55,364.237 2197.89,375.57 2152.5,388C 2146.7,389.886 2142.03,393.22 2138.5,398C 2139.17,398.667 2139.83,399.333 2140.5,400C 2155.26,403.721 2170.26,406.054 2185.5,407C 2187.3,407.317 2187.63,407.984 2186.5,409C 2158.98,422.763 2130.98,435.43 2102.5,447C 2079.67,459.578 2057.34,472.912 2035.5,487C 2025.51,488.329 2016.51,491.995 2008.5,498C 1983.22,528.028 1962.05,560.861 1945,596.5C 1941.46,604.619 1938.63,612.952 1936.5,621.5C 1918.43,611.983 1899.09,607.483 1878.5,608C 1871.16,608.005 1868.33,604.505 1870,597.5C 1876.18,586.982 1883.51,577.315 1892,568.5C 1900.12,557.705 1907.45,546.372 1914,534.5C 1914.72,532.888 1914.55,531.388 1913.5,530C 1909.76,529.39 1906.1,529.723 1902.5,531C 1892.06,535.886 1881.39,540.22 1870.5,544C 1852.5,547.312 1834.5,547.312 1816.5,544C 1798.89,537.574 1780.89,532.574 1762.5,529C 1751.73,526.675 1741.06,527.008 1730.5,530C 1718.83,533.417 1711.66,529.251 1709,517.5C 1706.35,505.641 1704.68,493.641 1704,481.5C 1700.88,432.877 1699.88,384.211 1701,335.5C 1701.26,328.656 1703.1,322.322 1706.5,316.5C 1708.62,315.109 1710.95,314.442 1713.5,314.5C 1722.55,315.677 1731.55,317.177 1740.5,319C 1755.45,320.428 1769.45,317.428 1782.5,310C 1788.83,306.178 1792.83,300.678 1794.5,293.5C 1788.08,281.567 1779.58,271.233 1769,262.5C 1761.14,253.931 1759.48,244.265 1764,233.5C 1765.17,232.107 1766.67,231.273 1768.5,231C 1776.55,230.822 1784.55,230.156 1792.5,229C 1794.96,227.542 1797.13,225.709 1799,223.5C 1821.57,178.626 1849.24,137.292 1882,99.5C 1886.93,94.5653 1892.43,90.3986 1898.5,87C 1900.44,86.2571 1902.27,86.4238 1904,87.5C 1904.81,92.3635 1904.14,97.0301 1902,101.5C 1898.26,109.324 1894.26,116.991 1890,124.5C 1873.42,151.334 1857.08,178.334 1841,205.5C 1834.12,218.591 1827.79,231.924 1822,245.5C 1816.96,256.776 1815.29,268.442 1817,280.5C 1818.22,287.648 1822.22,292.314 1829,294.5C 1834.76,293.457 1838.42,290.123 1840,284.5C 1840.21,280.911 1840.71,277.411 1841.5,274C 1839.02,258.042 1840.85,242.542 1847,227.5C 1867.85,179.598 1899.69,140.765 1942.5,111C 1966.57,96.1179 1992.74,90.2846 2021,93.5C 2051.19,92.7356 2081.02,95.5689 2110.5,102C 2113.28,102.892 2115.95,104.058 2118.5,105.5C 2119.89,106.591 2120.39,107.924 2120,109.5C 2117.11,112.361 2113.94,114.861 2110.5,117C 2099.68,122.243 2089.34,128.243 2079.5,135C 2095.6,136.882 2111.6,135.882 2127.5,132C 2135.58,129.798 2142.58,125.798 2148.5,120C 2150.96,118.438 2153.62,117.438 2156.5,117C 2168.5,116.333 2180.5,116.333 2192.5,117C 2224.51,118.917 2256.51,120.917 2288.5,123C 2298.17,123.667 2307.83,123.667 2317.5,123C 2321.72,121.891 2325.72,120.225 2329.5,118C 2335.28,111.94 2342.28,108.94 2350.5,109C 2351.13,109.75 2351.63,110.584 2352,111.5C 2353.2,119.438 2353.86,127.438 2354,135.5C 2354.41,143.902 2358.58,149.402 2366.5,152C 2373.96,154.149 2381.3,153.816 2388.5,151C 2390.87,149.257 2392.2,146.923 2392.5,144C 2391.6,138.976 2390.1,134.143 2388,129.5C 2383.14,121.112 2378.81,112.446 2375,103.5C 2370.88,91.2268 2374.71,88.0601 2386.5,94C 2406.29,105.597 2427.62,111.263 2450.5,111C 2467.07,111.312 2478.9,104.145 2486,89.5C 2487.58,87.9588 2489.41,86.7922 2491.5,86C 2507.43,83.9366 2523.43,82.6033 2539.5,82C 2552.53,80.9291 2555.03,75.0958 2547,64.5C 2546.22,61.5706 2546.39,58.7372 2547.5,56C 2552.5,55.3333 2557.5,55.3333 2562.5,56C 2573.84,58.6687 2585.17,61.3354 2596.5,64C 2599.5,64.6667 2602.5,64.6667 2605.5,64C 2598.14,52.1152 2590.64,40.2818 2583,28.5C 2581.75,25.9234 2581.42,23.2567 2582,20.5C 2582.78,18.7769 2584.11,17.7769 2586,17.5C 2597.87,22.3694 2609.04,28.536 2619.5,36C 2634.74,46.5682 2649.4,57.9015 2663.5,70C 2676.28,80.2241 2690.61,87.5574 2706.5,92C 2712.85,92.5945 2719.18,92.4278 2725.5,91.5C 2750.59,96.1264 2772.09,107.46 2790,125.5C 2793.4,129.503 2794.07,133.836 2792,138.5C 2791.25,139.126 2790.42,139.626 2789.5,140C 2784.58,141.161 2779.58,141.827 2774.5,142C 2773.57,142.388 2772.91,143.055 2772.5,144C 2780.24,153.377 2790.24,158.877 2802.5,160.5C 2804.92,160.406 2807.26,159.906 2809.5,159C 2815.35,155.077 2821.68,152.244 2828.5,150.5C 2836.84,152.501 2844.17,156.335 2850.5,162C 2869.11,178.109 2885.28,196.276 2899,216.5C 2901.25,221.637 2901.91,226.97 2901,232.5C 2897.33,235.5 2893.67,238.5 2890,241.5C 2887.21,244.967 2886.88,248.634 2889,252.5C 2892.26,258.693 2896.26,264.36 2901,269.5C 2909.36,277.53 2917.36,285.863 2925,294.5C 2927.71,297.933 2929.88,301.6 2931.5,305.5 Z"/></g>
<g><path style="opacity:0.94" fill="#000000" d="M 1172.5,138.5 C 1175.65,138.211 1178.65,138.711 1181.5,140C 1187.41,145.239 1192.58,151.072 1197,157.5C 1204.1,168.687 1210.43,180.354 1216,192.5C 1217.68,196.716 1218.85,201.049 1219.5,205.5C 1217.8,205.66 1216.13,205.494 1214.5,205C 1199.08,194.247 1185.58,181.414 1174,166.5C 1169.72,159.437 1168.39,151.77 1170,143.5C 1170.37,141.548 1171.2,139.882 1172.5,138.5 Z"/></g>
<g><path style="opacity:0.941" fill="#000000" d="M 1780.5,161.5 C 1791.84,160.003 1796.34,164.669 1794,175.5C 1788.41,188.423 1779.41,198.09 1767,204.5C 1765.53,204.097 1764.19,203.43 1763,202.5C 1759.56,190.796 1761.23,179.796 1768,169.5C 1771.58,165.724 1775.75,163.057 1780.5,161.5 Z"/></g>
<g><path style="opacity:0.933" fill="#000000" d="M 1191.5,224.5 C 1207.64,223.49 1220.8,229.156 1231,241.5C 1234.47,253.351 1230.3,256.851 1218.5,252C 1206.91,248.457 1196.41,242.957 1187,235.5C 1185.39,230.438 1186.89,226.772 1191.5,224.5 Z"/></g>
<g><path style="opacity:0.983" fill="#000000" d="M 2388.5,337.5 C 2446.01,337.273 2502.68,344.106 2558.5,358C 2588.3,369.451 2618.97,377.784 2650.5,383C 2660.17,386.003 2669.17,390.336 2677.5,396C 2688.64,406.137 2699.47,416.637 2710,427.5C 2710.39,417.475 2712.39,407.808 2716,398.5C 2721.84,387.998 2730.67,383.498 2742.5,385C 2743.83,385.667 2745.17,386.333 2746.5,387C 2749.39,390.647 2751.72,394.647 2753.5,399C 2758.23,401.822 2763.39,403.322 2769,403.5C 2790.93,400.225 2812.77,396.391 2834.5,392C 2850.92,390.885 2867.26,391.552 2883.5,394C 2898.9,396.383 2906.73,405.217 2907,420.5C 2905.94,426.562 2902.44,430.395 2896.5,432C 2891.9,433.061 2887.23,433.727 2882.5,434C 2880.5,434.667 2879.17,436 2878.5,438C 2880.07,441.572 2882.4,444.572 2885.5,447C 2891.23,450.062 2896.4,453.896 2901,458.5C 2902.18,462.274 2901.35,465.441 2898.5,468C 2893.15,469.781 2887.99,471.947 2883,474.5C 2881.44,476.957 2880.44,479.624 2880,482.5C 2880.97,499.446 2873.47,510.279 2857.5,515C 2842.39,517.228 2827.39,516.561 2812.5,513C 2783.42,505.864 2755.09,496.53 2727.5,485C 2672.36,461.096 2617.69,436.096 2563.5,410C 2530.09,393.962 2495.42,381.295 2459.5,372C 2441.57,368.842 2423.57,366.176 2405.5,364C 2392.39,362.408 2380.22,358.241 2369,351.5C 2367,349.167 2367,346.833 2369,344.5C 2375.01,340.548 2381.51,338.214 2388.5,337.5 Z"/></g>
<g><path style="opacity:0.956" fill="#000000" d="M 2716.5,513.5 C 2744.46,525.21 2772.79,536.043 2801.5,546C 2816.48,550.929 2831.81,553.929 2847.5,555C 2850.88,556.029 2852.04,558.196 2851,561.5C 2846.63,568.529 2840.46,573.363 2832.5,576C 2817.56,581.386 2802.23,584.72 2786.5,586C 2781.83,580.333 2777.17,574.667 2772.5,569C 2764.72,564.224 2757.22,559.057 2750,553.5C 2748.68,549.263 2747.68,544.929 2747,540.5C 2739.72,533.263 2731.55,527.096 2722.5,522C 2719.48,519.823 2717.48,516.989 2716.5,513.5 Z"/></g>
<g><path style="opacity:0.963" fill="#000000" d="M 1940.5,666.5 C 1941.87,666.343 1943.21,666.51 1944.5,667C 1950.62,676.396 1959.28,681.729 1970.5,683C 1977.5,683.333 1984.5,683.667 1991.5,684C 1992.5,684.5 1993.5,685 1994.5,685.5C 1997.62,692.455 2002.79,697.121 2010,699.5C 2011.23,704.201 2013.39,708.368 2016.5,712C 2026.61,715.027 2036.61,718.36 2046.5,722C 2049.87,726.454 2051.87,731.454 2052.5,737C 2050.83,737.667 2049.17,737.667 2047.5,737C 2017.08,728.649 1986.41,721.316 1955.5,715C 1944.21,713.314 1932.87,711.981 1921.5,711C 1914.5,709.892 1908.33,707.059 1903,702.5C 1897.55,693.142 1899.38,685.308 1908.5,679C 1918.49,672.829 1929.16,668.662 1940.5,666.5 Z"/></g>
</svg>
