<?xml version="1.0" encoding="utf-8"?>
<svg version="1.1" width="4524px" height="3184px" style="shape-rendering:geometricPrecision; text-rendering:geometricPrecision; image-rendering:optimizeQuality; fill-rule:evenodd; clip-rule:evenodd" xmlns="http://www.w3.org/2000/svg">
  <defs/>
  <g>
    <path style="opacity:0.996" fill="#000000" d="M 1964.5 -0.5 C 2002.5 -0.5 2040.5 -0.5 2078.5 -0.5 C 2164.7 2.461 2250.7 9.627 2336.5 21 C 2357.28 24.019 2377.95 27.686 2398.5 32 C 2499.83 55.5 2600.5 81.5 2700.5 110 C 2714.87 114.011 2728.87 119.011 2742.5 125 C 2774.83 139.556 2807.33 153.722 2840 167.5 C 2840.5 167.167 2841 166.833 2841.5 166.5 C 2834.29 155.448 2826.12 145.115 2817 135.5 C 2813.61 131.102 2810.61 126.435 2808 121.5 C 2807.1 118.975 2807.6 116.808 2809.5 115 C 2819.08 115.97 2828.08 118.97 2836.5 124 C 2843.34 128.253 2850.34 132.253 2857.5 136 C 2886.33 154.916 2915.33 173.583 2944.5 192 C 2950.27 195.439 2956.27 198.439 2962.5 201 C 2966.09 202.108 2969.75 202.608 2973.5 202.5 C 2973.66 200.801 2973.49 199.134 2973 197.5 C 2971.33 194.833 2969.67 192.167 2968 189.5 C 2954.62 173.79 2941.62 157.79 2929 141.5 C 2927.33 138.833 2925.67 136.167 2924 133.5 C 2923.5 131.527 2923.34 129.527 2923.5 127.5 C 2928.62 128.101 2933.28 129.934 2937.5 133 C 2949.78 141.615 2961.78 150.615 2973.5 160 C 3016.65 197.647 3059.65 235.481 3102.5 273.5 C 3102.83 273.333 3103.17 273.167 3103.5 273 C 3081.3 249.132 3059.46 224.965 3038 200.5 C 3028.83 189.657 3020.83 177.991 3014 165.5 C 3012.92 160.364 3014.92 157.364 3020 156.5 C 3027.41 157.968 3034.24 160.802 3040.5 165 C 3060.66 179.156 3079.66 194.823 3097.5 212 C 3129.61 243.762 3159.11 277.596 3186 313.5 C 3201 334.5 3216 355.5 3231 376.5 C 3236.59 384.098 3242.93 391.098 3250 397.5 C 3250.87 396.892 3251.37 396.059 3251.5 395 C 3247.22 382.606 3241.72 370.772 3235 359.5 C 3204.25 308.417 3169.25 260.417 3130 215.5 C 3104.67 188.833 3078.67 162.833 3052 137.5 C 3051.22 135.567 3051.72 134.067 3053.5 133 C 3063.41 133.559 3073.08 135.559 3082.5 139 C 3141.44 159.867 3200.44 180.534 3259.5 201 C 3299.11 217.97 3337.44 237.304 3374.5 259 C 3392.27 266.886 3410.27 274.22 3428.5 281 C 3448.71 290.264 3467.05 302.264 3483.5 317 C 3495 327.167 3505.83 338 3516 349.5 C 3519.97 354.242 3521.14 359.576 3519.5 365.5 C 3520.58 371.58 3522.75 377.247 3526 382.5 C 3531 389.833 3536 397.167 3541 404.5 C 3572.7 442.217 3600.7 482.55 3625 525.5 C 3646.93 566.627 3662.93 609.961 3673 655.5 C 3676.62 670.722 3677.29 686.056 3675 701.5 C 3670.86 712.308 3663.36 719.808 3652.5 724 C 3648.15 728.178 3645.99 733.345 3646 739.5 C 3644.78 757.487 3643.78 775.487 3643 793.5 C 3642.94 804.251 3640.94 814.584 3637 824.5 C 3631.85 828.328 3628.19 833.328 3626 839.5 C 3623.86 845.709 3622.2 852.042 3621 858.5 C 3619.92 870.199 3618.59 881.866 3617 893.5 C 3615.18 899.307 3611.85 903.973 3607 907.5 C 3597.86 902.028 3591.2 894.361 3587 884.5 C 3580.98 852.116 3572.32 820.45 3561 789.5 C 3541.59 733.937 3517.93 680.27 3490 628.5 C 3486.67 622.693 3482.51 617.526 3477.5 613 C 3476.55 612.517 3475.55 612.351 3474.5 612.5 C 3474.48 616.56 3474.98 620.56 3476 624.5 C 3487.12 669.989 3497.46 715.655 3507 761.5 C 3509.82 774.079 3510.66 786.746 3509.5 799.5 C 3507.8 799.66 3506.13 799.494 3504.5 799 C 3500.62 794.786 3497.12 790.286 3494 785.5 C 3485.41 769.992 3477.08 754.325 3469 738.5 C 3462.71 726.871 3454.87 716.371 3445.5 707 C 3442.78 704.849 3440.28 705.016 3438 707.5 C 3437.01 710.308 3436.17 713.141 3435.5 716 C 3447.73 766.21 3456.9 817.043 3463 868.5 C 3463.83 872.871 3463.66 877.205 3462.5 881.5 C 3456.77 873.711 3451.27 865.711 3446 857.5 C 3429.8 828.643 3412.8 800.309 3395 772.5 C 3393.02 769.84 3392.19 770.34 3392.5 774 C 3400.59 803.944 3410.09 833.444 3421 862.5 C 3435.23 900.952 3450.56 938.952 3467 976.5 C 3474.86 997.256 3480.52 1018.59 3484 1040.5 C 3485.57 1046.14 3488.24 1046.81 3492 1042.5 C 3502.99 1022.88 3511.66 1002.21 3518 980.5 C 3524.69 955.078 3531.69 929.745 3539 904.5 C 3539.79 902.099 3540.96 899.932 3542.5 898 C 3543.74 897.544 3544.58 898.044 3545 899.5 C 3547.54 925.44 3549.21 951.44 3550 977.5 C 3551.52 1028.84 3553.19 1080.18 3555 1131.5 C 3568.11 1092.62 3581.78 1053.95 3596 1015.5 C 3600.82 1003.02 3606.32 990.855 3612.5 979 C 3616.05 978.207 3617.88 979.707 3618 983.5 C 3618.63 1010.98 3620.96 1038.31 3625 1065.5 C 3633.79 1045.26 3643.12 1025.26 3653 1005.5 C 3655.58 999.416 3659.75 994.75 3665.5 991.5 C 3666.75 992.04 3667.91 992.707 3669 993.5 C 3671.46 1001.31 3673.13 1009.31 3674 1017.5 C 3674.47 1019.25 3675.14 1020.91 3676 1022.5 C 3676.72 1023.45 3677.55 1023.62 3678.5 1023 C 3683.21 1005.88 3689.71 989.377 3698 973.5 C 3700.78 970.716 3702.45 971.383 3703 975.5 C 3704.88 984.124 3706.55 992.79 3708 1001.5 C 3708.56 1003.61 3709.39 1005.61 3710.5 1007.5 C 3711 1008.52 3711.67 1008.69 3712.5 1008 C 3718.61 1000.94 3724.11 993.444 3729 985.5 C 3735.75 973.668 3742.75 962.001 3750 950.5 C 3753.81 944.842 3756.48 945.176 3758 951.5 C 3758.33 975.5 3758.67 999.5 3759 1023.5 C 3759.14 1033.27 3760.14 1042.93 3762 1052.5 C 3762.33 1052.83 3762.67 1053.17 3763 1053.5 C 3768.84 1047.32 3773.51 1040.32 3777 1032.5 C 3795.32 995.561 3806.65 956.561 3811 915.5 C 3823.6 827.119 3830.1 738.286 3830.5 649 C 3829.65 612.832 3829.15 576.665 3829 540.5 C 3850.43 554.47 3872.6 567.303 3895.5 579 C 3911.33 588.502 3926.33 599.168 3940.5 611 C 3968.12 638.626 3999.12 661.626 4033.5 680 C 4062.03 699.85 4088.2 722.683 4112 748.5 C 4119.06 755.956 4124.06 764.622 4127 774.5 C 4129.68 786.89 4132.51 799.223 4135.5 811.5 C 4134.45 811.649 4133.45 811.483 4132.5 811 C 4127.17 806.333 4121.83 801.667 4116.5 797 C 4115.67 796.312 4115 796.479 4114.5 797.5 C 4130.08 823.667 4145.92 849.667 4162 875.5 C 4178.85 903.546 4192.19 933.212 4202 964.5 C 4210.71 1001.82 4212.54 1039.49 4207.5 1077.5 C 4174.5 1041.81 4142.66 1005.14 4112 967.5 C 4102.61 956.432 4095.28 944.099 4090 930.5 C 4088.48 924.123 4089.98 918.623 4094.5 914 C 4099.73 912.026 4105.06 910.359 4110.5 909 C 4113.91 907.261 4116.24 904.594 4117.5 901 C 4116.19 896.366 4114.02 892.199 4111 888.5 C 4090.27 865.242 4066.77 845.408 4040.5 829 C 4003.91 806.874 3965.58 788.208 3925.5 773 C 3914.12 768.651 3902.45 765.318 3890.5 763 C 3886.83 762.333 3883.17 762.333 3879.5 763 C 3878.57 763.388 3877.91 764.055 3877.5 765 C 3879.76 769.519 3882.76 773.519 3886.5 777 C 3893.83 783 3901.17 789 3908.5 795 C 3943 817.084 3977.34 839.418 4011.5 862 C 4022.24 869.407 4032.41 877.574 4042 886.5 C 4043.58 888.624 4043.75 890.79 4042.5 893 C 4032.4 891.636 4022.74 888.636 4013.5 884 C 3989.08 871.956 3964.08 861.289 3938.5 852 C 3930.61 849.124 3922.61 848.458 3914.5 850 C 3911.61 852.909 3910.77 856.409 3912 860.5 C 3914.61 868.391 3918.28 875.724 3923 882.5 C 3942.57 908.742 3962.91 934.409 3984 959.5 C 3985.01 961.025 3985.51 962.692 3985.5 964.5 C 3964.51 965.809 3943.51 966.976 3922.5 968 C 3915.31 968.951 3908.64 971.285 3902.5 975 C 3898.54 981.197 3894.88 987.53 3891.5 994 C 3883.14 997.591 3874.47 1000.26 3865.5 1002 C 3853.1 1008.87 3841.77 1017.2 3831.5 1027 C 3807.05 1049.5 3785.55 1074.33 3767 1101.5 C 3764.42 1106.16 3762.26 1110.99 3760.5 1116 C 3764.18 1122.68 3769.51 1127.68 3776.5 1131 C 3809.95 1147.15 3844.28 1161.15 3879.5 1173 C 3928.24 1189.14 3976.91 1205.47 4025.5 1222 C 3971.09 1224.49 3916.76 1228.16 3862.5 1233 C 3823.74 1237.74 3785.4 1244.74 3747.5 1254 C 3749.63 1255.38 3751.97 1256.38 3754.5 1257 C 3786.55 1263.18 3817.88 1271.84 3848.5 1283 C 3858.3 1286.98 3866.8 1292.81 3874 1300.5 C 3875.3 1302.36 3875.63 1304.36 3875 1306.5 C 3872.44 1308.08 3869.6 1309.08 3866.5 1309.5 C 3842.23 1306.44 3817.9 1305.94 3793.5 1308 C 3781.58 1308.71 3771.74 1313.54 3764 1322.5 C 3763.55 1324.41 3764.39 1325.58 3766.5 1326 C 3776.14 1327.11 3785.81 1328.11 3795.5 1329 C 3809.91 1332.3 3813.41 1340.13 3806 1352.5 C 3790.72 1363.9 3774.22 1373.4 3756.5 1381 C 3734.93 1389.78 3713.6 1399.12 3692.5 1409 C 3717.7 1415.24 3743.04 1421.24 3768.5 1427 C 3778.77 1429.64 3788.43 1433.64 3797.5 1439 C 3806.91 1446.36 3809.07 1455.53 3804 1466.5 C 3795.45 1477.37 3784.62 1485.2 3771.5 1490 C 3736.4 1503.59 3701.06 1516.59 3665.5 1529 C 3658.55 1531.81 3651.89 1535.14 3645.5 1539 C 3643.79 1540.13 3643.29 1541.63 3644 1543.5 C 3647.36 1546.26 3651.19 1548.1 3655.5 1549 C 3662.39 1550.72 3669.39 1551.72 3676.5 1552 C 3770.88 1556.91 3865.21 1556.24 3959.5 1550 C 3976.9 1547.82 3993.56 1543.15 4009.5 1536 C 4013.13 1533.75 4014.29 1530.58 4013 1526.5 C 4009.79 1521.62 4005.62 1517.79 4000.5 1515 C 3986.85 1508.17 3973.51 1500.84 3960.5 1493 C 3958.58 1491.76 3958.25 1490.26 3959.5 1488.5 C 3979.79 1486.93 4000.13 1485.43 4020.5 1484 C 4043.02 1481.05 4064.69 1475.05 4085.5 1466 C 4108.55 1453.47 4131.88 1441.47 4155.5 1430 C 4159.74 1428.59 4164.07 1427.59 4168.5 1427 C 4178.83 1426.67 4189.17 1426.33 4199.5 1426 C 4192.67 1419.83 4185.83 1413.67 4179 1407.5 C 4176.23 1402.37 4177.56 1398.71 4183 1396.5 C 4183.67 1395.17 4183.67 1393.83 4183 1392.5 C 4177.98 1387.98 4172.81 1383.65 4167.5 1379.5 C 4148.91 1397.92 4129.58 1415.42 4109.5 1432 C 4098.59 1439.53 4086.59 1444.53 4073.5 1447 C 4060.26 1449.26 4046.93 1450.59 4033.5 1451 C 3998.17 1451.67 3962.83 1451.67 3927.5 1451 C 3911.01 1450.77 3894.68 1449.11 3878.5 1446 C 3870.62 1445.09 3865.62 1440.92 3863.5 1433.5 C 3864.78 1428.38 3867.78 1424.54 3872.5 1422 C 3878.93 1418.45 3885.6 1415.45 3892.5 1413 C 3921.29 1406.94 3948.62 1396.94 3974.5 1383 C 3993.01 1373.25 4010.67 1362.25 4027.5 1350 C 4036.27 1343.24 4044.43 1335.74 4052 1327.5 C 4056.33 1322.2 4058.33 1316.2 4058 1309.5 C 4052.46 1302.15 4045.62 1296.31 4037.5 1292 C 4022.29 1284.15 4006.96 1276.48 3991.5 1269 C 3989.6 1267.19 3989.1 1265.03 3990 1262.5 C 3992.21 1259.28 3995.05 1256.78 3998.5 1255 C 4015.22 1252.4 4031.56 1254.06 4047.5 1260 C 4093.32 1276.24 4137.99 1295.24 4181.5 1317 C 4195.05 1322.94 4208.72 1328.61 4222.5 1334 C 4232.12 1338.12 4242.12 1339.79 4252.5 1339 C 4255.29 1336.79 4256.12 1333.96 4255 1330.5 C 4248.64 1315.44 4240.97 1301.1 4232 1287.5 C 4213.18 1257.72 4191.34 1230.22 4166.5 1205 C 4145.28 1187.53 4120.95 1177.37 4093.5 1174.5 C 4090.79 1174.89 4088.46 1175.89 4086.5 1177.5 C 4089.4 1181.57 4093.07 1184.74 4097.5 1187 C 4112.34 1195.25 4127.34 1203.25 4142.5 1211 C 4152.07 1216.19 4160.57 1222.69 4168 1230.5 C 4168.89 1235.5 4166.72 1237.5 4161.5 1236.5 C 4145.26 1233.59 4129.59 1228.75 4114.5 1222 C 4070.75 1204.13 4029.42 1182.13 3990.5 1156 C 3987.67 1153.17 3984.83 1150.33 3982 1147.5 C 3981.1 1144.97 3981.6 1142.81 3983.5 1141 C 3996.36 1135.27 4009.69 1130.94 4023.5 1128 C 4026.93 1126.99 4027.77 1125.16 4026 1122.5 C 4021.42 1117.25 4016.26 1112.75 4010.5 1109 C 3989.51 1094.83 3968.17 1081.17 3946.5 1068 C 3938.48 1062.99 3930.81 1057.49 3923.5 1051.5 C 3924.53 1049.98 3926.03 1049.31 3928 1049.5 C 3953.04 1050.52 3977.88 1053.35 4002.5 1058 C 4013.41 1060.08 4023.74 1063.75 4033.5 1069 C 4036.63 1071.13 4039.46 1073.63 4042 1076.5 C 4049.93 1088.9 4061.1 1097.07 4075.5 1101 C 4090.75 1101.73 4105.09 1105.73 4118.5 1113 C 4140.43 1125.8 4160.77 1140.8 4179.5 1158 C 4219.07 1194.87 4252.57 1236.37 4280 1282.5 C 4303.78 1321.04 4325.78 1360.71 4346 1401.5 C 4349.61 1409.72 4352.94 1418.05 4356 1426.5 C 4357.39 1431.09 4357.73 1435.76 4357 1440.5 C 4356.5 1441 4356 1441.5 4355.5 1442 C 4350.15 1442.61 4344.82 1442.44 4339.5 1441.5 C 4334.08 1441.09 4331.41 1443.59 4331.5 1449 C 4333.56 1459.5 4337.39 1469.33 4343 1478.5 C 4356.15 1501.32 4371.98 1522.15 4390.5 1541 C 4394.59 1544.6 4399.26 1547.1 4404.5 1548.5 C 4408.86 1547.63 4411.36 1544.97 4412 1540.5 C 4412.67 1533.83 4412.67 1527.17 4412 1520.5 C 4408.18 1492.57 4405.01 1464.57 4402.5 1436.5 C 4402.3 1431.31 4403.13 1426.31 4405 1421.5 C 4408.7 1418.57 4412.03 1418.91 4415 1422.5 C 4426.54 1441.92 4436.21 1462.26 4444 1483.5 C 4470.8 1552.91 4493.8 1623.58 4513 1695.5 C 4517.71 1715.44 4521.21 1735.44 4523.5 1755.5 C 4523.5 1766.5 4523.5 1777.5 4523.5 1788.5 C 4517.79 1833.12 4502.29 1874.12 4477 1911.5 C 4471.24 1919.26 4464.74 1926.43 4457.5 1933 C 4449.61 1939.59 4443.11 1938.43 4438 1929.5 C 4433.8 1920.07 4430.3 1910.4 4427.5 1900.5 C 4408.15 1947.88 4383.65 1992.22 4354 2033.5 C 4342.33 2049.83 4330.67 2066.17 4319 2082.5 C 4314.43 2088.98 4310.93 2095.98 4308.5 2103.5 C 4315.72 2102.59 4322.72 2100.76 4329.5 2098 C 4341.51 2092.49 4353.85 2087.83 4366.5 2084 C 4380.62 2078.81 4388.45 2083.64 4390 2098.5 C 4392.71 2114.05 4394.38 2129.72 4395 2145.5 C 4397.86 2227.14 4399.02 2308.81 4398.5 2390.5 C 4398.33 2432.83 4398.17 2475.17 4398 2517.5 C 4397.74 2547.19 4396.74 2576.86 4395 2606.5 C 4393.77 2626.77 4390.77 2646.77 4386 2666.5 C 4373.71 2702.07 4361.71 2737.74 4350 2773.5 C 4349.33 2776.83 4349.33 2780.17 4350 2783.5 C 4354.69 2790.37 4357.85 2797.87 4359.5 2806 C 4351.69 2842.78 4337.19 2876.61 4316 2907.5 C 4305.27 2919.29 4292.1 2927.12 4276.5 2931 C 4271 2933.25 4266 2936.25 4261.5 2940 C 4233.93 2973.63 4205.76 3006.8 4177 3039.5 C 4167.76 3048.75 4157.92 3057.25 4147.5 3065 C 4101.24 3097.24 4053.91 3127.91 4005.5 3157 C 3966.02 3162.73 3927.35 3171.56 3889.5 3183.5 C 3888.17 3183.5 3886.83 3183.5 3885.5 3183.5 C 3882.69 3125.52 3880.19 3067.52 3878 3009.5 C 3876.12 2958.19 3871.12 2907.19 3863 2856.5 C 3854.58 2806.57 3838.58 2759.24 3815 2714.5 C 3805.59 2697.34 3795.92 2680.34 3786 2663.5 C 3764.92 2631.67 3744.58 2599.34 3725 2566.5 C 3714.93 2548.61 3706.59 2529.94 3700 2510.5 C 3694.67 2503.83 3689.33 2497.17 3684 2490.5 C 3664.94 2472.11 3646.61 2453.11 3629 2433.5 C 3620.55 2424.37 3621.38 2415.87 3631.5 2408 C 3645.61 2399.31 3660.95 2395.98 3677.5 2398 C 3687.28 2399.43 3696.95 2401.09 3706.5 2403 C 3701.21 2395.37 3694.87 2388.71 3687.5 2383 C 3673.89 2374.23 3659.89 2366.07 3645.5 2358.5 C 3645.17 2359.33 3644.83 2360.17 3644.5 2361 C 3646.43 2369.75 3647.76 2378.59 3648.5 2387.5 C 3642.5 2387.09 3636.5 2386.59 3630.5 2386 C 3622.82 2385.65 3619.49 2381.65 3620.5 2374 C 3620.47 2360.39 3625.8 2349.39 3636.5 2341 C 3651.54 2326.41 3667.88 2324.74 3685.5 2336 C 3689.5 2339.81 3693.84 2342.81 3698.5 2345 C 3691.79 2335.74 3685.95 2325.91 3681 2315.5 C 3678.89 2310.14 3679.06 2304.97 3681.5 2300 C 3685.14 2298.1 3688.8 2298.1 3692.5 2300 C 3698 2302.25 3703 2305.25 3707.5 2309 C 3715.69 2317.86 3725.02 2325.19 3735.5 2331 C 3739.17 2331.67 3742.83 2331.67 3746.5 2331 C 3742.53 2326.03 3738.2 2321.37 3733.5 2317 C 3705.64 2294.49 3676.81 2273.32 3647 2253.5 C 3645.07 2256.51 3644.24 2259.84 3644.5 2263.5 C 3645.53 2272.64 3646.2 2281.81 3646.5 2291 C 3646.58 2295.92 3646.08 2300.75 3645 2305.5 C 3641.42 2311.91 3636.92 2317.58 3631.5 2322.5 C 3620.35 2315.52 3613.85 2305.52 3612 2292.5 C 3609.71 2275.1 3610.04 2257.76 3613 2240.5 C 3616.93 2229.19 3624.93 2223.53 3637 2223.5 C 3652.17 2225.34 3666.34 2230.17 3679.5 2238 C 3704.33 2254.25 3729.33 2270.25 3754.5 2286 C 3761.83 2290 3769.17 2294 3776.5 2298 C 3785.66 2300.56 3794.32 2304.23 3802.5 2309 C 3826.67 2327.17 3850.83 2345.33 3875 2363.5 C 3876.83 2360.41 3876.49 2357.41 3874 2354.5 C 3850.9 2328.06 3826.4 2302.9 3800.5 2279 C 3817.41 2282.45 3834.41 2285.78 3851.5 2289 C 3858.19 2290.18 3864.85 2290.34 3871.5 2289.5 C 3870.76 2286.19 3869.09 2283.36 3866.5 2281 C 3819.38 2248.55 3771.71 2216.88 3723.5 2186 C 3721.09 2184.29 3718.42 2183.46 3715.5 2183.5 C 3715.95 2190.67 3718.11 2197.34 3722 2203.5 C 3736.03 2226.03 3749.87 2248.7 3763.5 2271.5 C 3762.28 2272.61 3760.94 2272.78 3759.5 2272 C 3702.08 2239.91 3660.92 2193.41 3636 2132.5 C 3633.23 2125.4 3631.39 2118.07 3630.5 2110.5 C 3630.57 2102.02 3634.07 2095.35 3641 2090.5 C 3642.44 2088.73 3643.44 2086.73 3644 2084.5 C 3641.02 2069.74 3644.02 2056.41 3653 2044.5 C 3661.42 2034.66 3668.59 2023.99 3674.5 2012.5 C 3674.28 2011.06 3673.78 2009.73 3673 2008.5 C 3665.94 2005.44 3661.94 2000.11 3661 1992.5 C 3662.05 1970.52 3662.71 1948.52 3663 1926.5 C 3661.43 1920.36 3658.09 1915.36 3653 1911.5 C 3650.27 1907.76 3647.93 1903.76 3646 1899.5 C 3642.64 1878.32 3638.3 1857.32 3633 1836.5 C 3612.41 1767 3587.08 1699.33 3557 1633.5 C 3548.93 1615 3538.59 1598 3526 1582.5 C 3510.97 1565.8 3494.97 1550.13 3478 1535.5 C 3472.22 1529.06 3467.22 1522.06 3463 1514.5 C 3460.4 1508.09 3459.06 1501.42 3459 1494.5 C 3457.51 1489.78 3454.34 1488.28 3449.5 1490 C 3420.86 1497.66 3392.53 1506.32 3364.5 1516 C 3330.75 1527.51 3296.09 1532.51 3260.5 1531 C 3199.79 1523.37 3139.12 1515.37 3078.5 1507 C 3053.58 1504.28 3028.58 1502.95 3003.5 1503 C 2993.39 1502.49 2983.39 1501.15 2973.5 1499 C 2970.98 1498.48 2968.98 1497.15 2967.5 1495 C 2969.21 1492.96 2971.21 1491.29 2973.5 1490 C 2991.99 1481.26 3010.32 1472.26 3028.5 1463 C 2984.38 1447.12 2938.88 1438.95 2892 1438.5 C 2865.17 1438.25 2838.67 1441.08 2812.5 1447 C 2790.55 1452.87 2768.55 1458.54 2746.5 1464 C 2742.83 1464.67 2739.17 1464.67 2735.5 1464 C 2732.71 1461.83 2731.88 1459 2733 1455.5 C 2736.08 1450.41 2739.92 1445.91 2744.5 1442 C 2750.66 1437.42 2756.99 1433.09 2763.5 1429 C 2784.15 1418.68 2804.15 1407.35 2823.5 1395 C 2831.97 1388.39 2830.64 1386.06 2819.5 1388 C 2804.05 1392.26 2788.71 1396.93 2773.5 1402 C 2756.01 1407.16 2738.18 1410.33 2720 1411.5 C 2705.47 1413.35 2702.14 1408.35 2710 1396.5 C 2719.62 1383.88 2729.62 1371.54 2740 1359.5 C 2741.24 1358.12 2741.41 1356.79 2740.5 1355.5 C 2723.34 1366.92 2706 1378.08 2688.5 1389 C 2668.74 1400.38 2647.74 1408.71 2625.5 1414 C 2606.27 1416.48 2587.27 1420.15 2568.5 1425 C 2552.12 1430.9 2535.62 1436.4 2519 1441.5 C 2515.6 1441.3 2513.27 1439.64 2512 1436.5 C 2508.24 1425.84 2506.24 1414.84 2506 1403.5 C 2505.67 1389.17 2505.33 1374.83 2505 1360.5 C 2504.87 1353.73 2504.04 1347.06 2502.5 1340.5 C 2500.13 1342.21 2497.96 1344.21 2496 1346.5 C 2489.73 1357.1 2483.06 1367.44 2476 1377.5 C 2469.94 1384.22 2462.44 1388.38 2453.5 1390 C 2418.67 1393.94 2388.34 1384.28 2362.5 1361 C 2352.83 1351.33 2343.17 1341.67 2333.5 1332 C 2330.08 1328.87 2326.24 1326.37 2322 1324.5 C 2300.22 1333.47 2279.72 1344.64 2260.5 1358 C 2252.99 1363.17 2247.32 1369.84 2243.5 1378 C 2246.23 1383.74 2249.4 1389.24 2253 1394.5 C 2260.33 1403.17 2267.67 1411.83 2275 1420.5 C 2277.55 1423.86 2279.38 1427.53 2280.5 1431.5 C 2276.82 1431.67 2273.15 1431.5 2269.5 1431 C 2261.92 1429.02 2254.26 1427.52 2246.5 1426.5 C 2236.07 1426.76 2230.9 1432.1 2231 1442.5 C 2224.14 1453.35 2215.98 1463.18 2206.5 1472 C 2180.21 1495.63 2152.21 1516.97 2122.5 1536 C 2110.56 1543.3 2097.9 1548.97 2084.5 1553 C 2075.96 1554.86 2068.3 1553.19 2061.5 1548 C 2054.79 1538.74 2047.96 1529.58 2041 1520.5 C 2027.55 1527.48 2014.05 1534.31 2000.5 1541 C 1992.78 1543.92 1984.78 1545.09 1976.5 1544.5 C 1964.27 1544.72 1952.27 1543.22 1940.5 1540 C 1935 1537.75 1930 1534.75 1925.5 1531 C 1919.83 1526 1914.17 1521 1908.5 1516 C 1796.39 1514.13 1685.06 1522.47 1574.5 1541 C 1461.32 1560.28 1353.65 1595.95 1251.5 1648 C 1150.99 1704.75 1057.32 1771.08 970.5 1847 C 958.269 1858.56 946.769 1870.73 936 1883.5 C 930.991 1891.51 926.491 1899.85 922.5 1908.5 C 937.001 1951.17 949.167 1994.5 959 2038.5 C 962.759 2057.295 966.502 2076.093 970.227 2094.895 C 967.567 2105.444 964.811 2114.849 961.933 2122.377 C 950.658 2151.874 931.032 2175.911 924.554 2186.94 C 921.666 2191.858 922.494 2190.081 919.457 2195.435 C 911.719 2209.077 881.234 2254.217 870.185 2285.484 C 859.399 2316.008 853.59 2362.524 853.194 2380.631 C 852.995 2389.735 857.684 2388.65 856.593 2397.621 C 854.382 2415.782 832.067 2478.554 822.612 2492.767 C 818.249 2499.326 816.305 2495.081 810.719 2501.262 C 798.074 2515.253 764.725 2577.716 747.854 2594.709 C 737.952 2604.683 731.744 2598.108 722.368 2610.001 C 706.458 2630.183 672.912 2707.218 660.446 2745.513 C 659.92 2743.38 659.604 2741.21 659.5 2739 C 660.778 2728.84 661.611 2718.67 662 2708.5 C 654.561 2716.96 649.228 2726.62 646 2737.5 C 644.171 2744.79 644.004 2752.12 645.5 2759.5 C 645.522 2761.96 645.022 2764.3 644 2766.5 C 634.559 2775.25 625.226 2784.25 616 2793.5 C 602.621 2812.92 591.288 2833.58 582 2855.5 C 566.421 2887.15 556.421 2920.48 552 2955.5 C 549.585 3008.97 545.418 3062.31 539.5 3115.5 C 486.27 3097.37 433.27 3078.53 380.5 3059 C 371.18 3055.01 362.513 3050.01 354.5 3044 C 338.718 3028.54 322.051 3014.21 304.5 3001 C 296.949 2996.56 288.949 2993.22 280.5 2991 C 267.933 2987.96 255.267 2985.46 242.5 2983.5 C 240.976 2981.14 238.976 2979.31 236.5 2978 C 220.036 2971.52 204.536 2963.35 190 2953.5 C 180.575 2938.99 171.909 2923.99 164 2908.5 C 150.177 2880.19 135.844 2852.19 121 2824.5 C 109.326 2797.81 100.659 2770.14 95 2741.5 C 81.989 2676.42 73.323 2610.75 69 2544.5 C 59.001 2408.45 59.667 2272.45 71 2136.5 C 74.798 2093.91 80.465 2051.58 88 2009.5 C 91.999 1985.84 98.332 1962.84 107 1940.5 C 113.965 1924.23 123.298 1909.56 135 1896.5 C 144.731 1886.69 154.231 1876.69 163.5 1866.5 C 139.663 1850.41 114.996 1835.58 89.5 1822 C 75.484 1813.4 62.65 1803.23 51 1791.5 C 46.574 1781.6 46.574 1771.6 51 1761.5 C 55.669 1750.82 61.836 1741.15 69.5 1732.5 C 71.713 1729.79 74.546 1728.12 78 1727.5 C 83.766 1730.93 89.266 1734.76 94.5 1739 C 103.232 1748.4 112.565 1757.07 122.5 1765 C 125.037 1766.84 127.871 1767.67 131 1767.5 C 136.152 1766.61 141.319 1766.44 146.5 1767 C 147.705 1773.45 148.871 1779.95 150 1786.5 C 154.783 1795.21 160.95 1796.38 168.5 1790 C 181.562 1776.48 187.729 1760.32 187 1741.5 C 183.04 1732.88 176.54 1727.04 167.5 1724 C 153.839 1719.29 140.006 1715.13 126 1711.5 C 114.395 1709.03 104.395 1703.7 96 1695.5 C 94.543 1691.26 94.209 1686.93 95 1682.5 C 97.679 1672.13 101.346 1662.13 106 1652.5 C 114.49 1634.85 123.49 1617.52 133 1600.5 C 169.165 1540.17 205.831 1480.17 243 1420.5 C 249.213 1408.74 254.879 1396.74 260 1384.5 C 264.473 1374.83 265.807 1364.83 264 1354.5 C 260.485 1351.41 256.319 1350.07 251.5 1350.5 C 240.562 1351.8 230.562 1355.63 221.5 1362 C 206.138 1373.35 191.971 1386.19 179 1400.5 C 121.553 1468.35 78.22 1544.68 49 1629.5 C 38.667 1659.17 28.333 1688.83 18 1718.5 C 16.116 1723.33 13.949 1728 11.5 1732.5 C 10.082 1722.39 9.416 1712.22 9.5 1702 C 10.147 1669.16 10.981 1636.33 12 1603.5 C 25.391 1579.99 36.058 1555.32 44 1529.5 C 49.018 1508.06 52.518 1486.39 54.5 1464.5 C 53.959 1462.46 53.292 1460.46 52.5 1458.5 C 51.3 1459.53 49.966 1460.36 48.5 1461 C 39.5 1470.67 30.5 1480.33 21.5 1490 C 16.868 1494.07 11.535 1495.41 5.5 1494 C 2.108 1492.46 0.108 1489.96 -0.5 1486.5 C -0.5 1473.5 -0.5 1460.5 -0.5 1447.5 C 1.509 1433.63 5.676 1420.3 12 1407.5 C 52.238 1332.29 99.904 1262.29 155 1197.5 C 160.289 1191.2 166.456 1186.04 173.5 1182 C 174.784 1181.32 175.951 1181.48 177 1182.5 C 177.561 1190.93 175.895 1198.93 172 1206.5 C 145.078 1258.68 118.411 1311.01 92 1363.5 C 88.073 1372.28 84.74 1381.28 82 1390.5 C 80.965 1393.65 81.632 1396.32 84 1398.5 C 87.216 1396.81 90.383 1394.97 93.5 1393 C 96.203 1389.96 99.203 1387.3 102.5 1385 C 138.135 1347.03 174.135 1309.36 210.5 1272 C 214.88 1267.95 219.546 1264.29 224.5 1261 C 230.357 1258.16 235.19 1259.33 239 1264.5 C 239.539 1267.53 240.206 1270.53 241 1273.5 C 245.578 1283 250.911 1292 257 1300.5 C 288.739 1344.37 324.572 1384.87 364.5 1422 C 368.827 1425.5 373.494 1428.5 378.5 1431 C 380.167 1431.67 381.833 1431.67 383.5 1431 C 384.531 1427.71 384.031 1424.54 382 1421.5 C 375.532 1414.57 369.532 1407.24 364 1399.5 C 358.207 1391 355.874 1381.66 357 1371.5 C 357.465 1370.07 358.299 1368.9 359.5 1368 C 362.167 1367.33 364.833 1367.33 367.5 1368 C 373.289 1371.29 379.289 1371.96 385.5 1370 C 389.216 1366.46 389.382 1362.63 386 1358.5 C 383.374 1355.77 380.207 1353.94 376.5 1353 C 367.523 1351.86 358.523 1350.86 349.5 1350 C 335.514 1349 326.68 1341.83 323 1328.5 C 321.943 1324.11 323.443 1320.95 327.5 1319 C 337.434 1317.6 347.434 1317.1 357.5 1317.5 C 357.333 1291.83 357.5 1266.16 358 1240.5 C 358.322 1226.91 360.322 1213.58 364 1200.5 C 371.398 1176.71 380.731 1153.71 392 1131.5 C 411.399 1093.69 432.066 1056.69 454 1020.5 C 529.042 898.474 610.709 781.141 699 668.5 C 743.222 614.931 790.389 563.764 840.5 515 C 779.325 556.953 718.658 599.953 658.5 644 C 655.328 645.752 652.328 647.752 649.5 650 C 647.35 651.59 645.017 652.257 642.5 652 C 704.75 592.069 769.083 534.736 835.5 480 C 868.335 453.855 903.335 430.855 940.5 411 C 967.614 394.172 992.447 374.338 1015 351.5 C 1019.91 346.179 1023.41 340.012 1025.5 333 C 1025.11 330.541 1023.78 328.874 1021.5 328 C 1017.83 327.333 1014.17 327.333 1010.5 328 C 999.734 330.477 989.401 334.144 979.5 339 C 944.221 358.301 910.555 379.968 878.5 404 C 802.911 460.901 730.244 521.568 660.5 586 C 630.317 613.831 603.484 644.331 580 677.5 C 532.408 749.315 490.408 824.648 454 903.5 C 410.358 997.448 370.025 1092.78 333 1189.5 C 330.846 1195.82 327.679 1201.48 323.5 1206.5 C 323.167 1204.5 322.833 1202.5 322.5 1200.5 C 325.832 1166.51 328.998 1132.51 332 1098.5 C 332.667 1089.17 332.667 1079.83 332 1070.5 C 331.654 1067.42 330.988 1064.42 330 1061.5 C 328.214 1058.1 325.714 1057.6 322.5 1060 C 314.921 1066.98 309.755 1075.48 307 1085.5 C 306.744 1093.04 305.41 1100.37 303 1107.5 C 296.814 1120 287.647 1122.83 275.5 1116 C 270.225 1109.49 267.891 1101.99 268.5 1093.5 C 270.938 1069.02 276.771 1045.35 286 1022.5 C 306.547 971.374 334.214 924.707 369 882.5 C 373.865 877.3 379.032 872.467 384.5 868 C 387.932 865.566 391.599 864.732 395.5 865.5 C 397.042 867.879 397.709 870.546 397.5 873.5 C 397.306 878.277 396.473 882.943 395 887.5 C 385.33 917.342 375.164 947.009 364.5 976.5 C 364.808 977.308 365.308 977.975 366 978.5 C 368.667 975.833 371.333 973.167 374 970.5 C 424.134 898.253 465.467 820.92 498 738.5 C 500.162 729.856 502.162 721.189 504 712.5 C 510.005 701.149 517.005 690.482 525 680.5 C 593.9 598.261 668.4 521.094 748.5 449 C 784.797 417.705 820.797 386.039 856.5 354 C 855.5 353.333 854.5 353.333 853.5 354 C 807.589 380.925 763.589 410.592 721.5 443 C 695.95 462.615 670.95 482.948 646.5 504 C 601.568 543.595 557.235 583.928 513.5 625 C 496.032 640.807 477.699 655.473 458.5 669 C 454.62 671.863 450.287 673.03 445.5 672.5 C 445.263 668.727 445.763 665.06 447 661.5 C 464.783 628.251 485.783 597.251 510 568.5 C 549.374 523.121 592.541 481.954 639.5 445 C 709.779 390.434 784.112 341.767 862.5 299 C 913.115 274.032 962.449 247.032 1010.5 218 C 1024.78 208.724 1038.78 199.057 1052.5 189 C 1086.86 158.992 1123.2 131.658 1161.5 107 C 1172.46 99.721 1184.13 93.721 1196.5 89 C 1219.54 85.099 1241.87 78.765 1263.5 70 C 1276.38 63.726 1289.38 57.726 1302.5 52 C 1312.19 48.244 1322.19 45.744 1332.5 44.5 C 1337.37 43.968 1339.53 45.968 1339 50.5 C 1326.31 64.191 1313.31 77.525 1300 90.5 C 1299.83 90.833 1299.67 91.167 1299.5 91.5 C 1301 91.833 1302.5 92.167 1304 92.5 C 1340.1 87.2 1376.27 82.366 1412.5 78 C 1512.61 67.284 1612.61 55.617 1712.5 43 C 1738.96 39.424 1765.29 35.09 1791.5 30 C 1817.01 22.72 1842.67 16.053 1868.5 10 C 1900.45 4.617 1932.45 1.117 1964.5 -0.5 Z"/>
  </g>
</svg>