<?xml version="1.0" encoding="UTF-8"?>
<!DOCTYPE svg PUBLIC "-//W3C//DTD SVG 1.1//EN" "http://www.w3.org/Graphics/SVG/1.1/DTD/svg11.dtd">
<svg xmlns="http://www.w3.org/2000/svg" version="1.1" width="793px" height="401px" style="shape-rendering:geometricPrecision; text-rendering:geometricPrecision; image-rendering:optimizeQuality; fill-rule:evenodd; clip-rule:evenodd" xmlns:xlink="http://www.w3.org/1999/xlink">
<g><path style="opacity:0.996" fill="#000000" d="M 389.5,-0.5 C 404.167,-0.5 418.833,-0.5 433.5,-0.5C 511.587,3.93959 585.253,24.4396 654.5,61C 712.823,92.8238 758.823,137.324 792.5,194.5C 792.5,198.167 792.5,201.833 792.5,205.5C 767.013,248.16 733.68,283.66 692.5,312C 631.806,352.02 565.473,378.353 493.5,391C 468.832,395.333 444.165,398.5 419.5,400.5C 404.167,400.5 388.833,400.5 373.5,400.5C 291.027,395.546 213.027,374.046 139.5,336C 92.3448,310.515 52.1781,276.682 19,234.5C 11.7081,224.237 5.20806,213.57 -0.5,202.5C -0.5,200.833 -0.5,199.167 -0.5,197.5C 14.0321,170.098 33.0321,145.932 56.5,125C 114.696,75.7296 181.03,41.3963 255.5,22C 299.599,10.2615 344.265,2.7615 389.5,-0.5 Z"/></g>
</svg>
