<?xml version="1.0" encoding="UTF-8"?>
<!DOCTYPE svg PUBLIC "-//W3C//DTD SVG 1.1//EN" "http://www.w3.org/Graphics/SVG/1.1/DTD/svg11.dtd">
<svg xmlns="http://www.w3.org/2000/svg" version="1.1" width="793px" height="401px" style="shape-rendering:geometricPrecision; text-rendering:geometricPrecision; image-rendering:optimizeQuality; fill-rule:evenodd; clip-rule:evenodd" xmlns:xlink="http://www.w3.org/1999/xlink">
<g><path style="opacity:0.996" fill="#000000" d="M 374.5,-0.5 C 389.167,-0.5 403.833,-0.5 418.5,-0.5C 500.554,4.2653 578.221,25.432 651.5,63C 701.693,89.6989 743.86,125.866 778,171.5C 782.858,179.231 787.691,186.898 792.5,194.5C 792.5,198.167 792.5,201.833 792.5,205.5C 767.013,248.16 733.68,283.66 692.5,312C 626.41,355.261 554.076,382.594 475.5,394C 456.41,396.707 437.41,398.874 418.5,400.5C 403.833,400.5 389.167,400.5 374.5,400.5C 292.446,395.735 214.779,374.568 141.5,337C 87.6599,308.831 43.4933,269.665 9,219.5C 5.02788,213.42 1.86121,207.087 -0.5,200.5C -0.5,200.167 -0.5,199.833 -0.5,199.5C 6.36783,184.094 15.2012,169.761 26,156.5C 72.9739,101.74 130.474,61.9064 198.5,37C 255.481,15.9721 314.147,3.47215 374.5,-0.5 Z"/></g>
</svg>
