<?xml version="1.0" standalone="no"?>
<!DOCTYPE svg PUBLIC "-//W3C//DTD SVG 20010904//EN"
 "http://www.w3.org/TR/2001/REC-SVG-20010904/DTD/svg10.dtd">
<svg version="1.0" xmlns="http://www.w3.org/2000/svg"
 width="256.000000pt" height="256.000000pt" viewBox="0 0 256.000000 256.000000"
 preserveAspectRatio="xMidYMid meet">

<g transform="translate(0.000000,256.000000) scale(0.100000,-0.100000)"
fill="#fff" stroke="none">
<path d="M1504 2546 c-60 -27 -95 -107 -74 -170 6 -19 27 -49 46 -66 l35 -30
282 0 282 0 -602 -602 c-522 -523 -603 -608 -612 -644 -28 -107 67 -202 174
-173 34 9 128 99 643 612 l602 602 0 -282 0 -282 30 -35 c36 -41 87 -60 133
-51 49 11 95 50 107 93 8 25 10 185 8 494 -3 444 -4 457 -24 485 -46 63 -42
63 -544 63 -360 -1 -462 -4 -486 -14z"/>
<path d="M375 2271 c-155 -20 -287 -123 -348 -271 l-22 -55 -3 -775 c-2 -570
0 -790 9 -830 34 -161 169 -296 329 -330 40 -8 266 -10 830 -8 l775 3 58 24
c112 45 200 136 249 259 22 55 22 66 23 404 0 335 -1 347 -21 374 -72 97 -200
92 -248 -10 -14 -29 -16 -79 -16 -348 0 -351 -2 -362 -71 -403 -33 -20 -52
-20 -786 -20 -743 0 -752 0 -779 21 -15 11 -37 33 -48 48 -21 27 -21 36 -21
779 0 734 0 753 20 786 41 69 52 71 405 71 285 0 319 2 350 18 47 25 85 98 75
148 -9 49 -60 103 -110 114 -44 11 -571 11 -650 1z"/>
</g>
</svg>
